<svg width="190" height="33" fill="none" xmlns="http://www.w3.org/2000/svg"><path d="M163.316 8.794a1.479 1.479 0 1 0 0 2.957 1.479 1.479 0 0 0 0-2.957Zm-3.91 1.271a1.479 1.479 0 1 0 0 2.957 1.479 1.479 0 0 0 0-2.957Zm-2.417 3.325a1.48 1.48 0 1 0 .001 2.96 1.48 1.48 0 0 0-.001-2.96Zm3.648 15.435a1.736 1.736 0 1 1 0-3.473 1.736 1.736 0 0 1 0 3.473Zm-10.131-2.433a1.607 1.607 0 1 1-.002-3.214 1.607 1.607 0 0 1 .002 3.214Zm5.216 1.095a1.735 1.735 0 1 1 0-3.472 1.735 1.735 0 1 1 0 3.472Zm7.594-2.431a1.48 1.48 0 1 1 .001-2.959 1.48 1.48 0 0 1-.001 2.96Zm-3.91-1.27a1.479 1.479 0 1 1-.001-2.957 1.479 1.479 0 0 1 .001 2.957Zm-2.417-3.327a1.479 1.479 0 1 1 0-2.958 1.479 1.479 0 0 1 0 2.958Zm-15.739 1.367a1.174 1.174 0 1 1 .002-2.348 1.174 1.174 0 0 1-.002 2.348Zm4.137 2.317a1.415 1.415 0 1 1-.002-2.83 1.415 1.415 0 0 1 .002 2.83Zm21.84-14.078a1.479 1.479 0 1 1-.001 2.957 1.479 1.479 0 0 1 .001-2.957Zm2.415 3.325a1.478 1.478 0 1 1 0 2.957 1.478 1.478 0 0 1 0-2.956Zm-3.648 15.435a1.737 1.737 0 1 0 0-3.47 1.737 1.737 0 0 0 0 3.47Zm10.132-2.433c.889 0 1.607-.72 1.607-1.609a1.606 1.606 0 0 0-3.215 0c0 .89.72 1.609 1.608 1.609Zm-5.216 1.095a1.735 1.735 0 1 0 0-3.471 1.735 1.735 0 0 0 0 3.47Zm-3.683-3.701a1.478 1.478 0 1 0 0-2.957 1.478 1.478 0 0 0 0 2.957Zm2.415-3.327a1.477 1.477 0 1 0 0-2.956 1.478 1.478 0 1 0 0 2.956Zm15.738 1.367a1.173 1.173 0 1 0 0-2.349 1.173 1.173 0 0 0 0 2.349Zm-4.135 2.317a1.413 1.413 0 1 0 0-2.83 1.415 1.415 0 0 0 0 2.83Z" fill="#EA482B"/><path d="M152.823 15.27a1.656 1.656 0 1 0 0 3.311 1.656 1.656 0 0 0 0-3.311Zm-4.353.209a1.447 1.447 0 1 0-.001 2.895 1.447 1.447 0 0 0 .001-2.895Zm-7.342.321a1.124 1.124 0 1 0 0 2.249 1.124 1.124 0 0 0 0-2.249Zm-3.451.08a1.044 1.044 0 1 0-.001 2.09 1.044 1.044 0 0 0 .001-2.09ZM163.316.85a1.735 1.735 0 1 0 0 3.472 1.735 1.735 0 1 0 0-3.471Zm-2.679 4.176a1.736 1.736 0 1 0 0 3.472 1.736 1.736 0 0 0 0-3.472ZM150.506 7.46a1.606 1.606 0 1 0 0 3.214 1.608 1.608 0 0 0 0-3.214Zm-1.49 4.12a1.494 1.494 0 1 0-.002 2.989 1.494 1.494 0 0 0 .002-2.989m-2.346-6.382a1.608 1.608 0 1 0 0 3.214 1.608 1.608 0 0 0 0-3.214Zm9.052 1.167a1.735 1.735 0 1 0 0 3.47 1.736 1.736 0 0 0 0-3.47Zm-2.082 4.297a1.687 1.687 0 1 0 0 3.374 1.687 1.687 0 0 0 0-3.374Zm3.937-9.235a1.736 1.736 0 1 0 .001 3.472 1.736 1.736 0 0 0-.001-3.472Zm-5.576 1.518a1.738 1.738 0 1 0 0 3.475 1.738 1.738 0 0 0 0-3.475Zm-10.751 9.08a1.174 1.174 0 1 0 .003 2.348 1.174 1.174 0 0 0-.003-2.348Zm3.478 1.748a1.254 1.254 0 1 0 0 2.509 1.254 1.254 0 0 0 0-2.51Zm-7.051-2.67a1.045 1.045 0 1 0 0 2.09 1.045 1.045 0 0 0 0-2.09Zm7.71-1.395a1.415 1.415 0 1 0-.001 2.83 1.415 1.415 0 0 0 .001-2.83Zm-3.541-1.766a1.319 1.319 0 1 0 0 2.637 1.319 1.319 0 0 0 0-2.637ZM163.316 33a1.736 1.736 0 1 1 0-3.474 1.736 1.736 0 0 1 0 3.474Zm-14.3-10.73a1.495 1.495 0 1 1 0-2.99 1.495 1.495 0 0 1 0 2.99m-2.346 6.382a1.608 1.608 0 1 1 0-3.216 1.608 1.608 0 0 1 0 3.216Zm6.97-5.463a1.687 1.687 0 1 1 .001-3.375 1.687 1.687 0 0 1-.001 3.375Zm3.937 9.234a1.736 1.736 0 1 1 .002-3.472 1.736 1.736 0 0 1-.002 3.472Zm-5.576-1.517A1.737 1.737 0 1 1 152 27.43a1.737 1.737 0 0 1 .001 3.475Zm-7.273-10.828a1.253 1.253 0 1 1-.002-2.509 1.253 1.253 0 0 1 .002 2.51Zm-7.051 2.669a1.044 1.044 0 1 1-.001-2.088 1.044 1.044 0 0 1 .001 2.088Zm4.169 3.162a1.319 1.319 0 1 1 0-2.637 1.319 1.319 0 0 1 0 2.637Zm31.962-10.639a1.656 1.656 0 1 1 .003 3.312 1.656 1.656 0 0 1-.003-3.312Zm4.354.209a1.447 1.447 0 1 1 .003 2.893 1.447 1.447 0 0 1-.003-2.893Zm7.34.321a1.125 1.125 0 1 1 .001 2.251 1.125 1.125 0 0 1-.001-2.25Zm3.453.08c.577 0 1.043.468 1.043 1.044a1.043 1.043 0 1 1-2.089 0c0-.576.469-1.043 1.046-1.043ZM165.994 5.026a1.736 1.736 0 1 1 .001 3.47 1.736 1.736 0 0 1-.001-3.47Zm10.132 2.434a1.607 1.607 0 1 1 0 3.215 1.607 1.607 0 0 1 0-3.215Zm1.49 4.12a1.494 1.494 0 1 1 0 2.988 1.494 1.494 0 0 1 0-2.988Zm2.345-6.382a1.608 1.608 0 1 1 0 3.216 1.608 1.608 0 0 1 0-3.216Zm-9.051 1.167a1.735 1.735 0 1 1 0 3.47 1.735 1.735 0 0 1 0-3.47Zm2.08 4.297a1.688 1.688 0 1 1 .003 3.375 1.688 1.688 0 0 1-.003-3.375Zm-3.936-9.235a1.736 1.736 0 1 1 0 3.472 1.736 1.736 0 0 1 0-3.472Zm5.577 1.518a1.737 1.737 0 1 1 0 3.474 1.737 1.737 0 0 1 0-3.474Zm10.749 9.08a1.173 1.173 0 1 1 .001 2.346 1.173 1.173 0 0 1-.001-2.346Zm-3.476 1.748a1.254 1.254 0 1 1 0 2.509 1.254 1.254 0 0 1 0-2.51Zm7.051-2.67a1.045 1.045 0 1 1 0 2.09 1.045 1.045 0 0 1 0-2.09Zm-7.71-1.395a1.414 1.414 0 1 1 0 2.827 1.414 1.414 0 0 1 0-2.827Zm3.541-1.766a1.318 1.318 0 1 1 0 2.636 1.318 1.318 0 0 1 0-2.636Zm-7.17 14.328a1.495 1.495 0 1 0-.002-2.989 1.495 1.495 0 0 0 .002 2.99Zm2.345 6.382a1.607 1.607 0 1 0 .002-3.214 1.607 1.607 0 0 0-.002 3.214Zm-6.971-5.463a1.688 1.688 0 1 0 .002-3.376 1.688 1.688 0 0 0-.002 3.376Zm-3.936 9.234a1.736 1.736 0 1 0 0-3.472 1.736 1.736 0 0 0 0 3.472Zm5.577-1.517a1.737 1.737 0 1 0 0-3.474 1.737 1.737 0 0 0 0 3.474Zm7.273-10.828a1.253 1.253 0 1 0 0-2.507 1.254 1.254 0 1 0 0 2.507Zm7.051 2.669a1.044 1.044 0 1 0 .001-2.088 1.044 1.044 0 0 0-.001 2.088Zm-4.169 3.162a1.318 1.318 0 1 0 0-2.637 1.318 1.318 0 0 0 0 2.637ZM14.517 11.054c-.046.211-.187.283-.352.283a.817.817 0 0 1-.235-.048c-.868-.188-2.771-.822-5.356-.822-4.299 0-5.638 1.691-5.638 6.79 0 5.168 1.315 6.764 5.803 6.764a15.26 15.26 0 0 0 3.124-.353v-5.402l-2.96-.352c-.14-.024-.282-.118-.282-.259v-1.597c0-.14.141-.258.306-.258h5.425c.213 0 .33.14.33.352v7.19c0 1.29-.141 1.878-1.27 2.253-1.174.376-3.499.588-4.767.588C2.16 26.183 0 23.833 0 17.209c0-6.084 1.926-8.997 8.198-8.997 3.336 0 5.85.822 6.225.963.258.094.4.212.4.422 0 .024 0 .071-.024.188l-.282 1.27m2.543 4.462c0-.963.424-1.268 1.434-1.597 1.01-.329 2.701-.634 4.628-.658.282 0 .54.048.54.4v1.34c0 .187-.047.35-.328.35-1.457 0-2.703.142-3.596.377v9.796c0 .211-.14.353-.352.353h-1.974c-.21 0-.352-.142-.352-.353V15.517ZM32.77 19.7l-3.57.587c-.964.164-1.88.305-1.88 1.903 0 2.02 1.644 2.16 2.913 2.16.962 0 1.855-.14 2.537-.375v-4.276Zm.564 6.155c-.776.186-1.88.328-3.172.328-2.349 0-5.567-.189-5.567-3.947 0-3.077 1.833-3.335 3.9-3.688l4.275-.705v-.868c0-.705-.047-1.223-.729-1.504-.399-.165-1.01-.236-1.925-.236-1.692 0-3.313.47-4.112.658-.118.024-.14.024-.165.024a.287.287 0 0 1-.281-.211l-.282-1.292c-.047-.236.118-.353.26-.4.656-.211 2.747-.775 5.049-.775 1.669 0 2.772.236 3.501.635 1.221.68 1.338 1.785 1.338 3.03v6.508c0 1.714-.47 2.067-2.09 2.443m15.012.023h-1.95c-.236 0-.377-.142-.377-.353V17.09c0-1.456-.54-1.926-1.925-1.926-1.528 0-3.125.4-3.477.494v9.866c0 .211-.14.353-.353.353h-1.95c-.21 0-.375-.142-.375-.353V15.54c0-.892.305-1.246 1.573-1.644 1.198-.353 3.313-.658 4.817-.658 2.866 0 4.369.8 4.369 3.5v8.786c0 .211-.14.353-.352.353Zm10.933-1.951c-.236.071-1.317.33-2.538.33-2.138 0-3.22-.447-3.22-4.58 0-3.925.917-4.512 3.148-4.512 1.176 0 2.35.259 2.61.329v8.433Zm2.254-15.381-1.903.376c-.235.046-.352.164-.352.423v4.282a13.372 13.372 0 0 0-3.171-.388c-4.158 0-5.31 2.208-5.31 6.507 0 4.652 1.316 6.437 5.897 6.437 1.668 0 2.865-.259 3.783-.493 1.408-.376 1.455-1.104 1.455-1.832V8.898c0-.21-.117-.399-.399-.352Zm20.561 17.332H80.17c-.236 0-.377-.142-.377-.353v-11.73c0-.188.164-.329.377-.329h1.925c.212 0 .352.142.352.33v11.729c0 .211-.14.353-.352.353Zm6.816.305c-2.043 0-3.923-.611-4.252-.752-.117-.047-.258-.165-.212-.329l.26-1.244c.046-.165.117-.26.258-.26.023 0 .07 0 .164.024.258.071 1.88.611 3.618.611 1.55 0 2.608-.493 2.608-1.739 0-1.573-1.151-1.55-2.726-1.831-1.668-.282-4.063-.683-4.063-3.665 0-3.22 2.865-3.76 4.932-3.76 1.95 0 3.477.424 3.807.518.187.047.28.164.258.352l-.211 1.27c-.024.163-.142.233-.33.21-.282-.047-1.878-.399-3.195-.399-1.338 0-2.607.329-2.607 1.621 0 1.362 1.269 1.503 2.725 1.715 1.95.306 4.063.634 4.063 3.735 0 3.054-2.326 3.923-5.097 3.923m17.766-11.018c-2.866 0-2.982 1.669-2.982 4.558 0 2.866.116 4.533 2.982 4.533 2.843 0 2.96-1.667 2.96-4.533 0-2.89-.117-4.558-2.96-4.558Zm0 11.018c-5.097 0-5.731-2.89-5.731-6.46 0-3.595.634-6.484 5.731-6.484 5.098 0 5.709 2.889 5.709 6.484 0 3.57-.611 6.46-5.709 6.46Zm18.353-.305h-1.951c-.235 0-.376-.142-.376-.353V17.09c0-1.456-.54-1.926-1.926-1.926-1.527 0-3.125.4-3.476.494v9.866c0 .211-.141.353-.352.353h-1.95c-.213 0-.376-.142-.376-.353V15.54c0-.892.304-1.246 1.573-1.644 1.198-.353 3.313-.658 4.817-.658 2.866 0 4.368.8 4.368 3.5v8.786c0 .211-.14.353-.351.353Zm-26.654 0h-1.927c-.235 0-.375-.142-.375-.353v-11.73c0-.188.163-.329.375-.329h1.927c.211 0 .35.142.35.33v11.729c0 .211-.139.353-.35.353ZM78.972 8.516h-2.2c-.212 0-.376.072-.444.307 0 0-4.399 14.05-4.466 14.256a.461.461 0 0 1-.453.329.463.463 0 0 1-.452-.33c-.066-.205-4.464-14.255-4.464-14.255-.069-.235-.233-.307-.445-.307h-2.201c-.268 0-.367.236-.299.448l5.372 16.538c.069.211.233.376.445.376h4.091c.21 0 .373-.165.443-.376L79.27 8.964c.07-.212-.031-.448-.299-.448" fill="#fff"/></svg>
