<svg width="190" height="38" fill="none" xmlns="http://www.w3.org/2000/svg"><path d="M19.24 36.925c9.982 0 18.073-8.092 18.073-18.074C37.313 8.869 29.221.777 19.24.777 9.258.777 1.166 8.87 1.166 18.851c0 9.982 8.092 18.074 18.074 18.074Z" fill="#fff"/><path d="m29.928 27.855-3.368-3.239c1.23-1.62 2.008-3.563 2.008-5.765 0-5.182-4.21-9.328-9.328-9.328-.324 0-.648 0-.972.064l-1.36-4.858 1.036-.26-.26-1.036-3.044.778.195.971 1.036-.259 1.36 4.794c-1.295.26-2.461.842-3.498 1.62L10.56 7.708l.777-.648-.712-.842-2.397 2.073.713.842.777-.713 3.11 3.628a9.38 9.38 0 0 0-2.98 6.867c0 5.182 4.21 9.328 9.328 9.328.842 0 1.62-.13 2.397-.324l1.166 4.73c.194.582.907 1.1.907 1.1.064 0 .259-.712.13-1.295l-1.167-4.794c1.231-.453 2.332-1.23 3.24-2.138l3.238 3.175c.454.453 1.296.453 1.36.453.065-.065-.064-.842-.518-1.296Zm-2.396-9.393c-1.231-2.397-3.24-5.247-5.636-7.45 3.11 1.037 5.441 3.952 5.636 7.45Zm-11.013-7.45c.389.195.777.454 1.166.713l.389.324c-.843.454-1.685.777-2.462.972.194-.907.453-1.555.648-1.944.065 0 .194 0 .259-.064Zm-.454 12.05c-.064-.26-.13-.519-.194-.713l-.065-.389c2.98-.518 5.571-1.62 7.903-3.303.065.13.13.259.26.453l.323.648c-2.655 1.879-5.376 2.98-8.227 3.304Zm-.518-2.268c-.065-.323-.13-.583-.13-.907l-.064-.388c2.915-.648 5.506-2.008 6.996-2.915.065.064.13.194.195.259l.518.777c-2.203 1.62-4.665 2.72-7.515 3.174Zm-.259-2.461c0-.389-.065-.713-.065-1.037v-.389c2.203-.453 4.017-1.165 5.571-2.267.13.13.195.26.324.389l.519.648c-2.009 1.23-4.34 2.202-6.349 2.656Zm0-2.591c0-.454.065-.843.13-1.231v-.195a9.04 9.04 0 0 0 3.627-1.425c.195.13.324.324.519.454l.453.453c-1.36.907-2.85 1.49-4.729 1.944Zm-4.34 3.109c0-1.36.324-2.591.907-3.692-.13 2.72.259 6.154 1.166 9.198a8.403 8.403 0 0 1-2.073-5.506Zm3.692 6.931c-1.749-4.016-2.138-9.328-1.62-12.437a7.34 7.34 0 0 1 1.75-1.426c-.972 3.24-.972 9.847 1.555 14.77a13.904 13.904 0 0 1-1.685-.907Zm1.814-1.554c2.85-.389 5.636-1.555 8.292-3.434.065.195.194.389.26.583l.193.519c-2.202 2.073-4.858 3.174-8.291 3.433-.065-.13-.13-.324-.195-.454l-.259-.647Zm9.07-.13s0 .13-.065.195c-1.49 1.748-3.758 2.85-6.284 2.85-.389 0-.842 0-1.23-.065l-.325-.065-.259-.518c3.174-.324 5.895-1.425 8.098-3.304.13.324.13.713.064.907Zm-7.58-13.41c.389-.064.842-.064 1.23-.064h.52c3.497 2.656 6.412 6.996 7.578 9.976 0 0 .065.13 0 .194-.194.713-.453 1.425-.777 2.008-.583-3.303-3.951-9.069-8.55-12.113Z" fill="#E32F82"/><path d="M47.29 9.523h4.47l2.98 11.984h.064l3.887-11.984h3.822L66.4 21.83h.064l3.11-12.308h4.146l-5.442 18.656h-3.692L60.44 15.223h-.065L56.23 28.18h-3.563L47.29 9.523Zm26.624 12.243c0-1.036.194-1.943.583-2.785a7.41 7.41 0 0 1 1.49-2.138 7.294 7.294 0 0 1 2.267-1.36c.843-.325 1.814-.454 2.786-.454s1.943.13 2.785.453a7.31 7.31 0 0 1 2.268 1.36 5.545 5.545 0 0 1 1.49 2.139c.388.842.583 1.748.583 2.785 0 1.037-.195 1.943-.583 2.786a7.41 7.41 0 0 1-1.49 2.137 7.293 7.293 0 0 1-2.268 1.36c-.842.325-1.813.454-2.785.454-.972 0-1.944-.13-2.786-.453a7.294 7.294 0 0 1-2.267-1.36 5.545 5.545 0 0 1-1.49-2.139c-.389-.842-.583-1.748-.583-2.785Zm3.952 0c0 .972.259 1.75.842 2.332.583.583 1.36.907 2.332.907.972 0 1.814-.324 2.332-.907.583-.583.842-1.36.842-2.332 0-.972-.259-1.75-.842-2.332-.583-.583-1.36-.907-2.332-.907-.972 0-1.75.324-2.332.907-.583.583-.842 1.36-.842 2.332ZM90.951 8.227h3.952v19.952h-3.952V8.227Zm7.45 7.126h3.628v1.684h.065c.129-.26.388-.453.647-.712.26-.26.583-.454.907-.648.324-.195.713-.324 1.102-.454a4.17 4.17 0 0 1 1.295-.194c.972 0 1.814.194 2.591.518a6.12 6.12 0 0 1 2.009 1.36c.583.584.971 1.296 1.295 2.073.324.778.454 1.685.454 2.656 0 .907-.13 1.75-.389 2.592a6.531 6.531 0 0 1-1.166 2.202c-.518.648-1.101 1.166-1.814 1.49-.713.389-1.555.583-2.462.583a6.78 6.78 0 0 1-2.332-.389 3.893 3.893 0 0 1-1.749-1.295h-.129v7.385h-3.952V15.353Zm3.628 6.413c0 .972.259 1.75.842 2.332.583.583 1.36.907 2.332.907.972 0 1.814-.324 2.332-.907.583-.583.842-1.36.842-2.332 0-.972-.259-1.75-.842-2.332-.583-.583-1.36-.907-2.332-.907-.972 0-1.749.324-2.332.907-.583.583-.842 1.36-.842 2.332Zm13.085-13.539h3.952v19.952h-3.952V8.227Zm19.24 17.75c-.648.777-1.425 1.425-2.397 1.878a6.87 6.87 0 0 1-2.98.648c-.972 0-1.943-.13-2.785-.453a7.29 7.29 0 0 1-2.268-1.36 5.544 5.544 0 0 1-1.49-2.139c-.388-.842-.583-1.748-.583-2.785 0-1.036.195-1.943.583-2.785a7.415 7.415 0 0 1 1.49-2.138 7.29 7.29 0 0 1 2.268-1.36c.842-.325 1.813-.454 2.785-.454.907 0 1.749.13 2.527.453.777.324 1.36.778 1.878 1.36.518.584.907 1.296 1.231 2.139.259.842.453 1.748.453 2.785v1.23h-9.198c.129.778.518 1.361 1.036 1.815.518.453 1.166.648 1.944.648.647 0 1.23-.13 1.619-.454.454-.26.842-.648 1.166-1.101l2.721 2.073Zm-3.369-5.636c0-.648-.194-1.231-.648-1.684a2.39 2.39 0 0 0-1.749-.713c-.453 0-.842.065-1.166.194-.324.13-.647.324-.842.519a1.772 1.772 0 0 0-.583.777 2.077 2.077 0 0 0-.194.907h5.182Zm6.414-9.005c0-.647.194-1.166.647-1.619.454-.454.972-.648 1.62-.648.648 0 1.166.194 1.619.648.454.453.648.972.648 1.62 0 .647-.194 1.165-.648 1.619-.453.453-.971.648-1.619.648s-1.166-.195-1.62-.648c-.388-.454-.647-.972-.647-1.62Zm.324 4.017h3.951v12.826h-3.951V15.353Zm7.32 0h3.822v1.749h.065c.129-.26.323-.518.518-.713a4.18 4.18 0 0 1 .842-.648c.324-.194.648-.323 1.101-.453.389-.13.842-.194 1.296-.194.971 0 1.814.13 2.397.453.647.324 1.101.713 1.425 1.296.324.518.583 1.166.712 1.943.13.713.195 1.555.195 2.397v7.061h-3.952V21.96c0-.388 0-.777-.065-1.166 0-.388-.129-.777-.259-1.101-.129-.324-.324-.583-.583-.842-.259-.194-.648-.324-1.166-.324-.518 0-.907.065-1.231.26-.324.193-.583.453-.712.712-.195.324-.259.648-.324 1.036-.065.389-.065.777-.065 1.231v6.413h-3.951V15.353h-.065Zm15.547 10.559c0-.324.065-.648.194-.972a2.34 2.34 0 0 1 .518-.777c.195-.194.454-.389.778-.518.324-.13.648-.195.971-.195a2.6 2.6 0 0 1 .972.195c.324.13.583.324.778.518.194.194.388.453.518.777.129.324.194.648.194.972 0 .324-.065.648-.194.972a2.34 2.34 0 0 1-.518.777 2.338 2.338 0 0 1-.778.518c-.324.13-.648.195-.972.195a2.6 2.6 0 0 1-.971-.195 2.338 2.338 0 0 1-.778-.518 2.34 2.34 0 0 1-.518-.777 2.61 2.61 0 0 1-.194-.972Zm8.033-10.559h3.822v1.749h.064c.13-.26.324-.518.519-.713a4.18 4.18 0 0 1 .842-.648c.324-.194.648-.323 1.101-.453.389-.13.842-.194 1.296-.194.971 0 1.813.13 2.396.453.648.324 1.102.713 1.426 1.296.324.518.583 1.166.712 1.943.13.777.195 1.555.195 2.397v7.061h-3.952V21.96c0-.388 0-.777-.065-1.166 0-.388-.129-.777-.259-1.101-.129-.324-.324-.583-.583-.842-.259-.194-.648-.324-1.166-.324-.518 0-.907.065-1.231.26-.324.193-.583.453-.712.712-.195.324-.26.648-.324 1.036-.065.389-.065.777-.065 1.231v6.413h-3.952V15.353h-.064Zm15.612-7.126h3.951v19.952h-3.951V8.227Z" fill="#fff"/></svg>
