<svg width="190" height="33" viewBox="0 0 190 33" fill="none" xmlns="http://www.w3.org/2000/svg">
<path d="M163.316 8.79372C162.5 8.79372 161.837 9.45676 161.837 10.2729C161.837 11.0899 162.5 11.7512 163.316 11.7512C164.132 11.7512 164.794 11.0899 164.794 10.2729C164.794 9.45676 164.132 8.79372 163.316 8.79372Z" fill="#EA482B"/>
<path d="M159.406 10.0646C158.588 10.0646 157.927 10.7277 157.927 11.5438C157.927 12.3608 158.588 13.023 159.406 13.023C160.222 13.023 160.884 12.3608 160.884 11.5438C160.884 10.7277 160.222 10.0646 159.406 10.0646Z" fill="#EA482B"/>
<path d="M156.989 13.3906C156.173 13.3906 155.51 14.0528 155.51 14.8698C155.51 15.6873 156.173 16.3486 156.989 16.3486C157.806 16.3486 158.468 15.6873 158.468 14.8698C158.468 14.0528 157.806 13.3906 156.989 13.3906Z" fill="#EA482B"/>
<path d="M160.637 28.8245C159.678 28.8245 158.901 28.0463 158.901 27.0888C158.901 26.1287 159.678 25.3518 160.637 25.3518C161.596 25.3518 162.373 26.1287 162.373 27.0888C162.373 28.0463 161.596 28.8245 160.637 28.8245Z" fill="#EA482B"/>
<path d="M150.506 26.3917C149.617 26.3917 148.898 25.6728 148.898 24.7834C148.898 23.8974 149.617 23.1772 150.506 23.1772C151.393 23.1772 152.113 23.8974 152.113 24.7834C152.113 25.6728 151.393 26.3917 150.506 26.3917Z" fill="#EA482B"/>
<path d="M155.722 27.4868C154.762 27.4868 153.986 26.7099 153.986 25.7506C153.986 24.7905 154.762 24.015 155.722 24.015C156.68 24.015 157.458 24.7905 157.458 25.7506C157.458 26.7099 156.68 27.4868 155.722 27.4868Z" fill="#EA482B"/>
<path d="M163.316 25.0562C162.5 25.0562 161.837 24.394 161.837 23.577C161.837 22.7608 162.5 22.0982 163.316 22.0982C164.132 22.0982 164.794 22.7608 164.794 23.577C164.794 24.394 164.132 25.0562 163.316 25.0562Z" fill="#EA482B"/>
<path d="M159.406 23.7858C158.588 23.7858 157.927 23.1236 157.927 22.3057C157.927 21.4896 158.588 20.8278 159.406 20.8278C160.222 20.8278 160.884 21.4896 160.884 22.3057C160.884 23.1236 160.222 23.7858 159.406 23.7858Z" fill="#EA482B"/>
<path d="M156.989 20.459C156.173 20.459 155.51 19.7978 155.51 18.9807C155.51 18.1637 156.173 17.5029 156.989 17.5029C157.806 17.5029 158.468 18.1637 158.468 18.9807C158.468 19.7978 157.806 20.459 156.989 20.459Z" fill="#EA482B"/>
<path d="M141.25 21.8255C140.603 21.8255 140.077 21.2999 140.077 20.6521C140.077 20.003 140.603 19.4774 141.25 19.4774C141.899 19.4774 142.424 20.003 142.424 20.6521C142.424 21.2999 141.899 21.8255 141.25 21.8255Z" fill="#EA482B"/>
<path d="M145.387 24.1427C144.605 24.1427 143.971 23.5098 143.971 22.7276C143.971 21.9473 144.605 21.3134 145.387 21.3134C146.167 21.3134 146.8 21.9473 146.8 22.7276C146.8 23.5098 146.167 24.1427 145.387 24.1427Z" fill="#EA482B"/>
<path d="M167.227 10.0646C168.044 10.0646 168.705 10.7277 168.705 11.5438C168.705 12.3608 168.044 13.023 167.227 13.023C166.409 13.023 165.747 12.3608 165.747 11.5438C165.747 10.7277 166.409 10.0646 167.227 10.0646Z" fill="#EA482B"/>
<path d="M169.642 13.3906C170.459 13.3906 171.12 14.0528 171.12 14.8698C171.12 15.6873 170.459 16.3486 169.642 16.3486C168.825 16.3486 168.163 15.6873 168.163 14.8698C168.163 14.0528 168.825 13.3906 169.642 13.3906Z" fill="#EA482B"/>
<path d="M165.994 28.8245C166.952 28.8245 167.731 28.0463 167.731 27.0888C167.731 26.1287 166.952 25.3518 165.994 25.3518C165.036 25.3518 164.258 26.1287 164.258 27.0888C164.258 28.0463 165.036 28.8245 165.994 28.8245Z" fill="#EA482B"/>
<path d="M176.126 26.3917C177.015 26.3917 177.733 25.6728 177.733 24.7834C177.733 23.8974 177.015 23.1772 176.126 23.1772C175.238 23.1772 174.518 23.8974 174.518 24.7834C174.518 25.6728 175.238 26.3917 176.126 26.3917Z" fill="#EA482B"/>
<path d="M170.91 27.4868C171.868 27.4868 172.645 26.7099 172.645 25.7506C172.645 24.7905 171.868 24.015 170.91 24.015C169.951 24.015 169.174 24.7905 169.174 25.7506C169.174 26.7099 169.951 27.4868 170.91 27.4868Z" fill="#EA482B"/>
<path d="M167.227 23.7858C168.044 23.7858 168.705 23.1236 168.705 22.3057C168.705 21.4896 168.044 20.8278 167.227 20.8278C166.409 20.8278 165.747 21.4896 165.747 22.3057C165.747 23.1236 166.409 23.7858 167.227 23.7858Z" fill="#EA482B"/>
<path d="M169.642 20.459C170.459 20.459 171.12 19.7978 171.12 18.9807C171.12 18.1637 170.459 17.5029 169.642 17.5029C168.825 17.5029 168.163 18.1637 168.163 18.9807C168.163 19.7978 168.825 20.459 169.642 20.459Z" fill="#EA482B"/>
<path d="M185.38 21.8255C186.03 21.8255 186.554 21.2999 186.554 20.6521C186.554 20.003 186.03 19.4774 185.38 19.4774C184.733 19.4774 184.208 20.003 184.208 20.6521C184.208 21.2999 184.733 21.8255 185.38 21.8255Z" fill="#EA482B"/>
<path d="M181.245 24.1427C182.027 24.1427 182.659 23.5098 182.659 22.7276C182.659 21.9473 182.027 21.3134 181.245 21.3134C180.465 21.3134 179.831 21.9473 179.831 22.7276C179.831 23.5098 180.465 24.1427 181.245 24.1427Z" fill="#EA482B"/>
<path d="M152.823 15.2697C151.909 15.2697 151.167 16.0108 151.167 16.9243C151.167 17.839 151.909 18.581 152.823 18.581C153.737 18.581 154.479 17.839 154.479 16.9243C154.479 16.0108 153.737 15.2697 152.823 15.2697Z" fill="white"/>
<path d="M148.47 15.4788C147.671 15.4788 147.022 16.1262 147.022 16.9244C147.022 17.724 147.671 18.3718 148.47 18.3718C149.268 18.3718 149.915 17.724 149.915 16.9244C149.915 16.1262 149.268 15.4788 148.47 15.4788Z" fill="white"/>
<path d="M141.128 15.8001C140.508 15.8001 140.004 16.3031 140.004 16.9242C140.004 17.5467 140.508 18.051 141.128 18.051C141.75 18.051 142.254 17.5467 142.254 16.9242C142.254 16.3031 141.75 15.8001 141.128 15.8001Z" fill="white"/>
<path d="M137.677 15.8805C137.1 15.8805 136.632 16.3476 136.632 16.9243C136.632 17.5027 137.1 17.9703 137.677 17.9703C138.254 17.9703 138.721 17.5027 138.721 16.9243C138.721 16.3476 138.254 15.8805 137.677 15.8805Z" fill="white"/>
<path d="M163.316 0.850542C162.356 0.850542 161.58 1.627 161.58 2.58666C161.58 3.54588 162.356 4.3219 163.316 4.3219C164.275 4.3219 165.051 3.54588 165.051 2.58666C165.051 1.627 164.275 0.850542 163.316 0.850542Z" fill="white"/>
<path d="M160.637 5.02639C159.678 5.02639 158.901 5.80328 158.901 6.7625C158.901 7.72172 159.678 8.49774 160.637 8.49774C161.596 8.49774 162.373 7.72172 162.373 6.7625C162.373 5.80328 161.596 5.02639 160.637 5.02639Z" fill="white"/>
<path d="M150.506 7.45952C149.617 7.45952 148.898 8.17796 148.898 9.06565C148.898 9.95377 149.617 10.674 150.506 10.674C151.393 10.674 152.113 9.95377 152.113 9.06565C152.113 8.17796 151.393 7.45952 150.506 7.45952Z" fill="white"/>
<path d="M149.016 11.5803C148.19 11.5803 147.521 12.2485 147.521 13.076C147.521 13.9 148.19 14.5692 149.016 14.5692C149.842 14.5692 150.511 13.9 150.511 13.076C150.511 12.2485 149.842 11.5803 149.016 11.5803" fill="white"/>
<path d="M146.67 5.19834C145.783 5.19834 145.062 5.91896 145.062 6.80664C145.062 7.69433 145.783 8.41364 146.67 8.41364C147.557 8.41364 148.277 7.69433 148.277 6.80664C148.277 5.91896 147.557 5.19834 146.67 5.19834Z" fill="white"/>
<path d="M155.722 6.36458C154.762 6.36458 153.986 7.14147 153.986 8.09939C153.986 9.05948 154.762 9.83594 155.722 9.83594C156.68 9.83594 157.458 9.05948 157.458 8.09939C157.458 7.14147 156.68 6.36458 155.722 6.36458Z" fill="white"/>
<path d="M153.64 10.6616C152.709 10.6616 151.953 11.4163 151.953 12.3489C151.953 13.2802 152.709 14.0361 153.64 14.0361C154.573 14.0361 155.328 13.2802 155.328 12.3489C155.328 11.4163 154.573 10.6616 153.64 10.6616Z" fill="white"/>
<path d="M157.577 1.42725C156.619 1.42725 155.842 2.20457 155.842 3.16336C155.842 4.12215 156.619 4.89948 157.577 4.89948C158.536 4.89948 159.314 4.12215 159.314 3.16336C159.314 2.20457 158.536 1.42725 157.577 1.42725Z" fill="white"/>
<path d="M152.001 2.94523C151.041 2.94523 150.263 3.72299 150.263 4.68265C150.263 5.64013 151.041 6.41876 152.001 6.41876C152.96 6.41876 153.737 5.64013 153.737 4.68265C153.737 3.72299 152.96 2.94523 152.001 2.94523Z" fill="white"/>
<path d="M141.25 12.0247C140.603 12.0247 140.077 12.5508 140.077 13.1986C140.077 13.8459 140.603 14.3715 141.25 14.3715C141.899 14.3715 142.424 13.8459 142.424 13.1986C142.424 12.5508 141.899 12.0247 141.25 12.0247Z" fill="white"/>
<path d="M144.728 13.7728C144.036 13.7728 143.474 14.3342 143.474 15.0269C143.474 15.7191 144.036 16.2805 144.728 16.2805C145.421 16.2805 145.981 15.7191 145.981 15.0269C145.981 14.3342 145.421 13.7728 144.728 13.7728Z" fill="white"/>
<path d="M137.677 11.1031C137.1 11.1031 136.632 11.5703 136.632 12.1478C136.632 12.7245 137.1 13.1921 137.677 13.1921C138.254 13.1921 138.721 12.7245 138.721 12.1478C138.721 11.5703 138.254 11.1031 137.677 11.1031Z" fill="white"/>
<path d="M145.387 9.70762C144.605 9.70762 143.971 10.341 143.971 11.1218C143.971 11.9035 144.605 12.5364 145.387 12.5364C146.167 12.5364 146.8 11.9035 146.8 11.1218C146.8 10.341 146.167 9.70762 145.387 9.70762Z" fill="white"/>
<path d="M141.846 7.94177C141.117 7.94177 140.527 8.5324 140.527 9.26C140.527 9.9889 141.117 10.5795 141.846 10.5795C142.573 10.5795 143.163 9.9889 143.163 9.26C143.163 8.5324 142.573 7.94177 141.846 7.94177Z" fill="white"/>
<path d="M163.316 33C162.356 33 161.58 32.2231 161.58 31.2635C161.58 30.3051 162.356 29.5273 163.316 29.5273C164.275 29.5273 165.051 30.3051 165.051 31.2635C165.051 32.2231 164.275 33 163.316 33Z" fill="white"/>
<path d="M149.016 22.2709C148.19 22.2709 147.521 21.6014 147.521 20.7747C147.521 19.9494 148.19 19.2807 149.016 19.2807C149.842 19.2807 150.511 19.9494 150.511 20.7747C150.511 21.6014 149.842 22.2709 149.016 22.2709" fill="white"/>
<path d="M146.67 28.6524C145.783 28.6524 145.062 27.9327 145.062 27.045C145.062 26.1568 145.783 25.438 146.67 25.438C147.557 25.438 148.277 26.1568 148.277 27.045C148.277 27.9327 147.557 28.6524 146.67 28.6524Z" fill="white"/>
<path d="M153.64 23.1887C152.709 23.1887 151.953 22.4336 151.953 21.501C151.953 20.5697 152.709 19.8138 153.64 19.8138C154.573 19.8138 155.328 20.5697 155.328 21.501C155.328 22.4336 154.573 23.1887 153.64 23.1887Z" fill="white"/>
<path d="M157.577 32.4233C156.619 32.4233 155.842 31.6451 155.842 30.6877C155.842 29.7284 156.619 28.9516 157.577 28.9516C158.536 28.9516 159.314 29.7284 159.314 30.6877C159.314 31.6451 158.536 32.4233 157.577 32.4233Z" fill="white"/>
<path d="M152.001 30.9056C151.041 30.9056 150.263 30.1278 150.263 29.1686C150.263 28.2089 151.041 27.432 152.001 27.432C152.96 27.432 153.737 28.2089 153.737 29.1686C153.737 30.1278 152.96 30.9056 152.001 30.9056Z" fill="white"/>
<path d="M144.728 20.0781C144.036 20.0781 143.474 19.5159 143.474 18.8231C143.474 18.1304 144.036 17.5708 144.728 17.5708C145.421 17.5708 145.981 18.1304 145.981 18.8231C145.981 19.5159 145.421 20.0781 144.728 20.0781Z" fill="white"/>
<path d="M137.677 22.7471C137.1 22.7471 136.632 22.2804 136.632 21.7024C136.632 21.1257 137.1 20.6581 137.677 20.6581C138.254 20.6581 138.721 21.1257 138.721 21.7024C138.721 22.2804 138.254 22.7471 137.677 22.7471Z" fill="white"/>
<path d="M141.846 25.9089C141.117 25.9089 140.527 25.3183 140.527 24.5903C140.527 23.8618 141.117 23.2712 141.846 23.2712C142.573 23.2712 143.163 23.8618 143.163 24.5903C143.163 25.3183 142.573 25.9089 141.846 25.9089Z" fill="white"/>
<path d="M173.808 15.2697C174.724 15.2697 175.466 16.0108 175.466 16.9243C175.466 17.839 174.724 18.581 173.808 18.581C172.894 18.581 172.154 17.839 172.154 16.9243C172.154 16.0108 172.894 15.2697 173.808 15.2697Z" fill="white"/>
<path d="M178.162 15.4788C178.962 15.4788 179.61 16.1262 179.61 16.9244C179.61 17.724 178.962 18.3718 178.162 18.3718C177.364 18.3718 176.716 17.724 176.716 16.9244C176.716 16.1262 177.364 15.4788 178.162 15.4788Z" fill="white"/>
<path d="M185.502 15.8001C186.123 15.8001 186.628 16.3031 186.628 16.9242C186.628 17.5467 186.123 18.051 185.502 18.051C184.881 18.051 184.377 17.5467 184.377 16.9242C184.377 16.3031 184.881 15.8001 185.502 15.8001Z" fill="white"/>
<path d="M188.955 15.8805C189.532 15.8805 189.998 16.3476 189.998 16.9243C189.998 17.5027 189.532 17.9703 188.955 17.9703C188.378 17.9703 187.909 17.5027 187.909 16.9243C187.909 16.3476 188.378 15.8805 188.955 15.8805Z" fill="white"/>
<path d="M165.994 5.02639C166.952 5.02639 167.731 5.80328 167.731 6.7625C167.731 7.72172 166.952 8.49774 165.994 8.49774C165.036 8.49774 164.258 7.72172 164.258 6.7625C164.258 5.80328 165.036 5.02639 165.994 5.02639Z" fill="white"/>
<path d="M176.126 7.45952C177.015 7.45952 177.733 8.17796 177.733 9.06565C177.733 9.95377 177.015 10.674 176.126 10.674C175.238 10.674 174.518 9.95377 174.518 9.06565C174.518 8.17796 175.238 7.45952 176.126 7.45952Z" fill="white"/>
<path d="M177.616 11.5803C178.441 11.5803 179.11 12.2485 179.11 13.076C179.11 13.9 178.441 14.5692 177.616 14.5692C176.79 14.5692 176.121 13.9 176.121 13.076C176.121 12.2485 176.79 11.5803 177.616 11.5803Z" fill="white"/>
<path d="M179.961 5.19834C180.85 5.19834 181.569 5.91896 181.569 6.80664C181.569 7.69433 180.85 8.41364 179.961 8.41364C179.074 8.41364 178.355 7.69433 178.355 6.80664C178.355 5.91896 179.074 5.19834 179.961 5.19834Z" fill="white"/>
<path d="M170.91 6.36458C171.868 6.36458 172.645 7.14147 172.645 8.09939C172.645 9.05948 171.868 9.83594 170.91 9.83594C169.951 9.83594 169.174 9.05948 169.174 8.09939C169.174 7.14147 169.951 6.36458 170.91 6.36458Z" fill="white"/>
<path d="M172.99 10.6616C173.923 10.6616 174.679 11.4163 174.679 12.3489C174.679 13.2802 173.923 14.0361 172.99 14.0361C172.058 14.0361 171.303 13.2802 171.303 12.3489C171.303 11.4163 172.058 10.6616 172.99 10.6616Z" fill="white"/>
<path d="M169.054 1.42725C170.013 1.42725 170.79 2.20457 170.79 3.16336C170.79 4.12215 170.013 4.89948 169.054 4.89948C168.095 4.89948 167.318 4.12215 167.318 3.16336C167.318 2.20457 168.095 1.42725 169.054 1.42725Z" fill="white"/>
<path d="M174.631 2.94523C175.591 2.94523 176.368 3.72299 176.368 4.68265C176.368 5.64013 175.591 6.41876 174.631 6.41876C173.674 6.41876 172.896 5.64013 172.896 4.68265C172.896 3.72299 173.674 2.94523 174.631 2.94523Z" fill="white"/>
<path d="M185.38 12.0247C186.03 12.0247 186.554 12.5508 186.554 13.1986C186.554 13.8459 186.03 14.3715 185.38 14.3715C184.733 14.3715 184.208 13.8459 184.208 13.1986C184.208 12.5508 184.733 12.0247 185.38 12.0247Z" fill="white"/>
<path d="M181.904 13.7728C182.596 13.7728 183.158 14.3342 183.158 15.0269C183.158 15.7191 182.596 16.2805 181.904 16.2805C181.212 16.2805 180.649 15.7191 180.649 15.0269C180.649 14.3342 181.212 13.7728 181.904 13.7728Z" fill="white"/>
<path d="M188.955 11.1031C189.532 11.1031 190 11.5703 190 12.1478C190 12.7245 189.532 13.1921 188.955 13.1921C188.379 13.1921 187.909 12.7245 187.909 12.1478C187.909 11.5703 188.379 11.1031 188.955 11.1031Z" fill="white"/>
<path d="M181.245 9.70762C182.027 9.70762 182.659 10.341 182.659 11.1218C182.659 11.9035 182.027 12.5364 181.245 12.5364C180.465 12.5364 179.831 11.9035 179.831 11.1218C179.831 10.341 180.465 9.70762 181.245 9.70762Z" fill="white"/>
<path d="M184.786 7.94177C185.514 7.94177 186.104 8.5324 186.104 9.26C186.104 9.9889 185.514 10.5795 184.786 10.5795C184.059 10.5795 183.468 9.9889 183.468 9.26C183.468 8.5324 184.059 7.94177 184.786 7.94177Z" fill="white"/>
<path d="M177.616 22.2709C178.441 22.2709 179.11 21.6014 179.11 20.7747C179.11 19.9494 178.441 19.2807 177.616 19.2807C176.79 19.2807 176.121 19.9494 176.121 20.7747C176.121 21.6014 176.79 22.2709 177.616 22.2709Z" fill="white"/>
<path d="M179.961 28.6524C180.85 28.6524 181.569 27.9327 181.569 27.045C181.569 26.1568 180.85 25.438 179.961 25.438C179.074 25.438 178.355 26.1568 178.355 27.045C178.355 27.9327 179.074 28.6524 179.961 28.6524Z" fill="white"/>
<path d="M172.99 23.1887C173.923 23.1887 174.679 22.4336 174.679 21.501C174.679 20.5697 173.923 19.8138 172.99 19.8138C172.058 19.8138 171.303 20.5697 171.303 21.501C171.303 22.4336 172.058 23.1887 172.99 23.1887Z" fill="white"/>
<path d="M169.054 32.4233C170.013 32.4233 170.79 31.6451 170.79 30.6877C170.79 29.7284 170.013 28.9516 169.054 28.9516C168.095 28.9516 167.318 29.7284 167.318 30.6877C167.318 31.6451 168.095 32.4233 169.054 32.4233Z" fill="white"/>
<path d="M174.631 30.9056C175.591 30.9056 176.368 30.1278 176.368 29.1686C176.368 28.2089 175.591 27.432 174.631 27.432C173.674 27.432 172.896 28.2089 172.896 29.1686C172.896 30.1278 173.674 30.9056 174.631 30.9056Z" fill="white"/>
<path d="M181.904 20.0781C182.596 20.0781 183.158 19.5159 183.158 18.8231C183.158 18.1304 182.596 17.5708 181.904 17.5708C181.212 17.5708 180.649 18.1304 180.649 18.8231C180.649 19.5159 181.212 20.0781 181.904 20.0781Z" fill="white"/>
<path d="M188.955 22.7471C189.532 22.7471 190 22.2804 190 21.7024C190 21.1257 189.532 20.6581 188.955 20.6581C188.379 20.6581 187.909 21.1257 187.909 21.7024C187.909 22.2804 188.379 22.7471 188.955 22.7471Z" fill="white"/>
<path d="M184.786 25.9089C185.514 25.9089 186.104 25.3183 186.104 24.5903C186.104 23.8618 185.514 23.2712 184.786 23.2712C184.059 23.2712 183.468 23.8618 183.468 24.5903C183.468 25.3183 184.059 25.9089 184.786 25.9089Z" fill="white"/>
<path d="M14.5167 11.0544C14.4707 11.2651 14.3296 11.3366 14.1654 11.3366C14.0945 11.3366 14.0004 11.3131 13.9301 11.2891C13.0617 11.1006 11.1586 10.4668 8.57374 10.4668C4.2752 10.4668 2.93591 12.1584 2.93591 17.2564C2.93591 22.4246 4.25081 24.0211 8.73867 24.0211C10.1954 24.0211 11.5575 23.7398 11.8628 23.6682V18.2662L8.90294 17.9142C8.76235 17.8902 8.62094 17.7964 8.62094 17.6551V16.0581C8.62094 15.9172 8.76235 15.8003 8.92711 15.8003H14.3523C14.5645 15.8003 14.6811 15.9404 14.6811 16.1524V23.3411C14.6811 24.6318 14.5408 25.2198 13.4129 25.5945C12.2384 25.9714 9.91303 26.1826 8.6448 26.1826C2.16076 26.1826 0 23.8336 0 17.2089C0 11.125 1.92564 8.2116 8.19785 8.2116C11.5342 8.2116 14.0476 9.0343 14.4232 9.17519C14.6811 9.26898 14.8228 9.38675 14.8228 9.59744C14.8228 9.62143 14.8228 9.66811 14.7993 9.78545L14.5167 11.0544" fill="white"/>
<path d="M17.0604 15.5168C17.0604 14.5541 17.4835 14.2487 18.4938 13.9203C19.5032 13.5914 21.1953 13.2856 23.1216 13.2624C23.4038 13.2624 23.662 13.31 23.662 13.6625V15.0012C23.662 15.1892 23.6145 15.3528 23.3335 15.3528C21.877 15.3528 20.6312 15.4937 19.7383 15.7288V25.5247C19.7383 25.7363 19.5974 25.8776 19.3863 25.8776H17.4124C17.2022 25.8776 17.0604 25.7363 17.0604 25.5247V15.5168Z" fill="white"/>
<path d="M32.7696 19.6992L29.1992 20.2867C28.2356 20.4512 27.3205 20.5921 27.3205 22.1904C27.3205 24.21 28.9637 24.3509 30.2326 24.3509C31.1953 24.3509 32.0882 24.21 32.7696 23.9749V19.6992ZM33.3336 25.8545C32.5585 26.0412 31.4549 26.1826 30.1624 26.1826C27.8134 26.1826 24.5946 25.9941 24.5946 22.2362C24.5946 19.1587 26.4276 18.9009 28.4948 18.548L32.7696 17.8427V16.9746C32.7696 16.2697 32.7229 15.7524 32.0411 15.471C31.6424 15.3061 31.0317 15.2354 30.1157 15.2354C28.4241 15.2354 26.8031 15.7057 26.0044 15.8933C25.8862 15.9172 25.8635 15.9172 25.8395 15.9172C25.7462 15.9172 25.6049 15.8693 25.5578 15.7057L25.2764 14.4136C25.2293 14.1781 25.3942 14.0612 25.5351 14.0149C26.1924 13.8029 28.2832 13.2389 30.5846 13.2389C32.254 13.2389 33.3572 13.4745 34.0861 13.874C35.3075 14.5545 35.4244 15.6586 35.4244 16.9044V23.4118C35.4244 25.1261 34.9546 25.4789 33.3336 25.8545" fill="white"/>
<path d="M48.3462 25.8776H46.3959C46.1604 25.8776 46.0195 25.7363 46.0195 25.5247V17.0911C46.0195 15.635 45.4799 15.1652 44.0941 15.1652C42.5665 15.1652 40.9686 15.5648 40.6166 15.6585V25.5247C40.6166 25.7363 40.477 25.8776 40.2637 25.8776H38.3143C38.1032 25.8776 37.9387 25.7363 37.9387 25.5247V15.5408C37.9387 14.6487 38.2441 14.2954 39.5121 13.8967C40.7104 13.5442 42.8251 13.2389 44.3288 13.2389C47.1951 13.2389 48.6978 14.0385 48.6978 16.7395V25.5247C48.6978 25.7363 48.5574 25.8776 48.3462 25.8776Z" fill="white"/>
<path d="M59.2785 23.9274C59.0434 23.998 57.962 24.2563 56.7406 24.2563C54.6028 24.2563 53.5218 23.8104 53.5218 19.6761C53.5218 15.7524 54.4379 15.1652 56.6695 15.1652C57.8447 15.1652 59.0189 15.4239 59.2785 15.4937V23.9274ZM61.5332 8.54574L59.6296 8.92175C59.3949 8.96843 59.2785 9.08621 59.2785 9.34488V13.6271C58.6455 13.4749 57.531 13.2389 56.1068 13.2389C51.9489 13.2389 50.7964 15.447 50.7964 19.7458C50.7964 24.3976 52.1129 26.1826 56.6944 26.1826C58.3616 26.1826 59.5594 25.9243 60.4767 25.6901C61.8853 25.3145 61.9324 24.586 61.9324 23.8576V8.89863C61.9324 8.68751 61.815 8.49906 61.5332 8.54574Z" fill="white"/>
<path d="M82.0943 25.8776H80.1689C79.9329 25.8776 79.792 25.7363 79.792 25.5247V13.7955C79.792 13.6075 79.9564 13.4662 80.1689 13.4662H82.0943C82.3059 13.4662 82.4463 13.6075 82.4463 13.7955V25.5247C82.4463 25.7363 82.3059 25.8776 82.0943 25.8776Z" fill="white"/>
<path d="M88.9103 26.1826C86.8666 26.1826 84.9866 25.5719 84.6577 25.431C84.5408 25.3843 84.4003 25.2665 84.4465 25.1021L84.7056 23.8576C84.7523 23.6931 84.823 23.5985 84.9643 23.5985C84.9866 23.5985 85.0332 23.5984 85.1283 23.6224C85.3861 23.6931 87.0071 24.2331 88.7458 24.2331C90.2957 24.2331 91.3535 23.7398 91.3535 22.4944C91.3535 20.9214 90.2028 20.9437 88.628 20.6628C86.9604 20.3805 84.5647 19.9801 84.5647 16.9982C84.5647 13.7789 87.4302 13.2389 89.4974 13.2389C91.4473 13.2389 92.974 13.662 93.3038 13.7558C93.4913 13.8029 93.5842 13.9203 93.562 14.1083L93.3509 15.3772C93.3269 15.5408 93.2091 15.6115 93.0211 15.5883C92.7389 15.5408 91.1432 15.1892 89.8263 15.1892C88.4876 15.1892 87.2191 15.5177 87.2191 16.8102C87.2191 18.1724 88.4876 18.3129 89.9436 18.5249C91.8939 18.8307 94.0069 19.1587 94.0069 22.2602C94.0069 25.3145 91.6815 26.1826 88.9103 26.1826" fill="white"/>
<path d="M106.676 15.1652C103.81 15.1652 103.694 16.8337 103.694 19.7227C103.694 22.5891 103.81 24.2563 106.676 24.2563C109.519 24.2563 109.636 22.5891 109.636 19.7227C109.636 16.8337 109.519 15.1652 106.676 15.1652ZM106.676 26.1826C101.579 26.1826 100.945 23.2927 100.945 19.7227C100.945 16.1275 101.579 13.2389 106.676 13.2389C111.774 13.2389 112.385 16.1275 112.385 19.7227C112.385 23.2927 111.774 26.1826 106.676 26.1826Z" fill="white"/>
<path d="M125.029 25.8776H123.078C122.843 25.8776 122.702 25.7363 122.702 25.5247V17.0911C122.702 15.635 122.162 15.1652 120.776 15.1652C119.249 15.1652 117.651 15.5648 117.3 15.6585V25.5247C117.3 25.7363 117.159 25.8776 116.948 25.8776H114.998C114.785 25.8776 114.622 25.7363 114.622 25.5247V15.5408C114.622 14.6487 114.926 14.2954 116.195 13.8967C117.393 13.5442 119.508 13.2389 121.012 13.2389C123.878 13.2389 125.38 14.0385 125.38 16.7395V25.5247C125.38 25.7363 125.24 25.8776 125.029 25.8776Z" fill="white"/>
<path d="M98.3746 25.8776H96.4483C96.2132 25.8776 96.0728 25.7363 96.0728 25.5247V13.7955C96.0728 13.6075 96.2363 13.4662 96.4483 13.4662H98.3746C98.5862 13.4662 98.7258 13.6075 98.7258 13.7955V25.5247C98.7258 25.7363 98.5862 25.8776 98.3746 25.8776Z" fill="white"/>
<path d="M78.9724 8.51649H76.7713C76.5602 8.51649 76.3957 8.58803 76.3281 8.82271C76.3281 8.82271 71.929 22.8734 71.8618 23.0789C71.7964 23.2831 71.6223 23.4078 71.4094 23.4078C71.1979 23.4078 71.0234 23.2831 70.9571 23.0789C70.8908 22.8734 66.4925 8.82271 66.4925 8.82271C66.424 8.58803 66.26 8.51649 66.048 8.51649H63.8469C63.579 8.51649 63.4796 8.75161 63.5485 8.96448L68.9204 25.5016C68.9889 25.7132 69.1525 25.8776 69.3645 25.8776H73.4561C73.6668 25.8776 73.8295 25.7132 73.8989 25.5016L79.2712 8.96448C79.3402 8.75161 79.2398 8.51649 78.9724 8.51649" fill="white"/>
</svg>
