<svg xmlns="http://www.w3.org/2000/svg" viewBox="0 0 1402.7 1402.7" style="enable-background:new 0 0 1402.7 1402.7" xml:space="preserve"><path style="fill:#f0db4f" d="M0 0h1402.7v1402.7H0z"/><path d="M1045.3 637.3c-50.4 4-92.7 22.1-124.1 53.3-32.4 32.1-47.9 71.3-47.9 121.1 0 74.4 30.5 126.4 98.7 167.6 17.3 10.4 40.9 21.7 81.7 39.3 55.6 23.9 76.3 35.2 89.5 49.3 16.3 17.5 20.8 45.3 10.5 66.7-2 4.1-7.2 11.1-11.9 15.7-15.7 15.9-40.5 24.3-71.3 24.3-52 0-90.8-21.3-122-67.5-4.3-6.1-8.1-11.2-8.7-11.2-1.2 0-102.7 58.5-104.8 60.5-1.3 1.2-.3 4 4.9 12.5 40.5 68.3 103.9 108.3 189.5 119.7 22.4 3.1 64.4 2.9 85.9 0 53.9-7.6 94.3-25.5 125.6-55.9 33.3-32.1 49.7-73.7 49.7-125.9 0-33.3-5.5-59.3-17.9-85.1-8.5-17.6-17.1-29.5-31.7-44.4-28.1-28.5-64.5-50.1-137.2-81.3-54.9-23.6-73.3-33.7-85.5-46.7-11.6-12.4-16.5-26.9-15.5-45.1.9-14.4 4.9-24.1 13.7-33.6 12.7-13.7 27.3-19.5 50-19.3 25.7 0 42.4 6.7 59.3 23.7 6 5.9 13.7 15.3 17.3 21.1 4.1 6.5 7.2 10.1 8.3 9.7 3.5-1.5 100.4-64.1 100.4-65.1 0-.5-4.9-8.3-10.9-17.3-12.8-19.2-35.9-43.2-51.7-53.7-29.3-19.5-60.7-29.5-102-32.5-20.1-1.3-22.8-1.3-41.9.1zm-415 242.3-.4 235.7-2.9 11.1c-3.9 14.5-8.4 23.2-16.4 31.2-11.2 11.2-25.6 15.9-49.6 16-34.3.1-54.8-14.4-78.7-55.2-3.9-6.4-7.3-11.6-7.7-11.5-.5.3-24.7 14.8-53.6 32.3l-52.7 32 4 8c23.9 47.6 65.2 83.6 114.9 100.1 52.5 17.5 120 15.9 169.5-4 59.3-24 94.1-73.6 103.3-147.3.8-7.5 1.3-90.8 1.3-247.6V644H630.8l-.5 235.6z"/></svg>
