<svg xmlns="http://www.w3.org/2000/svg" viewBox="0 0 64 64"><defs><clipPath id="a"><circle cx="32" cy="32" r="32" style="fill:none"/></clipPath></defs><g style="clip-path:url(#a)"><path d="M62 32c0 16.57-13.43 30-30 30S2 48.57 2 32 15.43 2 32 2s30 13.43 30 30Zm2 0c0 17.67-14.33 32-32 32S0 49.67 0 32 14.33 0 32 0s32 14.33 32 32ZM29.33 17C26.94 17 25 18.94 25 21.33V24c0 .55-.45 1-1 1s-1-.45-1-1v-2.67c0-3.5 2.84-6.33 6.33-6.33h5.33c3.5 0 6.33 2.84 6.33 6.33v3.81c0 2.12-1.06 4.09-2.82 5.27l-3.25 2.17c-1.21.8-1.93 2.16-1.93 3.61V40c0 .55-.45 1-1 1s-1-.45-1-1v-3.81c0-2.12 1.06-4.09 2.82-5.27l3.25-2.17c1.21-.8 1.93-2.16 1.93-3.61v-3.81c0-2.39-1.94-4.33-4.33-4.33h-5.33ZM30 47.33c0-1.1.9-2 2-2s2 .9 2 2-.9 2-2 2-2-.9-2-2Z" style="fill:#ff8c00;fill-rule:evenodd"/></g></svg>
