<svg xmlns="http://www.w3.org/2000/svg" viewBox="0 0 64 64"><path d="m26.08 63.75-1.85-.47C9.97 59.68 0 46.91 0 32.25c0-17.65 14.36-32 32-32s32 14.36 32 32c0 13.6-8.62 25.72-21.44 30.16l-1.29.44v-1.36c0-.17.02-.34.05-.51.01-.06.03-.13.03-.19v-7.07c0-2.68-1.79-6.58-4.36-7.9l-2.9-1.49 3.24-.34c9.24-.97 14.34-5.31 14.34-12.22 0-2.72-1.12-5.47-3.17-7.73l-.38-.42.17-.53c.77-2.38 1.32-6.4.24-8.03-2.61.13-5.07 1.35-6.97 3.47l-.43.47-.6-.2c-2.4-.8-4.76-1.19-7.22-1.19s-4.85.4-7.22 1.19l-.6.2-.42-.47c-1.94-2.16-4.35-3.35-6.98-3.47-1.04 1.54-.66 5.17.17 8.06l.15.51-.35.4c-2.13 2.43-3.25 5.11-3.25 7.74 0 6.87 5.15 11.26 14.5 12.38l3.12.37-2.78 1.45c-1.48.77-2.84 2.47-3.66 4.54l-.2.52-.55.08c-1.98.3-3.94.32-4.49.32-2.65 0-3.47-.54-4.88-2.4-.72-.94-1.43-1.64-2.17-2.13 1.03 1.23 1.51 2.63 1.93 3.82.23.65.44 1.27.71 1.76.66 1.33 2.2 2.13 4.04 2.13h4.85v6.25c0 .44.06.86.16 1.11l.71 1.77ZM32 2.19c-16.58 0-30.06 13.48-30.06 30.06 0 13.28 8.7 24.9 21.34 28.76v-4.44h-2.91c-2.57 0-4.78-1.22-5.76-3.18-.33-.6-.57-1.29-.82-2.02-.52-1.51-1.06-3.07-2.59-4.13-1.01-.8-.77-1.65-.67-1.89.28-.7 1.09-1.1 2.01-1.03l.18.03c1.75.5 3.24 1.62 4.69 3.52 1.05 1.38 1.31 1.64 3.34 1.64.94 0 2.34-.06 3.66-.23.61-1.39 1.43-2.6 2.38-3.55-8.88-1.69-13.91-6.7-13.91-13.95 0-2.96 1.17-5.93 3.39-8.62-.58-2.2-1.64-7.43.7-9.76l.28-.28h.4c3.12 0 6.1 1.29 8.43 3.66 2.38-.73 4.81-1.1 7.24-1.1s4.84.36 7.24 1.1c2.33-2.36 5.3-3.66 8.43-3.66h.4l.28.28c2.12 2.12 1.41 7.03.63 9.76 2.13 2.54 3.3 5.58 3.3 8.61 0 7.29-4.97 12.24-13.73 13.82 2.15 2.18 3.42 5.56 3.42 8.13v6.34c11.29-4.53 18.77-15.53 18.77-27.82C62.06 15.66 48.58 2.18 32 2.18Z" style="fill:#ff8c00"/></svg>
