<svg id="a" xmlns="http://www.w3.org/2000/svg" viewBox="0 0 57.34 59.32"><defs><style>.c{fill:#6a1577}.e{fill:#9a4993}.f{fill:#813084}</style></defs><path class="c" d="M6.93 44.92c-.79-.46-1.38-1.05-1.76-1.75v-.03h-.03c.39.71.98 1.3 1.76 1.76 3.81 2.21 16.58 9.52 19.13 11.03.22.13.43.24.65.33-.21-.09-.41-.2-.62-.32-2.55-1.51-15.32-8.82-19.13-11.03Zm14.81-11.33c1.38 2.4 3.96 4.02 6.91 4.02s5.58-1.63 6.94-4.06l-6.87-3.97-6.99 4.02Z"/><path class="e" d="m28.73 29.57 23.42 13.59c-.39.71-.96 1.29-1.76 1.75-6.41 3.69-12.83 7.37-19.24 11.08-1.5.88-2.97.96-4.47.29 1.51.68 2.98.61 4.5-.28 6.41-3.71 12.83-7.39 19.24-11.08.8-.46 1.38-1.04 1.76-1.75.37-.68.56-1.47.56-2.36 0 .88-.19 1.66-.56 2.34L28.73 29.56Z"/><path class="f" d="M52.15 16.09Zm.59 2.4V40.8 18.49Z"/><path style="fill:none" d="M44.39 28.74h1.93v1.91h-1.93z"/><path class="c" d="M28.66 37.61c2.98 0 5.57-1.64 6.94-4.06l-6.86-3.98-6.98 4.02a7.925 7.925 0 0 0 6.91 4.02Z"/><path class="c" d="M28.66 45.63c-5.93 0-11.12-3.23-13.88-8.02l-9.62 5.54v.03c.4.7.99 1.29 1.78 1.75 3.81 2.21 16.58 9.52 19.13 11.03.21.12.41.23.62.32 1.5.67 2.97.59 4.47-.29 6.41-3.71 12.83-7.39 19.24-11.08.8-.46 1.38-1.04 1.76-1.75l-9.61-5.57c-2.76 4.81-7.95 8.05-13.89 8.05Z"/><path class="e" d="M28.66 21.68c-4.41 0-7.96 3.56-7.96 7.96 0 1.44.39 2.77 1.05 3.95l6.98-4.02 6.81-3.92c-1.38-2.37-3.94-3.97-6.88-3.97Z"/><path class="e" d="M12.65 29.64c0-8.82 7.15-15.99 15.99-15.99 5.92 0 11.08 3.22 13.85 7.99l9.66-5.56c-.39-.68-.96-1.25-1.74-1.69C44 10.7 37.58 7 31.17 3.31c-1.74-.99-3.4-.96-5.12.04-2.55 1.5-15.34 8.82-19.13 11.03-1.57.9-2.33 2.3-2.33 4.11V40.8c0 .88.19 1.66.55 2.33l9.62-5.54a15.908 15.908 0 0 1-2.12-7.96Z"/><path d="m42.55 37.56-6.96-4.02 6.95 4.04v-.02Zm-7.01-11.91 6.95-4-6.95 4z" style="fill:#fff"/><path class="f" d="M44.39 28.74h1.93v1.91h-1.93z"/><path class="f" d="M52.6 17.2c-.1-.4-.25-.78-.45-1.12L28.73 29.56l23.45 13.59c.37-.68.56-1.47.56-2.36v-22.3c0-.45-.05-.88-.15-1.28Zm-3.4 11.53h-1.29v1.91h1.29v1.59h-1.29v1.29h-1.59v-1.29h-1.93v1.29H42.8v-1.29h-1.28v-1.59h1.28v-1.91h-1.28v-1.59h1.28v-1.29h1.59v1.29h1.93v-1.29h1.59v1.29h1.29v1.59Z"/></svg>
