<svg xmlns="http://www.w3.org/2000/svg" xmlns:xlink="http://www.w3.org/1999/xlink" version="1.1" id="Laag_1" x="0" y="0" viewBox="0 0 520 300" style="enable-background:new 0 0 520 300" xml:space="preserve"><style>.st2{fill:#da4437}.st6{fill:#0f9c58}.st11{fill:#ffcc40}.st31{fill:#fff;fill-opacity:.2}</style><path d="M198.88 186.16c-10.19 0-18.73-3.45-25.62-10.35-6.9-6.9-10.35-15.5-10.35-25.82 0-10.31 3.45-18.92 10.35-25.82s15.44-10.35 25.62-10.35c10.44 0 18.92 3.77 25.43 11.31l-6.19 6c-4.71-5.87-11.12-8.8-19.24-8.8-7.54 0-13.91 2.55-19.1 7.64s-7.79 11.76-7.79 20.01 2.6 14.92 7.79 20.02c5.19 5.09 11.55 7.64 19.1 7.64 8.31 0 15.41-3.35 21.27-10.06l6.19 6.19c-3.16 3.8-7.12 6.82-11.89 9.04-4.77 2.24-9.96 3.35-15.57 3.35zm36.36-70.78h8.89v21.85l-.39 6.57h.39c1.29-2.26 3.32-4.17 6.09-5.75s5.74-2.37 8.9-2.37c5.87 0 10.35 1.81 13.44 5.42s4.64 8.44 4.64 14.5v29.01h-8.9v-27.66c0-8.77-3.9-13.15-11.7-13.15-3.68 0-6.67 1.47-8.99 4.4-2.32 2.93-3.48 6.34-3.48 10.2v26.21h-8.89v-69.23zm61.3 43.32v25.91h-8.89v-47.38h8.51v7.74h.38c.9-2.58 2.76-4.71 5.56-6.38 2.81-1.68 5.53-2.52 8.17-2.52s4.87.39 6.67 1.16l-3.38 8.32c-1.16-.45-2.74-.68-4.74-.68-3.22 0-6.08 1.27-8.56 3.82-2.48 2.55-3.72 5.89-3.72 10.01zm30.37-15.81c4.58-4.8 10.41-7.21 17.5-7.21s12.92 2.4 17.5 7.21c4.58 4.8 6.87 10.81 6.87 18.03s-2.29 13.23-6.87 18.04c-4.58 4.8-10.41 7.2-17.5 7.2s-12.92-2.4-17.5-7.2-6.87-10.82-6.87-18.04c0-7.21 2.29-13.23 6.87-18.03zm6.62 30.46c3.06 3.13 6.69 4.69 10.88 4.69s7.82-1.56 10.88-4.69 4.6-7.27 4.6-12.43-1.53-9.3-4.6-12.43c-3.06-3.13-6.69-4.69-10.88-4.69s-7.82 1.56-10.88 4.69-4.6 7.27-4.6 12.43 1.54 9.3 4.6 12.43zm52.26 11.27h-8.89v-47.38h8.51v6.57h.38c1.35-2.26 3.43-4.17 6.24-5.75s5.59-2.37 8.36-2.37c7.35 0 12.35 3.03 14.99 9.09 3.87-6.06 9.38-9.09 16.54-9.09 5.61 0 9.83 1.79 12.67 5.37s4.26 8.43 4.26 14.55v29.01h-8.9v-27.66c0-4.77-.87-8.15-2.61-10.15s-4.38-3-7.93-3c-3.48 0-6.36 1.48-8.65 4.45s-3.43 6.35-3.43 10.15v26.21h-8.9v-27.66c0-4.77-.87-8.15-2.61-10.15s-4.38-3-7.93-3c-3.48 0-6.36 1.48-8.65 4.45s-3.43 6.35-3.43 10.15v26.21h-.02zm94.96 1.54c-7.16 0-12.97-2.39-17.45-7.16-4.48-4.77-6.72-10.8-6.72-18.08 0-6.9 2.17-12.83 6.52-17.79 4.35-4.96 9.91-7.45 16.68-7.45 7.03 0 12.65 2.29 16.87 6.87s6.33 10.7 6.33 18.37l-.1 1.65h-37.42c.26 4.77 1.85 8.54 4.79 11.31 2.93 2.77 6.37 4.16 10.3 4.16 6.38 0 10.7-2.71 12.96-8.12l7.93 3.29c-1.55 3.67-4.09 6.75-7.64 9.23-3.54 2.48-7.9 3.72-13.05 3.72zm-14.7-30.94h27.46c-.19-2.71-1.43-5.29-3.72-7.74s-5.69-3.67-10.2-3.67c-3.29 0-6.14 1.03-8.56 3.09-2.42 2.07-4.08 4.84-4.98 8.32z" style="fill-rule:evenodd;clip-rule:evenodd;fill:#757575"/><defs><circle id="SVGID_1_" cx="73.01" cy="150" r="56"/></defs><clipPath id="SVGID_2_"><use xlink:href="#SVGID_1_" style="overflow:visible"/></clipPath><g style="clip-path:url(#SVGID_2_)"><path class="st2" d="M25.9 94v68.73h25.07l22.04-38.18h56V94H25.9z"/><linearGradient id="SVGID_3_" gradientUnits="userSpaceOnUse" x1="5459.363" y1="541.6" x2="5592.999" y2="463.538" gradientTransform="matrix(.25 0 0 .25 -1334.25 1.25)"><stop offset="0" style="stop-color:#a42714;stop-opacity:.6"/><stop offset=".66" style="stop-color:#a42714;stop-opacity:0"/></linearGradient><path d="M25.9 94v68.73h25.07l22.04-38.18h56V94H25.9z" style="fill:url(#SVGID_3_)"/></g><defs><circle id="SVGID_4_" cx="73.01" cy="150" r="56"/></defs><clipPath id="SVGID_5_"><use xlink:href="#SVGID_4_" style="overflow:visible"/></clipPath><path d="m51.57 162.5-25.35-43.47-.37.64 25.16 43.15.56-.32z" style="clip-path:url(#SVGID_5_);fill:#3e2723;fill-opacity:.15"/><defs><circle id="SVGID_6_" cx="73.01" cy="150" r="56"/></defs><clipPath id="SVGID_7_"><use xlink:href="#SVGID_6_" style="overflow:visible"/></clipPath><g style="clip-path:url(#SVGID_7_)"><path class="st6" d="M17.01 206h53.31l24.74-24.74v-18.53H50.97l-33.96-58.24V206z"/><linearGradient id="SVGID_8_" gradientUnits="userSpaceOnUse" x1="5666.905" y1="769.353" x2="5518.418" y2="682.385" gradientTransform="matrix(.25 0 0 .25 -1334.25 1.25)"><stop offset="0" style="stop-color:#055524;stop-opacity:.4"/><stop offset=".33" style="stop-color:#055524;stop-opacity:0"/></linearGradient><path d="M17.01 206h53.31l24.74-24.74v-18.53H50.97l-33.96-58.24V206z" style="fill:url(#SVGID_8_)"/></g><defs><circle id="SVGID_9_" cx="73.01" cy="150" r="56"/></defs><clipPath id="SVGID_10_"><use xlink:href="#SVGID_9_" style="overflow:visible"/></clipPath><path d="m94.55 163.57-.53-.31L69.59 206h.73l24.25-42.41-.02-.02z" style="clip-path:url(#SVGID_10_);fill:#263238;fill-opacity:.15"/><defs><circle id="SVGID_11_" cx="73.01" cy="150" r="56"/></defs><clipPath id="SVGID_12_"><use xlink:href="#SVGID_11_" style="overflow:visible"/></clipPath><g style="clip-path:url(#SVGID_12_)"><defs><path id="SVGID_13_" d="M17.01 206h53.31l24.74-24.74v-18.53H50.97l-33.96-58.24z"/></defs><clipPath id="SVGID_14_"><use xlink:href="#SVGID_13_" style="overflow:visible"/></clipPath><g style="clip-path:url(#SVGID_14_)"><path class="st11" d="m73.01 124.55 22.05 38.18L70.32 206h58.69v-81.45h-56z"/><linearGradient id="SVGID_15_" gradientUnits="userSpaceOnUse" x1="5694.856" y1="477.413" x2="5732.247" y2="641.152" gradientTransform="matrix(.25 0 0 .25 -1334.25 1.25)"><stop offset="0" style="stop-color:#e96100;stop-opacity:.3"/><stop offset=".66" style="stop-color:#e96100;stop-opacity:0"/></linearGradient><path d="m73.01 124.55 22.05 38.18L70.32 206h58.69v-81.45h-56z" style="fill:url(#SVGID_15_)"/></g></g><defs><circle id="SVGID_16_" cx="73.01" cy="150" r="56"/></defs><clipPath id="SVGID_17_"><use xlink:href="#SVGID_16_" style="overflow:visible"/></clipPath><g style="clip-path:url(#SVGID_17_)"><path class="st11" d="m72.88 124.55 22.25 38.07-24.52 43.4 58.69-.31-.42-81.45-56 .29z"/><linearGradient id="SVGID_18_" gradientUnits="userSpaceOnUse" x1="5694.781" y1="477.95" x2="5732.171" y2="641.689" gradientTransform="matrix(.25 0 0 .25 -1335.004 8.436)"><stop offset="0" style="stop-color:#e96100;stop-opacity:.3"/><stop offset=".66" style="stop-color:#e96100;stop-opacity:0"/></linearGradient><path d="m72.88 124.55 22.25 38.07-24.52 43.4 58.69-.31-.42-81.45-56 .29z" style="fill:url(#SVGID_18_)"/></g><defs><circle id="SVGID_19_" cx="73.01" cy="150" r="56"/></defs><clipPath id="SVGID_20_"><use xlink:href="#SVGID_19_" style="overflow:visible"/></clipPath><g style="clip-path:url(#SVGID_20_)"><defs><path id="SVGID_21_" d="m73.01 124.55 22.05 38.18L70.32 206h58.69v-81.45z"/></defs><clipPath id="SVGID_22_"><use xlink:href="#SVGID_21_" style="overflow:visible"/></clipPath><g style="clip-path:url(#SVGID_22_)"><path class="st2" d="M25.9 94v68.73h25.07l22.04-38.18h56V94H25.9z"/><linearGradient id="SVGID_23_" gradientUnits="userSpaceOnUse" x1="5459.363" y1="541.6" x2="5592.999" y2="463.538" gradientTransform="matrix(.25 0 0 .25 -1334.25 1.25)"><stop offset="0" style="stop-color:#a42714;stop-opacity:.6"/><stop offset=".66" style="stop-color:#a42714;stop-opacity:0"/></linearGradient><path d="M25.9 94v68.73h25.07l22.04-38.18h56V94H25.9z" style="fill:url(#SVGID_23_)"/></g></g><defs><circle id="SVGID_24_" cx="73.01" cy="150" r="56"/></defs><clipPath id="SVGID_25_"><use xlink:href="#SVGID_24_" style="overflow:visible"/></clipPath><radialGradient id="SVGID_26_" cx="6195.316" cy="493.05" r="214.017" gradientTransform="matrix(.25 0 0 .25 -1478.25 1.25)" gradientUnits="userSpaceOnUse"><stop offset="0" style="stop-color:#3e2723;stop-opacity:.2"/><stop offset="1" style="stop-color:#3e2723;stop-opacity:0"/></radialGradient><path d="M73.01 124.55v13.33l49.89-13.33H73.01z" style="clip-path:url(#SVGID_25_);fill:url(#SVGID_26_)"/><defs><circle id="SVGID_27_" cx="73.01" cy="150" r="56"/></defs><clipPath id="SVGID_28_"><use xlink:href="#SVGID_27_" style="overflow:visible"/></clipPath><g style="clip-path:url(#SVGID_28_)"><defs><path id="SVGID_29_" d="M25.9 94v25.67l25.07 43.06 22.04-38.18h56V94z"/></defs><clipPath id="SVGID_30_"><use xlink:href="#SVGID_29_" style="overflow:visible"/></clipPath><g style="clip-path:url(#SVGID_30_)"><path class="st6" d="M17.01 206h53.31l24.74-24.74v-18.53H50.97l-33.96-58.24V206z"/><linearGradient id="SVGID_31_" gradientUnits="userSpaceOnUse" x1="5666.905" y1="769.353" x2="5518.418" y2="682.385" gradientTransform="matrix(.25 0 0 .25 -1334.25 1.25)"><stop offset="0" style="stop-color:#055524;stop-opacity:.4"/><stop offset=".33" style="stop-color:#055524;stop-opacity:0"/></linearGradient><path d="M17.01 206h53.31l24.74-24.74v-18.53H50.97l-33.96-58.24V206z" style="fill:url(#SVGID_31_)"/></g></g><defs><circle id="SVGID_32_" cx="73.01" cy="150" r="56"/></defs><clipPath id="SVGID_33_"><use xlink:href="#SVGID_32_" style="overflow:visible"/></clipPath><radialGradient id="SVGID_34_" cx="6016.369" cy="474.142" r="198.657" gradientTransform="matrix(.25 0 0 .25 -1478.25 1.25)" gradientUnits="userSpaceOnUse"><stop offset="0" style="stop-color:#3e2723;stop-opacity:.2"/><stop offset="1" style="stop-color:#3e2723;stop-opacity:0"/></radialGradient><path d="m25.9 119.74 36.43 36.43-11.37 6.56-25.06-42.99z" style="clip-path:url(#SVGID_33_);fill:url(#SVGID_34_)"/><defs><circle id="SVGID_35_" cx="73.01" cy="150" r="56"/></defs><clipPath id="SVGID_36_"><use xlink:href="#SVGID_35_" style="overflow:visible"/></clipPath><radialGradient id="SVGID_37_" cx="6204.653" cy="595.351" r="223.669" gradientTransform="matrix(.25 0 0 .25 -1478.25 1.25)" gradientUnits="userSpaceOnUse"><stop offset="0" style="stop-color:#263238;stop-opacity:.2"/><stop offset="1" style="stop-color:#263238;stop-opacity:0"/></radialGradient><path d="m70.36 205.93 13.34-49.76 11.37 6.56-24.71 43.2z" style="clip-path:url(#SVGID_36_);fill:url(#SVGID_37_)"/><defs><circle id="SVGID_38_" cx="73.01" cy="150" r="56"/></defs><clipPath id="SVGID_39_"><use xlink:href="#SVGID_38_" style="overflow:visible"/></clipPath><g style="clip-path:url(#SVGID_39_)"><circle cx="73.01" cy="150" r="25.45" style="fill:#f0f0f0"/><circle cx="73.01" cy="150" r="20.36" style="fill:#4284f3"/></g><defs><circle id="SVGID_40_" cx="73.01" cy="150" r="56"/></defs><clipPath id="SVGID_41_"><use xlink:href="#SVGID_40_" style="overflow:visible"/></clipPath><g style="clip-path:url(#SVGID_41_)"><path d="M73.01 123.91c-14.06 0-25.45 11.4-25.45 25.45v.64c0-14.06 11.4-25.45 25.45-25.45h56v-.64h-56z" style="fill:#3e2723;fill-opacity:.2"/><path d="M95.03 162.73c-4.4 7.6-12.61 12.73-22.02 12.73-9.42 0-17.62-5.13-22.02-12.73h-.03l-33.95-58.24v.64l33.96 58.24H51c4.4 7.6 12.61 12.73 22.02 12.73s17.61-5.12 22.02-12.73h.03v-.64h-.04z" style="fill:#fff;fill-opacity:.1"/><path d="M73.65 124.55c-.11 0-.21.01-.32.02 13.91.17 25.14 11.49 25.14 25.44s-11.23 25.26-25.14 25.44c.11 0 .21.02.32.02 14.06 0 25.45-11.4 25.45-25.45s-11.39-25.47-25.45-25.47z" style="opacity:.1;fill:#3e2723;enable-background:new"/><path class="st31" d="M95.29 163.57c2.16-3.74 3.42-8.07 3.42-12.7 0-2.69-.42-5.27-1.19-7.69.6 2.18.95 4.46.95 6.83 0 4.63-1.25 8.96-3.42 12.7l.01.03-24.74 43.27h.74L95.3 163.6l-.01-.03z"/></g><defs><circle id="SVGID_42_" cx="73.01" cy="150" r="56"/></defs><clipPath id="SVGID_43_"><use xlink:href="#SVGID_42_" style="overflow:visible"/></clipPath><g style="clip-path:url(#SVGID_43_)"><path class="st31" d="M73.01 94.64c30.82 0 55.82 24.9 55.99 55.68 0-.11.01-.21.01-.32 0-30.93-25.07-56-56-56s-56 25.07-56 56c0 .11.01.21.01.32.17-30.78 25.17-55.68 55.99-55.68z"/><path d="M73.01 205.36c30.82 0 55.82-24.9 55.99-55.68 0 .11.01.21.01.32 0 30.93-25.07 56-56 56s-56-25.07-56-56c0-.11.01-.21.01-.32.17 30.78 25.17 55.68 55.99 55.68z" style="fill:#3e2723;fill-opacity:.15"/></g></svg>
