<svg xmlns="http://www.w3.org/2000/svg" viewBox="0 0 282.16 147.45"><defs><style>.cls-1{fill:#f15a22}.cls-2{fill:#2e2e81}</style></defs><g id="Laag_5" data-name="Laag 5"><path class="cls-1" d="m426.13 284.51 10-56.62h6l-10 56.62s19.18-.49 22.26-18l6.82-38.64 3.26-18.52h-69.31l-13.25 75.14H401l10-56.62h6l-10 56.62Z" transform="translate(-252.12 -209.37)"/><path class="cls-2" d="M369.56 209.37h-34.43l-4.89 27.73h28l2.26-12.79 18.64 22.63-26.62 22.63 2.22-12.6h-28l-4.86 27.54h34.85c9.1 0 16.24-.74 24.6-6.6 8.83-6.17 14.34-16 16.74-29.61 4.68-26.58-4.34-38.93-28.51-38.93Z" transform="translate(-252.12 -209.37)"/><path class="cls-2" d="M79.53 110.3h7.05l1.11-6.32h-7.04l-1.12 6.32z"/><path class="cls-1" d="M465.15 316.3c5.76 0 8.11 3.23 7 9.5l-2.81 15.91h-15c-4.2 0-6-2.66-5.23-7.33 1-5.88 3.95-8.1 9.83-8.1h7.31c.05-.24.08-.44.12-.63.57-3.23-.8-4.1-4.32-4.1h-9.27l.92-5.25Zm-.61 20.3.92-5.26h-6.56c-2.35 0-3.53.58-3.93 2.84s.57 2.42 2.61 2.42Zm16.02-20.3 1.62-9.21h5.56l-1.63 9.21H492l-.9 5.06h-5.87l-1.81 10.27c-.62 3.52-.12 5 2.71 5h2.28l-.89 5.07h-5.08c-4 0-5.87-2.75-5-8l2.19-12.39h-3.92l.9-5.06Zm28.58 19.96-1 5.45h-7.55c-3.48 0-5.83-.73-7.39-3s-2.1-5.74-1.43-9.55a18 18 0 0 1 4.84-9.78c2.36-2.27 5-3 8.46-3h7.55l-1 5.49h-5.91c-4.76 0-7.13 1.45-8.17 7.33-.54 3-.13 5.06 1.36 6.32 1 .82 2.38.82 4.26.82Zm14.34-29.17-1.62 9.21h5c6.12 0 8.32 2.7 7.16 9.3l-2.84 16.11h-5.6l2.7-15.33c.6-3.38 0-4.49-2.93-4.49h-4.43l-3.5 19.82h-5.52l6.1-34.62Z" transform="translate(-252.12 -209.37)"/><path class="cls-2" d="M274.09 313.35h-15.87l-6.1 34.65h16.06c4.19 0 7.48-.34 11.33-3 4.07-2.84 6.6-7.38 7.71-13.64 2.16-12.36-1.99-18.01-13.13-18.01ZM268.9 342h-8.44l4-22.57h8.44c6.46 0 8 2.8 6.5 11.28S275.36 342 268.9 342Zm20.51-6.71c-1.47 8.34 2.1 12.71 10.59 12.71h9.79l.93-5.3h-8.92c-4.34 0-6-.53-5.38-4.72h15.14l.93-5.31H297.3c.86-4.05 2.82-4.77 7.11-4.77h8.87l.94-5.31h-9.79c-8.43-.03-13.56 4.41-15.02 12.7Z" transform="translate(-252.12 -209.37)"/><path class="cls-2" d="M61.82 138.6h6.99l6.1-34.62h-6.99l-6.1 34.62zm12.73 0h7.04l4.47-25.41h-7.03l-4.48 25.41zm25.84-7.38-3.86-18.03H89l6.28 25.41h7.23l15.76-25.41h-7.23l-10.65 18.03z"/><path class="cls-2" d="M367.17 335.29c-1.47 8.34 2.1 12.68 10.54 12.68h9.79l.93-5.3h-8.92c-4.34 0-6-.53-5.39-4.72h15.14l.94-5.31h-15.14c.86-4.05 2.82-4.77 7.11-4.77H391l.94-5.31h-9.79c-8.4 0-13.52 4.44-14.98 12.73Zm40.38-12.73h-11.28L391.79 348h6.7l3.62-20.54h2.37c2.16 0 2.89.24 2.49 2.51l-.58 3.28h6.41l.75-4.24c.83-4.76-.7-6.45-6-6.45Zm28.01.53-3.49 19.82h-8.3l3.5-19.82h-5.8L418 342.9c.38 3.3 2.5 4.72 7 4.72h7.26l-.15.84c-.45 2.53-2 3.91-4.32 3.91h-11.6l-.79 4.46h12.44c5.22 0 8.19-3.05 9.35-9.6l1-4.79 2.67-15.18c.35-2 .32-3-.11-3.55s-1.11-.62-2.48-.62Z" transform="translate(-252.12 -209.37)"/><path class="cls-1" d="M441 316.65h-25l-4.36 24.71h4.88l3.48-19.82h9l-3.5 19.82h5l3.49-19.82h5.6c1.55 0 2.38.24 2.89.85.68.81.6 2.19.26 4.14l-2.62 14.83H445l2.79-15.82c.58-3.32.3-5.61-.85-7s-3.06-1.89-5.94-1.89Z" transform="translate(-252.12 -209.37)"/></g></svg>
