<svg xmlns="http://www.w3.org/2000/svg" viewBox="0 0 270 300" style="enable-background:new 0 0 270 300" xml:space="preserve"><path d="M249 256.94c0 3.92-3.17 7.06-7.06 7.06H28.06c-3.92 0-7.06-3.17-7.06-7.06V43.06c0-3.92 3.17-7.06 7.06-7.06h213.87c3.92 0 7.06 3.17 7.06 7.06v213.88h.01z" style="fill:#006eaf"/><path d="M42.67 234.12v-33.83h9.36v25.51h9.36v8.32zm32.93.6c-7.49 0-12.43-3.37-12.43-12.33 0-8.46 5.99-13.78 13.71-13.78 8.21 0 12.38 4.57 12.38 12.48-.01 8.31-6.1 13.63-13.66 13.63m.7-18.3c-1.82 0-3.62 1.45-3.62 4.97 0 3.87.95 5.42 3.42 5.42 2.37 0 3.62-2.05 3.62-5.17 0-3.55-.9-5.22-3.42-5.22m23.61 29.78c-2.82 0-5.74-.4-8.11-1.05l.7-8.21c2.37 1 5.29 1.6 7.71 1.6 3.97 0 5.69-1.3 5.69-4.22v-.35c0-.65 0-1.35.2-2.55h-.1c-1.2 2.05-3.52 3.25-6.29 3.25-6.09 0-9.31-4.17-9.31-11.53 0-7.91 4.69-14.53 14.3-14.53 4.27 0 7.29.35 10.21.85v23.87c.01 7.35-3.41 12.87-15 12.87m5.84-30.08c-.4-.1-.9-.2-1.77-.2-2.12 0-3.92 1.4-3.92 6.22 0 3.62.8 4.92 2.42 4.92 1.72 0 3.27-1.85 3.27-6.07v-4.87zm24.42 18h-9.16v-18.05c-1.2-.2-2.92-.4-4.37-.5v-5.97c4.17-.45 8.66-.6 13.56-.45v24.96h-.03v.01zm-4.57-26.81c-3.02 0-5.49-2.35-5.49-5.27 0-2.9 2.47-5.27 5.49-5.27s5.49 2.35 5.49 5.27c-.02 2.92-2.47 5.27-5.49 5.27m28.73 26.81H143.3l-11.18-33.83h10.06l5.19 16.95c.55 1.8 1.15 3.72 1.67 6.02h.1c.4-2.1.65-3.42 1.62-6.52l5.04-16.43h9.56l-11.03 33.81zm32.68-9.56h-14.2c.15 1.75 1.82 3.15 5.39 3.15 2.37 0 4.89-.45 7.39-1.55l.8 6.82c-3.02 1.2-6.59 1.75-9.66 1.75-8.41 0-13.18-3.92-13.18-12.73 0-7.71 4.37-13.43 12.48-13.43 7.76 0 11.28 5.17 11.28 12.08 0 1.24-.1 2.53-.3 3.91m-11.18-9.39c-1.77 0-2.97 1.4-3.07 3.47h5.64c.1-2.42-.95-3.47-2.57-3.47m25.54-2.25h.05c1.45-2.7 3.72-4.47 7.04-4.37l-.45 9.01c-3.67-.95-5.69.75-5.69 6.12v10.44h-9.16v-18.05c-1.2-.2-2.92-.4-4.37-.5v-5.97c4.17-.45 8.66-.6 12.83-.45 0 .93-.1 2.42-.25 3.77m19.87 21.8c-6.09 0-8.06-1.8-8.06-8.26v-10.24h-3.17v-7.01h3.12v-7.01l9.16-2.45v9.46h4.74v7.01h-4.69v8.36c0 1.85.6 2.55 2.12 2.55.8 0 1.82-.15 2.57-.35v7.16c-1.82.48-3.87.78-5.79.78m-68.93-121.7c0 3.25-2.65 5.89-5.92 5.89h-40.34c-3.27 0-5.92-2.62-5.92-5.89V72.87c0-3.25 2.65-5.89 5.92-5.89h40.34c3.27 0 5.92 2.65 5.92 5.89v40.15zm-65.28.89c0 2.77-2.25 4.99-5.02 4.99H47.68c-2.77 0-5.02-2.25-5.02-4.99V79.76c0-2.77 2.25-5.02 5.02-5.02h34.3c2.77 0 5.02 2.25 5.02 5.02v34.15h.03zm139.8 71.6c0 3.82-3.12 6.92-6.97 6.92H172.4c-3.84 0-6.97-3.1-6.97-6.92v-47.26c0-3.82 3.12-6.94 6.97-6.94h47.46c3.84 0 6.97 3.1 6.97 6.94v47.26zm-74.52-8.14c0 3.25-2.65 5.89-5.92 5.89h-40.34c-3.27 0-5.92-2.65-5.92-5.89v-40.14c0-3.25 2.65-5.89 5.92-5.89h40.34c3.27 0 5.92 2.65 5.92 5.89v40.14zm-65.28-6.89c0 2.77-2.25 5.02-5.02 5.02H47.68c-2.77 0-5.02-2.25-5.02-5.02v-34.13c0-2.77 2.25-5.02 5.02-5.02h34.3c2.77 0 5.02 2.25 5.02 5.02v34.13h.03zM219.87 57.82h-47.46c-3.84 0-6.97 3.1-6.97 6.92v47.23c0 3.82 3.12 6.94 6.97 6.94h47.46c3.84 0 6.97-3.1 6.97-6.94V64.73c-.01-3.82-3.13-6.91-6.97-6.91" style="fill:#fff"/></svg>
