<svg xmlns="http://www.w3.org/2000/svg" viewBox="0 0 590 300" style="enable-background:new 0 0 590 300" xml:space="preserve"><linearGradient id="a" gradientUnits="userSpaceOnUse" x1="-921.619" y1="-645.62" x2="-921.619" y2="-646.483" gradientTransform="matrix(512 0 0 99.536 472164 64444.043)"><stop offset="0" style="stop-color:#04b5ef"/><stop offset="1" style="stop-color:#3ec9ef"/></linearGradient><path d="M71.08 152.31c0 8.34-2.48 15.37-7.46 21.06-5.2 5.96-11.95 8.95-20.21 8.95-8.29 0-15.02-2.99-20.21-8.95-4.98-5.69-7.48-12.72-7.48-21.06 0-8.37 2.5-15.39 7.48-21.06 5.25-5.91 12.01-8.86 20.21-8.86 8.27 0 15.02 2.95 20.21 8.86 4.98 5.67 7.46 12.7 7.46 21.06zm-16.45 0c0-3.78-.9-6.97-2.72-9.55-2.03-2.93-4.86-4.39-8.5-4.39s-6.48 1.46-8.5 4.39c-1.83 2.58-2.74 5.77-2.74 9.55 0 3.76.91 6.99 2.74 9.64 2.03 2.93 4.86 4.39 8.5 4.39s6.48-1.46 8.5-4.39c1.81-2.65 2.72-5.88 2.72-9.64zm75.95 0c0 7.79-2.24 14.6-6.75 20.43-4.82 6.38-11.04 9.59-18.6 9.59-5.33 0-9.86-1.55-13.56-4.62 0 .71.08 2.42.24 5.16.16 2.75.23 5 .23 6.77 0 9.78-2.91 14.66-8.74 14.66-2.38 0-4.33-.85-5.89-2.52-1.53-1.69-2.3-3.72-2.3-6.12v-63.63c0-2.32.79-4.33 2.36-6.02 1.57-1.67 3.52-2.52 5.85-2.52 3.5 0 6.06 1.75 7.68 5.23 3.44-4.21 8.15-6.32 14.11-6.32 7.58 0 13.78 3.15 18.62 9.47 4.49 5.84 6.75 12.65 6.75 20.44zm-16.45 0c0-3.78-.92-6.97-2.73-9.55-2.03-2.93-4.86-4.39-8.5-4.39s-6.47 1.46-8.5 4.39c-1.81 2.58-2.72 5.77-2.72 9.55 0 3.76.9 6.99 2.72 9.64 2.03 2.93 4.86 4.39 8.5 4.39s6.47-1.46 8.5-4.39c1.8-2.65 2.73-5.88 2.73-9.64zm76.33-1.77c0 2.75-.65 4.64-1.95 5.71-1.3 1.04-3.33 1.57-6.06 1.57h-29.7c0 3.15 1.48 5.57 4.43 7.26 2.38 1.32 5.29 1.99 8.74 1.99 2.68 0 5.89-.89 9.65-2.64 3.76-1.77 6.18-2.64 7.22-2.64 1.91 0 3.52.69 4.86 2.11 1.32 1.4 1.99 3.09 1.99 5.04 0 4.5-3.37 8.01-10.1 10.53-5.14 1.89-10.35 2.85-15.68 2.85-8.58 0-15.51-2.85-20.8-8.54-5.3-5.69-7.95-12.83-7.95-21.47 0-8.23 2.75-15.25 8.27-21.12 5.49-5.87 12.32-8.8 20.47-8.8 7.58 0 13.92 2.78 18.99 8.33 5.06 5.55 7.62 12.17 7.62 19.82zM174 146.41c-.08-2.52-1.24-4.8-3.48-6.87-2.24-2.07-4.62-3.09-7.14-3.09-2.6 0-5.02 1.02-7.26 3.09s-3.37 4.35-3.37 6.87H174zm71.74 26.19c0 2.4-.77 4.43-2.3 6.12-1.56 1.67-3.5 2.52-5.89 2.52-5.75 0-8.62-4.57-8.62-13.68 0-1.75.12-4.51.35-8.31.26-3.78.38-6.55.38-8.31 0-9.67-3.13-14.51-9.37-14.51s-9.35 4.84-9.35 14.51c0 1.75.1 4.53.27 8.31.2 3.8.3 6.55.3 8.31 0 9.11-2.83 13.68-8.5 13.68-2.38 0-4.33-.85-5.87-2.52-1.55-1.69-2.32-3.72-2.32-6.12V132c0-2.39.77-4.41 2.32-6.04 1.54-1.65 3.5-2.48 5.89-2.48 3.94 0 6.67 1.75 8.21 5.23 2.66-4.21 7.36-6.32 14.09-6.32 6.24 0 11.2 1.65 14.84 4.94 3.72 3.53 5.57 8.37 5.57 14.53v30.74zm51.63-1.75c0 3.72-2.42 6.67-7.26 8.84a29.26 29.26 0 0 1-12.22 2.64c-8.29 0-15.02-2.99-20.21-8.95-4.98-5.69-7.48-12.72-7.48-21.06 0-8.37 2.54-15.43 7.64-21.22 5.1-5.8 11.77-8.7 20.06-8.7 4.78 0 8.9.71 12.32 2.11 4.78 1.89 7.16 4.84 7.16 8.86 0 2.03-.63 3.82-1.89 5.37-1.26 1.53-2.87 2.32-4.84 2.32-1.34 0-3.27-.45-5.79-1.34-2.52-.91-4.52-1.34-6-1.34-3.92 0-6.97 1.4-9.15 4.19-2.03 2.52-3.05 5.75-3.05 9.74 0 3.76.91 6.95 2.74 9.53 2.02 3.01 4.88 4.51 8.52 4.51 1.62 0 3.82-.47 6.63-1.44 2.82-.94 4.84-1.43 6.1-1.43 1.83 0 3.4.79 4.74 2.32 1.31 1.55 1.98 3.22 1.98 5.05zm59.81 1.75c0 2.4-.77 4.43-2.3 6.12-1.55 1.67-3.52 2.52-5.91 2.52-3.58 0-6.14-1.75-7.67-5.24-3.44 4.21-8.15 6.32-14.11 6.32-7.63 0-13.89-3.21-18.74-9.59-4.41-5.83-6.63-12.64-6.63-20.43s2.22-14.6 6.63-20.45c4.92-6.32 11.16-9.47 18.74-9.47 5.96 0 10.67 2.11 14.11 6.32 1.54-3.49 4.09-5.23 7.67-5.23 2.32 0 4.27.84 5.85 2.52 1.57 1.69 2.36 3.68 2.36 6v40.61zm-16.45-20.29c0-3.78-.9-6.97-2.72-9.55-2.11-2.93-4.94-4.39-8.5-4.39-3.64 0-6.48 1.46-8.51 4.39-1.83 2.58-2.73 5.77-2.73 9.55 0 3.76.88 6.99 2.63 9.64 2.09 2.93 4.96 4.39 8.6 4.39s6.47-1.46 8.5-4.39c1.82-2.65 2.73-5.88 2.73-9.64zm58.44-21.39c0 3.52-1.71 5.94-5.14 7.26-3.17 1.06-6.32 2.15-9.47 3.27-3.45 1.97-5.16 5.63-5.16 10.95v20.21c0 2.4-.79 4.43-2.32 6.12-1.56 1.67-3.53 2.52-5.91 2.52-2.4 0-4.37-.85-5.9-2.52-1.56-1.69-2.32-3.72-2.32-6.12V132c0-2.39.77-4.41 2.3-6.04 1.55-1.65 3.53-2.48 5.91-2.48 3.93 0 6.67 1.75 8.21 5.23 3.52-4.21 7.3-6.32 11.38-6.32 2.32 0 4.31.84 5.96 2.52 1.63 1.7 2.46 3.71 2.46 6.01zm42.92.75c0 3.66-1.44 5.96-4.29 6.95-1.4.49-4.34.75-8.8.75v33.24c0 2.4-.79 4.43-2.32 6.12-1.56 1.67-3.53 2.52-5.91 2.52-2.32 0-4.29-.85-5.87-2.52-1.57-1.69-2.36-3.72-2.36-6.12v-33.24c-3.39 0-5.85-.43-7.4-1.28-2.12-1.18-3.17-3.33-3.17-6.42s1.08-5.2 3.27-6.32c1.48-.83 3.92-1.26 7.3-1.26v-7.05c0-8.29 2.73-12.42 8.23-12.42 5.47 0 8.23 4.13 8.23 12.42v7.05c4.47 0 7.4.26 8.8.75 2.86.98 4.29 3.27 4.29 6.83zm132.19-10c-.04-5.05-9.38-7.34-33.55-7.34-56.7 0-71.09-2.42-86.48-18.62 6.48 9.73 10.02 27.97 69.95 27.06 62.53-.96 24.38 16.12 13.28 35.43 20.02-17.87 36.73-29.64 36.79-36.45l.01-.08zm-79.68 51.88c0 4.72-3.83 8.56-8.56 8.56-4.74 0-8.58-3.84-8.58-8.56 0-4.74 3.84-8.58 8.58-8.58 4.73 0 8.56 3.84 8.56 8.58zm39.05 0c0 4.72-3.83 8.56-8.56 8.56-4.74 0-8.58-3.84-8.58-8.56 0-4.74 3.84-8.58 8.58-8.58 4.73 0 8.56 3.84 8.56 8.58z" style="fill:url(#a)"/></svg>
