<svg xmlns="http://www.w3.org/2000/svg" viewBox="0 0 986.27 227.84"><g data-name="Layer 2"><g data-name="Layer 1"><path d="M4 112.27a8.84 8.84 0 1 0 12.5 0 8.88 8.88 0 0 0-12.5 0m38.78-2.75a12.73 12.73 0 1 0 18 18c10.57-10.57 16.48-3.32 22.84 3a17 17 0 1 0 0-24.06c-6.36 6.35-12.26 13.61-22.84 3a12.78 12.78 0 0 0-18 0M3.57 222a9.39 9.39 0 1 1 13.28 0 9.42 9.42 0 0 1-13.28 0m129-166.62c-10.23 10.23-11.17 15.8-25.15 1.82a16.63 16.63 0 1 0 0 23.52c14-14 14.92-8.41 25.15 1.82a19.21 19.21 0 1 0 0-27.16M43.15 224.2c-4.86-4.86-5.22-13.2 0-17.67 17.06-14.64-7-43.24-25.71-32.36-4.86 2.83-10.48 4-14.46 0a10.22 10.22 0 0 1 14.46-14.46c7.46 7.46 19.35 2.64 25-3a14.43 14.43 0 0 1 20.41 20.4c-7.59 7.59-9.81 21.54-2 29.38a12.49 12.49 0 1 1-17.7 17.71M42.78 60a12.77 12.77 0 0 0 0 18 12.78 12.78 0 0 0 18 0 12.73 12.73 0 0 0-18-18M4 10.75a8.84 8.84 0 1 0 12.5 0 8.87 8.87 0 0 0-12.5 0M42.78 8a12.73 12.73 0 0 0 18 18c10.57-10.58 16.48-3.32 22.84 3a17 17 0 1 0 .01-24c-6.36 6.36-12.26 13.61-22.84 3a12.78 12.78 0 0 0-18 0" style="fill:#03a9f4;fill-rule:evenodd"/><path d="M255.07 110.85h20.66c6.94 0 12.14-1.55 15.61-4.6s5.21-7.69 5.21-13.86q0-8.46-5.21-12.66t-15.61-4.25h-20.66Zm-24.78 62.78V55h49.62q20.28 0 30.85 9.5t10.57 27.66q0 19.25-10.57 29.22t-30.82 10q-14.38-.08-24.87.17v42.13h-24.78Zm109.05 0V54.99h23.14v118.64h-23.14zm68.55-87.74v54.92c0 5.37 1.15 9.36 3.47 11.92s5.86 3.89 10.65 3.89c6 0 10.69-1.82 13.91-5.49s4.85-8.92 4.85-15.8V85.89h23.13v87.74h-22v-13.16A24.42 24.42 0 0 1 439 165q-8.6 11-24.79 10.94c-9.25 0-16.49-2.73-21.67-8.18s-7.8-13.05-7.8-22.72V85.89h23.14Zm116.54 17.68c-6 0-10.76 2.29-14.15 6.89s-5.1 11-5.1 19.17q0 12 5.1 18.75c3.39 4.49 8.1 6.75 14.07 6.75s10.85-2.29 14.27-6.86 5.15-10.9 5.15-19-1.71-14.35-5.15-18.9-8.15-6.83-14.19-6.83m.72 88.24c6.53 0 11.24-1.57 14.07-4.71s4.3-8.34 4.3-15.59v-10.73l-1.85 2.8q-7.68 10.59-22.06 10.58-17.13 0-27.67-12.28t-10.55-32.47q0-20.65 10.27-33.21c6.83-8.4 15.84-12.59 27-12.59q14.79 0 23 10.74a29.78 29.78 0 0 1 2.81 4.44V85.89h21.76v83q0 20.82-10.28 30.68c-6.85 6.58-17.57 9.88-32.08 9.88q-17.88 0-28.48-7c-7.05-4.65-10.79-11.09-11.29-19.3h25.12a7.58 7.58 0 0 0 4.16 6.55c2.49 1.42 6.46 2.11 11.77 2.11ZM620.57 81.9a14.65 14.65 0 0 0 1 5.23 15.6 15.6 0 0 0 2.91 4.87l4.74 5.83a50.55 50.55 0 0 0 5.78-4.75c3.36-3.44 5-6.86 5-10.21a10.68 10.68 0 0 0-2.58-7.61 9.31 9.31 0 0 0-7.11-2.75c-3.08 0-5.48.83-7.19 2.51a9 9 0 0 0-2.59 6.88m4.88 75.4a21.61 21.61 0 0 0 10.9-3.05 52.71 52.71 0 0 0 7.36-5.4l-7.3-8.76-14.87-18.37a65.66 65.66 0 0 0-7.49 6.14c-4.11 4.27-6.17 8.84-6.17 13.77s1.54 8.76 4.68 11.57 7.48 4.1 12.93 4.1Zm-25.9-73.66q0-13.14 8.4-20.91C613.5 57.58 621.1 55 630.65 55c8.84 0 15.87 2.54 21 7.58s7.8 11.84 7.8 20.4a26 26 0 0 1-6.45 17.24A53.35 53.35 0 0 1 639.74 111l17.54 21.26 1.6-3.16a52.38 52.38 0 0 0 4.74-17.1h20.49a72.94 72.94 0 0 1-7 24.32 76.83 76.83 0 0 1-6.77 11.81l21.2 25.5h-27.4l-8.07-9.63a54.93 54.93 0 0 1-12.42 8.53q-8.26 3.76-21.4 3.78-17.26 0-27.45-9t-10.17-24.41q0-13.1 7.83-22.22 5.54-6.52 17.35-13.68l-.64-.74a45.36 45.36 0 0 1-7.08-11.46 28.91 28.91 0 0 1-2.58-11.16Zm132.88 27.21H753c6.94 0 12.14-1.55 15.61-4.6s5.21-7.69 5.21-13.86q0-8.46-5.21-12.66T753 75.48h-20.61Zm-24.79 62.78V55h49.63q20.28 0 30.84 9.5t10.58 27.66q0 19.25-10.58 29.22t-30.82 10q-14.37-.08-24.86.17v42.13H707.6Zm157.31-32.38v-10.08a37.44 37.44 0 0 1-10.66 3.63l-8.57 1.6c-4 .77-7.07 2.15-9.2 4.16a10.21 10.21 0 0 0-3.14 7.63c0 3.52.94 6.25 2.84 8.26s4.52 3 7.91 3q11.1 0 17.76-7.82a12.88 12.88 0 0 0 2.17-4.54 20.62 20.62 0 0 0 .89-5.81M837.06 176q-12.18 0-19.61-7c-4.93-4.65-7.4-10.79-7.4-18.37q0-12 6.69-19.25c4.46-4.82 11-7.82 19.52-9.06l15.26-2.12a32 32 0 0 0 9.92-2.73 5.49 5.49 0 0 0 2.61-2.92 7.86 7.86 0 0 0-3.11-10.1c-2.62-1.68-6.42-2.51-11.35-2.51-4.4 0-7.85 1.08-10.32 3.25s-3.78 5.21-3.94 9.15h-22.14q.73-15.42 10.46-23.08t28.59-7.66q16.35 0 25.83 6.91a22.08 22.08 0 0 1 9.47 18.84v49.05c0 3.94.33 6.69 1 8.29a7.15 7.15 0 0 0 3.83 3.74v3.22h-25v-.16a54.93 54.93 0 0 1-2-10.27l-.08-.17Q854.42 176 837.06 176Zm149.21-90.11-31.47 89.56c-5 14.79-9.4 24-13 27.82s-10 5.64-19.28 5.64l-11-.25v-18.53a18.59 18.59 0 0 0 4.43.3c6.17 0 10.22-1.23 12.09-3.77q1.77-2.43 3.55-10l-32.78-90.77h25.55L943.48 151l18.59-65.11h24.2Z" style="fill:#17212b"/></g></g></svg>
