<svg xmlns="http://www.w3.org/2000/svg" viewBox="0 0 200 75" style="enable-background:new 0 0 200 75" xml:space="preserve"><path d="M157.4 31.3c-3.6 0-6.4 2.4-6.4 6.5 0 3.3 2.1 6.3 5.8 6.3 1.2 0 3.1-.4 4.1-2v1.2c0 .3.2.4.4.4h1.9c.3 0 .4-.2.4-.4v-5.5c.1-4.3-2.6-6.5-6.2-6.5zm-.3 10.3c-1.5-.1-3.2-1.1-3.2-3.9 0-2.9 2.1-3.8 3.6-3.8s3.5.7 3.5 3.9c0 3.1-2.4 3.9-3.9 3.8zm-14.5-10.3c-3.6 0-6.4 2.4-6.4 6.5 0 3.3 2.1 6.3 5.8 6.3 1.2 0 3.1-.4 4.1-2v1.2c0 .3.2.4.4.4h1.9c.3 0 .4-.2.4-.4v-5.5c.1-4.3-2.7-6.5-6.2-6.5zm-.4 10.3c-1.5-.1-3.2-1.1-3.2-3.9 0-2.9 2.1-3.8 3.6-3.8s3.5.7 3.5 3.9c0 3.1-2.4 3.9-3.9 3.8zm30.2-10.3c-3.4 0-5.9 2-5.9 6.1v6c0 .3.2.4.4.4h1.9c.3 0 .4-.2.4-.4v-6c0-2.8 1.8-3.4 3.2-3.4 1.4 0 3.2.6 3.2 3.4v6c0 .3.1.4.4.4h1.9c.3 0 .4-.2.4-.4v-6c.1-4-2.5-6.1-5.9-6.1zm-44.4 0c-3.5 0-6.3 2.2-6.3 6.4v13.1c0 .3.3.4.5.3l2.2-1.5c.1-.1.1-.2.1-.3v-6.6c.8 1 2.5 1.5 3.5 1.5 3.6 0 6.3-2.2 6.3-6.4 0-4-2.7-6.5-6.3-6.5zm0 10.2c-1.5 0-3.5-.7-3.5-3.8s2-3.8 3.5-3.8 3.5.7 3.5 3.8-1.9 3.8-3.5 3.8zm-24.1-10.2c-3.6 0-6.3 2.2-6.3 6.4s2.8 6.4 6.3 6.4c2.2 0 4-.8 5.1-2.3.1-.2.1-.5-.2-.5l-1.8-.8c-.2-.1-.5 0-.7.1-.7.7-1.6.9-2.5.9-1.5 0-3.3-.6-3.5-3.3h9.4c.2 0 .5-.2.5-.4v-.1c0-4.2-2.8-6.4-6.3-6.4zm-3.3 4.9c.5-1.8 2.1-2.2 3.3-2.2 1.2 0 2.8.5 3.3 2.2h-6.6zm-11.1-4.9c-1.4 0-2.5.5-3.3 1.3v-7.9c0-.3-.3-.4-.5-.3l-2.2 1.5c-.1.1-.1.2-.1.3v17.3c0 .2.2.4.4.4h1.9c.2 0 .4-.2.4-.4v-6.2c.1-2.6 1.9-3.2 3.3-3.2s3 .5 3 3.4v6c0 .2.2.4.4.4h1.9c.2 0 .4-.2.4-.4v-6c.2-4.2-2.3-6.2-5.6-6.2zm-11 6.5c-1-.6-2.2-.9-3.2-1.1-2-.4-2.8-.6-2.8-1.4 0-1 1.5-1.3 2.7-1.2 1.2.1 2.1.6 2.5 1.2.1.1.3.2.4.1l1.8-1.2c.2-.1.2-.3.1-.5-1-1.4-3.1-2.3-5.2-2.3-3 0-5.2 1.7-5.2 3.8 0 1.3.7 2 1.6 2.6 1 .6 2.2.9 3.2 1.1 2 .4 2.8.6 2.8 1.4 0 1-1.5 1.3-2.7 1.2-1.2-.1-2.1-.6-2.5-1.2-.1-.1-.3-.2-.4-.1l-1.8 1.2c-.2.1-.2.3-.1.5 1 1.4 3.1 2.3 5.2 2.3 3 0 5.2-1.7 5.2-3.8 0-1.4-.7-2.1-1.6-2.6zM43.3 18 21 56.8h44.6L43.3 18zm13.8 25.5H44l6.6-11.4 6.5 11.4zM43.3 19.6 49.9 31H36.7l6.6-11.4zm6.5 12.1-6.6 11.4-6.6-11.4h13.2zm-13.7.4 6.6 11.4H29.5l6.6-11.4zM22.3 56l6.6-11.4L35.4 56H22.3zm7.2-11.8h13.1L36 55.6l-6.5-11.4zM36.7 56l6.6-11.4L49.8 56H36.7zm13.8-.4L44 44.2h13.1l-6.6 11.4zm13.8.4H51.2l6.6-11.4L64.3 56zm55.6-24.3c-.8-.2-1.5-.3-2.2-.3-2.8 0-5 1.4-5 5.1v6.9c0 .3.1.4.4.4h1.9c.3 0 .4-.2.4-.4v-6.9c0-1.9 1.2-2.4 2.6-2.4.5 0 1 .1 1.5.2.2.1.5-.1.5-.3l.3-1.7c0-.3-.2-.5-.4-.6z" style="fill:#fff"/></svg>
