<svg xmlns="http://www.w3.org/2000/svg" viewBox="0 0 48 48" xml:space="preserve"><path d="M37 4H16.5c-.3 0-.5.1-.7.3l-7.5 7.5c-.2.2-.3.4-.3.7V41c0 1.7 1.3 3 3 3h26c1.7 0 3-1.3 3-3V7c0-1.7-1.3-3-3-3zM15.5 7.4v4.1h-4.1l4.1-4.1zM38 41c0 .6-.4 1-1 1H11c-.6 0-1-.4-1-1V13.5h6.5c.6 0 1-.4 1-1V6H37c.6 0 1 .4 1 1v34z"/><path d="M17 18c-.6 0-1 .4-1 1s.4 1 1 1h14c.6 0 1-.4 1-1s-.4-1-1-1H17zm-1 7c0-.6.4-1 1-1h8c.6 0 1 .4 1 1s-.4 1-1 1h-8c-.6 0-1-.4-1-1zm1 5c-.6 0-1 .4-1 1s.4 1 1 1h14c.6 0 1-.4 1-1s-.4-1-1-1H17z"/></svg>