<svg xmlns="http://www.w3.org/2000/svg" viewBox="0 0 48 48" xml:space="preserve"><path d="M30.4 27.5c-2 2-5.1 2-7.1 0l-1.4-1.4c-.4-.4-1-.4-1.4 0-.4.4-.4 1 0 1.4l1.4 1.4c2.7 2.7 7.2 2.7 9.9 0l7.1-7.1c3.5-3.5 3.5-9.2 0-12.7s-9.2-3.5-12.7 0L23.3 12c-.4.4-.4 1 0 1.4.4.4 1 .4 1.4 0l2.8-2.8c2.7-2.7 7.2-2.7 9.9 0s2.7 7.2 0 9.9l-7 7z"/><path d="M17.6 20.5c2-2 5.1-2 7.1 0l1.4 1.4c.4.4 1 .4 1.4 0 .4-.4.4-1 0-1.4l-1.4-1.4c-2.7-2.7-7.2-2.7-9.9 0l-7.1 7.1c-3.5 3.5-3.5 9.2 0 12.7s9.2 3.5 12.7 0l2.8-2.8c.4-.4.4-1 0-1.4-.4-.4-1-.4-1.4 0l-2.8 2.8c-2.7 2.7-7.2 2.7-9.9 0s-2.7-7.2 0-9.9l7.1-7.1z"/></svg>