<svg xmlns="http://www.w3.org/2000/svg" viewBox="0 0 64 64"><path d="M25.33 20.27h-13.4c-2.77 0-5.03 2.25-5.03 5.02 0 1.34.53 2.6 1.47 3.55.95.95 2.21 1.47 3.55 1.47h13.4c.66 0 1.31-.13 1.92-.38.61-.25 1.16-.62 1.63-1.09.47-.47.83-1.02 1.09-1.63a5.025 5.025 0 0 0-4.65-6.94Zm2.9 6.21c-.16.38-.39.72-.68 1.02-.29.29-.63.52-1.02.68-.38.16-.79.24-1.2.24H11.92a3.1 3.1 0 0 1-2.22-.92c-.59-.59-.92-1.38-.92-2.21 0-1.72 1.41-3.13 3.14-3.13h13.4c1.73 0 3.14 1.4 3.14 3.12 0 .42-.08.82-.24 1.2Zm-2.9-19.59c-.66 0-1.31.13-1.92.38s-1.16.62-1.63 1.09c-.47.47-.83 1.02-1.09 1.63a5.026 5.026 0 0 0 1.09 5.47c.95.95 2.21 1.47 3.55 1.47h5.03v-5.02c0-2.76-2.25-5.01-5.03-5.02Zm3.14 8.14h-3.14a3.1 3.1 0 0 1-2.22-.92 3.152 3.152 0 0 1-.68-3.41 3.155 3.155 0 0 1 2.9-1.93c1.73 0 3.14 1.4 3.14 3.13v3.13ZM38.7 6.86c-1.34 0-2.6.53-3.55 1.47-.95.95-1.47 2.21-1.47 3.55v13.4c0 .66.13 1.31.38 1.92.25.61.62 1.16 1.09 1.63.47.47 1.02.83 1.63 1.09a5.025 5.025 0 0 0 6.94-4.65V11.9c0-2.77-2.25-5.03-5.02-5.03Zm3.13 18.43c0 1.73-1.4 3.14-3.12 3.14-.42 0-.82-.08-1.2-.24-.38-.16-.72-.39-1.02-.68-.29-.29-.52-.63-.68-1.02-.16-.38-.24-.79-.24-1.2V11.9c0-.84.32-1.62.92-2.22.59-.59 1.38-.92 2.21-.92 1.72 0 3.13 1.41 3.13 3.14v13.4Zm14.88-1.92c-.25-.61-.62-1.16-1.09-1.63-.47-.47-1.02-.83-1.63-1.09a5.026 5.026 0 0 0-5.47 1.09c-.95.95-1.47 2.21-1.47 3.55v5.03h5.02c2.76 0 5.01-2.25 5.02-5.03 0-.66-.13-1.31-.38-1.92Zm-1.51 1.92c0 1.73-1.4 3.14-3.13 3.14h-3.13v-3.14c0-.84.32-1.62.92-2.22.89-.89 2.26-1.16 3.41-.68a3.155 3.155 0 0 1 1.93 2.9Zm.44 9.87a4.985 4.985 0 0 0-3.55-1.47h-13.4c-.66 0-1.31.13-1.92.38-.61.25-1.16.62-1.63 1.09-.47.47-.83 1.02-1.09 1.63a5.025 5.025 0 0 0 4.65 6.94h13.4c2.77 0 5.03-2.25 5.03-5.02 0-1.34-.53-2.6-1.47-3.55Zm-3.55 6.68h-13.4c-1.73 0-3.14-1.4-3.14-3.12 0-.42.08-.82.24-1.2.16-.38.39-.72.68-1.02.29-.29.63-.52 1.02-.68.38-.16.79-.24 1.2-.24h13.4c.84 0 1.62.32 2.22.92.59.59.92 1.38.92 2.21 0 1.72-1.41 3.13-3.14 3.13Zm-9.85 6.7a4.985 4.985 0 0 0-3.55-1.47h-5.03v5.02c0 2.76 2.25 5.01 5.03 5.02.66 0 1.31-.13 1.92-.38s1.16-.62 1.63-1.09c.47-.47.83-1.02 1.09-1.63a5.026 5.026 0 0 0-1.09-5.47Zm-.65 4.75a3.155 3.155 0 0 1-2.9 1.93c-1.73 0-3.14-1.4-3.14-3.13v-3.13h3.14c.84 0 1.62.32 2.22.92.89.89 1.16 2.26.68 3.41ZM29.97 36.78c-.25-.61-.62-1.16-1.09-1.63-.47-.47-1.02-.83-1.63-1.09a5.025 5.025 0 0 0-6.94 4.65v13.4c0 2.77 2.25 5.03 5.02 5.03 1.34 0 2.6-.53 3.55-1.47.95-.95 1.47-2.21 1.47-3.55v-13.4c0-.66-.13-1.31-.38-1.92ZM28.46 52.1a3.1 3.1 0 0 1-.92 2.22c-.59.59-1.38.92-2.21.92-1.72 0-3.13-1.41-3.13-3.14V38.7c0-1.73 1.4-3.14 3.12-3.14.42 0 .82.08 1.2.24.38.16.72.39 1.02.68.29.29.52.63.68 1.02.16.38.24.79.24 1.2v13.4ZM11.94 33.67c-2.76 0-5.01 2.25-5.02 5.03 0 .66.13 1.31.38 1.92s.62 1.16 1.09 1.63c.47.47 1.02.83 1.63 1.09a5.026 5.026 0 0 0 5.47-1.09c.95-.95 1.47-2.21 1.47-3.55v-5.03h-5.02Zm3.13 5.03a3.1 3.1 0 0 1-.92 2.22c-.89.89-2.26 1.16-3.41.68a3.155 3.155 0 0 1-1.93-2.9c0-1.73 1.4-3.14 3.13-3.14h3.13v3.14Z" style="fill:#ff8c00"/></svg>
