<svg xmlns="http://www.w3.org/2000/svg" viewBox="0 0 200 205.9" style="enable-background:new 0 0 200 205.9" xml:space="preserve"><path d="M199.9 46.6c.1.3.1.6.1.8v44.2c0 1.2-.6 2.2-1.6 2.8l-37.1 21.4v42.3c0 1.2-.6 2.2-1.6 2.8l-77.4 44.6c-.2.1-.4.2-.6.2-.1 0-.1.1-.2.1-.5.1-1.1.1-1.7 0-.1 0-.2-.1-.3-.1-.2-.1-.4-.1-.5-.2L1.6 160.9c-1-.6-1.6-1.6-1.6-2.8V25.5c0-.3 0-.6.1-.8 0-.1.1-.2.1-.3.1-.2.1-.3.2-.5.1-.1.1-.2.2-.3.1-.1.2-.3.3-.4.1-.1.3-.1.4-.2.1-.1.2-.2.4-.3L40.3.4c1-.6 2.2-.6 3.2 0l38.7 22.3c.1.1.2.2.4.3.1.1.2.2.3.2.1.1.2.2.3.4.1.1.2.2.2.3.1.2.1.3.2.5 0 .1.1.2.1.3.1.3.1.6.1.8v82.8l32.3-18.6V47.4c0-.3 0-.6.1-.8 0-.1.1-.2.1-.3.1-.2.1-.3.2-.5.1-.1.1-.2.2-.3.1-.1.2-.3.3-.4.1-.1.2-.2.3-.2.1-.1.2-.2.4-.3l38.7-22.3c1-.6 2.2-.6 3.2 0l38.7 22.3c.1.1.2.2.4.3.1.1.2.2.3.2.1.1.2.2.3.4.1.1.2.2.2.3.1.2.1.3.2.5.1.1.2.2.2.3zm-6.4 43.1V53L180 60.8l-18.7 10.8v36.8l32.2-18.7zm-38.7 66.5v-36.8L136.4 130l-52.6 30v37.1c.1 0 71-40.9 71-40.9zM6.5 31.1v125.1l71 40.9V160l-37.1-21-.3-.3c-.1-.1-.2-.1-.3-.2l-.3-.3c-.1-.1-.2-.2-.2-.3-.1-.1-.1-.3-.2-.4-.1-.1-.1-.2-.2-.4 0-.2 0-.3-.1-.5V49.7L20 38.9 6.5 31.1zM41.9 6.9 9.7 25.5l32.2 18.6 32.2-18.6L41.9 6.9zm16.8 115.9L77.4 112V31.1l-13.5 7.8-18.7 10.8v80.9l13.5-7.8zm99.4-93.9-32.2 18.6L158.1 66l32.2-18.6-32.2-18.5zm-3.3 42.7-18.7-10.8-13.5-7.8v36.8l18.7 10.8 13.5 7.8V71.6zm-74.2 82.8 47.3-27 23.6-13.5-32.2-18.6-37.1 21.4-33.8 19.5 32.2 18.2z" style="fill-rule:evenodd;clip-rule:evenodd;fill:#ff2d20"/></svg>
