<svg xmlns="http://www.w3.org/2000/svg" version="1.1" id="Laag_1" x="0" y="0" viewBox="0 0 590 300" style="enable-background:new 0 0 590 300" xml:space="preserve"><style>.st0{fill:#34313f}</style><path class="st0" d="M169.89 148.02c8.46 0 14.14 3.82 17.62 8.58V88.91c0-1.27-1.51-2.09-2.55-1.27l-83.56 61.08h2.2c8.69 0 13.1 5.56 13.1 11.59 0 4.75-2.43 8.23-5.79 9.74a.681.681 0 0 0 0 1.27c3.82 1.62 6.61 5.68 6.61 10.55 0 6.95-4.52 12.4-13.21 12.4H80.55a.92.92 0 0 1-.93-.93V164.6l-62.24 45.55c-1.04.93-.58 2.55.81 2.55H186c.81 0 1.39-.58 1.39-1.39v-23.06c-4.52 4.17-10.43 6.84-17.62 6.84-13.44 0-24.34-9.27-24.34-23.53.12-14.39 11.13-23.54 24.46-23.54zm-33.27 45.43c0 .46-.35.81-.81.81h-8c-.46 0-.81-.35-.81-.81v-43.92c0-.46.35-.81.81-.81h8c.46 0 .81.35.81.81v43.92z"/><path class="st0" d="M90.27 166.79h11.24c3.25 0 5.33-1.85 5.33-4.75 0-2.78-2.09-4.75-5.33-4.75H89.8c-.23 0-.46.23-.46.46v8.23c0 .47.46.81.93.81zm0 19.01h11.71c3.59 0 5.79-1.97 5.79-5.22 0-2.9-2.09-5.22-5.79-5.22H90.27a.92.92 0 0 0-.93.93v8.58c0 .47.46.93.93.93zm89.93-23.99c-2.2-2.9-5.91-5.22-10.31-5.22-8.34 0-14.37 6.37-14.37 14.95s6.03 14.95 14.37 14.95c3.82 0 7.42-1.62 9.39-3.25.12-.12.23-.35.23-.58v-4.4c0-.35-.35-.7-.7-.7H168.5c-.58 0-.93-.46-.93-.93v-6.49c0-.58.46-.93.93-.93h19.12V158.9l-6.14 3.36c-.47.13-1.05-.1-1.28-.45zm14.49 9.74c0-14.02 10.08-23.53 23.06-23.53 8.46 0 13.91 4.29 17.15 9.5.23.35.12.93-.35 1.04l-5.22 2.78c-.35.23-.81.12-.93-.23-2.2-3.48-6.26-6.03-10.66-6.03-8.69 0-15.18 6.84-15.18 16.46 0 9.5 6.49 16.46 15.18 16.46 4.4 0 8.46-2.55 10.66-6.03.23-.35.58-.46.93-.23l5.22 2.67c.46.23.58.7.35 1.16-3.36 5.22-8.81 9.62-17.15 9.62-12.98-.12-23.06-9.74-23.06-23.64zm44.73 0c0-11.36 6.49-20.17 16.23-22.72 16.57-4.4 31.76 11.13 28.16 28.39-2.2 10.66-10.66 17.96-21.9 17.96-13.22-.11-22.49-10.08-22.49-23.63zm36.97 0c0-9.39-5.79-16.46-14.6-16.46-8.92 0-14.6 7.07-14.6 16.46s5.68 16.46 14.6 16.46 14.6-7.19 14.6-16.46zm55.17 22.13v-34.65l-13.79 34.88c0 .12-.23.23-.35.23h-2.9c-.12 0-.35-.12-.35-.23l-13.91-34.88v34.65c0 .35-.23.58-.58.58h-6.95c-.35 0-.58-.23-.58-.58v-44.5c0-.35.23-.58.58-.58h9.97c.46 0 .81.23 1.04.7l12.17 31.29 12.05-31.29c.12-.46.58-.7 1.04-.7h9.97c.35 0 .58.23.58.58v44.5c0 .35-.23.58-.58.58h-6.95c-.11 0-.46-.23-.46-.58zm78.81-.23v-43.92c0-.46.35-.81.81-.81h29.55c.46 0 .81.35.81.81v5.33c0 .46-.35.81-.81.81h-21.56c-.46 0-.81.35-.81.81v10.08c0 .46.35.81.81.81h21.09c.46 0 .81.35.81.81v5.33c0 .46-.35.81-.81.81h-21.09c-.46 0-.81.35-.81.81v11.01c0 .46.35.81.81.81h21.56c.46 0 .81.35.81.81v5.33c0 .46-.35.81-.81.81h-29.55c-.46.36-.81.01-.81-.45zm68.26.35-9.62-16.23c-.12-.23-.46-.35-.7-.35h-6.72c-.46 0-.81.35-.81.81v15.41c0 .46-.35.81-.81.81h-6.26c-.46 0-.81-.35-.81-.81v-43.92c0-.46.35-.81.81-.81h19.24c9.04 0 14.95 5.79 14.95 14.26 0 7.53-4.64 11.82-9.74 13.1-.58.12-.81.7-.58 1.27 1.85 3.01 7.65 12.28 9.85 15.65.35.58 0 1.27-.7 1.27h-7.3c-.34 0-.57-.12-.8-.46zm1.04-30.95c0-4.4-3.24-7.19-7.76-7.19h-10.2c-.46 0-.81.35-.81.81v12.86c0 .46.35.81.81.81h10.2c4.52.01 7.76-2.77 7.76-7.29zm62.24 30.6v-43.92c0-.46.35-.81.81-.81h29.67c.46 0 .81.35.81.81v5.45c0 .46-.35.81-.81.81h-21.67c-.46 0-.81.35-.81.81v10.2c0 .46.35.81.81.81h21.09c.46 0 .81.35.81.81v5.45c0 .46-.35.81-.81.81h-21.09c-.46 0-.81.35-.81.81v11.13c0 .46.35.81.81.81h21.67c.46 0 .81.35.81.81v5.45c0 .46-.35.81-.81.81h-29.67c-.46-.24-.81-.59-.81-1.05zm-48.21-22.14c0-14.02 10.08-23.53 23.06-23.53 8.46 0 13.91 4.29 17.15 9.5.23.35.12.93-.35 1.04l-5.22 2.78c-.35.23-.81.12-.93-.23-2.2-3.48-6.26-6.03-10.66-6.03-8.69 0-15.18 6.84-15.18 16.46 0 9.5 6.49 16.46 15.18 16.46 4.4 0 8.46-2.55 10.66-6.03.23-.35.58-.46.93-.23l5.22 2.67c.46.23.58.7.35 1.16-3.36 5.22-8.81 9.62-17.15 9.62-12.98-.11-23.06-9.61-23.06-23.64zm-103.03 22.37v-34.65l-13.79 34.88c0 .12-.23.23-.35.23h-2.9c-.12 0-.35-.12-.35-.23l-13.91-34.88v34.65c0 .35-.23.58-.58.58h-6.95c-.35 0-.58-.23-.58-.58v-44.5c0-.35.23-.58.58-.58h9.97c.46 0 .81.23 1.04.7l12.17 31.29 12.05-31.29c.12-.46.58-.7 1.04-.7h9.97c.35 0 .58.23.58.58v44.5c0 .35-.23.58-.58.58h-6.95c-.23 0-.46-.23-.46-.58z"/></svg>
