<svg xmlns="http://www.w3.org/2000/svg" id="Layer_1" data-name="Layer 1" viewBox="0 0 150 150"><defs><style>.cls-2{isolation:isolate}.cls-3{fill:#fff}</style></defs><circle cx="75" cy="75" r="72.5" style="fill:#009fe3"/><g class="cls-2"><path class="cls-3" d="M56.81 53h-4.66l-.66-4.2a6.13 6.13 0 0 0-2.36-1.44 9.93 9.93 0 0 0-3.35-.53 7.33 7.33 0 0 0-6.3 3 12.55 12.55 0 0 0-2.24 7.81v1.12a12.86 12.86 0 0 0 2.17 7.75 7.33 7.33 0 0 0 6.24 3 11.3 11.3 0 0 0 3.42-.51 5.21 5.21 0 0 0 2.36-1.45l.65-4.19h4.66v6.23a14.36 14.36 0 0 1-4.85 3.55 16.65 16.65 0 0 1-6.63 1.31A13.43 13.43 0 0 1 34.88 70a16.7 16.7 0 0 1-4-11.36v-1.02a16 16 0 0 1 4-11.29 13.39 13.39 0 0 1 10.38-4.4 16.15 16.15 0 0 1 6.57 1.31 13.41 13.41 0 0 1 4.85 3.54V53ZM86 53h-4.7l-.66-4.2a6 6 0 0 0-2.36-1.44 9 9 0 0 0-3.34-.6 7.32 7.32 0 0 0-6.3 3 12.55 12.55 0 0 0-2.24 7.81v1.12a12.51 12.51 0 0 0 2.17 7.81 7.31 7.31 0 0 0 6.23 3 11.2 11.2 0 0 0 3.42-.5 5.1 5.1 0 0 0 2.36-1.45l.66-4.19h4.66v6.24a14.42 14.42 0 0 1-4.9 3.51 16.62 16.62 0 0 1-6.63 1.31A13.43 13.43 0 0 1 64 70a16.13 16.13 0 0 1-4-11.27v-1a16.05 16.05 0 0 1 4-11.29A13.41 13.41 0 0 1 74.34 42a16.11 16.11 0 0 1 6.57 1.31 13.78 13.78 0 0 1 4.86 3.54V53Zm14.34-6.8-2.43.46 5.58 18.91.39 1.71h.12l.39-1.71L110 46.66l-2.36-.46v-3.81h11.49v3.81l-2.63.32-9.25 27.32h-6.5l-9.34-27.32-2.63-.32v-3.81h11.5l.06 3.81Z"/></g><g class="cls-2"><path class="cls-3" d="M46.37 92.16h-1.45l-.27-3a5.4 5.4 0 0 0-2.16-1.58 7.94 7.94 0 0 0-3.22-.6 6.84 6.84 0 0 0-4.14 1.12 3.53 3.53 0 0 0-1.51 2.82 3.43 3.43 0 0 0 1.32 2.69 11.92 11.92 0 0 0 4.59 1.91 13.45 13.45 0 0 1 5.26 2.36 4.87 4.87 0 0 1 1.77 3.94 4.78 4.78 0 0 1-2.1 4.07 8.91 8.91 0 0 1-5.32 1.51 11.41 11.41 0 0 1-4.27-.79 8.22 8.22 0 0 1-3.22-2.3v-3.67h1.45l.26 3.15a6.4 6.4 0 0 0 2.5 1.71 8.9 8.9 0 0 0 3.28.59 6.79 6.79 0 0 0 4.08-1.09 3.42 3.42 0 0 0 1.58-3 3.76 3.76 0 0 0-1.32-2.9 12.53 12.53 0 0 0-4.52-2 14.28 14.28 0 0 1-5.32-2.3A4.67 4.67 0 0 1 31.8 91a4.77 4.77 0 0 1 2-4 8.57 8.57 0 0 1 5.31-1.58 10.7 10.7 0 0 1 4.2.79 7 7 0 0 1 2.89 2.17v3.74Z"/></g><g class="cls-2"><path class="cls-3" d="M49.32 85.52v-1.31h4.14V94a6.37 6.37 0 0 1 2.1-2.24 5.8 5.8 0 0 1 3.09-.76 4.79 4.79 0 0 1 3.87 1.58 7.16 7.16 0 0 1 1.38 4.82v8.34l2.43.14v1.31h-6.57v-1.31l2.43-.2v-8.34a5.51 5.51 0 0 0-1-3.75 3.58 3.58 0 0 0-2.83-1.12 4.9 4.9 0 0 0-3 .93 5.78 5.78 0 0 0-1.78 2.49v9.72l2.43.19v1.32h-6.62v-1.32l2.44-.19v-19.9Z"/></g><g class="cls-2"><path class="cls-3" d="M69.15 99a8.75 8.75 0 0 1 1.91-5.78 7 7 0 0 1 10.24 0A8.39 8.39 0 0 1 83.21 99v.46a8.75 8.75 0 0 1-1.91 5.78 6.34 6.34 0 0 1-5.12 2.23 6.23 6.23 0 0 1-5.12-2.23 8.44 8.44 0 0 1-1.91-5.78Zm1.71.52a7.72 7.72 0 0 0 1.37 4.66 4.62 4.62 0 0 0 3.87 1.91 4.57 4.57 0 0 0 3.9-1.92 7.75 7.75 0 0 0 1.38-4.66v-.46a7.56 7.56 0 0 0-1.38-4.6 4.88 4.88 0 0 0-7.74 0 7.64 7.64 0 0 0-1.37 4.6Zm15.04-6.9V91.3h3.87l.23 2.5a5.49 5.49 0 0 1 5-2.8 5.18 5.18 0 0 1 4.47 2.3 10.59 10.59 0 0 1 1.64 6.11v.33a9.11 9.11 0 0 1-1.64 5.71A5.18 5.18 0 0 1 95 107.6a6.08 6.08 0 0 1-3-.66 5.48 5.48 0 0 1-2-1.84v6.77l2.44.19v1.32h-6.61v-1.32l2.43-.19v-19Zm13.45 6.76a9.13 9.13 0 0 0-1.18-4.93 3.94 3.94 0 0 0-3.54-1.91 4.48 4.48 0 0 0-2.89.86 5.11 5.11 0 0 0-1.64 2.23v7.69a4.39 4.39 0 0 0 1.77 2 4.87 4.87 0 0 0 2.82.72 4.05 4.05 0 0 0 3.48-1.7 8.07 8.07 0 0 0 1.18-4.6Z"/></g></svg>
