<svg xmlns="http://www.w3.org/2000/svg" version="1.1" id="Laag_1" x="0" y="0" viewBox="0 0 800 300" style="enable-background:new 0 0 800 300" xml:space="preserve"><style>.st41{fill:#7bb63e}</style><path class="st41" d="M229.34 186.24h5.62v-18.96h21.37v-5.25h-21.37v-13.65h23.53v-5.25h-29.15zm56.99-10.5c-3.17 3.95-6.55 5.93-10.13 5.93-4.53 0-6.79-2.51-6.79-7.53v-19.4h-5.62v20.01c0 3.46.99 6.34 2.96 8.65 1.98 2.31 4.67 3.46 8.09 3.46 4.24 0 8.03-1.83 11.36-5.5h.12v.93l.68 3.95h4.94v-31.5h-5.62v21h.01zm14.01-34.58h5.62v45.08h-5.62zm21.98 10.19c0-2.06.42-3.48 1.26-4.26s2-1.17 3.46-1.17 2.95.27 4.48.8h.43v-4.64c-1.85-1.03-3.94-1.54-6.27-1.54s-4.4.88-6.24 2.62c-1.83 1.75-2.75 4.42-2.75 8v3.58h-5.74v4.82h5.74v26.68h5.62v-26.68h15.99v26.68h5.62v-31.5h-21.61v-3.39h.01zm15.81-9.33h6.05v6.05h-6.05zm14.44-.86h5.62v45.08h-5.62zm50.94 12.97c-4.98 0-8.73 2.08-11.24 6.24h-.19c-.7-1.77-1.86-3.25-3.49-4.45s-3.59-1.79-5.9-1.79c-4.28 0-7.74 1.83-10.38 5.5h-.12v-.93l-.68-3.95h-4.94v31.49h5.62v-21c2.39-3.95 5.35-5.93 8.89-5.93 2.3 0 3.93.63 4.88 1.89.95 1.25 1.42 3.22 1.42 5.9v19.14H393v-21c2.39-3.95 5.35-5.93 8.89-5.93 2.27 0 3.88.63 4.85 1.89.97 1.25 1.45 3.22 1.45 5.9v19.14h5.62v-20.26c0-3.13-.88-5.89-2.62-8.28-1.74-2.38-4.3-3.57-7.68-3.57zm30.87 0c-4.82 0-8.48 1.58-10.99 4.75s-3.77 7.19-3.77 12.07 1.41 8.75 4.23 11.61 6.57 4.29 11.24 4.29 8.74-.97 12.2-2.9v-5.44h-.31c-3.13 2.06-6.53 3.09-10.22 3.09-3.68 0-6.43-.8-8.24-2.41-1.82-1.61-2.89-3.85-3.21-6.73h23.83v-1.98c0-4.57-1.26-8.44-3.77-11.61-2.51-3.16-6.18-4.74-10.99-4.74zm-9.08 13.77c.16-2.96 1.15-5.21 2.96-6.73s3.85-2.29 6.11-2.29c2.27 0 4.31.76 6.15 2.29 1.83 1.52 2.83 3.77 2.99 6.73H425.3zm46.62-13.77c-4.24 0-8.03 1.83-11.36 5.5h-.12v-.93l-.68-3.95h-4.94v31.49h5.62v-21c3.17-3.95 6.55-5.93 10.13-5.93 4.53 0 6.79 2.51 6.79 7.53v19.39h5.62v-20c0-3.46-.99-6.34-2.96-8.64-1.99-2.31-4.68-3.46-8.1-3.46zm42.47 12.29h16.06v5h-16.06zm47.9-1.67c-1.97-.58-4.1-1.21-6.39-1.89-2.29-.68-4.38-1.29-6.27-1.85s-3.5-1.35-4.83-2.37c-1.32-1.02-1.99-2.32-1.99-3.9 0-2.23 1.03-3.96 3.09-5.22 1.74-1.06 4.03-1.67 6.85-1.83h3.09c3.1.19 6.31.95 9.64 2.3h.43v-5.25c-3.87-1.48-8.2-2.22-13-2.22-4.79 0-8.6 1.22-11.42 3.64-.56.48-1.05 1-1.5 1.53-1.81 2.13-2.72 4.62-2.72 7.49 0 2.06.48 3.84 1.45 5.34s2.23 2.68 3.77 3.52c1.54.84 3.25 1.54 5.13 2.1s3.74 1.11 5.6 1.66 3.54 1.05 5.04 1.49c3.51 1.11 5.26 2.83 5.26 5.16 0 4.77-3.6 7.16-10.81 7.16-5.47 0-10.36-1.19-14.64-3.58h-.31v5.5c4.69 2.22 9.63 3.34 14.82 3.34s9.23-1.12 12.14-3.37c2.9-2.24 4.35-5.13 4.35-8.68 0-2.62-.64-4.8-1.91-6.56-1.27-1.76-2.9-2.92-4.87-3.51zm26.09-10.62c-4.75 0-8.57 1.5-11.45 4.51-2.88 3.01-4.32 6.96-4.32 11.86 0 4.9 1.44 8.85 4.32 11.86 2.88 3 6.7 4.51 11.45 4.51 4.76 0 8.59-1.51 11.49-4.51 2.9-3.01 4.35-6.96 4.35-11.86 0-4.9-1.45-8.85-4.35-11.86-2.91-3.01-6.73-4.51-11.49-4.51zm7.16 24.79c-2.04 1.88-4.42 2.81-7.13 2.81s-5.09-.94-7.13-2.81-3.06-4.7-3.06-8.46c0-3.77 1.02-6.58 3.06-8.43 2.04-1.85 4.42-2.78 7.13-2.78s5.09.93 7.13 2.78c2.04 1.85 3.06 4.66 3.06 8.43s-1.02 6.59-3.06 8.46zm95.04-24.18-7.47 24.66h-.18l-7.65-24.66h-4.81l-7.65 24.71h-.19l-7.47-24.71h-5.93l.19.54 10.62 30.96h5.48l7.16-22.55.2.01 7.17 22.54h5.65l10.81-31.5zm21.54-.61c-4.1 0-7.94.78-11.52 2.34v5.07h.37c2.88-1.4 5.97-2.1 9.26-2.1s5.61.6 6.95 1.79 2.01 3.15 2.01 5.87v.49h-7.47c-4.65 0-8.18.91-10.59 2.72s-3.61 4.18-3.61 7.1.98 5.23 2.93 6.92c1.96 1.69 4.33 2.53 7.14 2.53 4.65 0 8.46-1.53 11.42-4.57h.19l.68 3.95h4.94v-19.95c0-3.33-1.09-6.2-3.27-8.58-2.2-2.39-5.34-3.58-9.43-3.58zm7.07 23.16c-1.15 1.32-2.57 2.42-4.26 3.3-1.69.89-3.44 1.33-5.25 1.33-4.36 0-6.55-1.63-6.55-4.91 0-3.27 3.11-4.91 9.33-4.91h6.73v5.19zm17.79-17.67h-.12v-.93l-.68-3.95h-4.94v31.49h5.62v-21.36c1.19-1.69 2.84-3.01 4.94-3.95 2.1-.95 4.36-1.42 6.8-1.42h.49v-5.37h-.49c-4.79 0-8.66 1.83-11.62 5.49zm29.2-5.49c-4.82 0-8.48 1.58-10.99 4.75s-3.77 7.19-3.77 12.07 1.41 8.75 4.23 11.61 6.57 4.29 11.24 4.29 8.74-.97 12.2-2.9v-5.44h-.31c-3.13 2.06-6.54 3.09-10.22 3.09s-6.43-.8-8.24-2.41-2.88-3.85-3.21-6.73h23.84v-1.98c0-4.57-1.26-8.44-3.77-11.61-2.52-3.16-6.19-4.74-11-4.74zm-9.08 13.77c.16-2.96 1.15-5.21 2.96-6.73s3.85-2.29 6.12-2.29c2.26 0 4.31.76 6.14 2.29 1.83 1.52 2.83 3.77 3 6.73H757.1zm-114.42 14.02c-1.23 0-2.25-.16-3.03-.49-.95-.41-1.42-1.48-1.42-3.21v-18.66h7.99v-4.82h-7.99v-7.05h-5.62v7.05h-14.45v-3.4c0-1.62.27-2.83.79-3.66.14-.23.29-.44.48-.6.84-.78 1.99-1.17 3.46-1.17 1.46 0 2.95.27 4.48.8h.43v-4.63c-1.85-1.03-3.94-1.54-6.27-1.54s-4.4.88-6.24 2.62c-1.18 1.13-1.98 2.64-2.4 4.53-.23 1.04-.35 2.2-.35 3.47v3.58h-5.74v4.82h5.74v26.68h5.62v-26.68h14.46v19.14c0 5.43 3 8.15 9.02 8.15 1.97 0 3.83-.46 5.56-1.36v-4.57h-.43c-1.5.67-2.85 1-4.09 1zm-135.94-.99c-1.48.66-2.84.99-4.08.99-1.23 0-2.24-.16-3.02-.49-.95-.41-1.42-1.48-1.42-3.21v-18.66h8.16v-4.82h-8.16v-7.05h-5.62v7.05h-6.68v4.82h6.68v19.14c0 5.43 3 8.15 9.02 8.15 1.98 0 3.83-.46 5.56-1.36v-4.57l-.44.01zm-465.31 8.88c1.24.92 2.58 1.7 4.01 2.32.1.07.2.13.3.2v-38.19c-1.54.65-2.98 1.47-4.31 2.45v33.22zm-4.31-4.29v-24.63c-2.56 3.44-4.08 7.7-4.08 12.32a20.62 20.62 0 0 0 4.08 12.31zm33-13.14h1.91v-47.1c-.65.31-1.29.64-1.91 1v46.1zm-22.48 20.45h4.3v-40.2c-1.48.12-2.93.4-4.3.83v39.37zm8.61 0h4.31v-57.45c-2.38 3.7-3.9 8-4.3 12.62v44.83h-.01zm6.22-13.5v13.5h1.91v-62.17c-.67.67-1.31 1.37-1.91 2.1v46.57zm3.83-50.4v63.9h1.91v-65.35c-.66.46-1.3.94-1.91 1.45zm11.47 43.45h1.91v-49.45c-.65.1-1.28.22-1.91.36v49.09zm12.44 0h1.91v-48.56c-.63-.19-1.27-.36-1.91-.51v49.07zm-16.26 0h1.91V123.8c-.65.2-1.29.42-1.91.66v47.92zm7.65-49.68v49.68h4.3v-49.71c-.64-.05-1.29-.07-1.94-.07-.79 0-1.58.03-2.36.1zm15.52 3.2c-.99-.53-2.02-1.01-3.09-1.42v47.9h4.3v-48.33c-.06.09-.13.18-.19.27-.35.51-.68 1.05-1.02 1.58zm3.13-4.32v50.8h4.3v-55.06c-1.55 1.3-2.99 2.72-4.3 4.26zm18.66 50.8h1.91v-62.56c-.65.11-1.28.24-1.91.38v62.18zm-3.83 0h1.91V110.7c-.65.19-1.28.39-1.91.62v61.06zm-6.22 0h4.3v-60.31c-1.49.63-2.93 1.37-4.3 2.2v58.11zm13.87 0h1.91v-63c-.64.04-1.28.1-1.91.17v62.83zm26.31 0h1.91v-53.2c-.62-.6-1.26-1.18-1.91-1.73v54.93zm-22.48-63.06v63.06h1.91v-63.02c-.58-.03-1.17-.05-1.76-.05-.05.01-.1.01-.15.01zm3.82 63.06h4.31v-62.14c-1.4-.33-2.84-.57-4.31-.73v62.87zm14.83 0h1.91v-56.43c-.62-.45-1.26-.89-1.91-1.3v57.73zm-8.61 0h4.31v-60.03a34.65 34.65 0 0 0-4.31-1.6v61.63zm31.09 0v20.45h1.91v-53.22c-.63-.09-1.27-.16-1.91-.21v32.98zm-6.22-32.72v53.17h4.3v-53.5h-.11c-1.42 0-2.82.12-4.19.33zm10.05 53.17h.81c.37-.1.74-.2 1.1-.31v-52.06c-.63-.19-1.27-.35-1.91-.49v52.86zm3.82-.95c.65-.25 1.29-.52 1.91-.82v-49.14c-.62-.29-1.26-.57-1.91-.81v50.77zm-22.48-19.5v20.45h4.31v-65.47a35.265 35.265 0 0 0-4.31-6.16v51.18zm30.13-26.8v41.83a27.34 27.34 0 0 0 4.31-4.49v-32.85a26.95 26.95 0 0 0-4.31-4.49zm-3.82 44.48c.66-.38 1.29-.78 1.91-1.21v-44.72c-.62-.43-1.26-.83-1.91-1.21v47.14zm10.04-37.12v27.09c2.3-3.99 3.61-8.61 3.61-13.54.01-4.93-1.31-9.56-3.61-13.55zM83.87 180.26l-1.67.13c-.15-.66-.36-1.14-.63-1.44-.45-.48-1.01-.72-1.68-.72-.54 0-1.01.15-1.41.45-.53.39-.95.95-1.25 1.69-.31.74-.47 1.8-.48 3.17.4-.62.9-1.08 1.48-1.37a4 4 0 0 1 1.84-.45c1.12 0 2.07.41 2.86 1.24.79.82 1.18 1.89 1.18 3.19 0 .86-.18 1.66-.55 2.39-.37.74-.88 1.3-1.53 1.69-.65.4-1.38.59-2.2.59-1.4 0-2.54-.51-3.42-1.55-.88-1.03-1.32-2.72-1.32-5.09 0-2.64.49-4.56 1.46-5.77.85-1.04 2-1.57 3.44-1.57 1.08 0 1.96.3 2.65.91.69.61 1.1 1.44 1.23 2.51zm-6.85 5.89c0 .58.12 1.13.37 1.66s.59.93 1.03 1.21.91.42 1.39.42c.71 0 1.32-.29 1.83-.86.51-.57.77-1.35.77-2.33 0-.94-.25-1.69-.76-2.24-.51-.54-1.14-.81-1.9-.81s-1.4.27-1.93.81c-.54.55-.8 1.26-.8 2.14zm19.87 4.43h-1.68v-10.7c-.4.39-.93.77-1.59 1.16-.66.39-1.24.67-1.77.87v-1.63c.94-.44 1.76-.98 2.46-1.6.7-.63 1.2-1.24 1.49-1.83h1.08l.01 13.73zm9.07-6.74c0-1.61.17-2.92.5-3.9.33-.98.83-1.74 1.48-2.28.66-.53 1.48-.8 2.48-.8.73 0 1.38.15 1.93.45.55.29 1.01.72 1.37 1.28s.64 1.23.85 2.03.31 1.88.31 3.23c0 1.6-.16 2.9-.49 3.89-.33.99-.82 1.75-1.48 2.29-.65.54-1.48.81-2.48.81-1.32 0-2.35-.47-3.11-1.42-.91-1.16-1.36-3.01-1.36-5.58zm1.73 0c0 2.25.26 3.74.79 4.48.53.74 1.17 1.11 1.95 1.11s1.42-.37 1.94-1.12c.53-.75.79-2.24.79-4.48 0-2.25-.26-3.75-.79-4.49-.53-.74-1.18-1.11-1.96-1.11-.77 0-1.39.33-1.85.98-.58.84-.87 2.38-.87 4.63zm13.67 0c0-1.61.17-2.92.5-3.9.33-.98.83-1.74 1.48-2.28.66-.53 1.48-.8 2.48-.8.73 0 1.38.15 1.93.45.55.29 1.01.72 1.37 1.28s.64 1.23.85 2.03c.21.8.31 1.88.31 3.23 0 1.6-.17 2.9-.49 3.89-.33.99-.82 1.75-1.48 2.29s-1.48.81-2.48.81c-1.32 0-2.35-.47-3.11-1.42-.91-1.16-1.36-3.01-1.36-5.58zm1.73 0c0 2.25.26 3.74.79 4.48.53.74 1.17 1.11 1.94 1.11s1.42-.37 1.94-1.12c.53-.75.79-2.24.79-4.48 0-2.25-.26-3.75-.79-4.49-.52-.74-1.18-1.11-1.96-1.11-.77 0-1.39.33-1.85.98-.57.84-.86 2.38-.86 4.63zm13.67 3.16 1.76-.15c.13.86.43 1.5.91 1.93.47.43 1.05.65 1.72.65.81 0 1.49-.3 2.05-.91s.84-1.42.84-2.43c0-.96-.27-1.71-.81-2.27-.54-.55-1.24-.83-2.11-.83-.54 0-1.03.12-1.47.37s-.78.57-1.02.96l-1.58-.2 1.32-7.02h6.8v1.6h-5.46l-.73 3.68c.82-.57 1.68-.86 2.58-.86 1.19 0 2.2.41 3.02 1.24.82.83 1.23 1.89 1.23 3.19 0 1.24-.36 2.31-1.08 3.21-.88 1.11-2.07 1.66-3.59 1.66-1.24 0-2.26-.35-3.05-1.04-.77-.71-1.22-1.63-1.33-2.78z"/><path class="st41" d="M182.21 128.45c-.58-.25-1.17-.48-1.76-.7s-1.19-.43-1.8-.62l1.87-4.1-6.52.62-2.9.28-3.61.34 3.58 5.04.21.3 3.8 5.33 1.98-4.34c.61.18 1.21.38 1.81.6.59.21 1.18.44 1.76.69 13.15 5.57 22.4 18.6 22.4 33.75 0 15.24-9.59 29.04-23.88 34.34-.68.25-1.39.49-2.19.73-.46.14-.93.28-1.4.4l-1.23.32H157c-8.04 0-15 0-20.99-.01-16.27 0-35.39.01-57.74.01H46.2l.84 1.82.91 1.96h30.33c22.35 0 41.48 0 57.74-.01 5.98 0 12.94.01 20.98.01h17.82l.47-.12 1.23-.33c.44-.11.93-.25 1.52-.43.88-.26 1.67-.53 2.42-.81 15.76-5.85 26.34-21.08 26.34-37.89.02-16.53-10.09-30.98-24.59-37.18z"/><path class="st41" d="m40.86 198.9-2.75-5.95-2.73 3.88c-.51-.37-1.02-.75-1.5-1.15-.49-.4-.97-.82-1.43-1.25-6.01-5.58-9.6-13.5-9.6-21.99 0-14.48 10.3-26.6 23.96-29.41 3-17.57 18.34-30.99 36.76-30.99 3.47 0 6.92.49 10.24 1.43 8.36-9.41 20.39-14.9 33.11-14.9 16.2 0 30.6 8.81 38.33 22.11l1.9-.18 2.22-.21c-3.38-6.35-8.15-11.87-14.08-16.21-8.3-6.08-18.11-9.29-28.38-9.29-12.94 0-25.33 5.24-34.35 14.46-2.96-.66-5.97-1-9-1-9.74 0-19.19 3.48-26.62 9.81a41.214 41.214 0 0 0-13.38 21.87c-14.34 4.11-24.51 17.4-24.51 32.51 0 9.67 4.2 18.78 11.19 25.11.47.43.95.83 1.45 1.23.49.39.99.78 1.5 1.15l-2.63 3.72 6.52.59 3.75.34 2.77.25-1.94-4.2-.8-1.73z"/><path class="st41" d="M41.43 157.73c1.42.49 2.85.95 4.31 1.38v-4.97c-1.54.65-2.98 1.47-4.31 2.45v1.14zm6.21 1.92c1.42.39 2.85.74 4.3 1.07v-8.1c-1.48.12-2.93.4-4.3.83v6.2zm8.61 1.94c1.42.25 2.86.48 4.3.67v-26.88c-2.38 3.7-3.9 8-4.3 12.62v13.59zm6.22.9c.64.07 1.27.14 1.91.2v-32.03c-.67.67-1.31 1.37-1.91 2.1v29.73zm7.65.58c.64.02 1.28.04 1.91.05v-37.84c-.65.31-1.29.64-1.91 1v36.79zm-3.82-.22c.64.05 1.27.09 1.91.13v-35.49c-.66.45-1.3.93-1.91 1.44v33.92zm11.47.22c.64-.02 1.28-.05 1.91-.09v-40.05c-.65.1-1.28.22-1.91.36v39.78zm12.44-1.24c.64-.1 1.28-.21 1.91-.33v-37.68c-.63-.19-1.27-.36-1.91-.51v38.52zm-16.26 1.31c.64 0 1.28-.01 1.91-.02V123.8c-.65.2-1.29.42-1.91.66v38.68zm7.65-40.44v40.16c1.45-.11 2.88-.25 4.3-.41v-39.78c-.64-.05-1.29-.07-1.94-.07-.79 0-1.58.03-2.36.1zm15.52 3.2c-.99-.53-2.02-1.01-3.09-1.42v36.65c1.45-.29 2.89-.62 4.3-.98v-36.1c-.06.09-.13.18-.19.27-.35.51-.68 1.05-1.02 1.58zm3.13-4.32v38.07c1.45-.4 2.89-.82 4.3-1.28v-41.05c-1.55 1.3-2.99 2.72-4.3 4.26zm18.66 30.76c.64-.34 1.28-.68 1.91-1.03v-41.49c-.65.11-1.28.24-1.91.38v42.14zm-3.83 1.89c.64-.3 1.28-.61 1.91-.92V110.7c-.65.19-1.28.39-1.91.62v42.91zm-6.22 2.63c1.46-.55 2.89-1.14 4.3-1.76v-43.03c-1.49.63-2.93 1.37-4.3 2.2v42.59zm13.87-6.65c.65-.38 1.28-.78 1.91-1.17v-39.66c-.64.04-1.28.1-1.91.17v40.66zm26.31-32.76v7.37c.67-1.1 1.31-2.22 1.91-3.36v-2.28c-.62-.6-1.26-1.18-1.91-1.73zm-22.48-8.13v38.48c.65-.43 1.28-.87 1.91-1.31v-37.13c-.58-.03-1.17-.05-1.76-.05-.05.01-.1.01-.15.01zm3.82 35.77a85.96 85.96 0 0 0 4.31-3.47v-31.38c-1.4-.33-2.84-.57-4.31-.73v35.58zm14.83-14.66c.66-.87 1.3-1.76 1.91-2.65v-11.83c-.62-.45-1.26-.89-1.91-1.3v15.78zm-8.61 9.47c1.5-1.39 2.94-2.83 4.31-4.32v-23.23a34.65 34.65 0 0 0-4.31-1.6v29.15z" style="opacity:.25"/></svg>
