<svg xmlns="http://www.w3.org/2000/svg" version="1.1" id="Laag_1" x="0" y="0" viewBox="0 0 270 300" style="enable-background:new 0 0 270 300" xml:space="preserve"><style>.st0{fill:#b4141a}.st1{fill:#801255}.st2{fill:#82b6b8}.st3{fill:#006782}</style><path class="st0" d="M106.65 212.44c-13.69 0-24.78 11.1-24.78 24.78 0 13.69 11.1 24.78 24.78 24.78 13.69 0 24.79-11.1 24.79-24.78 0-13.69-11.1-24.78-24.79-24.78zm7.02 32.64c-1.71 1.66-3.94 2.5-6.64 2.5-6.2 0-10.52-4.26-10.52-10.36s4.33-10.36 10.52-10.36c2.39 0 4.78.89 6.38 2.37.45.44.64.86.64 1.35 0 .88-.7 1.56-1.6 1.56-.48 0-.84-.13-1.62-.87-.45-.43-1.71-1.41-3.76-1.41-4.09 0-6.95 3.03-6.95 7.36 0 4.31 2.84 7.32 6.91 7.32 1.76 0 3.1-.51 4.33-1.66.47-.43.88-.62 1.33-.62.89 0 1.56.65 1.56 1.52 0 .48-.19.9-.58 1.3z"/><path class="st1" d="M164.18 212.44c-13.69 0-24.78 11.1-24.78 24.78 0 13.69 11.1 24.78 24.78 24.78 13.69 0 24.78-11.1 24.78-24.78 0-13.69-11.09-24.78-24.78-24.78zm-.02 35.14c-6.08 0-10.48-4.36-10.48-10.36s4.41-10.36 10.48-10.36c6.1 0 10.52 4.36 10.52 10.36 0 6.01-4.43 10.36-10.52 10.36z"/><path class="st1" d="M164.16 229.86c-4.05 0-6.87 3.03-6.87 7.36 0 4.31 2.82 7.32 6.87 7.32 4.07 0 6.91-3.01 6.91-7.32 0-4.33-2.84-7.36-6.91-7.36z"/><path class="st2" d="M222.22 212.39c-13.69 0-24.79 11.1-24.79 24.78 0 13.69 11.1 24.78 24.79 24.78S247 250.85 247 237.17c0-13.69-11.1-24.78-24.78-24.78zm15.16 33.19c0 1.36-.93 1.85-1.72 1.85s-1.72-.48-1.72-1.85v-9.33c0-4.27-1.5-6.34-4.59-6.34-4.71 0-5.08 5.17-5.08 6.75v8.92c0 1.36-.93 1.85-1.72 1.85-.8 0-1.72-.48-1.72-1.85v-9.9c0-4.15-1.2-5.77-4.27-5.77-2.5 0-5.2 2.23-5.2 7.12v8.55c0 1.36-.93 1.85-1.72 1.85-.8 0-1.72-.48-1.72-1.85v-13.65c0-.75-.04-2.02-.08-3.04-.02-.54.13-.98.44-1.29.43-.45 1.04-.48 1.21-.48 1.02 0 1.65.65 1.68 1.75l.04 1.11c1.33-1.89 3.61-3.06 6.05-3.06 1.94 0 4.47.65 5.9 3.6 1.41-2.33 3.75-3.6 6.64-3.6 4.82 0 7.59 2.99 7.59 8.2v10.46h-.01zM60.75 196.94c-.81 0-2.38-.41-2.38-2.65v-23.9h-.14L47.5 194.77c-.75 1.76-1.97 2.17-2.85 2.17s-2.11-.41-2.85-2.17L31 170.39h-.07v23.9c0 2.24-1.56 2.65-2.38 2.65-.81 0-2.38-.41-2.38-2.65v-31.17c0-2.65 1.9-3.19 2.85-3.19 1.02 0 2.24.34 3.19 2.58l12.49 28.66h.14l12.22-28.66c.95-2.24 2.17-2.58 3.19-2.58.95 0 2.85.54 2.85 3.19v31.17c.03 2.24-1.53 2.65-2.35 2.65zm26.28-16.09v13.45c0 2.24-1.56 2.65-2.38 2.65s-2.38-.41-2.38-2.65v-13.45l-11.95-17.11c-.47-.68-.54-1.22-.54-1.56 0-1.29 1.02-2.24 2.31-2.24.61 0 1.36.2 2.04 1.22l10.59 15.75 10.59-15.75c.68-.95 1.43-1.22 2.1-1.22 1.36 0 2.31.95 2.31 2.17 0 .34-.07.95-.54 1.63l-12.15 17.11z"/><path class="st0" d="M104.81 193.88c-.88-.75-1.22-1.49-1.22-2.17 0-1.15.88-2.24 2.24-2.24.54 0 1.15.2 1.76.75 2.24 1.97 4.55 2.92 7.13 2.92 3.46 0 7.47-1.97 7.47-6.32 0-4.41-3.73-5.5-8.62-6.99-4.68-1.43-9.44-3.53-9.44-10.12 0-7.13 6.31-10.12 12.22-10.12 3.19 0 6.18.95 8.42 2.58.95.68 1.22 1.43 1.22 2.04 0 1.29-.95 2.24-2.24 2.24-.61 0-1.09-.13-1.9-.81-1.56-1.22-3.46-1.97-5.77-1.97-3.33 0-7.13 1.7-7.13 5.84 0 4.07 3.33 5.09 7.4 6.38 4.96 1.56 10.66 3.26 10.66 10.46 0 7.47-6.04 10.93-12.36 10.93-3.59 0-7.32-1.22-9.84-3.4zm58.8 3.06c-.81 0-2.38-.41-2.38-2.65v-14.46H141.2v14.46c0 2.24-1.56 2.65-2.38 2.65s-2.38-.41-2.38-2.65v-31.71c0-2.24 1.56-2.65 2.38-2.65s2.38.41 2.38 2.65v13.1h20.03v-13.1c0-2.24 1.56-2.65 2.38-2.65s2.38.41 2.38 2.65v31.71c0 2.24-1.56 2.65-2.38 2.65zm30.83.34c-10.86 0-18.94-7.94-18.94-18.94 0-11.07 8.08-18.74 18.94-18.74 10.93 0 19.08 7.67 19.08 18.74 0 10.99-8.15 18.94-19.08 18.94zm0-33.55c-8.49 0-13.78 6.65-13.78 14.6 0 8.01 5.37 14.67 13.78 14.67 8.56 0 13.92-6.65 13.92-14.67 0-7.94-5.37-14.6-13.92-14.6zm28.58-.54c0-1.9.88-2.78 2.85-2.78h8.35c7.67 0 12.7 3.67 12.7 10.66 0 7.06-5.5 10.73-12.97 10.73h-6.18v12.49c0 2.24-1.56 2.65-2.38 2.65-.81 0-2.38-.41-2.38-2.65l.01-31.1zm10.66 14.6c5.02 0 8.42-2.24 8.42-6.72 0-4.62-3.46-6.45-8.42-6.45h-5.91v13.17h5.91z"/><path class="st2" d="M72.57 62.78c0 13.69-11.1 24.78-24.78 24.78-13.69 0-24.78-11.1-24.78-24.78C23.01 49.09 34.11 38 47.79 38c13.68-.01 24.78 11.09 24.78 24.78zm58.14 0c0 13.69-11.1 24.78-24.78 24.78-13.69 0-24.78-11.1-24.78-24.78 0-13.69 11.1-24.78 24.78-24.78 13.69-.01 24.78 11.09 24.78 24.78z"/><path class="st1" d="M188.86 62.78c0 13.69-11.1 24.78-24.78 24.78-13.69 0-24.78-11.1-24.78-24.78 0-13.69 11.1-24.78 24.78-24.78 13.68-.01 24.78 11.09 24.78 24.78z"/><path class="st2" d="M247 62.78c0 13.69-11.1 24.78-24.78 24.78-13.69 0-24.79-11.1-24.79-24.78 0-13.69 11.1-24.78 24.79-24.78C235.9 37.99 247 49.09 247 62.78z"/><path class="st0" d="M72.57 119.67c0 13.69-11.1 24.78-24.78 24.78-13.69 0-24.78-11.1-24.78-24.78 0-13.69 11.1-24.78 24.78-24.78s24.78 11.09 24.78 24.78z"/><path class="st3" d="M130.71 119.67c0 13.69-11.1 24.78-24.78 24.78-13.69 0-24.78-11.1-24.78-24.78 0-13.69 11.1-24.78 24.78-24.78 13.69 0 24.78 11.09 24.78 24.78z"/><path class="st2" d="M188.86 119.67c0 13.69-11.1 24.78-24.78 24.78-13.69 0-24.78-11.1-24.78-24.78 0-13.69 11.1-24.78 24.78-24.78 13.68 0 24.78 11.09 24.78 24.78z"/><path class="st0" d="M247 119.67c0 13.69-11.1 24.78-24.78 24.78-13.69 0-24.79-11.1-24.79-24.78 0-13.69 11.1-24.78 24.79-24.78 13.68 0 24.78 11.09 24.78 24.78z"/><path class="st3" d="M72.57 237.2c0 13.69-11.1 24.78-24.78 24.78-13.69 0-24.78-11.1-24.78-24.78 0-13.69 11.1-24.78 24.78-24.78 13.68-.01 24.78 11.09 24.78 24.78z"/></svg>
