<svg xmlns="http://www.w3.org/2000/svg" viewBox="0 0 540 300" style="enable-background:new 0 0 540 300" xml:space="preserve"><path d="M67 226.89h-9.31L22.07 130.4h18.62l22.02 64.27C96.54 106.77 173.34 69.54 243.87 57.9l2.15 3.22c-46.19 10.92-88.97 28.64-122.62 63.19l-1.07-.18-1.25-.18h-2.5l-1.25.18-1.25.36-1.25.36-1.07.54-1.07.72-1.07.72-.9.9-.9.9-.72 1.07-.72 1.07-.54 1.07-.36 1.25-.36 1.25-.18 1.25v2.5l.18 1.25.36 1.25.36 1.25.18.18c-.9 1.25-1.79 2.33-2.69 3.58h-4.83v6.8c-13.63 20.42-24.91 44.77-33.5 74.49z" style="fill:#5875aa"/><path d="M310.81 183.21h-40.28c.18 4.48 1.79 8.06 4.65 10.38 2.86 2.51 6.62 3.76 11.46 3.76 5.91 0 10.56-1.61 13.61-4.65l5.01 10.02c-4.65 3.76-11.46 5.55-20.77 5.55-8.59 0-15.4-2.51-20.41-7.52s-7.52-11.99-7.52-21.12c0-8.95 2.69-16.11 8.23-21.48 5.55-5.55 11.99-8.23 19.69-8.23 8.23 0 14.68 2.51 19.69 7.34s7.34 11.1 7.34 18.62c.38 1.78.02 4.1-.7 7.33zm-191-53.89c2.15 0 3.94.72 5.37 2.33 1.43 1.43 2.33 3.22 2.33 5.37s-.72 3.94-2.33 5.37c-1.43 1.43-3.22 2.15-5.37 2.15s-3.94-.72-5.37-2.15-2.15-3.22-2.15-5.37.72-3.94 2.15-5.37c1.43-1.61 3.4-2.33 5.37-2.33zm-6.8 78.05V161.9h-7.16v-10.74h20.59v56.21h-13.43zm44.93-45.47c-3.04 0-5.73.36-8.06 3.22s-3.58 6.09-3.58 10.2v32.04h-13.25v-56.21h13.07v5.19c3.76-4.12 8.59-5.19 14.68-5.19 3.22 0 5.91-.54 8.06 0h1.43v-11.46l13.07-4.83v16.29h15.4v10.56h-15.4v24.7c0 4.12.72 6.8 1.97 8.59 1.25 1.61 3.4 2.51 6.62 2.51s6.09-.9 8.77-2.51v12.17c-3.04 1.07-7.34 1.61-13.07 1.61-5.55 0-9.85-1.61-12.89-4.83s-4.48-7.7-4.48-13.6v-28.64c-5 .02-6.79.19-12.34.19zm82.88 45.47v-4.65c-1.79 1.61-4.48 2.86-7.7 4.12-3.22 1.07-6.27 1.61-8.95 1.61-13.07 0-19.51-6.98-19.51-20.77v-36.52h13.07v35.62c0 7.16 3.22 10.74 9.67 10.74 3.04 0 5.73-.72 8.23-2.33 2.51-1.61 4.3-3.4 5.01-5.37v-38.67h13.07v56.39h-12.89v-.17zm30.25-34.01h27.57c-.9-8.23-5.37-12.35-13.6-12.35-7.52 0-12.18 4.12-13.97 12.35z" style="fill-rule:evenodd;clip-rule:evenodd;fill:#5875aa"/><path d="M390.65 207.37h-13.24l-8.06-41.53-15.39 42.61h-4.84l-15.57-42.61-8.23 41.53h-13.25l15.39-76.97h7.34l16.65 51.91 16.29-51.91h7.16zm39.03-5.55c-1.25 1.97-3.22 3.58-6.27 4.83s-6.09 1.79-9.31 1.79c-6.09 0-10.74-1.61-14.32-4.48-3.4-3.04-5.19-7.34-5.19-12.89 0-6.44 2.51-11.64 7.34-15.22 4.83-3.76 11.81-5.55 20.77-5.55 1.61 0 3.4.18 5.37.72 0-6.62-4.12-10.02-12.53-10.02-5.01 0-9.13.9-12.35 2.51l-2.86-10.2c4.48-2.15 9.85-3.22 16.11-3.22 8.59 0 14.86 1.97 18.8 5.91s5.91 11.28 5.91 22.2v11.99c0 7.52 1.43 12.17 4.48 14.14-1.07 1.97-2.33 3.04-3.58 3.58-1.43.36-2.86.72-4.65.72-1.97 0-3.58-.72-5.01-2.15-1.28-1.61-2.17-3.04-2.71-4.66zm-1.25-20.94c-2.33-.54-3.94-.72-5.01-.72-10.38 0-15.57 3.4-15.57 10.2 0 5.01 2.86 7.52 8.77 7.52 7.88 0 11.81-3.94 11.81-11.81v-5.19z" style="fill:#3eb4f0"/><path d="M473.9 161.73c-3.04 0-5.73.72-8.06 3.58s-3.58 6.09-3.58 10.2v32.04h-13.07v-56.39h13.07v5.19c3.76-4.12 8.59-5.55 14.68-5.55 3.22 0 5.91-.36 8.06.36h2.51V139.7l13.07-4.83v16.29h15.4v10.56h-15.4v24.7c0 4.12.72 6.8 1.97 8.59 1.25 1.61 3.4 2.51 6.62 2.51s6.09-.9 8.77-2.51v12.17c-3.04 1.07-7.34 1.61-13.07 1.61-5.55 0-9.85-1.61-12.89-4.83-3.04-3.22-4.48-7.7-4.48-13.6v-28.64c-5.73.01-7.7.01-13.6.01z" style="fill-rule:evenodd;clip-rule:evenodd;fill:#3eb4f0"/><path d="m110.5 236.37 1.07-2.15c.36.36.72.54 1.25.9.54.18 1.07.36 1.43.36.72 0 1.25-.18 1.61-.54s.72-.9.72-1.43c0-.36-.18-.54-.36-.9-.18-.18-.72-.54-1.25-.9l-1.61-.9c-.54-.36-.9-.72-1.07-1.07-.18-.36-.36-.9-.36-1.43 0-1.07.36-1.97 1.25-2.69s1.97-1.07 3.22-1.07c.9 0 1.97.36 3.22.9l-.9 1.97c-.72-.72-1.61-1.07-2.51-1.07-.54 0-1.07.18-1.43.36-.36.36-.54.72-.54 1.25 0 .36.18.72.36.9.18.18.72.54 1.25.9l1.61.9c.54.18.9.54 1.07 1.07.18.36.36.9.36 1.43 0 1.25-.54 2.33-1.43 3.04-.9.72-2.15 1.07-3.58 1.07-1.23 0-2.49-.36-3.38-.9zm22.73.72 1.43-7.7v-.9c0-1.43-.72-2.15-2.15-2.15-.54 0-1.07.18-1.61.54-.54.36-1.07.72-1.43 1.07l-1.61 9.13h-2.15l3.04-17.36h2.15l-1.07 6.44c.36-.54.9-.9 1.61-1.07.72-.36 1.43-.54 2.15-.54 1.07 0 1.97.36 2.51.9s.9 1.43.9 2.69c0 .36 0 .9-.18 1.25l-1.43 7.7h-2.16zm10.39-4.48c0-2.15.72-4.12 1.97-5.73s2.86-2.33 4.83-2.33c1.43 0 2.69.36 3.4 1.25.72.9 1.25 1.97 1.25 3.4 0 1.25-.18 2.33-.72 3.76-.54 1.25-1.25 2.33-2.33 3.22s-2.33 1.25-3.76 1.25-2.69-.36-3.4-1.25c-.89-.88-1.24-2.13-1.24-3.57zm2.32-.17c0 2.15.9 3.04 2.69 3.04 1.25 0 2.33-.72 3.04-1.97.72-1.25 1.07-2.69 1.07-4.3 0-1.97-.9-3.04-2.69-3.04-.9 0-1.61.36-2.33.9-.72.72-1.07 1.43-1.43 2.33-.17 1.25-.35 2.14-.35 3.04zm17.37 4.11-.9 5.55h-2.15l2.33-13.43c.18-.54.18-1.25.18-1.79s0-1.07-.18-1.61l2.15-.36c0 .18.18.72.18 1.61.36-.36.9-.9 1.61-1.07.72-.36 1.25-.54 1.97-.54 1.61 0 2.69.36 3.4 1.07s1.07 1.97 1.07 3.4c0 2.33-.72 4.3-1.97 5.91s-3.04 2.33-5.01 2.33c-.54 0-.9 0-1.61-.18-.71-.53-1.07-.71-1.07-.89zm.18-1.97c.18.18.36.54.9.54.36.18.9.18 1.25.18 1.61 0 2.86-.54 3.76-1.61.9-1.07 1.25-2.51 1.25-4.48 0-1.07-.18-1.79-.72-2.33s-1.25-.72-2.33-.72c-.36 0-.9.18-1.61.54-.54.36-1.07.72-1.25.9l-1.25 6.98zm17.72 1.97-.9 5.55h-2.15l2.33-13.43c.18-.54.18-1.25.18-1.79s0-1.07-.18-1.61l2.15-.36c0 .18.18.72.18 1.61.36-.36.9-.9 1.61-1.07.72-.36 1.25-.54 1.97-.54 1.61 0 2.69.36 3.4 1.07.72.72 1.07 1.97 1.07 3.4 0 2.33-.72 4.3-1.97 5.91s-3.04 2.33-5.01 2.33c-.54 0-.9 0-1.61-.18-.53-.53-.89-.71-1.07-.89zm.36-1.97c.18.18.36.54.9.54.36.18.9.18 1.25.18 1.61 0 2.86-.54 3.76-1.61.9-1.07 1.25-2.51 1.25-4.48 0-1.07-.18-1.79-.72-2.33s-1.25-.72-2.33-.72c-.36 0-.9.18-1.61.54-.54.36-1.07.72-1.25.9l-1.25 6.98zm19.87-14.68c.36 0 .72.18 1.07.36.36.36.36.72.36 1.07 0 .36-.18.72-.36 1.07-.36.36-.72.36-1.07.36-.36 0-.72-.18-1.07-.36-.36-.36-.36-.72-.36-1.07 0-.36.18-.72.36-1.07.17-.18.53-.36 1.07-.36zm-3.58 17.19 1.79-10.38h-1.61l.36-1.79h3.76l-2.15 12.35h-2.15v-.18zm18.79 0 1.25-7.16c.18-.72.18-1.25.18-1.61 0-1.25-.72-1.97-1.97-1.97-.54 0-1.07.18-1.61.54-.54.36-1.07.72-1.43 1.07l-1.61 9.13h-2.15l1.61-9.31v-.72c0-.72 0-1.43-.18-1.97l2.15-.36c.18 1.07.36 1.79.36 1.79.9-1.25 2.33-1.79 4.12-1.79 2.15 0 3.4 1.07 3.4 3.4 0 .54 0 .9-.18 1.43l-1.25 7.7h-2.69v-.17zm9.31 3.4 1.07-1.61c1.43.72 2.51 1.07 3.4 1.07 1.07 0 1.79-.18 2.51-.54s1.07-.9 1.07-1.61c0-.36-.18-.54-.36-.9-.18-.18-.54-.36-1.07-.54l-1.97-.36c-.9-.18-1.25-.54-1.25-1.25 0-.54.72-1.07 1.97-1.61h-.36c-.9 0-1.61-.36-2.33-1.07-.72-.72-1.07-1.43-1.07-2.51 0-1.61.54-2.86 1.61-3.94 1.07-1.07 2.33-1.61 3.94-1.61 1.07 0 2.15.36 2.69.9l1.07-1.25 1.25 1.25-1.07 1.25c.18.36.36.9.36 1.43 0 1.25-.36 2.51-1.07 3.4-.72.9-1.61 1.61-2.69 1.97-1.07.36-1.61.72-1.61 1.07 0 .18.18.36.36.36h1.08c1.97 0 2.86.9 2.86 2.69 0 1.43-.54 2.51-1.79 3.22-1.25.9-2.69 1.25-4.3 1.25-1.79.37-3.22-.16-4.3-1.06zm6.81-14.14c-.9 0-1.61.36-2.15 1.07-.54.72-.9 1.43-.9 2.51 0 1.61.72 2.51 1.97 2.51.9 0 1.61-.36 2.33-1.25s1.07-1.79 1.07-2.69c0-.54-.18-1.07-.54-1.43-.53-.54-1.07-.72-1.78-.72zm27.74-1.25-.36 1.79c-.54-.36-1.25-.72-2.15-.72-1.43 0-2.51.54-3.4 1.61-.9 1.07-1.25 2.51-1.25 4.12 0 1.07.36 1.79.9 2.33s1.25.9 1.97.9c1.07 0 2.15-.36 3.22-1.07l-.18 2.15c-1.07.36-2.15.72-3.22.72-1.43 0-2.69-.36-3.58-1.25-.9-.9-1.25-1.97-1.25-3.4 0-2.33.72-4.3 1.97-5.73s2.86-2.33 4.83-2.33c.89.34 1.97.52 2.5.88zm17.19.53-1.43 7.16c0 .36-.18.72-.18 1.07 0 1.25.18 2.33.54 3.4h-2.15c-.18-.18-.18-.72-.36-1.25-.36.36-.9.72-1.61 1.07-.72.36-1.43.36-2.33.36-1.25 0-2.15-.36-2.86-1.07-.72-.72-1.07-1.79-1.07-3.04 0-2.33.72-4.3 1.97-5.91 1.25-1.79 3.04-2.69 5.19-2.69 1.96-.17 3.39.19 4.29.9zm-2.33 1.26c-.18-.36-.9-.54-2.15-.54s-2.33.72-3.22 1.97c-.9 1.25-1.43 2.86-1.43 4.83 0 1.61.72 2.51 2.15 2.51.72 0 1.43-.36 2.15-1.25.72-.72 1.07-1.79 1.43-3.04l1.07-4.48zm17.01 0c-.54-.36-1.07-.54-1.61-.54-.72 0-1.43.36-2.15 1.07-.72.72-1.07 1.61-1.25 2.51l-1.25 6.98h-2.15l2.15-12.35h2.15l-.36 1.97c1.07-1.43 2.33-2.15 3.94-2.15.36 0 .72 0 1.25.18l-.72 2.33zm8.95-.36h-1.43l.36-1.79h1.43l.54-2.51 2.51-.9-.9 3.58h3.4l-.36 1.79h-3.4l-1.25 6.09c-.18.54-.18.9-.18 1.07 0 1.25.54 1.79 1.79 1.79.54 0 1.25-.18 1.79-.36v1.97c-.72.18-1.61.36-3.04.36-.9 0-1.61-.36-1.97-.9-.54-.54-.72-1.25-.72-2.15 0-.18 0-.54.18-.72l1.25-7.32zm18.26 9.84 1.07-2.15c.36.36.72.54 1.25.9.54.18 1.07.36 1.43.36.72 0 1.25-.18 1.61-.54s.72-.9.72-1.43c0-.36-.18-.54-.36-.9-.18-.18-.72-.54-1.25-.9l-1.61-.9c-.54-.36-.9-.72-1.07-1.07-.18-.36-.36-.9-.36-1.43 0-1.07.36-1.97 1.25-2.69.9-.72 1.97-1.07 3.22-1.07.9 0 1.97.36 3.22.9l-.9 1.97c-.72-.72-1.61-1.07-2.51-1.07-.54 0-1.07.18-1.43.36-.36.36-.54.72-.54 1.25 0 .36.18.72.36.9s.72.54 1.25.9l1.61.9c.54.18.9.54 1.07 1.07.18.36.36.9.36 1.43 0 1.25-.54 2.33-1.43 3.04-.9.72-2.15 1.07-3.58 1.07-1.24 0-2.49-.36-3.38-.9zm15.03-3.76c0-2.15.72-4.12 1.97-5.73s2.86-2.33 4.83-2.33c1.43 0 2.69.36 3.4 1.25.72.9 1.25 1.97 1.25 3.4 0 1.25-.18 2.33-.72 3.76-.54 1.25-1.25 2.33-2.33 3.22-1.07.9-2.33 1.25-3.76 1.25-1.43 0-2.69-.36-3.4-1.25-.88-.88-1.24-2.13-1.24-3.57zm2.33-.17c0 2.15.9 3.04 2.69 3.04 1.25 0 2.33-.72 3.04-1.97s1.07-2.69 1.07-4.3c0-1.97-.9-3.04-2.69-3.04-.9 0-1.61.36-2.33.9-.72.72-1.07 1.43-1.43 2.33-.17 1.25-.35 2.14-.35 3.04zm24.7-10.75c-.54-.18-1.07-.36-1.43-.36-1.43 0-2.33 1.07-2.69 3.4h2.86l-.18 1.43h-2.86l-1.97 11.64c-.18 1.07-.72 1.97-1.43 2.69-.9.72-1.79 1.07-3.04 1.25l-.18-1.25c.54-.18.9-.36 1.43-.9s.72-1.07.9-1.61l1.97-11.64h-1.79l.18-1.43h1.61c.72-3.4 2.33-5.01 5.01-5.01.72 0 1.25.18 1.61.36v1.43zm7.7 4.84h-1.43l.36-1.79h1.43l.54-2.51 2.51-.9-.9 3.58h3.4l-.36 1.79h-3.4l-1.25 6.09c-.18.54-.18.9-.18 1.07 0 1.25.54 1.79 1.79 1.79.54 0 1.25-.18 1.79-.36v1.97c-.72.18-1.61.36-3.04.36-.9 0-1.61-.36-1.97-.9-.54-.54-.72-1.25-.72-2.15 0-.18 0-.54.18-.72l1.25-7.32zm23.09 10.74h-.54l-2.33-8.06-4.83 8.06h-.54l-2.33-12.53h2.15l1.43 7.88 4.65-7.88h.54l2.15 7.88 3.94-7.88h2.33c-2.86 5.01-5 9.31-6.62 12.53zM415 225.63l-1.43 7.16c0 .36-.18.72-.18 1.07 0 1.25.18 2.33.54 3.4h-2.15c-.18-.18-.18-.72-.36-1.25-.36.36-.9.72-1.61 1.07-.72.36-1.43.36-2.33.36-1.25 0-2.15-.36-2.86-1.07-.72-.72-1.07-1.79-1.07-3.04 0-2.33.72-4.3 1.97-5.91 1.25-1.79 3.04-2.69 5.19-2.69 1.96-.17 3.4.19 4.29.9zm-2.51 1.26c-.18-.36-.9-.54-2.15-.54s-2.33.72-3.22 1.97-1.43 2.86-1.43 4.83c0 1.61.72 2.51 2.15 2.51.72 0 1.43-.36 2.15-1.25.72-.72 1.07-1.79 1.43-3.04l1.07-4.48zm17.19 0c-.54-.36-1.07-.54-1.61-.54-.72 0-1.43.36-2.15 1.07-.72.72-1.07 1.61-1.25 2.51l-1.25 6.98h-2.15l2.15-12.35h2.15l-.36 1.97c1.07-1.43 2.33-2.15 3.94-2.15.36 0 .72 0 1.25.18l-.72 2.33zm8.59 4.47c0 .36-.18.72-.18 1.07 0 1.07.36 1.79.9 2.33s1.43.9 2.33.9 1.79-.36 2.69-1.07l-.18 2.15c-1.25.36-2.33.54-3.22.54-3.22 0-4.83-1.79-4.83-5.37 0-2.15.72-3.94 1.97-5.37s3.04-2.15 5.01-2.15c1.25 0 2.15.18 2.86.72.72.54 1.07 1.25 1.07 2.15 0 1.25-.54 2.33-1.61 3.22-1.07.72-2.51 1.07-4.12 1.07-.9.35-1.79.17-2.69-.19zm.54-1.61c.54.18 1.25.36 1.97.36 1.25 0 2.15-.18 2.86-.54.72-.36 1.07-.9 1.07-1.61 0-.9-.72-1.43-1.97-1.43-1.78-.18-3.21.89-3.93 3.22z" style="fill:#c7cacc"/></svg>
