<?xml version="1.0" encoding="utf-8"?>
<!-- Generator: Adobe Illustrator 26.1.0, SVG Export Plug-In . SVG Version: 6.00 Build 0)  -->
<svg version="1.1" id="Layer_1" xmlns="http://www.w3.org/2000/svg" xmlns:xlink="http://www.w3.org/1999/xlink" x="0px" y="0px"
	 viewBox="0 0 48 48" style="enable-background:new 0 0 48 48;" xml:space="preserve">
<style type="text/css">
	.st0{fill-rule:evenodd;clip-rule:evenodd;fill:#FFFFFF;}
</style>
<path class="st0" d="M16.5,4c-0.3,0-0.5,0.1-0.7,0.3l-7.5,7.5C8.1,12,8,12.2,8,12.5V41c0,1.7,1.3,3,3,3h26c1.7,0,3-1.3,3-3V7
	c0-1.7-1.3-3-3-3H16.5z"/>
<path class="st0" d="M17.5,6H37c0.6,0,1,0.4,1,1v34c0,0.6-0.4,1-1,1H11c-0.6,0-1-0.4-1-1V13.5h6.5c0.6,0,1-0.4,1-1V6z"/>
<polygon class="st0" points="15.5,11.5 11.4,11.5 15.5,7.4 "/>
<path class="st0" d="M17,18c-0.6,0-1,0.4-1,1s0.4,1,1,1h14c0.6,0,1-0.4,1-1s-0.4-1-1-1H17z"/>
<path class="st0" d="M16,25c0-0.6,0.4-1,1-1h8c0.6,0,1,0.4,1,1s-0.4,1-1,1h-8C16.4,26,16,25.6,16,25z"/>
<path class="st0" d="M17,30c-0.6,0-1,0.4-1,1s0.4,1,1,1h14c0.6,0,1-0.4,1-1s-0.4-1-1-1H17z"/>
</svg>
