<svg xmlns="http://www.w3.org/2000/svg" viewBox="0 0 1184 995" style="enable-background:new 0 0 1184 995" xml:space="preserve"><g style="opacity:.12"><path style="fill:none" d="M0 0h1184v995H0z"/><path d="M1184 996c-6.9-20.2-9.1-42.3-34.2-67.3-44.4-44.4-65-23.8-109.4-68.3s-23.8-65-68.3-109.4c-44.4-44.4-65-23.8-109.4-68.3-44.4-44.4-23.8-65-68.3-109.4s-65-23.8-109.4-68.3c-44.4-44.4-23.8-65-68.3-109.4-44.4-44.4-65-23.8-109.4-68.3-44.4-44.4-23.8-65-68.3-109.4s-65-23.8-109.4-68.3c-44.4-44.4-23.8-65-68.3-109.4C233.4 12.1 21.2 10.1 0 1v995h1184z" style="fill:#fff"/><path d="m278.9 224.4-137 110.7c-5 4.2-12.6 3.6-16.8-1.5-4.2-5-3.6-12.6 1.5-16.8l133.1-111.6c5-4.2 12.6-3.6 16.8 1.5 4.1 5 7.4 13.5 2.4 17.7z" style="fill:#002621"/></g></svg>