<?xml version="1.0" encoding="UTF-8"?><svg id="a" xmlns="http://www.w3.org/2000/svg" xmlns:xlink="http://www.w3.org/1999/xlink" viewBox="0 0 483.42 452.1"><defs><style>.e{fill:url(#d);}.f{fill:url(#b);}.g{fill:none;}.h{clip-path:url(#c);}</style><linearGradient id="b" x1="-165.3" y1="-231.48" x2="613.09" y2="-231.48" gradientTransform="translate(0 266) scale(1 -1)" gradientUnits="userSpaceOnUse"><stop offset="0" stop-color="#0f5c47"/><stop offset="1" stop-color="#0c4e3c"/></linearGradient><clipPath id="c"><rect class="g" x="-56" y="202" width="157.55" height="136.24"/></clipPath><linearGradient id="d" x1="100.2" y1="60.9" x2="-54.75" y2="-69.11" gradientTransform="translate(0 266) scale(1 -1)" gradientUnits="userSpaceOnUse"><stop offset="0" stop-color="#137959"/><stop offset=".32" stop-color="#136f53"/><stop offset="1" stop-color="#105d48"/></linearGradient></defs><path class="f" d="M1006,994.95c-6.87-20.24-9.13-42.28-34.17-67.33-44.41-44.42-64.98-23.85-109.39-68.27s-23.84-64.99-68.26-109.41c-44.41-44.42-64.98-23.85-109.39-68.26-44.41-44.42-23.84-64.99-68.25-109.4s-64.98-23.85-109.39-68.26c-44.41-44.42-23.84-64.99-68.25-109.4-44.41-44.41-64.98-23.85-109.39-68.26-44.41-44.42-23.84-64.99-68.25-109.4-44.41-44.42-64.98-23.85-109.39-68.26-44.41-44.42-23.84-64.99-68.25-109.4C55.4,11.08-156.82,9.07-178,0V994.95H1006Z"/><g class="h"><path class="e" d="M96.92,223.45L-36.14,335.06c-5.03,4.24-12.58,3.57-16.81-1.46-4.24-5.03-3.57-12.58,1.46-16.81L81.56,205.18c5.03-4.24,12.58-3.57,16.81,1.46,4.24,5.03,3.57,12.58-1.46,16.81Z"/></g></svg>