<svg id="a" xmlns="http://www.w3.org/2000/svg" viewBox="0 0 316.95 452.1"><defs><linearGradient id="c" x1="1486.02" y1="-494.5" x2="842.71" y2="-494.5" gradientTransform="matrix(1 0 0 -1 0 266)" gradientUnits="userSpaceOnUse"><stop offset="0" stop-color="#0f5c47"/><stop offset="1" stop-color="#0c4e3c"/></linearGradient><linearGradient id="e" x1="153.15" y1="50.9" x2="-1.8" y2="-79.11" gradientTransform="matrix(1 0 0 -1 0 266)" gradientUnits="userSpaceOnUse"><stop offset="0" stop-color="#137959"/><stop offset=".32" stop-color="#136f53"/><stop offset="1" stop-color="#105d48"/></linearGradient><clipPath id="b"><path class="g" d="M2.95 0h1514v1521H2.95z"/></clipPath><clipPath id="d"><path class="g" d="M-3.05 212H154.5v136.24H-3.05z"/></clipPath><style>.g{fill:none}</style></defs><g style="clip-path:url(#b)"><path d="M2.95 0c10.51 30.94 13.96 64.63 52.24 102.92 67.9 67.9 99.34 36.45 167.23 104.36s36.45 99.35 104.35 167.25c67.89 67.9 99.33 36.45 167.23 104.36 67.89 67.9 36.45 99.35 104.34 167.25s99.33 36.45 167.23 104.36c67.89 67.9 36.44 99.35 104.33 167.25s99.34 36.45 167.23 104.35c67.89 67.9 36.45 99.35 104.34 167.25 67.9 67.9 99.34 36.46 167.23 104.36 67.89 67.9 36.45 99.35 104.34 167.25 43.11 43.12 71.53 46.18 103.91 60.05V0H2.95Z" style="fill:url(#c);fill-rule:evenodd"/></g><g style="clip-path:url(#d)"><path d="M149.87 233.45 16.81 345.06C11.78 349.3 4.23 348.63 0 343.6c-4.24-5.03-3.58-12.58 1.45-16.81l133.06-111.61c5.03-4.24 12.58-3.57 16.81 1.46 4.24 5.03 3.58 12.58-1.45 16.81Z" style="fill:url(#e)"/></g></svg>
