<?xml version="1.0" encoding="UTF-8"?><svg id="a" xmlns="http://www.w3.org/2000/svg" xmlns:xlink="http://www.w3.org/1999/xlink" viewBox="0 0 316.95 452.1"><defs><style>.f{fill:url(#e);}.g{fill:none;}.h{fill:url(#c);fill-rule:evenodd;}.i{clip-path:url(#b);}.j{clip-path:url(#d);}</style><clipPath id="b"><rect class="g" x="2.95" width="1514" height="1521"/></clipPath><linearGradient id="c" x1="1486.02" y1="-494.5" x2="842.71" y2="-494.5" gradientTransform="translate(0 266) scale(1 -1)" gradientUnits="userSpaceOnUse"><stop offset="0" stop-color="#0f5c47"/><stop offset="1" stop-color="#0c4e3c"/></linearGradient><clipPath id="d"><rect class="g" x="-3.05" y="212" width="157.55" height="136.24"/></clipPath><linearGradient id="e" x1="153.15" y1="50.9" x2="-1.8" y2="-79.11" gradientTransform="translate(0 266) scale(1 -1)" gradientUnits="userSpaceOnUse"><stop offset="0" stop-color="#137959"/><stop offset=".32" stop-color="#136f53"/><stop offset="1" stop-color="#105d48"/></linearGradient></defs><g class="i"><path class="h" d="M2.95,0c10.51,30.94,13.96,64.63,52.24,102.92,67.9,67.9,99.34,36.45,167.23,104.36s36.45,99.35,104.35,167.25c67.89,67.9,99.33,36.45,167.23,104.36,67.89,67.9,36.45,99.35,104.34,167.25,67.89,67.9,99.33,36.45,167.23,104.36,67.89,67.9,36.44,99.35,104.33,167.25,67.89,67.9,99.34,36.45,167.23,104.35,67.89,67.9,36.45,99.35,104.34,167.25,67.9,67.9,99.34,36.46,167.23,104.36,67.89,67.9,36.45,99.35,104.34,167.25,43.11,43.12,71.53,46.18,103.91,60.05V0H2.95Z"/></g><g class="j"><path class="f" d="M149.87,233.45L16.81,345.06c-5.03,4.24-12.58,3.57-16.81-1.46-4.24-5.03-3.58-12.58,1.45-16.81l133.06-111.61c5.03-4.24,12.58-3.57,16.81,1.46,4.24,5.03,3.58,12.58-1.45,16.81Z"/></g></svg>