<svg version="1.1" id="Layer_1" xmlns="http://www.w3.org/2000/svg" x="0" y="0" viewBox="0 0 931.2 151.6" style="enable-background:new 0 0 931.2 151.6" xml:space="preserve"><style>.st0{fill:#0f5c47}</style><path class="st0" d="M16.6 122c-5.7 0-11.2-2.9-14.2-8.2-4.6-7.9-1.9-17.9 6-22.5L111 31.7c7.9-4.6 17.9-1.9 22.5 6s1.9 17.9-6 22.5L24.9 119.8c-2.6 1.5-5.4 2.2-8.3 2.2zM68.1 151.6c-5.7 0-11.2-2.9-14.2-8.2-4.6-7.9-1.9-17.9 6-22.5l51.3-29.8c7.9-4.6 17.9-1.9 22.5 6 4.6 7.9 1.9 17.9-6 22.5l-51.3 29.8c-2.6 1.4-5.5 2.2-8.3 2.2zM16.5 62.7c-5.7 0-11.2-2.9-14.2-8.2-4.6-7.9-1.9-17.9 6-22.5L59.5 2.2C67.4-2.4 77.4.3 82 8.2s1.9 17.9-6 22.5L24.7 60.5c-2.6 1.5-5.4 2.2-8.2 2.2zM891.4 76.9c0-25.5-16.6-44.2-40-44.2-24.6 0-43 18.2-43 42.3v.3c0 25.9 18.8 43.7 44.2 43.7 15.3 0 26.6-6 34.5-15.8L872.2 90c-5.1 6.5-11.3 9.7-19.3 9.7-10.7 0-18.3-5.7-20.7-16.6H891c.2-2.1.4-4.3.4-6.2zm-59.5-8.7c1.5-9.7 8.4-16.8 18.3-16.8 10.1 0 16.4 6.8 17.8 16.8h-36.1zM904.9.1h25.3v117.2h-25.3zM318.8 41.8c5.6 6 8.4 14.1 8.4 24.4v51h-25.3V70.3c0-4.9-1.1-8.7-3.2-11.4-2.2-2.7-5.4-4-9.8-4-4.9 0-8.9 1.7-11.8 5.1-2.9 3.4-4.4 7.7-4.4 13v44.3h-24.4v-47c0-4.9-1.1-8.7-3.2-11.4-2.2-2.7-5.4-4-9.8-4-4.8 0-8.7 1.7-11.7 5.1-3 3.4-4.5 7.7-4.5 13v44.3h-25.3V34.8h25.1v9.1c2.6-3.2 5.9-5.8 9.8-7.9 4-2.1 8.7-3.2 14.1-3.2 3.3 0 6.2.3 8.8 1 2.6.7 4.8 1.6 6.8 2.7 1.9 1.1 3.6 2.3 5.1 3.7 1.5 1.3 2.7 2.7 3.6 3.9 3.4-3.6 7.5-6.4 12.4-8.4s9.9-3 15.2-3c10.4.2 18.5 3.1 24.1 9.1zM710.4 33.7c1.6.2 3.1.6 4.7 1.2l-4 22.3c-2.6-.8-5.6-1.2-9.1-1.2-6 0-10.8 1.8-14.5 5.4-3.7 3.6-5.5 8.6-5.5 15.2v40.8h-25.3V34.7h25.1v10.6c2.1-2.8 5-5.5 8.7-8.1 3.7-2.6 8.5-3.9 14.3-3.9 2.1 0 4 .1 5.6.4zM748.6 67.6c-.9 2.6-1.3 5.3-1.3 8.2 0 2.7.4 5.2 1.3 7.8.9 2.6 2.1 4.9 3.8 6.9 1.7 2 3.7 3.6 6 4.9 2.3 1.3 5 1.9 8 1.9 4.2 0 7.8-.8 10.7-2.5 2.9-1.7 5.2-3.5 6.9-5.4l14.5 16.2c-3.3 3.7-7.7 6.8-13.2 9.5-5.5 2.6-11.9 4-19.4 4-6.5 0-12.5-1.1-17.8-3.2-5.4-2.1-9.9-5.1-13.7-8.9-3.8-3.8-6.8-8.4-8.9-13.7-2.1-5.3-3.2-11.1-3.2-17.4 0-6 1.1-11.6 3.3-16.8 2.2-5.2 5.2-9.8 9-13.7 3.8-3.9 8.4-7 13.8-9.2 5.3-2.2 11.2-3.4 17.5-3.4 7.3 0 13.7 1.2 19.1 3.6 5.4 2.4 10 5.6 13.6 9.6l-15 16.2c-1.8-2.1-4.1-3.9-6.7-5.5-2.7-1.6-6.2-2.4-10.5-2.4-3 0-5.7.6-8 1.8-2.3 1.2-4.4 2.8-6 4.7-1.6 2-2.9 4.2-3.8 6.8zM531.1 59.1c-2.2-5.2-5.2-9.8-9-13.7-3.8-3.9-7.4-7-12.8-9.2-5.3-2.2-9.3-3.4-17.5-3.4-11.3 0-19.7 7.2-19.7 7.2v-5.3h-25v116.8h25v-39.2c3.8 3.8 13.7 6.8 20.1 6.8 6.5 0 11-1.1 16.3-3.2 5.4-2.1 9.9-5.1 13.7-8.9 3.8-3.8 6.8-8.4 8.9-13.7 2.1-5.3 3.2-11.1 3.2-17.4.1-6-1-11.6-3.2-16.8zm-21.9 16.8c0 12.9-8.6 21.2-18.8 21.2s-18.6-8.5-18.6-21.2v-.3c0-12.8 8.5-21.2 18.6-21.2s18.8 8.5 18.8 21.2v.3zM611 34.7v5c-3.8-3.8-13.7-6.8-20.1-6.8-6.5 0-11 1.1-16.3 3.2-5.4 2.1-9.9 5.1-13.7 9-3.8 3.8-6.8 8.4-8.9 13.7-2.1 5.3-3.2 11.1-3.2 17.4 0 6 1.1 11.6 3.3 16.8 2.2 5.2 5.2 9.8 9 13.7 3.8 3.9 7.4 7 12.8 9.2 5.3 2.2 9.3 3.4 17.5 3.4 11.3 0 19.7-7.2 19.7-7.2v5.3h25V34.7H611zm.3 41.6c0 12.8-8.5 21.2-18.6 21.2s-18.8-8.4-18.8-21.2V76c0-12.9 8.6-21.2 18.8-21.2 10.2 0 18.6 8.5 18.6 21.2v.3zM408.3 34.8H434l-51 116.7h-27l14.7-34.3-35.1-82.4h27.2l22 55.1z"/><path class="st0" d="M891.4 76.9c0-25.5-16.6-44.2-40-44.2-24.6 0-43 18.2-43 42.3v.3c0 25.9 18.8 43.7 44.2 43.7 15.3 0 26.6-6 34.5-15.8L872.2 90c-5.1 6.5-11.3 9.7-19.3 9.7-10.7 0-18.3-5.7-20.7-16.6H891c.2-2.1.4-4.3.4-6.2zm-59.5-8.7c1.5-9.7 8.4-16.8 18.3-16.8 10.1 0 16.4 6.8 17.8 16.8h-36.1zM904.9.1h25.3v117.2h-25.3zM318.8 41.8c5.6 6 8.4 14.1 8.4 24.4v51h-25.3V70.3c0-4.9-1.1-8.7-3.2-11.4-2.2-2.7-5.4-4-9.8-4-4.9 0-8.9 1.7-11.8 5.1-2.9 3.4-4.4 7.7-4.4 13v44.3h-24.4v-47c0-4.9-1.1-8.7-3.2-11.4-2.2-2.7-5.4-4-9.8-4-4.8 0-8.7 1.7-11.7 5.1-3 3.4-4.5 7.7-4.5 13v44.3h-25.3V34.8h25.1v9.1c2.6-3.2 5.9-5.8 9.8-7.9 4-2.1 8.7-3.2 14.1-3.2 3.3 0 6.2.3 8.8 1 2.6.7 4.8 1.6 6.8 2.7 1.9 1.1 3.6 2.3 5.1 3.7 1.5 1.3 2.7 2.7 3.6 3.9 3.4-3.6 7.5-6.4 12.4-8.4s9.9-3 15.2-3c10.4.2 18.5 3.1 24.1 9.1zM710.4 33.7c1.6.2 3.1.6 4.7 1.2l-4 22.3c-2.6-.8-5.6-1.2-9.1-1.2-6 0-10.8 1.8-14.5 5.4-3.7 3.6-5.5 8.6-5.5 15.2v40.8h-25.3V34.7h25.1v10.6c2.1-2.8 5-5.5 8.7-8.1 3.7-2.6 8.5-3.9 14.3-3.9 2.1 0 4 .1 5.6.4zM748.6 67.6c-.9 2.6-1.3 5.3-1.3 8.2 0 2.7.4 5.2 1.3 7.8.9 2.6 2.1 4.9 3.8 6.9 1.7 2 3.7 3.6 6 4.9 2.3 1.3 5 1.9 8 1.9 4.2 0 7.8-.8 10.7-2.5 2.9-1.7 5.2-3.5 6.9-5.4l14.5 16.2c-3.3 3.7-7.7 6.8-13.2 9.5-5.5 2.6-11.9 4-19.4 4-6.5 0-12.5-1.1-17.8-3.2-5.4-2.1-9.9-5.1-13.7-8.9-3.8-3.8-6.8-8.4-8.9-13.7-2.1-5.3-3.2-11.1-3.2-17.4 0-6 1.1-11.6 3.3-16.8 2.2-5.2 5.2-9.8 9-13.7 3.8-3.9 8.4-7 13.8-9.2 5.3-2.2 11.2-3.4 17.5-3.4 7.3 0 13.7 1.2 19.1 3.6 5.4 2.4 10 5.6 13.6 9.6l-15 16.2c-1.8-2.1-4.1-3.9-6.7-5.5-2.7-1.6-6.2-2.4-10.5-2.4-3 0-5.7.6-8 1.8-2.3 1.2-4.4 2.8-6 4.7-1.6 2-2.9 4.2-3.8 6.8zM531.1 59.1c-2.2-5.2-5.2-9.8-9-13.7-3.8-3.9-7.4-7-12.8-9.2-5.3-2.2-9.3-3.4-17.5-3.4-11.3 0-19.7 7.2-19.7 7.2v-5.3h-25v116.8h25v-39.2c3.8 3.8 13.7 6.8 20.1 6.8 6.5 0 11-1.1 16.3-3.2 5.4-2.1 9.9-5.1 13.7-8.9 3.8-3.8 6.8-8.4 8.9-13.7 2.1-5.3 3.2-11.1 3.2-17.4.1-6-1-11.6-3.2-16.8zm-21.9 16.8c0 12.9-8.6 21.2-18.8 21.2s-18.6-8.5-18.6-21.2v-.3c0-12.8 8.5-21.2 18.6-21.2s18.8 8.5 18.8 21.2v.3zM408.3 34.8H434l-51 116.7h-27l14.7-34.3-35.1-82.4h27.2l22 55.1z"/></svg>