<svg width="1710" height="480" fill="none" xmlns="http://www.w3.org/2000/svg"><g clip-path="url(#a)"><path d="M1640.42 100.665h-67.33c-24.9 0-42.72 5.411-53.46 16.232-10.74 10.822-16.11 26.478-16.12 46.968v155.439c0 20.512 5.37 36.173 16.12 46.984s28.57 16.216 53.46 16.216h67.33c24.88 0 42.7-5.405 53.45-16.216s16.13-26.472 16.13-46.984V163.865c0-20.49-5.38-36.146-16.13-46.968-10.75-10.821-28.57-16.232-53.45-16.232Zm-7.93 207.209c0 9.499-5.09 14.248-15.27 14.248h-20.93c-10.18 0-15.27-4.749-15.27-14.248V175.295c0-9.477 5.09-14.221 15.27-14.231h20.99c10.18 0 15.27 4.744 15.27 14.231l-.06 132.579Zm-186.57-242.83a18.438 18.438 0 0 0-1.39-6.957 17.97 17.97 0 0 0-3.91-5.893 18.015 18.015 0 0 0-5.85-3.931 17.879 17.879 0 0 0-6.9-1.372h-60.92v53.771h-27.64v60.031h27.64v158.352c0 42.304 23.86 63.456 71.58 63.456h44.3v-60.543h-21.58c-10.23 0-15.34-4.572-15.33-13.718V160.693h36.91v-60.031h-36.91V65.044Zm-194.57 151.2h-32.25c-5.66 0-9.61-1.041-11.88-3.202-2.26-2.161-3.39-5.603-3.39-10.533v-34.082c0-4.93 1.13-8.452 3.39-10.533 2.27-2.081 6.22-3.201 11.88-3.201h8.48c5.67 0 9.63 1.056 11.9 3.201 2.27 2.145 3.39 5.603 3.39 10.533v20.475h75.8v-25.037c0-42.133-23.95-63.2-71.85-63.2h-48.08c-47.9 0-71.85 21.067-71.85 63.2v42.646c0 41.77 23.57 62.645 70.71 62.624h32.25c5.66 0 9.63 1.056 11.88 3.201s3.39 5.603 3.39 10.534v31.888c0 9.498-5.09 14.242-15.27 14.231h-9.61c-9.82 0-14.72-4.744-14.71-14.231v-19.306h-76.94v23.852c0 42.134 23.76 63.2 71.28 63.2h50.34c47.91 0 71.87-21.066 71.87-63.2v-40.997c0-41.365-23.58-62.053-70.73-62.063Zm-221.99-115.579h-67.332c-24.896 0-42.714 5.411-53.455 16.232-10.74 10.822-16.116 26.478-16.126 46.968v155.439c0 20.512 5.375 36.173 16.126 46.984 10.752 10.811 28.57 16.216 53.455 16.216h67.332c24.89 0 42.71-5.405 53.45-16.216 10.74-10.811 16.12-26.472 16.13-46.984V163.865c0-20.49-5.38-36.146-16.13-46.968-10.75-10.821-28.57-16.232-53.45-16.232Zm-7.93 207.209c0 9.499-5.09 14.248-15.27 14.248h-20.933c-10.18 0-15.27-4.749-15.27-14.248V175.295c0-9.477 5.09-14.221 15.27-14.231h20.933c10.18 0 15.27 4.744 15.27 14.231v132.579ZM850.188 60.4h27.845V0h-50.569c-47.709 0-71.569 20.965-71.579 62.896v37.763h-23.437v60.399h23.611v205.528a16.032 16.032 0 0 0 1.206 6.086 15.895 15.895 0 0 0 3.423 5.156 15.744 15.744 0 0 0 5.117 3.439 15.603 15.603 0 0 0 6.032 1.199h63.191V161.059h29.495V100.66h-29.669V74.695c0-9.52 5.111-14.285 15.334-14.295ZM698.163 311.235V100.664h-65.617a11.82 11.82 0 0 0-4.559.909 11.91 11.91 0 0 0-3.867 2.601 12.027 12.027 0 0 0-2.586 3.897 12.106 12.106 0 0 0-.913 4.599v25.725c-6.438-22.411-20.614-37.731-45.827-37.731h-13.606c-44.136 0-66.199 21.067-66.188 63.2v155.439c0 42.134 22.063 63.2 66.188 63.2h13.574c24.135 0 37.058-11.205 44.702-30.095v18.105c.002 1.578.312 3.14.913 4.597a12 12 0 0 0 2.587 3.894 11.875 11.875 0 0 0 3.867 2.596c1.446.601 2.994.908 4.557.903h90.466v-60.382h-8.595c-8.975 0-14.017-3.714-15.096-10.886Zm-77.367-87.949h-.175l.175.433v84.154c0 9.499-4.81 14.248-14.43 14.248H586.56c-9.631 0-14.441-4.749-14.43-14.248V175.294c0-9.477 4.81-14.221 14.43-14.231h19.774c9.631 0 14.441 4.744 14.43 14.231l.032 47.992Z" fill="#222D38"/><path d="M375 322.808c.038 12.261-3.615 24.237-10.461 34.298-6.846 10.061-16.554 17.719-27.803 21.933a55.756 55.756 0 0 1-19.438 3.461H165.139c-13.32 0-24.817-11.269-24.612-25.033.04-3.163.676-6.29 1.871-9.208l4.042-6.616 20.272-33.001h94.503v-.21c4.134-.669 7.897-2.83 10.609-6.093a18.195 18.195 0 0 0 4.175-11.695 18.655 18.655 0 0 0-1.667-7.743v-.113l-.173-.338a24.738 24.738 0 0 0-2.186-3.381l-32.241-49.904a36.624 36.624 0 0 1-5.827-19.408 36.634 36.634 0 0 1 5.356-19.549l29.881-48.81a.085.085 0 0 1 .032-.024.085.085 0 0 1 .077 0 .093.093 0 0 1 .032.024l94.975 146.735v.096l1.777 2.737c5.808 9.55 8.881 20.577 8.87 31.826l.095.016ZM237.036 91.54a38.497 38.497 0 0 1 6.112 20.435 38.54 38.54 0 0 1-5.671 20.568l-29.347 47.876-123.85 202.08H0l164.881-268.952 42.022-68.546 30.133 46.54Z" fill="#0AFF95"/></g><defs><clipPath id="a"><path fill="#fff" transform="translate(0 .001)" d="M0 0h1710v382.5H0z"/></clipPath></defs></svg>
