<svg xmlns="http://www.w3.org/2000/svg" version="1.1" id="Laag_1" x="0" y="0" viewBox="0 0 800 300" style="enable-background:new 0 0 800 300" xml:space="preserve"><style>.st409,.st411{fill-rule:evenodd;clip-rule:evenodd}.st411{fill:#f90}</style><path id="path8" class="st411" d="M462.12 193.86c-29.99 22.1-73.45 33.89-110.87 33.89-52.47 0-99.71-19.41-135.44-51.68-2.81-2.54-.29-6 3.08-4.02 38.57 22.44 86.25 35.94 135.51 35.94 33.22 0 69.76-6.87 103.37-21.14 5.07-2.16 9.31 3.32 4.35 7.01"/><path id="path10" class="st411" d="M474.58 179.59c-3.82-4.9-25.34-2.31-34.99-1.17-2.94.36-3.39-2.2-.74-4.04 17.14-12.06 45.26-8.58 48.54-4.54 3.28 4.07-.85 32.25-16.96 45.71-2.47 2.07-4.83.97-3.73-1.77 3.61-9.03 11.72-29.27 7.88-34.19"/><path id="path12" class="st409" d="M440.26 89.23V77.51c0-1.77 1.35-2.96 2.96-2.96h52.49c1.68 0 3.03 1.21 3.03 2.96v10.04c-.02 1.68-1.44 3.89-3.95 7.37l-27.2 38.84c10.11-.25 20.78 1.26 29.94 6.42 2.07 1.17 2.63 2.88 2.79 4.56v12.51c0 1.71-1.89 3.71-3.86 2.67-16.15-8.47-37.6-9.39-55.46.09-1.82.99-3.73-.99-3.73-2.7v-11.88c0-1.91.02-5.17 1.93-8.06l31.51-45.19h-27.43c-1.67-.01-3.02-1.2-3.02-2.95"/><path id="path14" class="st409" d="M248.78 162.39h-15.97c-1.53-.11-2.74-1.26-2.85-2.72V77.71c0-1.64 1.37-2.94 3.08-2.94h14.89c1.55.07 2.79 1.26 2.9 2.74v10.71h.29c3.89-10.35 11.19-15.18 21.02-15.18 10 0 16.24 4.83 20.73 15.18 3.86-10.35 12.65-15.18 22.06-15.18 6.69 0 14.02 2.76 18.49 8.96 5.05 6.9 4.02 16.91 4.02 25.7l-.02 51.73c0 1.64-1.37 2.96-3.08 2.96h-15.95c-1.59-.11-2.88-1.39-2.88-2.96v-43.44c0-3.46.31-12.08-.45-15.36-1.19-5.5-4.76-7.05-9.39-7.05-3.86 0-7.91 2.58-9.55 6.72-1.64 4.13-1.48 11.05-1.48 15.7v43.44c0 1.64-1.37 2.96-3.08 2.96h-15.95c-1.62-.11-2.88-1.39-2.88-2.96l-.02-43.44c0-9.14 1.5-22.6-9.84-22.6-11.48 0-11.03 13.12-11.03 22.6v43.44c.02 1.62-1.35 2.95-3.06 2.95"/><path id="path16" class="st409" d="M543.94 73.04c23.7 0 36.52 20.35 36.52 46.23 0 25-14.17 44.83-36.52 44.83-23.27 0-35.94-20.35-35.94-45.71 0-25.52 12.83-45.35 35.94-45.35m.14 16.73c-11.77 0-12.51 16.04-12.51 26.03 0 10.02-.16 31.4 12.38 31.4 12.38 0 12.96-17.25 12.96-27.76 0-6.92-.29-15.18-2.38-21.74-1.81-5.71-5.38-7.93-10.45-7.93"/><path id="path18" class="st409" d="M611.19 162.39h-15.9c-1.59-.11-2.88-1.39-2.88-2.96l-.02-81.98c.13-1.5 1.46-2.67 3.08-2.67h14.8c1.39.07 2.54 1.01 2.85 2.29V89.6h.29c4.47-11.21 10.74-16.55 21.76-16.55 7.17 0 14.15 2.58 18.64 9.66 4.18 6.56 4.18 17.59 4.18 25.52v51.59c-.18 1.44-1.5 2.58-3.08 2.58H638.9c-1.46-.11-2.67-1.19-2.83-2.58V115.3c0-8.96 1.03-22.08-10-22.08-3.89 0-7.46 2.61-9.23 6.56-2.25 5.01-2.54 10-2.54 15.52v44.14c-.01 1.62-1.4 2.95-3.11 2.95"/><path id="path28" class="st409" d="M398.42 123.24c0 6.22.16 11.41-2.99 16.94-2.54 4.49-6.58 7.25-11.05 7.25-6.13 0-9.73-4.67-9.73-11.57 0-13.61 12.2-16.08 23.76-16.08l.01 3.46m16.1 38.92c-1.06.94-2.58 1.01-3.77.38-5.3-4.4-6.27-6.45-9.16-10.65-8.76 8.94-14.98 11.61-26.32 11.61-13.45 0-23.9-8.29-23.9-24.89 0-12.96 7.01-21.79 17.03-26.1 8.67-3.82 20.78-4.49 30.03-5.55v-2.07c0-3.8.29-8.29-1.95-11.57-1.93-2.94-5.66-4.16-8.96-4.16-6.09 0-11.5 3.12-12.83 9.59-.27 1.44-1.33 2.85-2.79 2.92l-15.48-1.66c-1.3-.29-2.76-1.35-2.38-3.35 3.55-18.78 20.53-24.44 35.71-24.44 7.77 0 17.92 2.07 24.06 7.95 7.77 7.25 7.03 16.94 7.03 27.47v24.89c0 7.48 3.1 10.76 6.02 14.8 1.01 1.44 1.24 3.17-.07 4.25-3.26 2.72-9.05 7.77-12.24 10.6l-.03-.02"/><path id="path30" class="st409" d="M189.06 123.24c0 6.22.16 11.41-2.99 16.94-2.54 4.49-6.56 7.25-11.05 7.25-6.13 0-9.7-4.67-9.7-11.57 0-13.61 12.2-16.08 23.74-16.08v3.46m16.1 38.92c-1.06.94-2.58 1.01-3.77.38-5.3-4.4-6.24-6.45-9.16-10.65-8.76 8.94-14.96 11.61-26.32 11.61-13.43 0-23.9-8.29-23.9-24.89 0-12.96 7.03-21.79 17.03-26.1 8.67-3.82 20.78-4.49 30.03-5.55v-2.07c0-3.8.29-8.29-1.93-11.57-1.95-2.94-5.68-4.16-8.96-4.16-6.09 0-11.52 3.12-12.85 9.59-.27 1.44-1.33 2.85-2.76 2.92l-15.5-1.66c-1.3-.29-2.74-1.35-2.38-3.35 3.57-18.78 20.53-24.44 35.71-24.44 7.77 0 17.92 2.07 24.06 7.95 7.77 7.25 7.03 16.94 7.03 27.47v24.89c0 7.48 3.1 10.76 6.02 14.8 1.03 1.44 1.26 3.17-.04 4.25-3.26 2.72-9.05 7.77-12.24 10.6l-.07-.02"/></svg>
