<svg xmlns="http://www.w3.org/2000/svg" xml:space="preserve" id="Laag_1" x="0" y="0" style="enable-background:new 0 0 576 300" version="1.1" viewBox="0 0 576 300"><style>.st0{fill:#0000a4}</style><path d="M25.4 124.1h24.5v20.3c4.8-1.8 9.8-2.7 14.9-2.7 19.2 0 33.2 14.1 33.2 33.4 0 14.6-10 31.8-32.7 31.8H25.4v-82.8zm24.5 61.6c3.2.6 6.9.9 9.3.9 8.8 0 14.5-4.7 14.5-12.1 0-7.3-5.6-12.3-13.8-12.3-3 0-6.6.4-10 1.5v22zm89.4-44c27.1 0 37.4 17.6 37.4 33.2 0 17-11.9 33.2-37.2 33.2-27.1 0-37.6-17.5-37.6-33.2 0-16.6 11.2-33.2 37.4-33.2zm0 45.5c7.6 0 12.9-5.1 12.9-12.4 0-7.3-5.3-12.4-12.9-12.4s-12.9 5.1-12.9 12.4c0 7.3 5.2 12.4 12.9 12.4zm42.3-63.1h24.5v82.8h-24.5v-82.8zm56.5 69c0 8.3-6.4 14.9-14.4 14.9-8.1 0-14.6-6.7-14.6-14.9s6.5-14.8 14.6-14.8c8.1-.1 14.4 6.5 14.4 14.8zm55.4 10.9c-8.1 3-13.1 4-19.8 4-20.9 0-35.3-13.5-35.3-32.8 0-16 10.5-33.5 34.6-33.5 6.6 0 13.7 1.1 20 3.3v21.3c-5.4-2.5-10.4-3.8-15.6-3.8-8.7 0-14.6 5.1-14.6 12.5 0 7.3 6.2 12.3 15.3 12.3 4.6 0 8.6-1.1 15.3-4l.1 20.7zm40.6-62.3c27.1 0 37.4 17.6 37.4 33.2 0 17-11.9 33.2-37.2 33.2-27.1 0-37.6-17.5-37.6-33.2 0-16.6 11.2-33.2 37.4-33.2zm0 45.5c7.6 0 12.9-5.1 12.9-12.4 0-7.3-5.3-12.4-12.9-12.4s-12.9 5.1-12.9 12.4c0 7.3 5.3 12.4 12.9 12.4zm42.7-44.4h24.5v8.5c5.9-6.6 12.9-9.6 20.6-9.6 8.8 0 14.5 3.4 19.2 11.4 6.4-7.4 14.3-11.4 22.7-11.4 14.4 0 20.6 11.4 20.6 24.2V207H460v-36.8c0-4.6-2.7-7.7-6.8-7.7-3.6 0-7.7 2.3-10.2 6.6V207h-24.6v-36.3c0-4.7-2.8-8.1-7.2-8.1-3.1 0-7.2 2.3-9.9 6.6v37.9h-24.5v-64.3zm136.6-57.7c19.1 0 34.7 15.8 34.7 35.2 0 19.4-15.6 35.1-34.7 35.1s-34.7-15.8-34.7-35.1c0-19.4 15.6-35.2 34.7-35.2m0-2.4c-20.5 0-37.1 16.8-37.1 37.5s16.7 37.5 37.1 37.5c20.5 0 37.1-16.8 37.1-37.5 0-20.6-16.6-37.5-37.1-37.5z" class="st0"/><path d="M496.2 123.6c-4.8 0-10-3.3-10-8.7 0-10.2 12.9-19.5 17.4-21.6.7-.3 1.8 1 2.2 1.8.3.7.2.9 0 1-8.1 4.3-16.8 12.5-16.8 20.1 0 3.3 1.7 4.6 6.2 4.6 5.2 0 17.2-7.2 17.2-12.4 0-1.9-1.4-2.9-4.3-2.9-7.1 0-10.9 4.6-12 8.6-.1.3-.4.4-.8.3-.6-.1-1.1-.6-1.1-1.1.5-3.5 4.2-11.2 12.3-11.2 3.6 0 8.1 3.3 8.1 7.1-.1 7.5-10.4 14.4-18.4 14.4zm9.5-27.7.1.1-.1-.1zm2.1 52.4c-4 0-10.8-1.8-10.8-8.6 0-5.2 4.4-11.4 12.6-17.7l.2-.2c.6-.4 1.9.4 2.6 1.2.6.7.3 1 .2 1.2-3.9 3.3-13.2 11-13.2 17.3 0 2.4 1.9 3.9 5.1 3.9 4.1 0 9.2-1.2 14.4-3.3.7-.3 1.4.6 1.8 1.3.3.6.3 1.2-.1 1.3-4.5 2.6-8.2 3.6-12.8 3.6zm17.5-24.3c-8.7 0-8.8-6.4-8.8-6.7 0-1.4.9-2.5 1.4-3 .4-.4 1.1-.2 1.4-.1.6.2 1.3.6 1.3 1 0 .2 0 .3-.2.5-1.2 1-1.8 1.8-1.8 3.3 0 1.3 1.3 2.6 3.7 2.6 9.5 0 15.6-8.2 15.6-12.4 0-3.9-2.9-4.7-5.2-4.7-8.3 0-14.4 8-14.7 8.3-.1.2-.3.2-.5.2-.7-.1-1.6-1.1-1.9-1.9-.2-.4-.2-.8 0-1 .7-.9 2.6-3 5.2-5 3.4-2.5 6.7-3.8 9.7-3.8 6.6 0 9.7 4.8 9.7 9.4-.1 7-7 13.3-14.9 13.3z" class="st0"/></svg>
