<svg xmlns="http://www.w3.org/2000/svg" version="1.1" id="Laag_1" x="0" y="0" viewBox="0 0 470 300" style="enable-background:new 0 0 470 300" xml:space="preserve"><style>.st0{fill:#009fe3}.st1{fill:#fff}.st2{fill:#1f3685}.st3{fill:#9ac31c}.st4{enable-background:new}.st5{fill-rule:evenodd;clip-rule:evenodd;fill:#fff}</style><g id="Laag_1_1_"><path class="st0" d="M188.17 45.13H20.82v167.35c0 23.38 19.01 42.39 42.39 42.39h167.35V87.52c-.07-23.37-19.01-42.39-42.39-42.39zm218.61 209.74H239.51V87.52c0-23.38 19.01-42.39 42.39-42.39h167.27v167.35c.01 23.37-19.01 42.31-42.39 42.39z"/><path class="st1" d="M240.92 253.39h165.87c22.56 0 40.91-18.35 40.91-40.91V46.61H281.83c-22.56 0-40.91 18.35-40.91 40.91v165.87z"/><path class="st2" d="M287.75 121.04h-.22a12.6 12.6 0 0 0-7.99-2.89 7.21 7.21 0 0 0-5.92 3.11c-1.7 2.52-2.07 5.84-2.07 8.8 0 3.63 1.04 8.29 3.26 11.1 1.78 2.29 4.59 3.11 7.1 3.11 3.85-.15 7.47-1.63 10.36-4.14h.22l-2.52 9.69c-4.14 2.22-8.73 3.4-13.46 3.33-10.8 0-20.12-8.06-20.12-20.94 0-14.65 9.99-22.19 22.05-22.19 3.03 0 6.21.59 9.25.89l.06 10.13zm39.13 0h-.22a12.457 12.457 0 0 0-7.99-2.89 7.21 7.21 0 0 0-5.92 3.11c-1.7 2.52-2 5.84-2 8.8 0 3.63 1.04 8.29 3.26 11.1 1.7 2.29 4.51 3.11 7.1 3.11 3.85-.15 7.47-1.63 10.36-4.14h.22l-2.52 9.69c-4.14 2.22-8.8 3.4-13.46 3.33-10.8 0-20.12-8.06-20.12-20.94 0-14.65 10.06-22.19 22.05-22.19 3.03 0 6.21.59 9.25.89l-.01 10.13zm33 .44c.59-1.78 1.41-3.85 1.41-5.77.07-1.63-.59-3.26-1.78-4.36v-.22h11.17l-14.5 42.91c-1.63-.3-3.11-.96-4.44-1.92-5.84-3.55-6.66-5.33-8.95-12.13l-6.51-19.68c-1.18-3.55-2-6.29-4.44-8.88v-.22h9.69c1.92 0 3.92.15 5.33-1.33h.22l8.21 25.82 4.59-14.22z"/><path class="st0" d="M400.79 153.59c46.31-18.79 2.07-36.1 0 0"/><path class="st3" d="M384.81 166.76c28.71-27.15-18.79-52.9 0 0"/><path class="st0" d="M386.59 170.16c72.28 18.86 54.52-21.82 0 0"/><path class="st2" d="M386.44 172.75c-7.03 42.54 72.13 19.09 0 0m-1.7 0c-74.5 23.38-7.62 42.61 0 0"/><path class="st3" d="M382.74 170.16c-47.13-20.57-74.5 23.16 0 0"/><g class="st4"><path class="st1" d="M70.76 80.27h-5.25l-.74-4.73a6.753 6.753 0 0 0-2.66-1.63c-1.04-.37-2.29-.59-3.77-.59-3.11 0-5.47 1.11-7.1 3.33-1.7 2.22-2.52 5.18-2.52 8.8v1.26c0 3.55.81 6.51 2.44 8.73s3.99 3.4 7.03 3.4c1.41 0 2.66-.22 3.85-.59 1.18-.37 2.07-.96 2.66-1.63l.74-4.73h5.25v7.03c-1.41 1.63-3.26 2.96-5.47 3.99-2.22.96-4.73 1.48-7.47 1.48-4.73 0-8.66-1.63-11.69-4.96-2.96-3.4-4.51-7.62-4.51-12.8v-1.18c0-5.18 1.48-9.4 4.51-12.72 3.03-3.33 6.95-4.96 11.69-4.96 2.74 0 5.25.52 7.4 1.48 2.22 1.04 4.07 2.29 5.47 3.99v7.03h.14zm32.85 0h-5.25l-.74-4.73a6.753 6.753 0 0 0-2.66-1.63c-1.11-.44-2.37-.67-3.77-.67-3.11 0-5.47 1.11-7.1 3.33-1.7 2.22-2.52 5.18-2.52 8.8v1.26c-.07 3.63.81 6.58 2.44 8.8s3.99 3.4 7.03 3.4c1.41 0 2.66-.22 3.85-.59 1.18-.37 2.07-.96 2.66-1.63l.74-4.73h5.25v7.03c-1.41 1.63-3.26 2.96-5.47 3.99-2.22.96-4.73 1.48-7.47 1.48-4.73 0-8.66-1.63-11.69-4.96s-4.59-7.55-4.59-12.72v-1.18c0-5.18 1.48-9.4 4.51-12.72 3.03-3.33 6.95-4.96 11.69-4.96 2.74 0 5.25.52 7.4 1.48 2.22 1.04 4.07 2.29 5.47 3.99v6.95l.22.01zm16.2-7.69-2.74.52 6.29 21.31.44 1.92h.15l.44-1.92 6.29-21.31-2.66-.52v-4.29h12.95v4.29l-2.96.37-10.43 30.78h-7.32l-10.51-30.78-2.96-.37v-4.29h12.95l.07 4.29z"/></g><g class="st4"><path class="st1" d="M59 124.37h-1.63l-.3-3.4c-.59-.74-1.41-1.33-2.44-1.78-1.04-.44-2.22-.67-3.63-.67-2 0-3.55.44-4.66 1.26-1.11.89-1.7 1.92-1.7 3.18 0 1.18.52 2.22 1.48 3.03.96.81 2.74 1.55 5.18 2.15 2.59.67 4.59 1.55 5.92 2.66s2 2.59 2 4.44c0 1.92-.81 3.48-2.37 4.59-1.55 1.11-3.55 1.7-5.99 1.7-1.7 0-3.33-.3-4.81-.89s-2.66-1.48-3.63-2.59v-4.14h1.63l.3 3.55c.74.81 1.63 1.48 2.81 1.92 1.11.44 2.37.67 3.7.67 1.92 0 3.48-.44 4.59-1.26 1.18-.81 1.78-1.92 1.78-3.33 0-1.33-.52-2.37-1.48-3.26-.96-.81-2.66-1.55-5.1-2.22-2.66-.67-4.66-1.55-5.99-2.59s-2.07-2.52-2.07-4.29c0-1.85.74-3.33 2.29-4.51s3.55-1.78 5.99-1.78c1.78 0 3.33.3 4.73.89 1.41.59 2.44 1.41 3.26 2.44v4.22l.14.01z"/></g><g class="st4"><path class="st1" d="M62.33 116.89v-1.48h4.66v11.02c.59-1.04 1.41-1.92 2.37-2.52s2.15-.89 3.48-.89c1.92 0 3.33.59 4.36 1.78 1.04 1.18 1.55 2.96 1.55 5.47v9.4l2.74.15v1.48h-7.4v-1.48l2.74-.22v-9.4c0-1.92-.37-3.33-1.18-4.22s-1.85-1.26-3.18-1.26-2.52.37-3.4 1.04c-.89.74-1.55 1.63-2 2.81v10.95l2.74.22v1.48h-7.4v-1.48l2.74-.22V117.1l-2.82-.21z"/></g><g class="st4"><path class="st1" d="M84.67 132.06c0-2.66.74-4.81 2.15-6.51 1.48-1.7 3.4-2.52 5.77-2.52 2.37 0 4.29.81 5.77 2.52 1.48 1.7 2.15 3.85 2.15 6.51v.52c0 2.66-.74 4.81-2.15 6.51-1.48 1.7-3.33 2.52-5.77 2.52s-4.36-.81-5.77-2.52c-1.48-1.7-2.15-3.85-2.15-6.51v-.52zm1.92.59c0 2.07.52 3.85 1.55 5.25s2.52 2.15 4.36 2.15c1.85 0 3.33-.74 4.36-2.15s1.55-3.18 1.55-5.25v-.52c0-2.07-.52-3.77-1.55-5.18-1.04-1.41-2.52-2.15-4.36-2.15-1.85 0-3.33.74-4.36 2.15-1.04 1.41-1.55 3.18-1.55 5.18v.52zm16.95-7.77v-1.48h4.36l.22 2.81c.59-.96 1.41-1.78 2.29-2.29.96-.52 2.07-.81 3.33-.81 2.15 0 3.85.89 5.03 2.59s1.85 3.99 1.85 6.88v.37c0 2.66-.59 4.81-1.85 6.44-1.18 1.63-2.89 2.37-5.03 2.37-1.26 0-2.37-.22-3.33-.74s-1.7-1.18-2.29-2.07v7.62l2.74.22v1.48h-7.4v-1.48l2.74-.22v-21.45l-2.66-.24zm15.16 7.62c0-2.29-.44-4.14-1.33-5.55-.89-1.41-2.22-2.15-3.99-2.15-1.33 0-2.44.3-3.26.96-.81.67-1.48 1.48-1.85 2.52v8.66c.44.96 1.11 1.78 2 2.29.89.59 1.92.81 3.18.81 1.7 0 3.03-.67 3.92-1.92.89-1.33 1.33-3.03 1.33-5.18v-.44z"/></g><path class="st5" d="M132.46 180.44c2.52-2 5.33-2.37 8.36-2.37 9.32.07 18.72.07 28.11.07.89 0 1.7-.07 2.59-.15 2.59-.22 4.51-2.52 4.29-5.03-.07-.59-.22-1.11-.44-1.63-3.11-6.73-2.37-13.02 2.15-18.94.96-1.26 1.33-2.89.89-4.44-.67-2.52-1.92-4.81-3.85-6.58-.44-.44-1.04-.67-1.63-.52-6.44.89-12.5-3.55-13.39-10.06-.89-6.51 3.55-12.5 10.06-13.39 6.44-.89 12.5 3.55 13.39 10.06.44 3.26-.44 6.51-2.52 9.1-.44.52-.59 1.18-.37 1.78.67 2.44 1.85 4.66 3.63 6.44 1.11 1.26 2.89 1.85 4.51 1.48 9.4-1.55 18.13 4.88 19.83 14.5 1.63 9.03-4.81 18.05-13.98 19.75-3.18.67-6.51.37-9.62-.81-1.26-.59-2.74-.74-4.14-.44-2.15.52-3.18 1.78-3.26 3.99-.07 1.04.07 2.07.3 3.11.37 1.7.3 3.55-.15 5.25-1.41 5.03-2.81 10.06-4.14 15.09-.3 1.33-.89 2.52-1.7 3.63-.3.3-.37.81-.07 1.11l.07.07c2.66 3.26 2.66 7.03.15 10.36-.3.44-.37.96-.22 1.48.74 4.88-2.66 9.4-7.55 10.06-4.88.74-9.4-2.66-10.06-7.55-.07-.89-.37-1.11-1.26-1.11-2.59.07-5.18.07-7.84 0-.74 0-1.04.15-1.11.96-.44 4.59-4.36 8.06-8.95 7.99-4.66-.07-8.51-3.7-8.8-8.36.07-.52-.3-1.04-.81-1.11-4.22-1.55-6.51-6.21-5.03-10.51.59-1.78 1.18-3.55 1.78-5.33.3-.74.3-1.48.07-2.22-1.63-5.99-3.18-11.98-4.73-17.98-.15-.67-.37-.89-1.11-.89-4.73.15-8.66-3.63-8.8-8.36v-.07c-.07-4.73 3.63-8.66 8.36-8.8.67-.07 1.33 0 1.92.15 1.85.59 3.7.37 5.62.37 4.36 0 7.47 2.37 8.58 6.66.28 1.05.58 2.08.87 3.19zm20.64 3.26h-13.76c-3.7 0-5.92 2.96-5.03 6.51 1.33 5.1 2.74 10.21 4.22 15.31a5.002 5.002 0 0 0 4.96 3.7h19.09c2.37.07 4.44-1.55 5.03-3.85 1.41-4.96 2.74-9.91 4.14-14.87 1.11-3.99-1.11-6.81-5.25-6.81h-13.4v.01zm-6.43 35.51h18.71c1.26 0 2.29-.96 2.37-2.22.15-1.26-.74-2.37-1.92-2.59-.44-.07-.89-.15-1.26-.07h-31.74c-.89 0-1.26-.07-.81-1.11.52-1.26.89-2.59 1.33-3.85.37-1.04.37-2.15.07-3.18-2.29-8.66-4.51-17.46-6.73-26.12-.89-3.55-1.26-3.77-4.88-3.77-1.78 0-3.48.22-5.25-.44-1.26-.37-2.59.22-3.26 1.33s-.59 2.52.22 3.55c.81.96 2.44 1.55 3.55.96.96-.52 1.85-.37 2.81-.52.96-.15 1.33.37 1.55 1.26 2.07 8.06 4.14 16.13 6.29 24.12.22.67.15 1.41-.07 2.07-.74 2-1.41 4.07-2.07 6.14-1.04 3.03.07 4.51 3.33 4.51l17.76-.07zm32.77-55.63c0 6.36 5.1 11.47 11.47 11.54s11.47-5.1 11.54-11.47c0-6.36-5.1-11.47-11.47-11.54h-.07c-6.29-.07-11.39 5.03-11.47 11.32v.15zm-1.18-34.26c0-1.41-.96-2.22-2.44-2.29-2.29-.07-2.29-.07-2.37-2.37 0-1.48-.89-2.37-2.22-2.44s-2.22.89-2.29 2.37c-.07.81.37 1.78-.22 2.29-.59.52-1.55.15-2.29.15-1.26 0-2.22 1.04-2.22 2.22s1.04 2.22 2.22 2.22c.81.07 1.78-.22 2.29.15s.15 1.55.22 2.37c0 1.26 1.04 2.22 2.29 2.22s2.22-1.04 2.22-2.29c0-.74-.3-1.7.15-2.22s1.48-.15 2.29-.22c.22 0 .52-.07.74-.07.96-.24 1.63-1.05 1.63-2.09zm-43.5 92.11c-1.78-.15-3.33 1.18-3.48 3.03v.3c-.15 1.85 1.33 3.48 3.18 3.63 1.85.15 3.48-1.33 3.63-3.18v-.3c.15-1.78-1.26-3.33-3.03-3.48-.08 0-.23-.08-.3 0zm31.07 3.33c.07-1.85-1.41-3.33-3.26-3.33-1.85-.07-3.4 1.41-3.48 3.26v.15c0 1.85 1.48 3.33 3.33 3.33h.22c1.7.07 3.11-1.33 3.18-3.03.01-.16.01-.23.01-.38zm35.51-114.15c-6.51 0-11.84-5.33-11.84-11.84s5.33-11.84 11.84-11.84 11.84 5.33 11.84 11.84v.07c0 6.51-5.33 11.77-11.84 11.77zm-7.99-11.84c-.07 4.44 3.55 8.06 7.99 8.14 4.44.07 8.06-3.55 8.14-7.99.07-4.44-3.48-8.06-7.84-8.14-4.52-.08-8.22 3.48-8.29 7.99 0-.08 0-.08 0 0zm-4 9.91c1.48 0 2.66 1.18 2.66 2.66s-1.18 2.66-2.66 2.66-2.66-1.18-2.66-2.59c0-1.54 1.18-2.73 2.66-2.73zm-5.69 5.62c1.48 0 2.66 1.11 2.66 2.59v.07c0 1.48-1.18 2.66-2.66 2.66s-2.66-1.18-2.66-2.66c-.01-1.55 1.18-2.73 2.66-2.66z"/><path class="st5" d="M153.18 198.42c-.89.07-2.22-.44-2.81.22-.59.67-.15 1.92-.15 2.96 0 1.11-.3 2.07-1.48 2.52-.81.37-1.7.15-2.29-.52-.44-.52-.74-1.18-.67-1.85v-2.59c0-.59-.15-.74-.74-.74h-3.03c-1.18.07-2.22-.81-2.29-2v-.07c0-1.18.96-2.22 2.15-2.29 1.11-.07 2.15-.07 3.26 0 .52 0 .67-.15.67-.67v-2.81c0-1.48 1.04-2.59 2.29-2.52s2.15 1.04 2.15 2.52v2.74c0 .59.15.81.74.81 1.55-.07 3.18-.07 4.73 0 .74 0 .81-.3.81-.89-.07-.81-.07-1.63 0-2.52 0-1.18 1.04-2.22 2.22-2.22 1.18.07 2.07 1.04 2.15 2.22.07.89.07 1.7 0 2.59 0 .59.15.81.81.81.74-.07 1.55-.07 2.29 0 1.26 0 2.22.96 2.22 2.22v.07c-.07 1.18-1.04 2.15-2.29 2.07h-.14c-.89.07-2.15-.44-2.66.22-.52.67-.15 1.78-.15 2.74 0 2.07-.74 3.03-2.22 3.03s-2.07-.96-2.15-3.03c0-.96.44-2.22-.22-2.81-.67-.59-1.78-.15-2.74-.15-.17-.06-.24-.06-.46-.06zm52.15-99.65c-.07 2.22-1.92 3.92-4.14 3.77a3.88 3.88 0 0 1-3.77-3.77c-.07-2.22 1.63-4.07 3.77-4.14 2.15-.07 4.07 1.63 4.14 3.77v.37z"/></g></svg>
