<svg xmlns="http://www.w3.org/2000/svg" viewBox="0 0 2000 402"><g data-name="Group 10474"><path data-name="Path 78322" d="M186 0c6.136 2.266 11.984 4.911 16.028 10.454a25.318 25.318 0 0 1 5.161 18.306c-.337 2.918.418 4.5 3.053 5.925q51.644 27.963 103.152 56.175c2.57 1.407 4.249 1.275 6.619-.576 8.865-6.921 18.744-7.778 28.617-2.762 9.584 4.869 14.492 13.289 14.1 24.053-.4 11.173-6.188 19.16-16.5 23.533-2.564 1.087-3.477 2.372-3.472 5.126q.115 60.986.005 121.972c-.005 2.674.683 4.071 3.355 5.2 10.507 4.42 16.394 12.51 16.622 23.944.22 11.009-5.056 19.313-14.914 24.073-10.3 4.973-20.173 3.382-28.829-4.076-2.21-1.9-3.756-1.848-6.124-.564-34.278 18.571-68.617 37.028-102.852 55.677a6.358 6.358 0 0 0-2.846 4.794c.816 15.7-5.191 24.914-19.945 29.963A6.1 6.1 0 0 0 186 402h-10a5.8 5.8 0 0 0-1.209-.811c-14.949-5.217-21.337-14.931-19.478-30.5.395-3.3-1.387-3.973-3.416-5.072q-50.52-27.344-101-54.766c-3.115-1.7-4.97-1.5-7.752.881-13.664 11.713-34.1 6.722-41.222-9.793C1.349 300.6.645 299.311 0 298v-12c2.869-7.686 6.83-14.86 14.877-17.744 5.336-1.914 6.9-4.724 6.118-9.841a36.637 36.637 0 0 1-.044-5.487q0-55.687-.069-111.373c0-1.77-.623-4.806-1.613-5.11C9.274 133.373 3.81 126.061 0 117v-12a12.954 12.954 0 0 0 .947-1.714c7.154-19.1 26.495-24.553 42.9-12.274 1.227.919 4.073.9 5.52.119 34.3-18.509 68.5-37.207 102.77-55.778 2.412-1.307 3.29-2.707 2.913-5.492-1.008-7.446.361-14.748 5.782-19.937C165.125 5.818 170.89 3.251 176 0Zm-4.7 285.54h9.976c36.32 0 72.641-.13 108.959.118 6.568.044 12.241.064 13.958-7.854a3.2 3.2 0 0 1 1.107-1.64c3.91-3.144 2.6-6.169.445-9.84Q255.01 162.893 194.579 59.289c-3.023-5.188-5.682-9.223-12.462-6.686a4.717 4.717 0 0 1-2.965-.049c-5.106-1.787-7.239 1.123-9.548 5.093Q109.55 160.893 49.158 263.941c-3.227 5.5-5.362 10.024.014 15.134a6.3 6.3 0 0 1 1.514 3.117c.642 2.91 2.519 3.39 5.167 3.385q62.719-.086 125.444-.037M97.12 159.128c-1.958-1.243-3.317-2.16-4.726-2.991-12.614-7.443-25.36-14.672-37.8-22.394-5.388-3.345-10.148-6.335-15.382-.138a4.162 4.162 0 0 1-2.2 1.133c-3.759.826-4.682 3.1-4.669 6.843.139 39.78.083 79.561.1 119.342 0 1.715.192 3.429.294 5.143q.82.252 1.641.5L97.12 159.128m169.1-.079 62.921 107.344c.579-.2 1.158-.4 1.737-.607.1-1.892.273-3.784.274-5.677.016-38.457-.09-76.914.128-115.37.031-5.411-.636-9.309-6.664-10.538a7.727 7.727 0 0 1-3.789-2.323c-2.522-2.728-4.758-2.382-7.786-.565-13.987 8.395-28.125 16.537-42.2 24.785-1.4.821-2.739 1.746-4.621 2.951m-6.1-10.885c14.93-8.761 29.208-17.348 43.715-25.531 4.7-2.649 8.439-5.039 6.409-11.292a7.681 7.681 0 0 1 .242-4.441c1.057-3.234-.323-4.726-3.081-6.219q-50.99-27.613-101.9-55.373c-1.414-.767-3.259-.739-4.9-1.081.421 1.639.495 3.48 1.315 4.886Q229.49 96.4 257.219 143.6c.826 1.41 1.75 2.763 2.9 4.569m-157.026-.024a16.684 16.684 0 0 0 1.481-1.807q28.48-48.772 56.875-97.595c.623-1.073.379-2.65.54-3.992-1.5.29-3.194.229-4.476.924-31.345 16.988-62.5 34.339-94.059 50.913-7.954 4.177-13.48 8.335-11.176 18.031.432 1.816 1.271 4.129 2.677 5.019 7.879 4.989 15.983 9.623 24.022 14.357 8.01 4.717 16.034 9.409 24.116 14.15m-50.325 149.1-.489 1.138c1.666.961 3.311 1.962 5 2.878q49.645 26.9 99.26 53.858c3.559 1.945 6.134 2.335 9.184-.743a13.756 13.756 0 0 1 6.086-3.286c3.375-.891 4.293-2.65 4.248-6.044-.192-14.324-.071-28.651-.1-42.978 0-1.585-.216-3.171-.336-4.823Zm257.977 1.312-.48-1.17H188.192v5.731c0 12.164.273 24.338-.11 36.489-.206 6.521-.111 12.233 7.641 14.215a3.336 3.336 0 0 1 1.606 1.158c2.5 3.141 4.992 2.5 8.194.763q50.5-27.462 101.129-54.674c1.407-.76 2.731-1.671 4.094-2.512"/><path data-name="Path 78326" d="M1335.881 201.52c0-26.658.093-53.317-.094-79.973-.03-4.295.979-5.708 5.506-5.666 26.49.242 52.983 0 79.472.241 16.175.149 31.881 3.157 46.374 10.629 33.015 17.022 46.939 44.826 45.022 81.233-2.077 39.428-29.018 69.224-69.808 76.812a158.332 158.332 0 0 1-26.815 2.4c-24.654.317-49.317-.01-73.973.22-4.693.044-5.815-1.418-5.781-5.921.2-26.657.1-53.315.1-79.973m48.377-.031c0 14.327.072 28.655-.056 42.98-.029 3.159.8 4.455 4.192 4.377 8.991-.206 17.992.023 26.985-.139 9.264-.166 18.236-1.795 26.426-6.444 17.661-10.022 25.485-30.97 20.221-54.067-4.331-19.008-20.124-32.005-41.206-33.235-10.629-.62-21.318-.159-31.971-.486-3.962-.121-4.693 1.534-4.655 5.033.153 13.992.063 27.987.064 41.981"/><path data-name="Path 78327" d="M1906.121 241.163c-4.58 4.546-8.923 8.618-12.921 13.005-.93 1.021-.919 3.112-.937 4.716-.088 8.161-.063 16.324-.032 24.485.008 2.172-.112 3.956-3.064 3.944-14.144-.062-28.288-.028-42.886-.028V105.969c1.843-.1 3.614-.266 5.385-.269 11.494-.025 22.994.21 34.478-.12 4.727-.136 6.231 1.112 6.189 6.022-.232 27.316-.111 54.635-.11 81.953v6.711c2.255-2.027 3.571-3.132 4.8-4.326 13.147-12.763 26.235-25.587 39.475-38.252 1.546-1.478 3.9-2.956 5.9-2.984 16.32-.231 32.646-.12 48.97-.092a16.787 16.787 0 0 1 2.634.693l-54.281 56.076 59.24 75.408c-2.27.235-3.638.5-5.005.5-15.492.029-30.986.165-46.471-.136a10.462 10.462 0 0 1-6.987-3.4c-10.3-12.448-20.258-25.173-30.34-37.8-1.218-1.524-2.511-2.988-4.033-4.794"/><path data-name="Path 78328" d="M1602.344 290.3c-22.432-.946-41.961-7.712-57.783-24.03-26.107-26.924-26.171-84.725 22.153-106.5 24.152-10.88 49.087-10.437 73.107.9 26.331 12.427 39.755 37.745 37.045 67.653-2.463 27.178-21.375 49.7-49.055 57.485-8.257 2.322-16.966 3.037-25.467 4.489m27.917-69.575c-.334-2.849-.482-5.856-1.065-8.776-2.765-13.848-13.354-22.587-27.1-22.507-13.721.08-24.506 8.934-26.755 22.834a54.332 54.332 0 0 0-.035 16.838c2.247 14.3 12.995 23.278 26.863 23.3 13.9.027 24.352-8.844 27.09-23.124.53-2.763.663-5.6 1-8.57"/><path data-name="Path 78329" d="m1792.791 234.738 35.546 18.289a51.4 51.4 0 0 1-17.447 22.99c-24.789 18.416-66.5 18.024-93.246-.911a63.092 63.092 0 0 1-23.926-31.816c-11.627-34.172 3.679-69.477 36.894-83.813 20.852-9 42.449-9.631 63.972-2.356 13.739 4.643 24.517 13.284 31.359 26.362a45.551 45.551 0 0 1 1.687 3.62 9.36 9.36 0 0 1 .252 1.958l-35.033 18.054c-1.661-2.368-2.992-4.451-4.506-6.392-7.683-9.851-17.863-13.192-29.77-10.336-11.716 2.811-18.632 10.784-20.543 22.557a52.73 52.73 0 0 0-.084 15.374c1.649 12.08 9.831 20.815 21.005 23.362 11.933 2.721 23.111-1.572 30.25-11.639 1.142-1.611 2.216-3.269 3.59-5.3"/><path data-name="Path 78330" d="M609.638 260.024a62.4 62.4 0 0 1-19.286 18.136c-31.531 19.2-89.88 14.178-114.686-29.59-19.69-34.74-12.129-83.974 17.178-109.537 27.1-23.638 80.793-28.952 109.214 1.552 1.225 1.315 2.425 2.655 4.086 4.475l-20.5 15.017c-8.671-4.7-15.863-10.576-24.019-12.644-20.9-5.3-39.415.42-53.517 17.124-19.374 22.95-17.3 61.836 3.617 82.988 16.123 16.3 50.489 24.386 72-1.243.888-1.057 3.741-1.878 4.661-1.27 7.059 4.663 13.866 9.707 21.252 14.992"/><path data-name="Path 78331" d="M698.886 284.712c0-16.755.07-32.572-.034-48.387-.042-6.324-.127-12.681-.789-18.961-1.327-12.584-7.865-19.486-18.33-20-12.366-.607-22.079 6.427-24.609 18.191a58.887 58.887 0 0 0-1.169 11.9c-.124 17-.054 34-.055 51v6.179c-8.691 0-16.954.056-25.213-.1-.7-.014-1.723-1.365-1.985-2.271a14.7 14.7 0 0 1-.144-3.975V119.303c0-6.475.013-6.479 6.512-6.483h20.675v76.028c1.029-.178 1.491-.122 1.61-.3 10.8-15.968 28.18-18.323 44.467-13.918 11.893 3.216 20.136 11.174 23.565 23.088a72.265 72.265 0 0 1 2.629 18.7c.316 20.994.028 42 .211 62.992.035 4.076-1.029 5.6-5.289 5.4-7.112-.327-14.249-.089-22.052-.089"/><path data-name="Path 78332" d="M1245.782 239.694h-83.813c1.4 11.02 6.421 18.665 15.982 23.064 13.419 6.176 26.252 2.735 42.9-11.643l19.093 14.308c-9.411 12.182-21.455 18.783-36.021 21.129-29.332 4.723-57.075-10.134-65.875-36.523-7.454-22.36-4.3-43.638 13.083-60.506 17.542-17.021 39.1-21.042 62.054-13.186 17.1 5.851 26.12 19.617 29.692 36.746 1.747 8.377 1.917 17.082 2.9 26.611m-28.5-20.775c.95-15.113-10.347-25.653-26.946-25.73-15.821-.074-28.433 11.6-27.562 25.73Z"/><path data-name="Path 78333" d="M825.124 284.69v-14.6a25.48 25.48 0 0 0-3.04 2.72c-14.671 19.593-48.505 17.752-63.018 3.951-14.247-13.549-12.535-37.283 3.8-48.869 8.984-6.373 19.427-8.711 30.075-9.793 10.392-1.057 20.868-1.284 31.3-1.875a16.387 16.387 0 0 0-7.278-18.464c-10.912-7.05-28.466-5.819-41.089 2.9-1.5 1.038-2.94 2.172-3.905 2.888L757.374 189c4.408-2.936 9.21-7.038 14.721-9.631 15.111-7.109 31.13-8.488 47.334-4.789 17.9 4.087 28.444 15.676 29.322 34.472 1.126 24.1.655 48.27.7 72.41 0 1.074-1.663 3.046-2.61 3.082-6.956.265-13.928.143-21.717.143M796.2 267.935c18.234-1.02 27.961-10.918 27.311-28.183-.115-3.052-1.14-4.143-4.123-3.967-5.308.312-10.736-.168-15.918.766-6.79 1.224-13.849 2.558-19.962 5.545-8.816 4.308-9.216 15.433-1.007 20.717 4.006 2.579 9.1 3.468 13.7 5.122"/><path data-name="Path 78334" d="M906.311 284.676c-8.682 0-16.647.144-24.593-.19-.944-.04-2.525-2.676-2.548-4.128-.2-12.825-.12-25.654-.12-38.483 0-20.492.094-40.984-.079-61.475-.033-3.958 1.173-5.244 5.118-5.078 6.772.285 13.565.079 20.909.079v17.316c2.031-2.808 3.142-4.358 4.267-5.9 9.855-13.475 23.674-15.814 38.833-13.2 14.413 2.49 24.117 11.055 28.106 25.189a69.427 69.427 0 0 1 2.422 17.731c.283 20.988 0 41.983.205 62.973.041 4.23-1.3 5.5-5.4 5.271a146.7 146.7 0 0 0-16.984.007c-4.329.266-5.285-1.453-5.237-5.455.19-16.158.152-32.32.031-48.48a102.77 102.77 0 0 0-1-15.43c-1.812-11.3-7.522-17.1-16.969-17.984-11.16-1.048-20.919 4.266-24.341 14.286a53.684 53.684 0 0 0-2.51 16.157c-.31 16.821-.115 33.651-.115 50.478v6.308"/><path data-name="Path 78335" d="M1109.287 284.7c-8.686 0-16.487-.026-24.288.012-3.48.017-2.9-2.491-2.9-4.565-.026-16.325.057-32.651-.062-48.976a108.4 108.4 0 0 0-.982-15.431c-1.729-11.383-7.68-17.462-17.25-18.307-11.239-.992-21.181 4.711-24.5 14.885a50.408 50.408 0 0 0-2.175 14.716c-.254 17.155-.1 34.316-.1 51.474v5.808h-26.9V175.469c7.822 0 15.567-.107 23.3.162.8.028 2.073 2.264 2.169 3.547.288 3.868.1 7.772.1 12.863a25.157 25.157 0 0 0 2.248-2.383c11.245-18 29.754-19.716 46.656-14.529 15.379 4.719 24.11 18.169 24.508 37.449.429 20.815.152 41.644.182 62.467.005 2.974 0 5.948 0 9.65"/><path data-name="Path 78336" d="M1271.42 113.1h26.714c.1 1.9.281 3.664.281 5.428.015 53.491-.044 106.982.11 160.472.014 4.611-1.258 6.147-5.871 5.806a111.032 111.032 0 0 0-15.984 0c-4.468.318-5.615-1.238-5.594-5.614.168-35.827.094-71.654.094-107.482q0-26.494.01-52.991c0-1.784.149-3.568.24-5.617"/><path data-name="Path 78348" d="M176.577 265.355c-5.845-3.36-11.147-6.393-16.435-9.45-10.516-6.077-21.088-12.06-31.468-18.361-1.64-1-3.386-3.435-3.409-5.228-.235-18.633-.131-37.27-.1-55.9a18.545 18.545 0 0 1 .391-2.431 28.435 28.435 0 0 1 3.665 1.472c14.84 8.568 29.7 17.1 44.416 25.883 1.648.984 3.409 3.44 3.429 5.232.213 18.8.083 37.6.031 56.4a16.58 16.58 0 0 1-.517 2.385"/><path data-name="Path 78349" d="M186.152 265.66c0-8.972-.006-16.749 0-24.526.01-11.166-.086-22.334.162-33.494.04-1.795 1.157-4.349 2.585-5.209 15.554-9.375 31.268-18.485 46.949-27.649a9.306 9.306 0 0 1 1.819-.516 21.712 21.712 0 0 1 .505 3.276c-.005 18.165 0 36.33-.169 54.493-.014 1.576-.759 3.9-1.926 4.6-16.184 9.589-32.5 18.952-49.926 29.03"/><path data-name="Path 78350" d="M130.124 164.6c16.833-9.614 32.986-18.885 49.222-28.009a4.936 4.936 0 0 1 4.123.021c16.183 9.242 32.283 18.629 48.392 28 .25.145.353.544.793 1.263q-7.745 4.467-15.472 8.926c-10.667 6.16-21.282 12.41-32.051 18.385-1.574.873-4.35 1.273-5.77.473-15.8-8.9-31.455-18.085-47.135-27.211a19.22 19.22 0 0 1-2.1-1.851"/><path data-name="Rectangle 1993" fill="none" d="M0 0h2000v402H0z"/></g></svg>
