<svg version="1.1" id="Layer_1" xmlns="http://www.w3.org/2000/svg" x="0" y="0" viewBox="0 0 780 200" style="enable-background:new 0 0 780 200" xml:space="preserve"><style>.st1{fill:#ff7f00}.st4{fill:#fff}</style><path class="st1" d="M226.5 118.7h-33.7c1.2 5.6 6 8.9 12.8 8.9 4.7 0 8.1-1.4 11.2-4.3l6.9 7.5c-4.1 4.7-10.4 7.2-18.4 7.2-15.4 0-25.4-9.7-25.4-23s10.2-23 23.8-23c13.1 0 23.2 8.8 23.2 23.1-.1 1.1-.3 2.5-.4 3.6zm-33.9-7.5h22c-.9-5.6-5.1-9.3-10.9-9.3-5.9 0-10.2 3.6-11.1 9.3zm81 .7v25.4h-12.1v-5.6c-2.4 4.1-7 6.2-13.6 6.2-10.4 0-16.7-5.8-16.7-13.5 0-7.9 5.6-13.3 19.1-13.3h10.3c0-5.6-3.3-8.8-10.3-8.8-4.7 0-9.6 1.6-12.8 4.1l-4.6-9c4.9-3.5 12.1-5.4 19.2-5.4 13.6.1 21.5 6.4 21.5 19.9zm-12.9 11.4v-4.6h-8.9c-6 0-8 2.2-8 5.2 0 3.2 2.7 5.4 7.3 5.4 4.3 0 8.1-2 9.6-6zm20.3 9.9 4.3-9.3c4 2.6 10 4.3 15.5 4.3 6 0 8.2-1.6 8.2-4.1 0-7.3-26.9.2-26.9-17.7 0-8.5 7.6-14.4 20.6-14.4 6.1 0 12.9 1.4 17.2 3.9l-4.3 9.2c-4.4-2.5-8.8-3.3-12.8-3.3-5.8 0-8.3 1.8-8.3 4.1 0 7.6 26.9.2 26.9 17.8 0 8.3-7.7 14.2-21 14.2-7.7.1-15.3-1.9-19.4-4.7zm91.7-40.4-20.1 47.3c-4.3 10.8-10.4 14-18.5 14-4.6 0-9.5-1.5-12.4-4.1l4.7-9.2c2 1.7 4.7 2.8 7.3 2.8 3.6 0 5.6-1.6 7.3-5.6l.2-.4-19.3-44.9h13.3l12.5 30.2 12.6-30.2h12.4z"/><path d="m447.9 93.1-16.3 44.3h-9.9l-11.4-30.5-11.6 30.5h-9.9l-16.2-44.3h9.8l11.7 32.6L406 93.1h8.7l11.9 32.8 12-32.8h9.3zm44 25.5h-34.7c1.2 6.5 6.6 10.6 14.3 10.6 5 0 8.9-1.6 12-4.8l5.6 6.4c-4 4.7-10.2 7.2-17.8 7.2-14.8 0-24.4-9.5-24.4-22.7s9.7-22.6 22.9-22.6c12.9 0 22.4 9 22.4 22.9-.2.7-.2 2-.3 3zm-34.8-6.9h25.1c-.8-6.4-5.7-10.8-12.5-10.8-6.7 0-11.6 4.3-12.6 10.8zm88.6 3.5c0 13.8-9.5 22.7-22.5 22.7-6 0-11.2-2.1-14.7-6.3v5.7h-9.9V75.9H509v22.6c3.6-4 8.5-5.9 14.2-5.9 12.9 0 22.5 8.9 22.5 22.6zm-10.6 0c0-8.5-5.6-13.8-13.1-13.8s-13.2 5.4-13.2 13.8S514.5 129 522 129c7.5.1 13.1-5.3 13.1-13.8zm12.1 17.8 4-7.9c3.9 2.6 9.9 4.4 15.4 4.4 6.5 0 9.3-1.8 9.3-4.9 0-8.5-27.3-.5-27.3-18.1 0-8.4 7.5-13.8 19.5-13.8 5.9 0 12.6 1.4 16.6 3.8l-4 7.9c-4.2-2.5-8.5-3.3-12.7-3.3-6.3 0-9.3 2.1-9.3 5 0 8.9 27.3 1 27.3 18.3 0 8.3-7.6 13.7-20.1 13.7-7.4-.2-14.8-2.3-18.7-5.1zm88-21v25.4h-10.4v-24c0-7.9-3.9-11.7-10.5-11.7-7.4 0-12.3 4.5-12.3 13.3v22.4h-10.4V75.9H602v22.4c3.4-3.6 8.6-5.6 14.7-5.6 10.6-.1 18.5 6 18.5 19.3zm6.6 3.2c0-13.3 9.9-22.6 23.5-22.6 13.8 0 23.6 9.4 23.6 22.6s-9.9 22.7-23.6 22.7c-13.5 0-23.5-9.4-23.5-22.7zm36.7 0c0-8.5-5.6-13.8-13.2-13.8-7.5 0-13.1 5.4-13.1 13.8s5.6 13.8 13.1 13.8c7.6.1 13.2-5.3 13.2-13.8zm64.1 0c0 13.8-9.5 22.7-22.5 22.7-5.6 0-10.6-1.9-14.2-6v21.5h-10.4V93.1h9.9v5.8c3.5-4.2 8.6-6.3 14.7-6.3 12.9 0 22.5 9 22.5 22.6zm-10.5 0c0-8.5-5.6-13.8-13.1-13.8s-13.2 5.4-13.2 13.8S711.5 129 719 129c7.4.1 13.1-5.3 13.1-13.8z" style="fill:#303030"/><path class="st1" d="M104 77.4c-.1 0-.1 0 0 0-.9-.1-1.5-.7-1.4-1.5 1.1-17.4-1-29-6.3-34.7-2.5-2.7-5.7-4-9.8-4-4 0-7.4 1.5-9.9 4.4-5.2 5.9-7 17.1-5.2 31.7.1.8-.5 1.5-1.2 1.6-.8.1-1.5-.5-1.6-1.2-1.9-15.4.1-27.4 5.9-33.9 3.1-3.5 7.2-5.3 12-5.3s8.8 1.7 11.8 4.9c5.9 6.3 8.3 18.7 7.1 36.9-.1.5-.7 1.1-1.4 1.1z"/><path class="st1" d="m143.4 66 6.3 94.3-90.3 7.4V66z"/><path class="st1" d="m37.4 156.6 22 11.1V66H45.3z" style="opacity:.4"/><circle class="st4" cx="85.6" cy="76.7" r="3.7"/><circle class="st4" cx="125.2" cy="76.7" r="3.7"/><path d="M85.6 78.2c-.7 0-1.3-.5-1.4-1.2-2.2-17.5.2-31.2 6.7-38.5 3.5-4 8.1-6 13.6-6 5.9 0 10.7 1.9 14.3 5.7 6.4 6.8 8.8 19.5 7.6 38.7-.1.8-.7 1.4-1.5 1.3-.8-.1-1.4-.7-1.3-1.5 1.2-18.5-1-30.4-6.8-36.6-3.1-3.3-7.1-4.9-12.3-4.9-4.7 0-8.5 1.7-11.5 5.1-6 6.8-8.1 19.7-6 36.3.1.8-.5 1.5-1.2 1.6-.1-.1-.2 0-.2 0z" style="fill:#ffb000"/><path class="st4" d="m80.6 137-7.2.4.2 13.6 7.2-.4zm16.5-26.9-7.1.5.9 39.6 7.3-.4zm17.6 12.1-7.2.5 1 26.6 7.4-.3zm15.8-29.5-7.1.5 2.9 55.3 7.5-.4z"/></svg>
