<svg xmlns="http://www.w3.org/2000/svg" viewBox="0 0 1600 477" style="enable-background:new 0 0 1600 477" xml:space="preserve"><path d="M637.7 383.6c-1.8-5.7-4.4-10.5-7.7-14.6s-7.4-7.2-12.1-9.4c-4.7-2.2-10.1-3.3-16.1-3.3-5.7 0-11 1.3-15.8 4-4.8 2.6-8.7 6.4-11.8 11.4v-43.9h-13.9v118.7h13.9v-12.9c2.4 4.3 5.9 7.8 10.5 10.6s10.6 4.2 17.8 4.2c5.8 0 11-1.2 15.7-3.6 4.7-2.3 8.7-5.6 12-9.8s5.8-9.1 7.6-14.7c1.7-5.6 2.6-11.6 2.6-17.9 0-6.9-.9-13.1-2.7-18.8zm-18.8 43.5c-4.8 6.1-11.3 9.2-19.3 9.2-3.7 0-7-.6-10.2-2-3.1-1.4-5.9-3.4-8.2-6.2s-4.1-6.3-5.5-10.5c-1.3-4.2-2-9.1-2-14.8 0-11.4 2.4-20 7.2-25.9 4.8-5.9 11-8.8 18.7-8.8 8.9 0 15.5 3.1 19.9 9 4.5 6.2 6.7 14.6 6.7 25.2 0 10.4-2.4 18.7-7.3 24.8zm78.4 24.1c-1.2 3.7-2.6 7.1-4.1 10.3-1.5 3.1-3.3 5.8-5.6 8.1s-5 4-8.2 5.3c-3.2 1.2-7.2 1.9-11.8 1.9-3.8 0-7.1-.3-9.8-1v-10.9c1.6.2 2.8.3 3.7.3h3.6c3.3 0 6-.4 8.1-1.2s3.9-2 5.3-3.5 2.6-3.5 3.5-5.9 1.8-5.1 2.7-8.1h-4.6L649 358.1h15.1l25.6 77.5 23.2-77.5h14.4l-30 93.1zm99.7-17.6h55.3v12.9h-69.4V327.8H797zm78-108.2c2.5 0 4.6.9 6.4 2.6 1.8 1.8 2.7 3.9 2.7 6.4 0 2.6-.9 4.8-2.7 6.5-1.8 1.8-4 2.6-6.4 2.6-2.6 0-4.8-.9-6.6-2.6s-2.7-3.9-2.7-6.5c0-2.5.9-4.6 2.7-6.4 1.8-1.7 4-2.6 6.6-2.6zm-7 32.8h13.9v88.3H868zm104.9 74.6c-2.7-2.2-6.3-4-10.7-5.3-4.4-1.2-9.8-1.9-16.1-1.9h-18.5c-4.3 0-7.3-.7-9.2-2.2s-2.8-3.7-2.8-6.6c0-1.2.4-2.5 1.1-3.8.7-1.3 1.7-2.5 2.8-3.6 2.8 1.3 5.8 2.2 8.9 2.8 3.1.6 6.3.9 9.6.9 5.5 0 10.4-.6 14.8-1.9 4.4-1.3 8.2-3.2 11.3-5.6s5.5-5.3 7.2-8.7c1.6-3.4 2.5-7.2 2.5-11.5 0-3.2-.4-6.2-1.4-9.1-.9-2.9-2.4-5.5-4.3-7.9 1.9-1.4 4-2.3 6.2-2.8s4.9-.8 8.2-.8h-.3v-12.4c-10 0-17.4 3.1-22 9.3-2.9-1.7-6.3-3-10-4-3.7-.9-7.9-1.4-12.7-1.4-5.9 0-11 .8-15.4 2.4-4.4 1.6-8.1 3.7-11.1 6.4-3 2.6-5.2 5.7-6.7 9.2s-2.2 7.2-2.2 11c0 4.3.9 8.1 2.7 11.4 1.8 3.4 4.3 6.2 7.5 8.6-6 4.3-9 9.1-9 14.4 0 6.5 3.3 11.3 9.7 14.4-9.1 4.5-13.7 10.7-13.7 18.7 0 3.4.7 6.5 2.1 9.4 1.4 2.8 3.7 5.3 6.9 7.5s7.4 3.9 12.5 5.1c5.1 1.3 11.3 1.9 18.7 1.9 12.9 0 23-2.4 30.3-7.2 7.3-4.8 10.9-11.2 10.9-19.1 0-3.4-.7-6.6-1.9-9.7-1.2-3.1-3.2-5.7-5.9-7.9zm-51.4-60.9c3.7-3.4 9.3-5.1 16.6-5.1 7.5 0 13.1 1.7 16.8 5.1 3.5 3.3 5.3 7.7 5.3 13.1 0 5.6-2 10-5.8 13.1-3.8 3.1-9.4 4.7-16.6 4.7-6.9 0-12.3-1.5-16.1-4.7-3.9-3.2-5.8-7.6-5.8-13.1 0-5.4 1.9-9.7 5.6-13.1zm38.8 90c-4.6 2.7-11.5 4.1-20.5 4.1-10.2 0-17.3-1.4-21.4-4.1-4.1-2.7-6.1-6.3-6.1-10.8 0-2.6.7-5 2.2-7.3s4.3-4.5 8.5-6.8v.1h19.2c4.8 0 8.9.2 12.1.8 3.2.5 5.8 1.4 7.7 2.6 2 1.2 3.3 2.7 4.1 4.4s1.2 3.7 1.2 6c0 4.6-2.4 8.3-7 11zm50.8-90.2c2.9-4.9 6.8-8.6 11.5-11.4 4.8-2.7 10-4.1 15.8-4.1 9.9 0 17.5 3 22.6 9s7.7 14.3 7.7 24.9v56.3h-13.9v-52.9c0-3.7-.3-7.2-.9-10.3-.6-3.2-1.7-5.8-3.1-8.1-1.5-2.2-3.4-3.9-5.9-5.2-2.5-1.2-5.6-1.9-9.3-1.9-3.4 0-6.6.7-9.5 2-2.9 1.4-5.5 3.3-7.7 5.8s-4 5.5-5.3 9.2c-1.3 3.6-2 7.7-2 12.2v49.2h-13.9V327.8h13.9v43.9zm97.9-13.6h24.8v10.7H1109v54.1c0 4.3.9 7.7 2.7 10.1s5.3 3.6 10.3 3.6c2.6 0 5.1-.2 7.6-.7 2.5-.4 4.7-1 6.6-1.5v11.2c-2.3.8-4.8 1.4-7.7 1.9s-6 .8-9.2.8c-4.6 0-8.5-.6-11.5-1.8-3.1-1.2-5.5-2.8-7.5-4.9-1.9-2.1-3.3-4.6-4.1-7.5s-1.2-6-1.2-9.4v-55.9h-12.6v-10.7h12.6v-23.6h13.9l.1 23.6zm74.9-1.8c7.8 0 14.5 1.2 20.2 3.5s10.5 5.5 14.6 9.4l-8.3 8.3c-3.4-3-7.3-5.4-11.7-7.1s-9.3-2.5-14.8-2.5c-6.4 0-11.4 1.2-14.8 3.6s-5.2 5.4-5.2 9.2c0 2 .4 3.8 1.2 5.3s2.1 2.8 4 3.9 4.3 2.1 7.4 2.9 6.9 1.5 11.5 2.2c5.4.9 10.2 2 14.2 3.3 4.1 1.3 7.5 3 10.3 5.1s4.9 4.6 6.4 7.6c1.4 3 2.1 6.6 2.1 10.9 0 3.8-.8 7.4-2.4 10.6s-4 6-7.1 8.4c-3.2 2.4-7.1 4.2-11.7 5.6s-10 2-16.1 2c-8.5 0-16.1-1.3-22.7-4-6.7-2.7-12.2-6.4-16.6-11.1l9-8.8c3.6 4 8 7 13.1 9.1s10.8 3.1 16.9 3.1c8 0 13.9-1.4 17.7-4.1s5.7-6.2 5.7-10.3c0-2.1-.4-4-1.1-5.7-.7-1.6-2.1-3.1-4.1-4.3s-4.7-2.3-8.1-3.3-7.7-1.8-13.1-2.6c-10.6-1.7-18.4-4.6-23.2-8.7-4.9-4.1-7.3-9.6-7.3-16.4 0-3.8.8-7.3 2.5-10.3 1.6-3.1 3.9-5.7 6.9-7.8 2.9-2.2 6.5-3.8 10.7-5 4.2-1.4 8.8-2 13.9-2zm131.8 27.2c-1.8-5.6-4.3-10.4-7.6-14.4-3.2-4-7.3-7.1-12-9.4s-10-3.4-15.9-3.4-11.2 1.3-16.1 3.9c-4.9 2.7-8.9 6.4-11.9 11.1v-13.2h-13.7v115.5h13.7v-40.2c2.6 4.6 6.2 8.1 10.9 10.8s10.3 4 16.9 4c6.1 0 11.6-1.2 16.3-3.6 4.7-2.4 8.8-5.7 12.1-9.9 3.3-4.1 5.8-9.1 7.5-14.8s2.5-11.8 2.5-18.2c0-6.5-.9-12.6-2.7-18.2zm-18.8 43.7c-4.8 6.1-11.3 9.2-19.3 9.2-3.6 0-7-.6-10.1-2s-5.8-3.4-8.1-6.2c-2.3-2.8-4.1-6.3-5.5-10.6-1.3-4.3-2-9.4-2-15.3 0-11.2 2.4-19.7 7.2-25.5 4.8-5.8 11.1-8.7 18.9-8.7 4.3 0 8.1.9 11.3 2.4 3.2 1.7 6 4 8.2 6.9 2.2 2.9 3.9 6.5 5 10.6s1.7 8.6 1.7 13.6c0 11-2.4 19.5-7.3 25.6zm115.7-25.2c0-6.2-.8-12.1-2.5-17.7-1.6-5.6-4.2-10.5-7.5-14.6s-7.4-7.4-12.3-9.8c-4.9-2.4-10.5-3.6-16.8-3.6-6.8 0-12.7 1.2-18.1 3.5-5.1 2.3-9.3 5.6-12.7 9.7-3.4 4.1-5.9 9-7.7 14.6-1.7 5.6-2.6 11.7-2.6 18.1 0 6.4.9 12.4 2.7 18.1 1.9 5.7 4.5 10.6 8.1 14.7 3.5 4.1 7.9 7.4 13.2 9.8 5.3 2.4 11.3 3.6 18.1 3.6 8.5 0 15.8-1.8 22-5.2 6.2-3.4 11.2-8.3 15.2-14.5l-11.5-6.3c-2.5 4.2-5.8 7.6-9.9 10.2-4.2 2.6-9.2 3.9-15.2 3.9-8.9 0-15.8-2.7-20.7-8.2-4.8-5.4-7.4-13.2-7.6-23.1h65.8V402zm-65.6-7.4c.5-8 3-14.5 7.5-19.4 4.5-4.9 10.7-7.4 18.6-7.4 7.7 0 13.7 2.4 17.9 7.3 4.2 4.9 6.6 11.4 7.2 19.5H1347zm159.2 7.4c0-6.2-.8-12.1-2.5-17.7-1.6-5.6-4.2-10.5-7.5-14.6s-7.4-7.4-12.3-9.8c-4.9-2.4-10.5-3.6-16.8-3.6-6.8 0-12.7 1.2-18.1 3.5-5.1 2.3-9.3 5.6-12.7 9.7-3.4 4.1-5.9 9-7.7 14.6-1.7 5.6-2.6 11.7-2.6 18.1 0 6.4.9 12.4 2.7 18.1 1.9 5.7 4.5 10.6 8.1 14.7 3.5 4.1 7.9 7.4 13.2 9.8 5.3 2.4 11.3 3.6 18.1 3.6 8.5 0 15.8-1.8 22-5.2 6.2-3.4 11.2-8.3 15.2-14.5l-11.5-6.3c-2.5 4.2-5.8 7.6-9.9 10.2-4.2 2.6-9.2 3.9-15.2 3.9-8.9 0-15.8-2.7-20.7-8.2-4.8-5.4-7.4-13.2-7.6-23.1h65.8V402zm-65.6-7.4c.5-8 3-14.5 7.5-19.4 4.5-4.9 10.7-7.4 18.6-7.4 7.7 0 13.7 2.4 17.9 7.3 4.2 4.9 6.6 11.4 7.2 19.5h-51.2zm159.4 51.9V327.8h-13.9v42.9c-2.6-4.3-6.2-7.7-10.7-10.4s-10.1-4-16.8-4c-6 0-11.4 1.2-16.2 3.5-4.8 2.3-8.9 5.5-12.2 9.7-3.3 4.2-5.9 9.1-7.7 14.8s-2.7 11.8-2.7 18.5c0 6.7.9 12.8 2.6 18.4 1.8 5.6 4.3 10.4 7.6 14.4 3.2 4 7.3 7.1 12 9.4s10.1 3.4 16.1 3.4c5.9 0 11.3-1.4 16.2-4.1 4.9-2.8 8.9-6.5 11.8-11.4v13.6h13.9zm-20.7-18.6c-4.8 5.7-11.1 8.6-18.8 8.6-8.9 0-15.5-3.1-19.8-9.1s-6.5-14.4-6.5-25 2.3-19 6.9-25.1c4.6-6.1 11.1-9.2 19.6-9.2 3.6 0 7 .8 10.2 2.2 3.1 1.5 5.9 3.6 8.2 6.4 2.3 2.8 4.1 6.4 5.5 10.6 1.3 4.2 2 9.1 2 14.8 0 11.4-2.4 20-7.3 25.8z"/><path class="st0" d="M345.1 0H101.6C45.5 0 0 45.5 0 101.6v243.6c0 56.1 45.5 101.6 101.6 101.6h243.6c56.1 0 101.6-45.5 101.6-101.6V101.6C446.7 45.5 401.2 0 345.1 0zm-65.8 120.2c11.1 0 20.2 9 20.2 20.2 0 11.1-9 20.2-20.2 20.2s-20.2-9-20.2-20.2 9.1-20.2 20.2-20.2zm0 56.9c11.1 0 20.2 9 20.2 20.2 0 11.1-9 20.2-20.2 20.2s-20.2-9-20.2-20.2 9.1-20.2 20.2-20.2zm-56.8-56.9c11.1 0 20.2 9 20.2 20.2 0 11.1-9 20.2-20.2 20.2s-20.2-9-20.2-20.2 9.1-20.2 20.2-20.2zm0 56.9c11.1 0 20.2 9 20.2 20.2 0 11.1-9 20.2-20.2 20.2s-20.2-9-20.2-20.2 9.1-20.2 20.2-20.2zm-56.8-56.9c11.1 0 20.2 9 20.2 20.2 0 11.1-9 20.2-20.2 20.2-11.1 0-20.2-9-20.2-20.2s9.1-20.2 20.2-20.2zm0 56.9c11.1 0 20.2 9 20.2 20.2 0 11.1-9 20.2-20.2 20.2-11.1 0-20.2-9-20.2-20.2s9.1-20.2 20.2-20.2zM111.1 390c-21.3 0-38.5-17.3-38.5-38.5 0-21.3 17.3-38.6 38.5-38.6 21.3 0 38.6 17.3 38.6 38.6S132.4 390 111.1 390zm222.7 1.7c-21.3 0-38.5-17.3-38.5-38.5 0-21.3 17.3-38.6 38.5-38.6 21.3 0 38.6 17.3 38.6 38.6s-17.3 38.5-38.6 38.5zm67.8-313.5-39.8 148.4c-10.6 39.6-44.2 64.5-85.2 64.5h-26.3c-8.7 0-21.3-4.7-26.5-9.6-.9-.8-2.2-.8-3.1 0-5.2 4.9-17.8 9.6-26.5 9.6h-28.9c-39.7 0-69.8-22.6-81.9-60.5L49.5 124.4c-.7-2.1-.3-4.4 1-6.2s3.3-2.8 5.6-2.8h6.5c15.6.1 29.3 10.1 34 25l24.9 78.2c6.7 21.2 28.3 35.4 50.5 35.4h9.7c10 0 17-5.1 21.2-9.7 2.2-2.4 5.3-3.8 8.5-3.8h21.7c3.1 0 6.1 1.2 8.1 3.5 4.1 4.5 11.4 10 21.5 10h9.2c22.9 0 45.2-15.5 51.2-37.6l32.3-120.2c4.2-15.6 18.4-26.6 34.6-26.6h5.7c.5 0 1.1.1 1.6.3 3.5 1.5 5.1 5.1 4.3 8.3z"/><path class="st0" d="M333.8 339.4c-7.6 0-13.8 6.2-13.8 13.8s6.2 13.8 13.8 13.8 13.8-6.2 13.8-13.8c.1-7.6-6.1-13.8-13.8-13.8z"/><circle class="st0" cx="111.1" cy="351.4" r="13.8"/><path d="M972.8 217.1c-7.1 0-14.9-.3-18.3 5.9-10.8 19.5-35.5 25.7-55.8 25.7-40.3 0-71-32.8-71-73s30.6-73 71-73c17.9 0 41.2 3.5 55.1 24.4 3.9 5.9 11.7 4.6 18.8 4.6 10 0 7.6-11.9 3.7-17.8C956.2 83.4 923 77 898.8 77c-54.5 0-98.9 44.3-98.9 98.7s44.4 98.7 98.9 98.7c35.3 0 65.6-15.2 79.2-39.8 3.3-6.2 5.3-17.5-5.2-17.5zM1344.3 82c-7.1 0-12.9 3.1-12.9 10.2v170.4c0 7.1 5.8 9.3 12.9 9.3s12.9-2.2 12.9-9.3V92.2c-.1-7.1-5.8-10.2-12.9-10.2z"/><circle cx="1344.3" cy="16.3" r="16.3"/><path d="M1271.4 83h-.8s-12.1 0-15.8 9.2c-3.5 8.9-22.9 69.8-43.4 129.1-.7 1.9-1.5 3.8-2.2 5.7l-44-110.6c-2-4.7-4.9-8.3-8.7-10.4-2.2-1.3-4.6-2.2-7.7-2.2h-.2c-3 0-5.5.9-7.7 2.2-3.8 2.1-6.7 5.7-8.7 10.4l-44 110.6c-.7-1.9-1.5-3.8-2.2-5.7-20.6-59.8-39.8-120.2-43.4-129.1-3.7-9.2-16.3-9.2-16.6-9.2-6.5.1-9.1 1.8-8.9 6 0 1 0 2 .4 3.2 1 3.8 31.8 97.6 56.9 168.8 1.6 4.6 5.2 11.2 13.5 11.2 5.5 0 9.6-3.7 11.1-7.4l47.1-120c.5-1.1 1.5-1.6 2.5-1.7 1 0 2 .6 2.5 1.7l47.1 120c1.5 3.8 5.9 7.4 11.1 7.4 8.5 0 12-6.6 13.5-11.2 23.5-71.5 55.9-165.1 56.9-168.8.3-1.2.4-2.3.4-3.2.3-4.2-2.2-5.9-8.7-6zM560.3 261.4c0 6 4.8 10.8 10.8 10.8h191.6c6.9 0 9.9-6 9.9-13.4s-3-13.4-9.9-13.4H594c-2.8 0-5.1-2.3-5.1-5.1v-95.5h147.5c6.9 0 9.9-6 9.9-13.4s-3-13.4-9.9-13.4H588.9V32.2c0-3 2.4-5.4 5.4-5.4h168.5c6.9 0 9.9-6 9.9-13.4S769.6 0 762.7 0H571.1c-6 0-10.8 4.8-10.8 10.8v250.6zM1587.1 0c-7.1 0-12.9 3.1-12.9 10.2v99c-14.6-23.9-42.9-32.1-67.8-32.1-54.5 0-98.8 44.3-98.8 98.6s44.3 98.6 98.8 98.6c21.3 0 54.4-10.6 67.8-33.8v21.8c0 .3 0 .4.1.4.3 6.6 5.9 8.8 12.8 8.8 7.1 0 12.9-2.2 12.9-9.3v-252c0-7.1-5.8-10.2-12.9-10.2zm-12.8 180.6c-.4 51.4-46.7 68.1-67.8 68.1-40.3 0-70.6-32.7-70.6-73s30.3-73 70.6-73c23.4 0 67.4 14 67.8 66.1v11.8z"/></svg>
