<svg xmlns="http://www.w3.org/2000/svg" viewBox="0 0 410 300" style="enable-background:new 0 0 410 300" xml:space="preserve"><path d="M68.19 136.04H18v15.01h57.12v-15.01h-6.93zm-.61 25.92H18v15.01h57.11v-15.01h-7.53zm201.87 13.14h-22.52c-3.75 0-5.98-2-5.98-5.63s2.23-5.63 5.98-5.63h22.52v11.26zm-10.44-52.07h-30.04v15.01h29.09c8.9 0 11.3 3.42 11.37 11.26h-23.22c-13.72 0-21.23 7.04-21.23 20.17 0 13.02 7.51 20.17 21.23 20.17h39.41v-40.93c.01-17.36-6.56-25.68-26.61-25.68zm84.37 51.6H324.5c-10.2 0-13.96-4.92-13.96-18.29s3.76-18.3 13.96-18.3h21.59v-15.01h-23.23c-20.76 0-28.73 10.32-28.73 33.31s7.98 33.31 28.73 33.31h23.45v-15.01h-2.92l-.01-.01zm-205.49 0h-17.77c-8.48 0-12.42-3-13.51-10.55h26.22v.01h9.21v-2.67c.01-.09.01-.18.01-.27V152c0-.09-.01-.18-.01-.27v-2.65h-2.59c-.11-.01-.22-.01-.33-.01h-32.57c1-7.82 4.93-11.02 13.57-11.02h26.74v-15.01h-28.38c-20.76 0-28.73 10.32-28.73 33.31s7.97 33.31 28.73 33.31h28.62v-15.01c.01-.02-9.21-.02-9.21-.02zm251.18 0h-13.02c-3.17 0-5.05-2.23-5.05-6.21v-30.38h19.59v-15.01H371v-12.67h-16.18v59.23c0 13.72 6.45 20.06 19.82 20.06H392v-15.01l-2.93-.01zm-168.1 11.96-23.69-31.27 22.16-29.25 2.31-3.05h-19.01l-1.6 2.11-13.37 17.65-13.37-17.65-1.6-2.11h-19.7l24.82 32.77-25.65 33.85h19l1.6-2.11 14.54-19.2 14.54 19.2 1.6 2.11h19.71c.02 0-2.29-3.05-2.29-3.05z" style="fill:#e0141d"/></svg>
