<svg xmlns="http://www.w3.org/2000/svg" id="Layer_1" x="0" y="0" viewBox="0 0 930.5 189.9" style="enable-background:new 0 0 930.5 189.9" xml:space="preserve"><style>.st1{fill:#25276e}.st2{fill:#ffa300}.st3{fill:#a7afd8}.st4{fill:#fff}.st5{fill:#ffce00}</style><path class="st1" d="M215.1 50.5c2.6-3.3 5.7-5.9 9.2-7.7 3.6-1.8 7.5-2.7 11.8-2.7 2 0 3.8.1 5.4.4 1.6.3 3.1.7 4.6 1.2 1.4.5 2.8 1.2 4.2 2 1.4.8 2.9 1.7 4.6 2.8 1.3.8 2.5 1.2 3.7 1.2 2 0 3.9-1 5.5-3l7.2-8.9c-1.6-1.8-3.5-3.6-5.6-5.3-2.1-1.7-4.5-3.2-7.3-4.5-2.7-1.3-5.8-2.3-9.2-3.1-3.4-.8-7.2-1.2-11.4-1.2-5 0-9.8.6-14.4 1.9-4.6 1.3-8.8 3.1-12.8 5.5s-7.6 5.3-10.8 8.7c-3.2 3.4-6 7.2-8.3 11.4-2.3 4.2-4.1 8.8-5.3 13.8-1.2 5-1.9 10.2-1.9 15.7 0 6.3 1 12.1 3 17.5s4.8 10 8.4 14c3.6 3.9 7.9 7 13 9.3 5 2.2 10.6 3.4 16.7 3.4 3.7 0 7.2-.2 10.5-.6 3.3-.4 6.4-1 9.4-1.9 3-.9 5.8-2 8.5-3.3 2.7-1.3 5.3-2.9 7.9-4.8l5.2-41.4h-24c-9.7 1.2-15.4 6.5-15.5 15.9h17.3l-1.9 16.2c-2 .9-4.1 1.5-6.2 2-2.2.5-4.6.7-7.3.7-3.3 0-6.3-.6-9-1.9-2.7-1.3-5-3.1-7-5.5-1.9-2.4-3.5-5.3-4.5-8.8-1.1-3.5-1.6-7.4-1.6-11.7 0-5.6.7-10.7 2.1-15.4 1.2-4.6 3.2-8.6 5.8-11.9zm114.3 7.4c-2.5-2.5-5.5-4.4-8.9-5.7-3.4-1.3-7.1-2-11-2-5.1 0-9.9 1.1-14.5 3.2s-8.6 5.1-12.1 8.9c-3.5 3.8-6.3 8.3-8.3 13.5-2.1 5.2-3.1 11-3.1 17.2 0 4.8.7 9 2.1 12.7 1.4 3.7 3.4 6.8 5.9 9.3 2.5 2.5 5.5 4.4 8.9 5.7 3.4 1.3 7.1 2 11 2 5.1 0 9.9-1.1 14.5-3.2 4.6-2.2 8.6-5.1 12.1-9 3.5-3.8 6.3-8.4 8.3-13.6 2.1-5.2 3.1-10.9 3.1-17.1 0-4.8-.7-9-2.2-12.7-1.3-3.6-3.2-6.7-5.8-9.2zm-14 32.7c-.7 3.3-1.7 6.2-3 8.6-1.3 2.5-2.9 4.4-4.7 5.8-1.9 1.4-4 2.1-6.3 2.1-3.1 0-5.4-1.1-6.8-3.4-1.4-2.2-2.1-5.9-2.1-10.9 0-3.7.3-7.2 1.1-10.5.7-3.3 1.7-6.2 3-8.6 1.3-2.4 2.9-4.4 4.7-5.8 1.9-1.4 4-2.1 6.3-2.1 3.1 0 5.4 1.1 6.8 3.3 1.4 2.2 2.1 5.9 2.1 11 0 3.7-.4 7.2-1.1 10.5zm139.3-35.1c-1.8-1.6-3.8-2.9-6.1-3.8-2.3-1-4.9-1.5-7.8-1.5-3 0-6 .6-8.8 1.7-2.8 1.1-5.6 2.7-8.1 4.7-2.6 2-4.9 4.4-7 7.3-2.1 2.8-4 5.9-5.5 9.3-1.5 3.4-2.7 7-3.6 10.9-.9 3.9-1.3 7.8-1.3 11.9 0 4.7.5 8.8 1.5 12.1 1 3.4 2.3 6.1 4.1 8.3 1.7 2.2 3.8 3.8 6.2 4.8 2.4 1 5 1.5 7.9 1.5 4.4 0 8.5-1.2 12.4-3.6 3.9-2.4 7.4-5.8 10.7-10v5.9c0 .9.1 1.8.3 2.6.2.8.6 1.5 1.1 2.1.5.6 1.2 1.1 2.1 1.4.9.3 2 .5 3.3.5h11.3L480 19.9h-20.6l-4.7 35.6zm-3.8 30.2c-.9 2.9-2 5.7-3.3 8.3-1.3 2.6-2.6 4.8-4.1 6.7-1.5 1.9-3 3.4-4.6 4.5-1.6 1.1-3.1 1.6-4.5 1.6-2.2 0-3.9-1-5.2-3-1.3-2-2-5.3-2-9.7 0-3.5.4-7 1.3-10.4.8-3.4 2-6.4 3.5-9.1 1.5-2.7 3.3-4.8 5.3-6.4 2.1-1.6 4.3-2.4 6.8-2.4 1.5 0 3 .2 4.6.7 1.6.5 3.1 1.2 4.4 2.2l-2.2 17zm60.8-35.2c2.6-3.3 5.7-5.9 9.2-7.7 3.6-1.8 7.5-2.7 11.8-2.7 2 0 3.8.1 5.4.4 1.6.3 3.1.7 4.6 1.2 1.4.5 2.8 1.2 4.2 2 1.4.8 2.9 1.7 4.5 2.8 1.3.8 2.5 1.2 3.7 1.2 2 0 3.9-1 5.5-3l7.2-8.9c-1.6-1.8-3.5-3.6-5.6-5.3-2.1-1.7-4.5-3.2-7.3-4.5-2.7-1.3-5.8-2.3-9.2-3.1-3.4-.8-7.2-1.2-11.4-1.2-5 0-9.8.6-14.4 1.9-4.6 1.3-8.8 3.1-12.8 5.5s-7.6 5.3-10.8 8.7c-3.2 3.4-6 7.2-8.3 11.4-2.3 4.2-4.1 8.8-5.3 13.8-1.2 5-1.9 10.2-1.9 15.7 0 6.3 1 12.1 3 17.5s4.8 10 8.4 14c3.6 3.9 7.9 7 13 9.3 5 2.2 10.6 3.4 16.7 3.4 3.7 0 7.2-.2 10.5-.6 3.3-.4 6.4-1 9.4-1.9 3-.9 5.8-2 8.5-3.3 2.7-1.3 5.3-2.9 7.9-4.8l5.2-41.4-26 .1c-9.2 1.4-14.6 6.6-14.6 15.8h18.4l-1.9 16.2c-2 .9-4.1 1.5-6.2 2-2.2.5-4.6.7-7.3.7-3.3 0-6.3-.6-9-1.9-2.7-1.3-5.1-3.1-7-5.5-1.9-2.4-3.5-5.3-4.5-8.8-1.1-3.5-1.6-7.4-1.6-11.7 0-5.6.7-10.7 2.1-15.4 1.3-4.6 3.3-8.6 5.9-11.9zm183.7 6c-1.7-2.2-3.8-3.8-6.2-4.8-2.4-1-5-1.5-7.9-1.5-4.5 0-8.7 1.2-12.6 3.7-3.9 2.5-7.5 5.9-10.7 10.3v-6.4c0-2.3-.6-4-1.8-5-1.2-1-2.9-1.5-5.1-1.5h-10.9l-11.3 92.8h20.5l3.3-26.5c1.8 1.6 3.8 2.9 6.1 3.8 2.3 1 4.9 1.4 7.9 1.4 4.5 0 8.9-1.2 13-3.7s7.8-5.8 11-10 5.7-9.1 7.6-14.6c1.9-5.5 2.8-11.4 2.8-17.6 0-4.7-.5-8.7-1.5-12.1-1.1-3.3-2.4-6.1-4.2-8.3zm-16.6 32.9c-.8 3.4-2 6.4-3.5 9.1-1.5 2.7-3.3 4.8-5.3 6.4-2.1 1.6-4.3 2.4-6.8 2.4-1.5 0-3-.2-4.6-.7-1.6-.5-3.1-1.2-4.4-2.2l2.1-17c.9-2.9 1.9-5.7 3.2-8.3 1.3-2.6 2.7-4.8 4.1-6.8 1.5-1.9 3-3.4 4.6-4.5 1.6-1.1 3.1-1.7 4.6-1.7 2.2 0 3.9 1 5.2 3.1 1.3 2 2 5.3 2 9.8 0 3.5-.4 7-1.2 10.4z"/><path class="st2" d="M735.8 27.2c-.7-1.5-1.6-2.8-2.8-3.9-1.2-1.1-2.5-2-4-2.6-1.5-.6-3.1-1-4.7-1s-3.1.3-4.6 1c-1.5.7-2.8 1.6-3.9 2.7-1.2 1.1-2.1 2.4-2.7 3.9-.7 1.5-1 3.1-1 4.8 0 1.7.3 3.2 1 4.7s1.6 2.8 2.7 3.9 2.4 2 3.8 2.6c1.4.7 3 1 4.5 1 1.6 0 3.1-.3 4.7-1 1.5-.7 2.9-1.5 4-2.6 1.2-1.1 2.1-2.4 2.8-3.9.7-1.5 1.1-3 1.1-4.7.2-1.8-.1-3.4-.9-4.9z"/><path class="st1" d="M703.8 121.7h20.7l8.5-70.4h-20.8zm144.7-45.3 19.7-25.1h-18.9c-1.5 0-2.8.3-3.8.8s-2 1.4-2.8 2.6l-14.5 19.8c-.7 1-1.5 1.6-2.2 2-.7.4-1.7.5-2.9.5h-1.4l7-57h-20.8l-12.5 101.7h20.8l3.8-31.2h2.2c1.3 0 2.2.2 2.8.5.6.3 1.1 1.1 1.6 2.2l9.8 24.9c.5 1.3 1.3 2.2 2.3 2.7 1 .5 2.2.8 3.7.8h18.3L846.5 88c-.5-1.3-1.2-2.5-1.9-3.5s-1.5-1.9-2.5-2.7c1.2-.7 2.3-1.5 3.4-2.4 1.1-.8 2.1-1.9 3-3zM398 56.2c-2-1.7-4.4-3.2-7.4-4.2-2.9-1.1-6.3-1.6-10-1.6-3.8 0-7.4.5-10.8 1.6-3.4 1.1-6.5 2.5-9.3 4.5-2.8 1.9-5.4 4.2-7.6 6.8-2.3 2.6-4.2 5.5-5.7 8.7-1.6 3.1-2.8 6.5-3.6 10.1-.8 3.6-1.3 7.2-1.3 11 0 4.5.7 8.6 2.1 12.2 1.4 3.7 3.3 6.8 5.8 9.4 2.5 2.6 5.5 4.6 9 6 3.5 1.4 7.3 2.1 11.5 2.1 3.3 0 6.4-.3 9.3-.8 2.8-.5 5.5-1.4 8-2.5 1.6-.8 2.6-1.3 4.2-2.3h.1l.1-.1c7.1-5.2 8.1-14 3.3-21.2-5.5 5.7-7.8 7.3-12.7 9.7-1 .4-2.1.8-3.3 1.1-1.4.3-3 .5-4.8.5-3.9 0-6.9-1.1-8.9-3.3-2-2.2-3.1-5.7-3.2-10.5 8.1-.8 14.7-1.9 20.1-3.4 5.3-1.5 9.6-3.2 12.7-5.3 3.1-2.1 5.4-4.4 6.6-7.1 1.3-2.7 1.9-5.6 1.9-8.8 0-2.2-.5-4.3-1.6-6.5-.9-2.4-2.5-4.3-4.5-6.1zm-13.6 16.5c-.5 1-1.5 2-3 2.9-1.5.9-3.6 1.7-6.3 2.4-2.7.7-6.3 1.5-10.7 2.1 1.3-4.8 3.3-8.7 5.9-11.4 2.6-2.8 5.7-4.2 9.2-4.2 2 0 3.4.5 4.3 1.6.9 1 1.4 2.1 1.4 3.3-.1 1.2-.3 2.3-.8 3.3zm394.9 29.8c-1.3 1.1-1.9 1.6-2.9 2.3-.8.5-1.7 1-2.7 1.4-1.3.6-3.1.9-5.3.9-1.5 0-2.8-.3-4.1-.9-1.3-.6-2.4-1.5-3.3-2.6-1-1.2-1.7-2.6-2.2-4.3-.5-1.7-.8-3.8-.8-6.1 0-4.2.5-8 1.4-11.3.9-3.3 2.2-6.1 3.7-8.4 1.5-2.3 3.3-4 5.3-5.2 2-1.2 4-1.8 6.1-1.8 1.7 0 3 .2 4.1.6 1 .4 1.9.8 2.6 1.2.7.4 1.4.8 2 1.2.6.4 1.4.6 2.3.6.8 0 1.5-.2 2.1-.6.6-.4 1.2-.8 1.7-1.3l6.8-7.8c-2.7-3.4-5.7-6-9.1-7.6-3.4-1.6-7.4-2.4-12.1-2.4-5.5 0-10.6 1.1-15.2 3.4s-8.6 5.4-12 9.3c-3.4 3.9-6 8.4-7.9 13.6-1.9 5.2-2.8 10.6-2.8 16.4 0 4.6.6 8.7 1.9 12.4 1.3 3.7 3.1 6.8 5.4 9.4 2.3 2.6 5.1 4.6 8.5 6 3.3 1.4 7 2.1 11.1 2.1 3 0 5.8-.2 8.3-.7 2.5-.5 4.9-1.2 7.1-2.3 1.4-.6 2.6-1.5 3.9-2.4l.8-.6c7.2-5.2 7.5-13.7 2.6-21-2.8 2.6-4.5 4.1-7.3 6.5zM628.9 62.1c-1-2.2-2.6-4.1-4.6-5.9-2-1.7-4.4-3.2-7.4-4.2-2.9-1.1-6.3-1.6-10-1.6-3.8 0-7.4.5-10.8 1.6-3.4 1.1-6.5 2.5-9.3 4.5-2.8 1.9-5.4 4.2-7.6 6.8-2.3 2.6-4.2 5.5-5.7 8.7-1.6 3.1-2.8 6.5-3.6 10.1-.8 3.6-1.3 7.2-1.3 11 0 4.5.7 8.6 2.1 12.2 1.4 3.7 3.3 6.8 5.8 9.4 2.5 2.6 5.5 4.6 9 6 3.5 1.4 7.3 2.1 11.5 2.1 3.3 0 6.4-.3 9.3-.8 2.8-.5 5.5-1.4 8-2.5 1.7-.8 2.6-1.3 4.2-2.3h.1l.1-.1c7.1-5.2 8.1-14 3.3-21.2-5.5 5.7-7.8 7.3-12.7 9.7-1 .4-2.1.8-3.3 1.1-1.4.3-3 .5-4.8.5-3.9 0-6.9-1.1-8.9-3.3-2-2.2-3.1-5.7-3.2-10.5 8.1-.8 14.8-1.9 20.1-3.4 5.3-1.5 9.6-3.2 12.7-5.3 3.1-2.1 5.4-4.4 6.6-7.1 1.3-2.7 1.9-5.6 1.9-8.8 0-2.4-.5-4.5-1.5-6.7zm-18.3 10.6c-.5 1-1.5 2-3 2.9-1.5.9-3.6 1.7-6.3 2.4-2.7.7-6.3 1.5-10.7 2.1 1.3-4.8 3.3-8.7 5.9-11.4 2.6-2.8 5.7-4.2 9.2-4.2 2 0 3.4.5 4.3 1.6.9 1 1.4 2.1 1.4 3.3 0 1.2-.2 2.3-.8 3.3zm284.5 27.6c.1-.6.2-1.4.3-2.4.1-1.1.3-2.5.5-4.4l3.4-27.6h16.4c8.6-1.1 13.8-6 13.8-14.5h-28.3l2.6-20.5h-11.4c-2.4 0-3.9 1.1-4.6 3.3L882 51.5c-8.4 1.2-13.4 5.9-13.5 14.2h10.4l-3.6 29c-.3 2.3-.5 4.1-.6 5.5-.2 1.4-.3 2.5-.3 3.3-.1.8-.1 1.5-.1 1.9v1.2c.1 2.5.6 4.8 1.5 6.8s2.1 3.7 3.7 5.1c1.6 1.4 3.4 2.5 5.6 3.3 2.2.7 4.6 1.1 7.3 1.1 1.2 0 2.4-.1 3.5-.2.3 0 .6-.1.8-.1.2 0 .5-.1.7-.1l2.1-.3c2.5-.5 4.9-1.2 7.1-2.3 1.4-.6 2.6-1.5 3.9-2.4l.8-.6c7.2-5.2 7.5-13.7 2.6-21-2.7 2.8-4.4 4.3-7.2 6.7-1.3 1.1-1.9 1.6-2.9 2.3-.7.4-1.5.8-2.4 1.2-.2.1-.4.2-.6.2-.5.2-1.1.2-1.8.2-1.3 0-2.3-.4-2.9-1.3-.6-.9-.9-2-.9-3.3v-.4c-.2-.3-.2-.6-.1-1.2z"/><path class="st3" d="M460.4 167.8c.3-.5.5-1.1.8-1.6.3-.5.6-1 .9-1.6l10.9-18.7c.3-.6.7-.9 1.2-1 .5-.1 1-.2 1.4-.2h6.2l-4.4 35.5h-7l2.5-20.6c0-.4.1-.9.2-1.4.1-.5.2-1.1.4-1.6l-10.7 18.3c-.3.6-.7 1-1.3 1.2-.5.3-1.1.4-1.7.4h-1.1c-.6 0-1.2-.1-1.6-.4-.5-.3-.8-.7-1-1.2l-6.2-18.4c0 .6-.1 1.1-.1 1.6s-.1 1-.1 1.4l-2.4 20.8h-7l4.4-35.4h6.9c.3 0 .5 0 .7.1.2.1.4.2.5.4.1.2.3.4.4.7l6.2 18.7c.4.9.7 1.9 1 3zm42.9 12.4h-4c-.5 0-.9-.1-1.2-.2-.3-.1-.6-.3-.8-.5-.2-.2-.3-.5-.4-.8-.1-.3-.1-.6-.1-1V176c-1 1.4-2.2 2.5-3.5 3.4-1.3.8-2.7 1.2-4.2 1.2-.9 0-1.8-.2-2.6-.5-.8-.4-1.6-.9-2.2-1.7-.6-.7-1.2-1.7-1.6-2.8-.4-1.1-.6-2.5-.6-4.1 0-2.3.4-4.5 1.3-6.5.8-2.1 2-3.8 3.5-5.4 1.5-1.5 3.3-2.8 5.3-3.7 2.1-.9 4.3-1.4 6.8-1.4 1.2 0 2.4.1 3.7.2 1.2.2 2.5.5 3.7.9l-3.1 24.6zm-11.1-5.6c.6 0 1.1-.2 1.6-.6.5-.4 1-1 1.5-1.7s.9-1.6 1.3-2.5c.4-1 .7-2 1-3.1l.9-7h-.5c-1.2 0-2.4.3-3.4.8-1 .6-1.9 1.3-2.6 2.3-.7.9-1.3 2.1-1.7 3.3-.4 1.3-.6 2.6-.6 4 0 .8.1 1.5.2 2.1.1.6.3 1 .5 1.4.2.3.5.6.8.8.3.2.6.2 1 .2zm36.9-12.1c0 1-.1 1.9-.4 2.7l-.9 2.1c-.3.7-.7 1.3-.9 2-.3.7-.4 1.5-.4 2.4 0 .7.1 1.3.3 1.8.2.6.5 1.1.7 1.7.3.6.5 1.2.7 1.8.2.7.3 1.4.3 2.2 0 1.3-.3 2.5-.9 3.7-.6 1.2-1.4 2.2-2.5 3-1.1.9-2.4 1.6-4 2.1s-3.3.8-5.3.8c-1.6 0-3.1-.2-4.4-.5-1.3-.3-2.4-.8-3.3-1.4-.9-.6-1.6-1.3-2.1-2.1s-.7-1.7-.7-2.6c0-1.4.4-2.6 1.1-3.6.7-.9 1.7-1.7 2.8-2.3 1.1-.6 2.4-1 3.8-1.2 1.4-.2 2.7-.4 4-.4.7 0 1.5 0 2.1.1.7.1 1.3.2 1.9.3v-1.2c0-.9.2-1.8.7-2.9-.6.4-1.4.8-2.2 1-.8.2-1.8.4-3.1.4-1 0-1.9-.2-2.8-.5-.9-.3-1.7-.8-2.3-1.4-.7-.6-1.2-1.5-1.6-2.4-.4-1-.6-2.1-.6-3.5 0-1.2.2-2.5.7-3.7.5-1.2 1.2-2.3 2.1-3.2 1-.9 2.1-1.7 3.5-2.3 1.4-.6 3-.9 4.9-.9 1 0 1.9.1 2.8.3.9.2 1.7.5 2.4 1h7.3l-.3 2.4c-.1 1-.6 1.6-1.4 1.9l-2.1.7c.1.6.1 1.1.1 1.7zm-7.5 17.4v-.6c-.8-.1-1.6-.2-2.3-.3-.7-.1-1.3-.1-1.9-.1-.9 0-1.6.1-2.3.2-.6.1-1.1.3-1.5.5-.4.2-.7.5-.9.8-.2.3-.3.6-.3.9 0 .8.3 1.5.9 1.9.6.4 1.6.6 3.1.6.7 0 1.4-.1 2.1-.3.6-.2 1.2-.5 1.6-.8.4-.3.8-.8 1-1.3.4-.4.5-.9.5-1.5zm-3-11.9c.6 0 1.1-.2 1.6-.5.4-.3.8-.7 1.1-1.2.3-.5.5-1 .7-1.7.2-.6.2-1.2.2-1.9 0-1.1-.2-1.9-.7-2.5-.4-.6-1.1-.9-2-.9-.6 0-1.1.1-1.6.4-.4.3-.8.7-1.1 1.1-.3.5-.5 1-.7 1.6-.1.6-.2 1.3-.2 1.9 0 1.1.2 1.9.7 2.5.5.9 1.1 1.2 2 1.2zm35 12.2h-4c-.5 0-.9-.1-1.2-.2-.3-.1-.6-.3-.8-.5-.2-.2-.3-.5-.4-.8-.1-.3-.1-.6-.1-1V176c-1 1.4-2.2 2.5-3.5 3.4-1.3.8-2.7 1.2-4.2 1.2-.9 0-1.8-.2-2.6-.5-.8-.4-1.6-.9-2.2-1.7-.6-.7-1.2-1.7-1.6-2.8-.4-1.1-.6-2.5-.6-4.1 0-2.3.4-4.5 1.3-6.5.8-2.1 2-3.8 3.5-5.4 1.5-1.5 3.3-2.8 5.3-3.7 2.1-.9 4.3-1.4 6.8-1.4 1.2 0 2.4.1 3.7.2 1.2.2 2.5.5 3.7.9l-3.1 24.6zm-11.1-5.6c.6 0 1.1-.2 1.6-.6.5-.4 1-1 1.5-1.7s.9-1.6 1.3-2.5c.4-1 .7-2 1-3.1l.9-7h-.4c-1.2 0-2.4.3-3.4.8-1 .6-1.9 1.3-2.6 2.3-.7.9-1.3 2.1-1.7 3.3-.4 1.3-.6 2.6-.6 4 0 .8.1 1.5.2 2.1.1.6.3 1 .5 1.4.2.3.5.6.8.8.2.2.5.2.9.2zm36.6-16.6c-.1.5-.2 1-.4 1.5s-.5.9-.8 1.2L567 174.6h9.9l-.7 5.6h-18.9l.4-3.1c0-.3.2-.7.4-1.2s.5-.9.8-1.3l11-14.1h-9.6l.7-5.6h18.5l-.4 3.1zm11.9-3-3 25.2h-7.4l3-25.2h7.4zm1.4-6.9c0 .6-.1 1.2-.4 1.7-.3.5-.6 1-1 1.4-.4.4-.9.7-1.4.9-.5.2-1.1.4-1.7.4-.6 0-1.1-.1-1.6-.4-.5-.2-1-.6-1.4-.9-.4-.4-.7-.9-1-1.4-.2-.5-.4-1.1-.4-1.7 0-.6.1-1.2.4-1.7.2-.5.6-1 1-1.4.4-.4.9-.7 1.4-1 .5-.2 1.1-.4 1.6-.4.6 0 1.1.1 1.7.3.5.2 1 .5 1.4 1 .4.4.7.9 1 1.4.3.6.4 1.1.4 1.8zm11.8 6.9-3.1 25.3c-.1 1.2-.4 2.3-.9 3.3s-1.1 2-1.8 2.8c-.8.8-1.7 1.4-2.8 1.9-1.1.5-2.4.7-3.8.7-.7 0-1.3 0-1.8-.1l-1.5-.3.7-4c.1-.3.2-.6.4-.8.2-.2.6-.2 1.1-.2.5 0 1 0 1.3-.1.3-.1.6-.3.9-.5.2-.2.4-.6.5-1 .1-.4.2-.9.3-1.6l3.1-25.3h7.4zm1.1-6.9c0 .6-.1 1.2-.4 1.7-.3.5-.6 1-1 1.4-.4.4-.9.7-1.4.9-.5.2-1.1.4-1.7.4-.6 0-1.1-.1-1.6-.4-.5-.2-1-.6-1.4-.9-.4-.4-.7-.9-1-1.4-.2-.5-.4-1.1-.4-1.7 0-.6.1-1.2.4-1.7.2-.5.6-1 1-1.4.4-.4.9-.7 1.4-1 .5-.2 1.1-.4 1.6-.4.6 0 1.1.1 1.7.3.5.2 1 .5 1.4 1 .4.4.7.9 1 1.4.3.6.4 1.1.4 1.8zm15.7 32.1 1.9-16c0-.3.1-.5.1-.7v-.6c0-.9-.2-1.5-.4-1.8-.3-.3-.8-.5-1.4-.5-.6 0-1.1.2-1.7.5-.6.3-1.2.8-1.7 1.4-.5.6-1 1.4-1.5 2.3-.5.9-.8 1.9-1.1 2.9l-1.4 12.5h-7.5l3-25.2h3.9c.8 0 1.4.2 1.8.5.4.4.7 1 .7 1.8v2c1.2-1.6 2.5-2.8 4-3.6 1.4-.8 2.9-1.2 4.5-1.2.9 0 1.8.2 2.6.5s1.5.8 2 1.5c.6.7 1 1.5 1.3 2.4.3 1 .5 2.1.5 3.3v.9c0 .3-.1.6-.1.9l-1.9 16H621zm38.6-19.9c-.2.3-.4.5-.6.6-.2.1-.5.2-.8.2-.3 0-.6-.1-1-.2-.3-.1-.7-.3-1-.5-.4-.2-.8-.4-1.2-.5-.5-.1-1-.2-1.6-.2-1.1 0-1.9.2-2.4.6-.5.4-.7 1-.7 1.7 0 .4.1.8.4 1.1.3.3.6.6 1.1.8.4.2.9.5 1.5.7.6.2 1.1.4 1.7.7.6.3 1.2.5 1.7.9.6.3 1.1.7 1.5 1.2.4.5.8 1 1.1 1.7.3.6.4 1.4.4 2.3 0 1.3-.3 2.5-.8 3.6s-1.2 2.1-2.2 2.9c-.9.8-2.1 1.5-3.4 2-1.3.5-2.8.7-4.5.7-.8 0-1.6-.1-2.4-.2-.8-.2-1.5-.4-2.2-.7-.7-.3-1.3-.6-1.9-1-.6-.4-1-.8-1.4-1.2l1.8-2.8c.2-.3.5-.6.8-.8.3-.2.7-.3 1.1-.3.4 0 .8.1 1 .3.3.2.6.4 1 .6.3.2.7.4 1.2.6.5.2 1.1.3 1.8.3 1.1 0 1.9-.2 2.4-.7.5-.5.8-1 .8-1.7 0-.5-.1-.9-.4-1.2-.3-.3-.6-.6-1.1-.8-.4-.2-.9-.4-1.5-.6-.6-.2-1.1-.4-1.7-.6-.6-.2-1.2-.5-1.7-.8-.6-.3-1-.7-1.5-1.1-.4-.5-.8-1-1.1-1.7-.3-.7-.4-1.5-.4-2.4 0-1.2.2-2.3.6-3.4.4-1.1 1.1-2.1 1.9-2.9.9-.9 1.9-1.5 3.2-2.1 1.3-.5 2.7-.8 4.4-.8 1.7 0 3.2.3 4.5.9 1.3.6 2.4 1.3 3.3 2.1l-1.7 2.7zm11.9 20.3c-1.4 0-2.7-.2-4-.7-1.2-.5-2.3-1.2-3.2-2.1-.9-.9-1.6-2-2.1-3.3-.5-1.3-.8-2.8-.8-4.6 0-2.2.4-4.3 1.1-6.2.7-1.9 1.7-3.5 3-4.9 1.2-1.4 2.7-2.4 4.3-3.2 1.6-.8 3.4-1.1 5.2-1.1 1.4 0 2.7.2 3.9.7 1.2.5 2.3 1.2 3.2 2.1.9.9 1.6 2 2.1 3.3.5 1.3.8 2.8.8 4.6 0 2.2-.4 4.2-1.1 6.1-.7 1.9-1.7 3.5-3 4.9-1.2 1.4-2.7 2.4-4.3 3.2-1.5.8-3.2 1.2-5.1 1.2zm.7-5.6c.8 0 1.6-.3 2.3-.8.7-.5 1.2-1.2 1.7-2.1.5-.9.8-1.9 1.1-3.1.3-1.2.4-2.4.4-3.8 0-1.8-.2-3.1-.7-3.9-.5-.8-1.3-1.2-2.4-1.2-.8 0-1.6.3-2.3.8-.7.5-1.2 1.2-1.7 2.1-.5.9-.8 1.9-1.1 3.1-.3 1.2-.4 2.4-.4 3.8 0 1.8.2 3.1.7 3.9.5.8 1.3 1.2 2.4 1.2zm25.5-14.8-2.3 18.8-1.3 4.2c-.3.9-.7 1.7-1.3 2.2-.6.5-1.5.8-2.6.8h-3.1l3.1-26-1.5-.3c-.4-.1-.8-.3-1.1-.5-.3-.3-.4-.6-.4-1v-.3l.4-3h3.2l.2-1.4c.2-1.4.6-2.8 1.2-3.9.6-1.2 1.4-2.2 2.4-3 1-.8 2.1-1.5 3.3-1.9 1.3-.5 2.6-.7 4.1-.7.6 0 1.1 0 1.6.1s1 .2 1.4.4l-.7 3.8c-.1.4-.3.7-.7.8-.4.1-.7.2-1.1.2-1.2 0-2.2.3-3 1-.7.7-1.2 1.8-1.4 3.5l-.1 1.2h5.1l-.7 5.2h-4.7zm7.7 14.6v-1.1c0-.3.1-.7.1-1.2.1-.5.1-1.1.2-2l1.3-10.3h-2c-.3 0-.6-.1-.8-.3-.2-.2-.3-.5-.3-.9v-.4c0-.3.1-.6.1-.9 0-.3.1-.6.1-.8v-.4l.1-.7 3.8-.8 2.1-6.2c.2-.8.8-1.2 1.7-1.2h4.1l-.9 7.4h5.6l-.6 5.2h-5.6l-1.2 9.9c-.1.7-.1 1.2-.2 1.6 0 .4-.1.7-.1.9v.5c0 .5.1.9.3 1.2.2.3.6.5 1 .5.3 0 .5 0 .6-.1.2-.1.3-.1.4-.2.1-.1.3-.1.4-.2.1-.1.2-.1.4-.1s.4.1.5.2c.1.1.2.3.3.5l1.7 3.6c-1 .7-2.1 1.3-3.2 1.6-1.2.4-2.3.5-3.5.5-1 0-1.9-.1-2.6-.4-.8-.3-1.4-.7-2-1.2-.6-.5-1-1.1-1.3-1.8-.3-.7-.5-1.5-.5-2.4zm16.2-19.8h5.8c.5 0 .9.1 1.2.4.3.2.5.6.6.9l.7 11.3v.4c0 .8.1 1.5.1 2.3 0 .7.1 1.5.1 2.2l.9-2.4c.3-.8.7-1.6 1-2.5l4.2-11.3c.1-.4.4-.7.8-.9.4-.3.8-.4 1.2-.4h3.3c.5 0 .9.1 1.3.4.3.3.5.6.5.9l1.5 11.3.3 2.4.3 2.4c.2-.8.5-1.6.7-2.3.3-.8.5-1.6.8-2.5l3.6-11.3c.1-.4.4-.7.7-.9.4-.3.8-.4 1.2-.4h5.6l-10.3 25.2h-5.9c-.3 0-.5-.1-.7-.3-.2-.2-.3-.5-.4-1l-1.8-12.6c0-.4-.1-.7-.1-1.1 0-.3-.1-.7-.1-1.1-.1.4-.3.7-.4 1.1-.1.4-.3.7-.4 1.1l-4.8 12.5c-.3.8-.9 1.3-1.6 1.3h-5.6l-4.3-25.1zm56.9 25.2h-4c-.5 0-.9-.1-1.2-.2-.3-.1-.6-.3-.8-.5-.2-.2-.3-.5-.4-.8-.1-.3-.1-.6-.1-1V176c-1 1.4-2.2 2.5-3.5 3.4-1.3.8-2.7 1.2-4.2 1.2-.9 0-1.8-.2-2.6-.5-.8-.4-1.6-.9-2.2-1.7-.7-.7-1.2-1.7-1.6-2.8-.4-1.1-.6-2.5-.6-4.1 0-2.3.4-4.5 1.3-6.5.8-2.1 2-3.8 3.5-5.4 1.5-1.5 3.3-2.8 5.3-3.7 2.1-.9 4.3-1.4 6.8-1.4 1.2 0 2.4.1 3.7.2 1.2.2 2.5.5 3.7.9l-3.1 24.6zm-11.1-5.6c.6 0 1.1-.2 1.6-.6.5-.4 1-1 1.5-1.7s.9-1.6 1.3-2.5c.4-1 .7-2 1-3.1l.9-7h-.4c-1.2 0-2.4.3-3.4.8-1 .6-1.9 1.3-2.6 2.3-.7.9-1.3 2.1-1.7 3.3-.4 1.3-.6 2.6-.6 4 0 .8.1 1.5.2 2.1.1.6.3 1 .5 1.4.2.3.5.6.8.8.2.2.5.2.9.2zm15.8 5.6 3.1-25.2h3.9c.8 0 1.4.2 1.8.5.4.4.7 1 .7 1.8v2.9c1-1.7 2-3 3.2-4 1.1-.9 2.3-1.4 3.5-1.4.7 0 1.4.2 2 .5l-1.4 7c-.8-.4-1.6-.5-2.4-.5-1.2 0-2.4.6-3.3 1.7-1 1.1-1.7 2.9-2.3 5.4l-1.4 11.3h-7.4zm39.6-19c0 1.2-.2 2.2-.7 3.2-.5 1-1.2 1.8-2.4 2.5-1.1.7-2.6 1.4-4.6 1.9-1.9.5-4.3.9-7.2 1.2 0 1.7.4 3 1.1 3.8.7.8 1.8 1.2 3.2 1.2.7 0 1.2-.1 1.7-.2s.9-.3 1.3-.4c.4-.2.7-.4 1-.6.3-.2.6-.4.8-.6.3-.2.5-.3.8-.4.3-.1.6-.2 1-.2.2 0 .5.1.7.2.2.1.4.3.6.5l1.9 2.3c-.9.9-1.8 1.6-2.6 2.3-.9.6-1.7 1.2-2.6 1.6-.9.4-1.9.7-2.9.9-1 .2-2.1.3-3.3.3-1.5 0-2.9-.3-4.1-.8-1.2-.5-2.3-1.2-3.2-2.2-.9-.9-1.6-2.1-2.1-3.4-.5-1.3-.7-2.8-.7-4.4 0-1.3.1-2.7.5-3.9.3-1.3.7-2.5 1.3-3.6.6-1.1 1.2-2.2 2.1-3.1.8-.9 1.7-1.8 2.7-2.4 1-.7 2.1-1.2 3.3-1.6 1.2-.4 2.5-.6 3.9-.6 1.3 0 2.5.2 3.6.6 1 .4 1.9.9 2.6 1.5.7.6 1.3 1.3 1.6 2.1.5.7.7 1.5.7 2.3zm-8.9-1.5c-1.2 0-2.3.5-3.3 1.5-.9 1-1.6 2.4-2.1 4.1 1.6-.2 2.9-.5 3.8-.8 1-.3 1.7-.6 2.3-.9.5-.3.9-.7 1.1-1 .2-.4.3-.8.3-1.2 0-.4-.2-.8-.5-1.2-.3-.3-.8-.5-1.6-.5z"/><path class="st4" d="M98.3 121.1c0 6.7-5.5 12.2-12.2 12.2-6.7 0-12.2-5.5-12.2-12.2 0-6.7 5.5-12.2 12.2-12.2 6.7 0 12.2 5.4 12.2 12.2z"/><path class="st3" d="M134.3 14.8H23.1c-11.4 0-20.8 9.1-20.8 20.5v111.4c0 11.4 9.2 20.6 20.5 20.6l111.5.1c11.4 0 20.4-9.1 20.4-20.4V35.4c0-11.4-9-20.6-20.4-20.6zm5.9 120.4c0 9.8-8.1 17.6-17.9 17.5H26.5c-9.8 0-17.7-8-17.7-17.8v-96c0-9.8 8.2-17.7 18-17.6h95.9c9.8 0 17.8 8.2 17.7 18l-.2 95.9z"/><path class="st3" d="M109.6 116.2c-2.7-13-15.3-21.3-28.3-18.6-13 2.7-21.3 15.3-18.6 28.3 2.7 13 15.3 21.3 28.3 18.6 12.9-2.6 21.3-15.3 18.6-28.3zm-21.1 16.4c-6.4 1.3-12.6-2.8-13.9-9.2-1.3-6.4 2.8-12.6 9.2-13.9 6.4-1.3 12.6 2.8 13.9 9.2 1.3 6.4-2.8 12.6-9.2 13.9z"/><path class="st2" d="M87 87.9c-3 4.7-9.2 6-13.9 3L30.5 63.5c-4.7-3-6-9.2-3-13.9L54.8 7c3-4.7 9.2-6 13.9-3l42.7 27.4c4.7 3 6 9.2 3 13.9L87 87.9z"/><path class="st4" d="m54.1 31.4 13.1-4.6L69 40.9l-5.5-3.5-5.2 8.2-4.3-2.7 5.3-8.2zm23.6 15.1L90.8 42l1.8 14.1-5.5-3.5-5.3 8.2-4.2-2.7 5.3-8.2z"/><path transform="rotate(-57.356 86.226 24.865)" class="st5" d="M78.1 18.9h16.2v12H78.1z"/><path class="st5" d="M77.9 66.4c-4.8-1.1-9.7-3.1-14.3-6.1-5-3.2-9.1-7.2-12.2-11.5l-6 4.9c3.5 4.8 8.3 9.3 14.2 13.1 5.4 3.5 11.1 5.9 16.5 7.1l1.8-7.5z"/><path class="st1" d="M62.7 125.9c-1.6-7.7.7-15.2 5.5-20.7-5.2-3.4-26.8-17.6-26.8-17.6-11.1-7.1-21.8-3.5-28.9 7.2 1.6 1 50.6 33.3 50.7 33.3-.2-.7-.4-1.5-.5-2.2zm89.2-110.2c-8.1 12.3-21.7 33-29.8 45.3 0 0-3.1 4.7-7.8 11.8-4.8 7.3-11.2 17.1-17.6 26.8 6.4 3.2 11.3 9.1 12.8 16.6.2 1.1.4 2.3.4 3.4 7.7-11.7 17.2-26.2 23.8-36.2 4.6-7 7.8-11.8 7.8-11.8C155 51.3 182.2 9.9 184.4 6.5c-11.8-7.8-23.6-4.3-32.5 9.2z"/></svg>
