<svg xmlns="http://www.w3.org/2000/svg" viewBox="0 0 45.27 45.27"><path d="M26.21 26.87c.91 1.49 2.1 2.58 4.2 2.58 1.76 0 2.89-.88 2.89-2.1 0-1.46-1.16-1.98-3.1-2.82l-1.06-.46c-3.07-1.31-5.11-2.95-5.11-6.41 0-3.19 2.43-5.62 6.23-5.62 2.7 0 4.65.94 6.05 3.41L33 17.58c-.73-1.31-1.52-1.82-2.74-1.82s-2.04.79-2.04 1.82c0 1.28.79 1.79 2.62 2.58l1.06.46c3.61 1.55 5.65 3.13 5.65 6.68 0 3.83-3.01 5.93-7.05 5.93s-6.5-1.88-7.75-4.35l3.46-2.01Zm-15.03.37c.67 1.19 1.28 2.19 2.74 2.19s2.28-.55 2.28-2.67V12.29h4.25v14.52c0 4.4-2.58 6.41-6.35 6.41-3.41 0-5.38-1.76-6.38-3.89l3.46-2.1Z"/></svg>
