<svg xmlns="http://www.w3.org/2000/svg" viewBox="0 0 540 300" style="enable-background:new 0 0 540 300" xml:space="preserve"><path d="m55.33 91 5.43 9.48a6.414 6.414 0 0 1 0 6.32l-32.27 56.26 15.23 26.55c3.62 6.41 11.75 8.66 18.16 5.04a13.26 13.26 0 0 0 5.04-5.04l15.23-26.55-4.11-7.11-17.27 30.09c-1.76 2.97-5.58 3.98-8.57 2.26a6.504 6.504 0 0 1-2.37-2.26l-13.04-22.97 29.91-52.25 5.43 9.48a6.433 6.433 0 0 1 0 6.33l-20.91 36.44 4.11 7.11 22.72-39.62 14.9 25.98c2.28 4 2.28 8.92 0 12.92L77.8 195.93c-7.07 12.41-22.86 16.74-35.28 9.67-4.03-2.3-7.38-5.64-9.67-9.67l-15.14-26.38a13.026 13.026 0 0 1 0-12.93L55.33 91" style="fill:#ec5354"/><path d="M175.79 135.36c-12.13 0-21.97 8.56-21.97 22.2s8.46 22.01 22.05 22.01c5.38 0 11.04 2.76 11.04 8.8s-4.85 9.41-11.04 9.41-11.37-3.73-11.37-9.41h-10.67c0 11.79 9.48 19.54 22.05 19.54s21.8-7.47 21.8-19.54c0-5.6-1.77-10.83-9.01-14.47 7.11-3.28 9.19-10.93 9.19-16.35 0-13.66-9.9-22.19-22.07-22.19zm.09 35.25c-6.26 0-11.37-5.42-11.37-13.04s5.11-13.23 11.37-13.23 11.3 5.68 11.3 13.23c-.01 7.55-5.11 13.04-11.3 13.04zm261.97-8.4c1.19 5.19 5.93 9.73 13.53 9.73 3.96 0 9.17-1.94 11.64-4.52l6.89 6.79c-4.59 4.74-12.08 7.11-18.71 7.11-13.57 0-23.41-9.07-23.41-23.01-.26-12.39 9.57-22.65 21.96-22.91.23 0 .46-.01.69 0 13.16 0 24.09 9.04 22.9 26.83h-35.51l.02-.02zm25.29-8.3a13.042 13.042 0 0 0-12.64-9.6c-5.91.06-11.07 3.99-12.71 9.66l25.35-.06zm-74.9 8.3c1.19 5.19 5.93 9.73 13.53 9.73 3.96 0 9.17-1.94 11.64-4.52l6.89 6.79c-4.59 4.74-12.09 7.11-18.71 7.11-13.57 0-23.41-9.07-23.41-23.01-.26-12.39 9.57-22.65 21.96-22.91.23 0 .45-.01.68 0 13.17 0 24.1 9.04 22.91 26.83h-35.51l.02-.02zm25.28-8.3a13.042 13.042 0 0 0-12.57-9.66c-5.9.05-11.07 3.99-12.7 9.66h25.27zm-184.57-18.6a15.956 15.956 0 0 0-13.51 6.54v-24.73h-10.67v63.03h10.67v-22.26c0-6.54 4.37-11.93 10.67-11.93 5.7 0 9.83 3.35 9.83 11.31v22.87h10.67v-23.63c.06-12.81-5.38-21.2-17.66-21.2zm123.02 0a17.13 17.13 0 0 0-14.08 6.98l-.34-5.93h-10.32v63.08l10.67-1.19v-23.23c3.06 4.74 9.72 6.27 14.3 6.27 13.87 0 21.93-10.42 21.93-23.13s-8.84-22.8-22.2-22.8l.04-.05zm-.78 36.62c-7.28 0-12.28-6.76-12.28-13.54s4.55-14.12 12.28-14.12 12.29 7.31 12.29 14.12c0 6.8-5 13.54-12.29 13.54zm148.09 9.33c5.53.08 10.76-2.51 14.05-6.96l.36 5.82H524v-62.9h-10.67v24.42c-3.06-4.74-9.83-6.2-14.38-6.2-13.87 0-21.86 10.34-21.86 23.07s8.87 22.78 22.2 22.78l-.01-.03zm.79-36.6c7.28 0 12.28 6.74 12.28 13.55s-4.56 14.11-12.28 14.11-12.28-7.31-12.28-14.11c0-6.79 5.01-13.55 12.28-13.55zm-227.38 28.09a3.55 3.55 0 0 1-3.01-1.3c-.76-1.24-1.1-2.7-.98-4.15v-21.53h8.63l.98-9.36h-9.48v-12.02L258 125.57v10.8h-8.14v9.35H258v21.75c0 4.5 1.04 7.92 3.15 10.23s5.22 3.56 9.32 3.56c1.85 0 3.69-.27 5.46-.81 1.75-.49 3.42-1.26 4.92-2.29l-3.69-6.89a8.79 8.79 0 0 1-4.5 1.42l.03.06zm44.08-16.05c-4.35-2.71-9.48-3.07-14.5-3.39-2.93-.17-7.47-.87-7.47-4.74 0-2.75 2.84-4.34 7.98-4.34 3.98-.22 7.89 1.18 10.82 3.89l6.05-7.11c-5.06-4.4-10.21-5.73-17.05-5.73-7.98 0-18.46 3.56-18.46 13.61.03 4.18 2.2 8.05 5.76 10.24 4.07 2.55 9.25 2.89 13.82 3.38 3.06.32 8.07 1.09 7.27 5.35-.58 3.01-4.11 3.86-6.7 3.97-2.75.16-5.5-.1-8.17-.76-2.73-.8-5.31-2.07-7.61-3.76l-5.42 6.99.65.55a30.227 30.227 0 0 0 25.57 5.69c6.61-1.51 12.35-6.38 12.35-13.64 0-4.08-1.39-8.08-4.91-10.27l.02.07zm-179.76 23.45h10.67v-43.71h-10.67v43.71zm-.93-57.69c-.01-3.48 2.79-6.31 6.27-6.32 3.49.15 6.19 3.1 6.04 6.59a6.317 6.317 0 0 1-6.04 6.04 6.223 6.223 0 0 1-4.42-1.88 6.369 6.369 0 0 1-1.85-4.48v.05zm-7.86 57.77v-63.05h-10.61v63.05h10.61z" style="fill:#010101"/></svg>
