<svg xmlns="http://www.w3.org/2000/svg" version="1.1" id="Layer_1" x="0" y="0" viewBox="0 0 150 150" style="enable-background:new 0 0 150 150" xml:space="preserve"><style>.st0{fill:#0f5c47}.st1{fill:#9c5c8f}.st3{fill:#f16322}.st4{fill:#0000a4}.st6{fill-rule:evenodd;clip-rule:evenodd;fill:#fff}.st7{fill:#a0dbe8}.st8{fill:#525353}.st9{fill:#aa9678}.st10{fill:#c0b098}.st11{fill:#786453}.st12{fill:#8b7460}.st13{fill:none}.st14{fill:#bbbcbd}.st15{fill:#676a6a}.st16{fill:#909393}.st17{fill:#e2dddb}.st18{fill:#fbb040}.st19{fill:#9f2255}.st20{fill:#e2066f}</style><circle cx="75" cy="75" r="72.5" style="fill:#ec5354"/><path d="m76 33.5 4 6.9c.8 1.4.8 3.2 0 4.6L56.4 86.1l11.1 19.4c2.6 4.7 8.6 6.3 13.3 3.7 1.5-.9 2.8-2.1 3.7-3.7l11.1-19.4-3-5.2-12.6 22c-1.3 2.2-4.1 2.9-6.3 1.7-.7-.4-1.3-1-1.7-1.7l-9.5-16.8 21.8-38.2 4 6.9c.8 1.4.8 3.2 0 4.6L73 86.1l3 5.2 16.6-28.9 10.9 19a9.3 9.3 0 0 1 0 9.4l-11.1 19.3c-5.2 9.1-16.7 12.2-25.8 7.1-2.9-1.7-5.4-4.1-7.1-7.1L48.6 90.8a9.3 9.3 0 0 1 0-9.4L76 33.5" style="fill:#fff"/></svg>
