<svg xmlns="http://www.w3.org/2000/svg" width="96" height="96" fill="none"><g clip-path="url(#a)"><mask id="b" width="96" height="96" x="0" y="0" mask-type="alpha" maskUnits="userSpaceOnUse"><path fill="#8DF7DB" fill-rule="evenodd" d="M0 48a9.004 9.004 0 0 0 6.914 8.757c3.43 16.168 16.16 28.9 32.329 32.329a9.004 9.004 0 0 0 17.514 0c16.168-3.43 28.9-16.16 32.329-32.329a9.004 9.004 0 0 0 0-17.514c-3.43-16.168-16.16-28.9-32.329-32.329a9.004 9.004 0 0 0-17.514 0c-16.168 3.43-28.9 16.16-32.329 32.329A9.004 9.004 0 0 0 0 48Z" clip-rule="evenodd"/></mask><g mask="url(#b)"><circle cx="48" cy="48" r="48" fill="url(#c)"/><path fill="#9DF3F9" fill-rule="evenodd" d="M52 17.064a9 9 0 1 0-8 0V23h8v-5.936Z" clip-rule="evenodd"/><path fill="#82EBF1" fill-rule="evenodd" d="M44 78.936a9 9 0 1 0 8 0V73h-8v5.936Z" clip-rule="evenodd"/><path fill="#9DF3F9" fill-rule="evenodd" d="M17.064 44a9 9 0 1 0 0 8H23v-8h-5.936Z" clip-rule="evenodd"/><g fill="#000" fill-opacity=".32" filter="url(#d)"><circle cx="48" cy="50" r="26"/><path fill-rule="evenodd" d="M59.317 54C57.67 58.66 53.225 62 48 62c-6.627 0-12-5.373-12-12s5.373-12 12-12c5.225 0 9.67 3.34 11.317 8H80v8H59.317Z" clip-rule="evenodd"/><path d="M87 59a9 9 0 1 1 0-18 9 9 0 0 1 0 18Z"/></g><g fill="#000" fill-opacity=".24" filter="url(#e)"><circle cx="48" cy="48.38" r="26"/><path fill-rule="evenodd" d="M59.317 52.38c-1.647 4.66-6.092 8-11.317 8-6.627 0-12-5.373-12-12s5.373-12 12-12c5.225 0 9.67 3.34 11.317 8H80v8H59.317Z" clip-rule="evenodd"/><path d="M87 57.38a9 9 0 1 1 0-18 9 9 0 0 1 0 18Z"/></g><circle cx="48" cy="48" r="26" fill="url(#f)"/><path fill="url(#g)" fill-rule="evenodd" d="M59.317 52C57.67 56.66 53.225 60 48 60c-6.627 0-12-5.373-12-12s5.373-12 12-12c5.225 0 9.67 3.34 11.317 8H80v8H59.317Z" clip-rule="evenodd"/><path fill="url(#h)" d="M87 57a9 9 0 1 1 0-18 9 9 0 0 1 0 18Z"/></g></g><defs><linearGradient id="c" x1="22.703" x2="72.649" y1="11.351" y2="84.649" gradientUnits="userSpaceOnUse"><stop stop-color="#009CA8"/><stop offset="1" stop-color="#007D85"/></linearGradient><linearGradient id="f" x1="31.784" x2="66.162" y1="26.27" y2="83.351" gradientUnits="userSpaceOnUse"><stop stop-color="#36E3EE"/><stop offset="1" stop-color="#00B1BE"/></linearGradient><linearGradient id="g" x1="31.135" x2="75.243" y1="24" y2="63.568" gradientUnits="userSpaceOnUse"><stop stop-color="#D2F6F9"/><stop offset="1" stop-color="#82EBF1"/><stop offset="1" stop-color="#82EBF1"/></linearGradient><linearGradient id="h" x1="96.973" x2="72.324" y1="50.919" y2="42.162" gradientUnits="userSpaceOnUse"><stop stop-color="#9AEEF3"/><stop offset="1" stop-color="#82EBF1"/></linearGradient><filter id="d" width="90" height="68" x="14" y="16" color-interpolation-filters="sRGB" filterUnits="userSpaceOnUse"><feFlood flood-opacity="0" result="BackgroundImageFix"/><feBlend in="SourceGraphic" in2="BackgroundImageFix" result="shape"/><feGaussianBlur result="effect1_foregroundBlur" stdDeviation="4"/></filter><filter id="e" width="75.52" height="53.52" x="21.24" y="21.62" color-interpolation-filters="sRGB" filterUnits="userSpaceOnUse"><feFlood flood-opacity="0" result="BackgroundImageFix"/><feBlend in="SourceGraphic" in2="BackgroundImageFix" result="shape"/><feGaussianBlur result="effect1_foregroundBlur" stdDeviation=".38"/></filter><clipPath id="a"><path fill="#fff" d="M0 0h96v96H0z"/></clipPath></defs></svg>
