<svg xmlns="http://www.w3.org/2000/svg" version="1.1" id="Layer_1" x="0" y="0" viewBox="0 0 150 150" style="enable-background:new 0 0 150 150" xml:space="preserve"><style>.st6{fill:#fff}</style><circle cx="75" cy="75" r="72.5" style="fill:#5bd16a"/><path class="st6" d="M88 76.3c0-.7-.6-1.3-1.3-1.3H63.3c-.7 0-1.3.6-1.3 1.3v.1c.7 6.6 6.3 11.7 13 11.7 6.8 0 12.3-5.1 13-11.7v-.1zm13.2-15.8C100.5 46.7 89 35.7 75 35.7s-25.5 11-26.2 24.8v.1c0 .7.6 1.3 1.3 1.3h10.5c.7 0 1.2-.5 1.3-1.2.6-6.7 6.2-11.9 13-11.9s12.4 5.2 13 11.9c.1.7.6 1.2 1.3 1.2h10.5c.9 0 1.5-.6 1.5-1.4 0 .1 0 .1 0 0z"/><path class="st6" d="M113 75h-10.5c-.7 0-1.3.5-1.3 1.2-.6 13.9-12.1 25-26.2 25-14 0-25.5-11.1-26.2-24.9 0-.7-.6-1.2-1.3-1.2H37c-.7 0-1.3.6-1.3 1.3.7 21.1 18 38 39.3 38 21.3 0 38.6-16.9 39.3-38 0-.8-.6-1.4-1.3-1.4z"/><path class="st6" d="M75 88.1c6.8 0 12.3-5.1 13-11.7v-.1c0-.7-.6-1.3-1.3-1.3H75v13.1zm0-39.3c6.8 0 12.4 5.2 13 11.9.1.7.6 1.2 1.3 1.2h10.5c.7 0 1.3-.6 1.3-1.3v-.1C100.5 46.7 89 35.7 75 35.7v13.1zM48.8 76.2c0-.7-.6-1.2-1.3-1.2H37c-.7 0-1.3.6-1.3 1.3.7 21.1 18 38 39.3 38v-13.1c-14 0-25.5-11.1-26.2-25z"/></svg>
