<svg xmlns="http://www.w3.org/2000/svg" version="1.1" id="Laag_1" x="0" y="0" viewBox="0 0 720 300" style="enable-background:new 0 0 720 300" xml:space="preserve"><style>.st0{fill:#6bdd78}.st1{fill:#5bd16a}</style><path class="st0" d="M88.09 151.78c0-.98-.79-1.77-1.77-1.78H54.51c-.98 0-1.78.8-1.78 1.78 0 .05 0 .1.01.14.96 8.91 8.5 15.85 17.67 15.85 9.16 0 16.71-6.94 17.67-15.85.01-.04.01-.09.01-.14z"/><path class="st1" d="M105.91 130.37c-.97-18.76-16.49-33.68-35.5-33.68s-34.53 14.93-35.5 33.69v.07c0 .98.8 1.78 1.78 1.78h14.27c.91-.01 1.66-.71 1.74-1.6.81-9.06 8.42-16.17 17.7-16.17 9.27 0 16.89 7.11 17.7 16.17.09.9.85 1.6 1.77 1.6h14.25c.98 0 1.78-.8 1.78-1.78.01-.03.01-.05.01-.08zM121.95 150h-14.27c-.94.01-1.71.74-1.76 1.67-.87 18.84-16.44 33.87-35.51 33.87-19.06 0-34.62-15.02-35.5-33.85-.04-.93-.81-1.68-1.75-1.69H18.89c-.98.01-1.77.8-1.77 1.78v.02c.95 28.6 24.44 51.52 53.29 51.52 28.84 0 52.34-22.92 53.29-51.51v-.02c0-.99-.78-1.78-1.75-1.79z"/><path class="st1" d="M70.41 167.77c9.16 0 16.71-6.94 17.67-15.85 0-.05.01-.1.01-.15 0-.98-.79-1.77-1.77-1.78H70.41v17.78z"/><path class="st0" d="M70.41 114.46c9.27 0 16.89 7.11 17.7 16.17.09.9.85 1.6 1.77 1.6h14.25c.98 0 1.78-.8 1.78-1.78v-.08c-.97-18.76-16.49-33.68-35.5-33.68v17.77zm-35.5 37.23c-.04-.93-.81-1.68-1.75-1.69H18.89c-.98.01-1.77.8-1.77 1.78v.02c.95 28.6 24.44 51.52 53.29 51.52v-17.77c-19.06-.01-34.62-15.02-35.5-33.86z"/><path d="M203.21 167.81c-.76 0-1.36-.21-1.79-.63s-.65-1-.65-1.74V144.9c0-.84-.14-1.66-.41-2.45s-.68-1.5-1.22-2.13a6.036 6.036 0 0 0-2.07-1.54c-.84-.4-1.86-.59-3.05-.59s-2.21.2-3.05.59c-.84.4-1.53.91-2.07 1.54-.54.63-.94 1.34-1.18 2.13s-.37 1.61-.37 2.45v20.54c0 .74-.22 1.32-.65 1.74s-1.03.63-1.79.63h-2.44c-.76 0-1.36-.21-1.79-.63s-.65-1-.65-1.74V144.9c0-.84-.14-1.66-.41-2.45s-.68-1.5-1.22-2.13a6.036 6.036 0 0 0-2.07-1.54c-.84-.4-1.83-.59-2.97-.59s-2.14.2-3.01.59c-.87.4-1.57.91-2.12 1.54-.54.63-.95 1.34-1.22 2.13-.27.79-.41 1.61-.41 2.45v20.54c0 .74-.22 1.32-.65 1.74s-1.03.63-1.79.63h-2.44c-.76 0-1.36-.21-1.79-.63s-.65-1-.65-1.74V144.9c0-1.9.34-3.67 1.02-5.33.68-1.66 1.63-3.08 2.85-4.27 1.22-1.18 2.7-2.12 4.43-2.8 1.74-.68 3.66-1.03 5.78-1.03 2.06 0 3.89.37 5.49 1.11s2.94 1.55 4.03 2.45c.54.47 1.06.47 1.55 0 1.03-1 2.35-1.84 3.95-2.53 1.6-.68 3.48-1.03 5.66-1.03 2.12 0 4.04.34 5.78 1.03s3.21 1.62 4.43 2.8c1.22 1.19 2.17 2.61 2.85 4.27.68 1.66 1.02 3.44 1.02 5.33v20.54c0 .74-.22 1.32-.65 1.74s-1.03.63-1.79.63h-2.47zm23.6-41.08c-.76 0-1.36-.21-1.79-.63-.43-.42-.65-1-.65-1.74v-3.95c0-.74.22-1.32.65-1.74s1.03-.63 1.79-.63h2.44c.76 0 1.36.21 1.79.63.43.42.65 1 .65 1.74v3.95c0 .74-.22 1.32-.65 1.74s-1.03.63-1.79.63h-2.44zm0 41.08c-.76 0-1.36-.21-1.79-.63-.43-.42-.65-1-.65-1.74v-30.81c0-.74.22-1.32.65-1.74s1.03-.63 1.79-.63h2.44c.76 0 1.36.21 1.79.63.43.42.65 1 .65 1.74v30.81c0 .74-.22 1.32-.65 1.74s-1.03.63-1.79.63h-2.44zm16.67 18.17c-.76 0-1.36-.21-1.79-.63-.43-.42-.65-1-.65-1.74v-1.98c0-.74.22-1.32.65-1.74s1.03-.63 1.79-.63h.81c1.46 0 2.58-.45 3.34-1.34.76-.9 1.14-2.16 1.14-3.79v-39.5c0-.74.22-1.32.65-1.74s1.03-.63 1.79-.63h2.44c.76 0 1.36.21 1.79.63.43.42.65 1 .65 1.74v39.5c0 3.63-1.05 6.52-3.13 8.65-2.09 2.13-4.87 3.2-8.34 3.2h-1.14zm7.73-59.25c-.76 0-1.36-.21-1.79-.63-.43-.42-.65-1-.65-1.74v-3.95c0-.74.22-1.32.65-1.74s1.03-.63 1.79-.63h2.44c.76 0 1.36.21 1.79.63.43.42.65 1 .65 1.74v3.95c0 .74-.22 1.32-.65 1.74s-1.03.63-1.79.63h-2.44zm46.38 41.08c-.76 0-1.36-.21-1.79-.63-.43-.42-.65-1-.65-1.74v-19.75c0-2-.64-3.75-1.91-5.25-1.28-1.5-3.21-2.25-5.82-2.25-2.6 0-4.54.75-5.82 2.25s-1.91 3.25-1.91 5.25v19.75c0 .74-.22 1.32-.65 1.74s-1.03.63-1.79.63h-2.44c-.76 0-1.36-.21-1.79-.63-.43-.42-.65-1-.65-1.74v-19.75c0-1.9.37-3.71 1.1-5.45.73-1.74 1.75-3.25 3.05-4.54s2.87-2.32 4.72-3.08c1.84-.76 3.91-1.15 6.18-1.15s4.34.38 6.18 1.15c1.84.76 3.42 1.79 4.72 3.08 1.3 1.29 2.32 2.8 3.05 4.54.73 1.74 1.1 3.55 1.1 5.45v19.75c0 .74-.22 1.32-.65 1.74s-1.03.63-1.79.63h-2.44zm61.84-33.18c0-.74.22-1.32.65-1.74s1.03-.63 1.79-.63h2.44c.76 0 1.36.21 1.79.63.43.42.65 1 .65 1.74v20.54c0 1.9-.34 3.67-1.02 5.33s-1.63 3.08-2.85 4.27-2.7 2.12-4.43 2.8c-1.74.68-3.66 1.03-5.78 1.03-2.17 0-4.06-.34-5.66-1.03-1.6-.68-2.92-1.53-3.95-2.53-.49-.47-1-.47-1.55 0-1.09.9-2.43 1.71-4.03 2.45-1.6.74-3.43 1.11-5.49 1.11-2.12 0-4.04-.34-5.78-1.03-1.74-.68-3.21-1.62-4.43-2.8-1.22-1.18-2.17-2.61-2.85-4.27s-1.02-3.44-1.02-5.33v-20.54c0-.74.22-1.32.65-1.74s1.03-.63 1.79-.63h2.44c.76 0 1.36.21 1.79.63.43.42.65 1 .65 1.74v20.54c0 .84.13 1.66.41 2.45.27.79.68 1.5 1.22 2.13s1.25 1.15 2.12 1.54 1.87.59 3.01.59 2.13-.2 2.97-.59c.84-.4 1.53-.91 2.07-1.54.54-.63.95-1.34 1.22-2.13.27-.79.41-1.61.41-2.45v-20.54c0-.74.22-1.32.65-1.74s1.03-.63 1.79-.63h2.44c.76 0 1.36.21 1.79.63.43.42.65 1 .65 1.74v20.54c0 .84.12 1.66.37 2.45.24.79.64 1.5 1.18 2.13.54.63 1.23 1.15 2.07 1.54s1.86.59 3.05.59 2.21-.2 3.05-.59c.84-.4 1.53-.91 2.07-1.54.54-.63.95-1.34 1.22-2.13.27-.79.41-1.61.41-2.45v-20.54h.03zm49.23 25.44c.49.47.72 1 .69 1.58s-.26 1.13-.69 1.66c-1.09 1.32-2.69 2.53-4.8 3.63-2.12 1.11-4.64 1.66-7.57 1.66-2.28 0-4.33-.36-6.14-1.07-1.82-.71-3.38-1.7-4.68-2.96-1.3-1.26-2.31-2.74-3.01-4.42-.71-1.68-1.06-3.48-1.06-5.37v-9.32c0-1.9.31-3.7.94-5.41.62-1.71 1.55-3.2 2.77-4.46 1.22-1.26 2.71-2.26 4.48-3 1.76-.74 3.78-1.11 6.06-1.11s4.31.37 6.1 1.11 3.32 1.74 4.6 3c1.27 1.26 2.25 2.75 2.93 4.46s1.02 3.52 1.02 5.41v4.74c0 .74-.22 1.32-.65 1.74s-1.03.63-1.79.63h-18.31c-.54 0-.81.26-.81.79v1.42c0 2 .61 3.69 1.83 5.06s3.13 2.05 5.74 2.05c2.06 0 3.66-.36 4.8-1.07 1.14-.71 2.01-1.38 2.6-2.01.6-.58 1.19-.86 1.79-.83s1.14.28 1.63.75l1.53 1.34zm-5.7-14.61c0-2-.57-3.71-1.71-5.13-1.14-1.42-3.01-2.13-5.61-2.13-2.55 0-4.34.71-5.37 2.13s-1.55 3.13-1.55 5.13v.4c0 .53.27.79.81.79h12.61c.54 0 .81-.26.81-.79l.01-.4zm24.41 22.35c-.76 0-1.36-.21-1.79-.63-.43-.42-.65-1-.65-1.74v-48.98c0-.74.22-1.32.65-1.74s1.03-.63 1.79-.63h2.44c.76 0 1.36.21 1.79.63.43.42.65 1 .65 1.74v15.01c0 .53.27.79.81.79h8.06c2.01 0 3.86.34 5.57 1.03 1.71.69 3.17 1.62 4.39 2.8 1.22 1.19 2.18 2.61 2.89 4.27.7 1.66 1.06 3.44 1.06 5.33v8.69c0 1.9-.34 3.67-1.02 5.33s-1.64 3.08-2.89 4.27-2.75 2.12-4.52 2.8c-1.76.69-3.7 1.03-5.82 1.03h-13.41zm20.34-22.12c0-2-.64-3.62-1.91-4.86-1.28-1.24-2.94-1.86-5-1.86h-7.73c-.54 0-.81.26-.81.79v20.54c0 .53.27.79.81.79h7.73c1.9 0 3.53-.62 4.88-1.86 1.36-1.24 2.03-2.86 2.03-4.86v-8.68zm63.47-11.06c0-.74.22-1.32.65-1.74.43-.42 1.03-.63 1.79-.63h2.44c.76 0 1.36.21 1.79.63s.65 1 .65 1.74v20.54c0 1.9-.34 3.67-1.02 5.33s-1.63 3.08-2.85 4.27-2.7 2.12-4.43 2.8c-1.74.68-3.66 1.03-5.78 1.03-2.17 0-4.06-.34-5.65-1.03-1.6-.68-2.92-1.53-3.95-2.53-.49-.47-1-.47-1.55 0-1.09.9-2.43 1.71-4.03 2.45-1.6.74-3.43 1.11-5.49 1.11-2.12 0-4.04-.34-5.78-1.03-1.74-.68-3.21-1.62-4.43-2.8-1.22-1.18-2.17-2.61-2.85-4.27s-1.02-3.44-1.02-5.33v-20.54c0-.74.22-1.32.65-1.74s1.03-.63 1.79-.63h2.44c.76 0 1.36.21 1.79.63s.65 1 .65 1.74v20.54c0 .84.13 1.66.41 2.45.27.79.68 1.5 1.22 2.13s1.25 1.15 2.12 1.54 1.87.59 3.01.59 2.13-.2 2.97-.59c.84-.4 1.53-.91 2.07-1.54.54-.63.95-1.34 1.22-2.13.27-.79.41-1.61.41-2.45v-20.54c0-.74.22-1.32.65-1.74.43-.42 1.03-.63 1.79-.63h2.44c.76 0 1.36.21 1.79.63s.65 1 .65 1.74v20.54c0 .84.12 1.66.37 2.45.24.79.64 1.5 1.18 2.13s1.23 1.15 2.07 1.54 1.86.59 3.05.59 2.21-.2 3.05-.59c.84-.4 1.53-.91 2.07-1.54.54-.63.95-1.34 1.22-2.13.27-.79.41-1.61.41-2.45v-20.54h.02zm26.03-7.9c-.76 0-1.36-.21-1.79-.63s-.65-1-.65-1.74v-3.95c0-.74.22-1.32.65-1.74.43-.42 1.03-.63 1.79-.63h2.44c.76 0 1.36.21 1.79.63s.65 1 .65 1.74v3.95c0 .74-.22 1.32-.65 1.74-.43.42-1.03.63-1.79.63h-2.44zm0 41.08c-.76 0-1.36-.21-1.79-.63s-.65-1-.65-1.74v-30.81c0-.74.22-1.32.65-1.74.43-.42 1.03-.63 1.79-.63h2.44c.76 0 1.36.21 1.79.63s.65 1 .65 1.74v30.81c0 .74-.22 1.32-.65 1.74-.43.42-1.03.63-1.79.63h-2.44zm46.38 0c-.76 0-1.36-.21-1.79-.63s-.65-1-.65-1.74v-19.75c0-2-.64-3.75-1.91-5.25-1.28-1.5-3.21-2.25-5.82-2.25-2.6 0-4.54.75-5.82 2.25s-1.91 3.25-1.91 5.25v19.75c0 .74-.22 1.32-.65 1.74-.43.42-1.03.63-1.79.63h-2.44c-.76 0-1.36-.21-1.79-.63s-.65-1-.65-1.74v-19.75c0-1.9.37-3.71 1.1-5.45.73-1.74 1.75-3.25 3.05-4.54s2.87-2.32 4.72-3.08c1.84-.76 3.91-1.15 6.18-1.15s4.34.38 6.18 1.15c1.84.76 3.42 1.79 4.72 3.08 1.3 1.29 2.32 2.8 3.05 4.54.73 1.74 1.1 3.55 1.1 5.45v19.75c0 .74-.22 1.32-.65 1.74-.43.42-1.03.63-1.79.63h-2.44zm44.83 0c-1.36 0-2.36-.71-3.01-2.13l-7.57-15.56c-.16-.37-.42-.58-.77-.63-.35-.05-.69.08-1.02.4l-2.93 2.92c-.33.32-.58.65-.77.99-.19.34-.28.78-.28 1.3v10.35c0 .74-.22 1.32-.65 1.74-.43.42-1.03.63-1.79.63h-2.44c-.76 0-1.36-.21-1.79-.63s-.65-1-.65-1.74v-48.98c0-.74.22-1.32.65-1.74.43-.42 1.03-.63 1.79-.63h2.44c.76 0 1.36.21 1.79.63s.65 1 .65 1.74v26.38c0 .42.12.7.37.83.24.13.53.04.85-.28l10.01-9.87c.43-.42.87-.74 1.3-.95.43-.21 1.03-.32 1.79-.32h4.31c.92 0 1.48.29 1.67.87s.01 1.13-.53 1.66l-7.81 7.5c-.98.9-1.22 1.87-.73 2.92l9.85 19.75c.38.79.41 1.46.08 2.01-.33.55-.9.83-1.71.83l-3.1.01zm43.94-7.74c.49.47.72 1 .69 1.58-.03.58-.26 1.13-.69 1.66-1.09 1.32-2.69 2.53-4.8 3.63-2.12 1.11-4.64 1.66-7.57 1.66-2.28 0-4.33-.36-6.14-1.07-1.82-.71-3.38-1.7-4.68-2.96s-2.31-2.74-3.01-4.42c-.71-1.68-1.06-3.48-1.06-5.37v-9.32c0-1.9.31-3.7.94-5.41.62-1.71 1.55-3.2 2.77-4.46 1.22-1.26 2.71-2.26 4.48-3 1.76-.74 3.78-1.11 6.06-1.11s4.31.37 6.1 1.11 3.32 1.74 4.6 3c1.27 1.26 2.25 2.75 2.93 4.46s1.02 3.52 1.02 5.41v4.74c0 .74-.22 1.32-.65 1.74-.43.42-1.03.63-1.79.63h-18.31c-.54 0-.81.26-.81.79v1.42c0 2 .61 3.69 1.83 5.06 1.22 1.37 3.13 2.05 5.74 2.05 2.06 0 3.66-.36 4.8-1.07s2.01-1.38 2.6-2.01c.6-.58 1.19-.86 1.79-.83s1.14.28 1.63.75l1.53 1.34zm-5.69-14.61c0-2-.57-3.71-1.71-5.13s-3.01-2.13-5.61-2.13c-2.55 0-4.34.71-5.37 2.13-1.03 1.42-1.55 3.13-1.55 5.13v.4c0 .53.27.79.81.79h12.61c.54 0 .81-.26.81-.79v-.4h.01zm32.62 22.35c-3.47 0-5.98-.92-7.53-2.76-1.55-1.84-2.32-4.34-2.32-7.5v-41.08c0-.74.22-1.32.65-1.74.43-.42 1.03-.63 1.79-.63h2.44c.76 0 1.36.21 1.79.63s.65 1 .65 1.74v41.87c0 .84.24 1.51.73 2.01s1.19.75 2.12.75h.81c.76 0 1.36.21 1.79.63s.65 1 .65 1.74v1.97c0 .74-.22 1.32-.65 1.74-.43.42-1.03.63-1.79.63h-1.13z" style="fill:#333740"/></svg>
