<svg xmlns="http://www.w3.org/2000/svg" viewBox="0 0 72.28 79.65"><path d="M32.88.85c1.98-1.13 4.55-1.14 6.52 0 9.93 5.61 19.86 11.21 29.78 16.82 1.87 1.05 3.12 3.13 3.1 5.28V56.7c.01 2.24-1.36 4.37-3.33 5.4-9.9 5.58-19.78 11.16-29.68 16.74-2.02 1.15-4.64 1.06-6.59-.18-2.97-1.72-5.94-3.43-8.9-5.15-.61-.36-1.29-.65-1.72-1.24.38-.51 1.06-.57 1.6-.8 1.24-.39 2.38-1.03 3.51-1.64.29-.2.64-.12.92.06 2.54 1.46 5.05 2.95 7.6 4.39.54.31 1.09-.1 1.56-.36 9.71-5.49 19.43-10.96 29.14-16.44a.95.95 0 0 0 .53-.95v-33.4c.04-.44-.21-.86-.62-1.04-9.86-5.55-19.72-11.11-29.58-16.67-.35-.24-.81-.24-1.16 0-9.86 5.55-19.71 11.12-29.57 16.67-.4.18-.67.59-.62 1.04v33.4c-.03.39.18.77.54.94 2.63 1.49 5.27 2.97 7.9 4.46 1.48.8 3.3 1.27 4.94.66 1.44-.52 2.45-1.99 2.43-3.52.01-11.07 0-22.14.01-33.21-.04-.49.43-.9.91-.85 1.26 0 2.53-.02 3.79 0 .53-.01.89.52.83 1.01 0 11.14.01 22.28 0 33.42 0 2.97-1.22 6.2-3.96 7.65-3.38 1.75-7.56 1.38-10.91-.3-2.89-1.44-5.65-3.15-8.49-4.69C1.35 61.08-.01 58.94 0 56.7V22.95c-.02-2.2 1.28-4.31 3.2-5.35C13.1 12.02 22.99 6.44 32.88.85Zm8.63 23.38c4.31-.28 8.93-.16 12.82 1.96 3.01 1.63 4.67 5.05 4.73 8.39-.08.45-.56.7-.99.67-1.25 0-2.5.02-3.76 0-.53.02-.84-.47-.91-.94-.36-1.6-1.23-3.18-2.74-3.95-2.31-1.16-4.99-1.1-7.5-1.07-1.84.1-3.81.26-5.37 1.34-1.2.82-1.56 2.47-1.13 3.8.4.96 1.51 1.26 2.41 1.55 5.2 1.36 10.71 1.22 15.81 3.01 2.11.73 4.18 2.15 4.9 4.36.95 2.96.53 6.51-1.58 8.88-1.71 1.96-4.2 3.02-6.68 3.6-3.3.74-6.73.76-10.09.43-3.15-.36-6.44-1.19-8.87-3.34-2.08-1.81-3.1-4.63-3-7.35.02-.46.48-.78.92-.74 1.26 0 2.52-.01 3.78 0 .5-.04.88.4.9.87.23 1.52.8 3.12 2.13 4.02 2.56 1.65 5.78 1.54 8.71 1.59 2.43-.11 5.16-.14 7.14-1.75 1.05-.92 1.36-2.45 1.07-3.77-.31-1.11-1.47-1.63-2.47-1.97-5.13-1.62-10.71-1.03-15.79-2.87-2.06-.73-4.06-2.11-4.85-4.23-1.11-3-.6-6.71 1.73-9.01 2.27-2.29 5.55-3.17 8.67-3.48Z" style="fill:#8cc84b"/></svg>
