<svg xmlns="http://www.w3.org/2000/svg" xml:space="preserve" style="enable-background:new 0 0 258.67 36.13" viewBox="0 0 258.67 36.13"><path d="M93.45 6.61c-1.41-1.19-3.24-1.92-8.01-1.92h-8.4l-.03 26.61 6.31.04.03-7.85c0-.34.28-.63.63-.63h2.22c4.14 0 5.86-.81 7.58-2.29 1.63-1.42 2.72-4.21 2.72-6.94-.01-2.83-1.12-5.38-3.05-7.02zM88.7 16.76c-.93.41-2.03.41-2.69.41h-2.04c-.34 0-.63-.27-.63-.62v-5.57c0-.34.28-.62.63-.62h1.79c.76 0 1.9 0 2.87.41 1.19.52 1.79 1.51 1.79 2.95 0 1.04-.29 2.4-1.72 3.04zm30.71-5.47h-5.75l-.04.66c0 .16-.09.31-.23.39-.14.09-.32.09-.46 0-1.6-.91-3.43-1.38-5.29-1.38-5.87 0-10.65 4.71-10.65 10.5s4.78 10.5 10.65 10.5c1.86 0 3.68-.48 5.29-1.38.15-.08.32-.08.46.01.14.08.23.23.23.39v.3l5.79.03.04-19.99c0-.01-.01-.03-.04-.03zm-10.78 15.42c-2.92 0-5.31-2.35-5.31-5.25 0-2.89 2.38-5.24 5.31-5.24 2.85 0 4.99 2.25 4.99 5.24 0 3-2.14 5.25-4.99 5.25zm23.47 0a5.34 5.34 0 0 1-4.07-1.88 4.917 4.917 0 0 1-1.32-3.36c0-1.25.47-2.45 1.33-3.37a5.316 5.316 0 0 1 4.07-1.87c1.67 0 3.1.82 4.13 2.39l1.74-.97 2.92-1.69c-.18-.22-.37-.5-.57-.77a9.41 9.41 0 0 0-.98-1.12l-.05-.05c-.09-.09-.2-.18-.29-.27-.05-.05-.12-.1-.17-.16l-.13-.11a10.788 10.788 0 0 0-5.46-2.42l-.45-.05c-.13-.01-.27-.02-.39-.02l-.15-.01c-.16-.01-.31-.02-.47-.02-5.88 0-10.66 4.71-10.66 10.5s4.78 10.5 10.66 10.5c.16 0 .32 0 .48-.01l.11-.01c.16-.01.29-.02.42-.03l.45-.05c2.01-.27 3.9-1.12 5.46-2.42l.3-.26c.09-.09.2-.18.29-.27l.06-.05c.09-.1.23-.24.32-.34.23-.26.45-.51.64-.77.13-.18.36-.52.52-.77v-.02l-4.56-2.64c-1.09 1.56-2.52 2.39-4.18 2.39zM153.62 21l5.79-9.64-6.72-.05-3.33 6.19c-.14.26-.42.38-.7.3a.61.61 0 0 1-.47-.6V4.84l-5.8-.03-.03 26.48 5.79.04.04-5.9c0-.29.19-.53.47-.6.05-.02.1-.02.16-.02.23 0 .43.13.54.33l3.31 6.17 6.72.02.03-.05-5.79-9.64a.593.593 0 0 1-.01-.64zm26.19 2.22c-1.57 1.88-3.8 2.96-6.18 2.96-4.38 0-7.94-3.64-7.94-8.12 0-4.48 3.56-8.12 7.94-8.12 2.33 0 4.45.98 5.97 2.77l4.69-3.39a13.294 13.294 0 0 0-4.36-3.73 13.241 13.241 0 0 0-6.3-1.56c-7.55 0-13.7 6.29-13.7 14.03 0 7.73 6.15 14.03 13.7 14.03 4.19 0 8.24-2.02 10.82-5.42 0-.02.01-.02.01-.03l-4.65-3.42zm12.11-18.41h-6.08l-.04 26.48 6.12.04.04-26.49c0-.01-.01-.03-.04-.03zm12.35 6.16c-5.87 0-10.65 4.71-10.65 10.5s4.78 10.51 10.65 10.51c5.88 0 10.66-4.71 10.66-10.51 0-5.78-4.78-10.5-10.66-10.5zm0 15.51c-2.79 0-5.07-2.24-5.07-5 0-2.75 2.28-5 5.07-5 2.79 0 5.07 2.24 5.07 5 0 2.75-2.28 5-5.07 5zm30.25-15.18h-6.15l-.04 11.31c0 .81 0 1.82-.36 2.6-.34.76-1.36 1.23-2.67 1.23-.7 0-1.26-.16-1.7-.51-.27-.21-.5-.49-.66-.84-.34-.77-.39-1.68-.39-2.48V11.34l-6.18-.04-.04 11.64c0 2.94.34 4.6 2.35 6.62l.03.03c.13.13.28.27.44.38.02.02 2.1 1.67 4.87 1.67 1.41 0 2.75-.43 3.99-1.28.14-.09.32-.11.47-.03.16.09.25.23.25.41v.56l5.79.04.04-19.99c0-.03-.02-.05-.04-.05zm24.11-6.5h-5.76l-.03 7.16c0 .16-.09.31-.23.39-.14.09-.32.09-.46 0-1.6-.91-3.43-1.38-5.29-1.38-5.87 0-10.65 4.71-10.65 10.5s4.78 10.5 10.65 10.5c1.85 0 3.68-.48 5.29-1.38a.47.47 0 0 1 .46 0c.14.09.23.23.23.4v.3l5.79.03.04-26.48c0-.03-.02-.04-.04-.04zm-10.78 21.91c-2.93 0-5.31-2.35-5.31-5.25 0-2.89 2.38-5.24 5.31-5.24 2.85 0 4.99 2.25 4.99 5.24 0 3-2.14 5.25-4.99 5.25z" style="fill:#1b4650"/><path d="M56.44 13.03c-.65-.02-1.28.01-1.9.09l.02-.12C55.29 7.86 52.5 2.76 47.67.88c-5.61-2.17-10.95-.1-13.86 3.86C30.89.85 25.62-1.17 20.06.96 15.23 2.8 12.43 7.88 13.11 13l.02.15-.14-.02C7.81 12.4 2.68 15.25.83 20.14c-2.16 5.74.1 11.23 4.31 14.06 1.83 1.22 4.04 1.94 6.4 1.94h24.58v-.01h19.93c2.35 0 4.54-.7 6.36-1.91 3.86-2.55 6.09-7.36 4.83-12.55-1.2-4.94-5.72-8.47-10.8-8.64zM31.56 31.57H11.71c-3.27 0-6.25-2.18-6.97-5.37-1.02-4.55 2.43-8.6 6.81-8.6 1.52 0 2.92.49 4.06 1.31.65.46 1.21 1.02 1.66 1.67.31.44.57.92.77 1.43h-2.79a2.279 2.279 0 1 0 0 4.56h11.24V15.33a2.279 2.279 0 1 0-4.56 0v2.79c-.51-.21-.99-.48-1.42-.8-.01 0-.01 0-.01-.01-.63-.44-1.17-1-1.61-1.63l-.02-.01a6.974 6.974 0 0 1-1.2-5.04c.37-2.62 2.9-5.33 5.49-5.83 4.48-.88 8.4 2.52 8.4 6.85v19.92zm24.34-.01H36.12V11.47c0-2.75 1.58-5.32 4.13-6.35 5.03-2.03 9.84 1.64 9.84 6.42 0 1.52-.49 2.92-1.31 4.06-.46.65-1.02 1.21-1.67 1.66-.44.31-.92.57-1.43.77v-2.86c0-1.22-.99-2.21-2.21-2.21h-.14c-1.22 0-2.21.99-2.21 2.21v11.31h11.24a2.279 2.279 0 1 0 0-4.56h-2.79c.21-.51.48-.99.8-1.42 0-.01 0-.01.01-.01.44-.63 1-1.17 1.63-1.61l.01-.02c1.14-.8 2.53-1.27 4.03-1.27a6.99 6.99 0 0 1 6.81 8.58c-.71 3.2-3.69 5.39-6.96 5.39z" style="fill:#91ebb0"/></svg>
