<svg xmlns="http://www.w3.org/2000/svg" height="350" width="722"><path d="M0 0h722v350H0z"/><path d="M270.267 192.576c7.93 0 13.85-1.485 17.597-4.414 3.706-2.898 6.265-7.92 7.607-14.924 1.25-6.547.774-11.118-1.416-13.585-2.24-2.52-7.081-3.798-14.39-3.798H266.99l-7.026 36.721h10.302zm-41.452 45.234a1.958 1.958 0 0 1-1.52-.73 2.025 2.025 0 0 1-.415-1.655l18.62-97.311a1.98 1.98 0 0 1 1.936-1.62h40.131c12.613 0 22 3.478 27.9 10.34 5.933 6.897 7.765 16.538 5.445 28.656-.944 4.936-2.567 9.521-4.825 13.626-2.26 4.11-5.248 7.912-8.88 11.303-4.35 4.134-9.272 7.132-14.617 8.896-5.26 1.74-12.016 2.623-20.079 2.623h-16.25l-4.64 24.25a1.98 1.98 0 0 1-1.936 1.622h-20.87zm141.583-25.872a1.922 1.922 0 0 1-1.502-.729 2.042 2.042 0 0 1-.41-1.656l8.132-43.056c.773-4.095.582-7.034-.537-8.276-.685-.759-2.743-2.032-8.83-2.032h-14.73l-10.223 54.128c-.178.942-.98 1.621-1.911 1.621h-20.44a1.925 1.925 0 0 1-1.502-.729 2.045 2.045 0 0 1-.409-1.656l18.382-97.311c.177-.94.979-1.62 1.91-1.62h20.44c.582 0 1.133.267 1.503.728.37.462.52 1.069.408 1.657l-4.435 23.486h15.847c12.072 0 20.258 2.19 25.026 6.696 4.86 4.596 6.377 11.945 4.508 21.845l-8.552 45.283c-.178.942-.979 1.621-1.911 1.621h-20.764zm68.852-19.362c8.234 0 14.382-1.485 18.272-4.414 3.848-2.897 6.505-7.919 7.9-14.924 1.298-6.547.803-11.118-1.472-13.585-2.325-2.52-7.353-3.798-14.942-3.798h-13.16l-7.296 36.721h10.698zm-43.042 45.234c-.61 0-1.19-.267-1.579-.73a1.97 1.97 0 0 1-.43-1.655l19.334-97.311c.188-.941 1.03-1.62 2.01-1.62h41.67c13.098 0 22.845 3.478 28.972 10.34 6.16 6.896 8.062 16.538 5.654 28.656-.982 4.936-2.667 9.521-5.011 13.626-2.347 4.11-5.45 7.912-9.222 11.303-4.515 4.134-9.626 7.132-15.176 8.896-5.463 1.74-12.478 2.623-20.85 2.623h-16.874l-4.817 24.25c-.187.942-1.03 1.622-2.01 1.622h-21.67z" style="opacity:1;fill:#fff;fill-opacity:1"/></svg>
