<svg xmlns="http://www.w3.org/2000/svg" viewBox="0 0 109.57 82.81"><path d="M17.89 48.97c3.27 0 5.7-.61 7.25-1.82 1.53-1.19 2.58-3.26 3.13-6.15.51-2.7.32-4.58-.58-5.6-.92-1.04-2.92-1.56-5.93-1.56h-5.22l-2.89 15.13h4.24ZM.81 67.6c-.24 0-.47-.11-.63-.3a.833.833 0 0 1-.17-.68l7.67-40.09c.07-.39.41-.67.8-.67h16.53c5.2 0 9.06 1.43 11.49 4.26 2.44 2.84 3.2 6.81 2.24 11.8-.39 2.03-1.06 3.92-1.99 5.61-.93 1.69-2.16 3.26-3.66 4.66-1.79 1.7-3.82 2.94-6.02 3.66-2.17.72-4.95 1.08-8.27 1.08h-6.69l-1.91 9.99c-.07.39-.41.67-.8.67H.81Zm58.32-10.66c-.24 0-.47-.11-.62-.3a.87.87 0 0 1-.17-.68l3.35-17.73c.32-1.69.24-2.9-.22-3.41-.28-.31-1.13-.84-3.64-.84h-6.07l-4.21 22.3c-.07.39-.4.67-.79.67h-8.42c-.24 0-.47-.11-.62-.3a.87.87 0 0 1-.17-.68l7.57-40.08c.07-.39.4-.67.79-.67h8.42c.24 0 .47.11.62.3.15.19.21.44.17.68l-1.83 9.67h6.53c4.97 0 8.34.9 10.31 2.76 2 1.89 2.63 4.92 1.86 9l-3.52 18.65c-.07.39-.4.67-.79.67h-8.55Zm28.36-7.98c3.39 0 5.92-.61 7.53-1.82 1.58-1.19 2.68-3.26 3.25-6.15.53-2.7.33-4.58-.61-5.6-.96-1.04-3.03-1.56-6.15-1.56h-5.42l-3.01 15.13h4.41ZM69.76 67.59c-.25 0-.49-.11-.65-.3a.839.839 0 0 1-.18-.68l7.96-40.08c.08-.39.42-.67.83-.67h17.16c5.4 0 9.41 1.43 11.93 4.26 2.54 2.84 3.32 6.81 2.33 11.8-.4 2.03-1.1 3.92-2.06 5.61a18.93 18.93 0 0 1-3.8 4.66c-1.86 1.7-3.96 2.94-6.25 3.66-2.25.72-5.14 1.08-8.59 1.08h-6.95l-1.98 9.99c-.08.39-.42.67-.83.67h-8.93Z" style="fill:#fff"/></svg>
