<svg xmlns="http://www.w3.org/2000/svg" version="1.1" id="Laag_1" x="0" y="0" viewBox="0 0 470 300" style="enable-background:new 0 0 470 300" xml:space="preserve"><style>.st0{fill:#57585a}</style><g id="Page-1"><g id="Picqer-Logo"><path id="Fill-11" class="st0" d="M418.04 136.73h8.25l.67 4.91c2.01-3.79 5.58-5.58 10.71-5.8 3.79 0 7.14.89 10.26 2.9l-4.02 7.81c-2.45-1.34-4.91-2.01-7.14-2.01h-.22c-2.23 0-4.46.89-6.02 2.45-1.78 1.56-2.68 3.79-2.68 6.69v27.89h-9.59v-44.84h-.22z"/><path id="Fill-10" class="st0" d="M373.2 155.24h25.65c-.67-3.35-2.01-6.02-4.24-7.81-2.23-2.01-4.91-2.9-8.25-2.9-3.79 0-6.69 1.12-8.7 2.9-2.45 1.79-3.79 4.47-4.46 7.81m12.94 18.52c5.35 0 9.59-2.01 12.27-5.8l6.92 4.24c-4.91 6.69-11.38 10.04-19.41 10.04-7.14 0-12.94-2.23-16.95-6.92-4.02-4.46-6.02-9.82-6.02-16.06 0-6.47 2.01-11.82 6.02-16.51s9.59-6.92 16.51-6.92h.22c6.25 0 11.38 2.01 15.39 6.25 4.02 4.24 6.25 9.59 6.25 15.84 0 1.56-.22 3.35-.45 5.13h-34.8c.67 2.9 2.01 5.35 4.24 7.58 3.34 2.01 6.24 3.13 9.81 3.13"/><path id="Fill-9" class="st0" d="M335.95 143.87c-4.24 0-7.58 1.56-10.04 4.68-2.45 2.9-3.79 6.25-3.79 10.04 0 5.8 2.23 10.04 6.92 12.94 2.45 1.56 4.91 2.45 7.81 2.23 2.23 0 4.68-.45 7.14-1.78v-27.22c-2.24-.45-4.92-.67-8.04-.89zm17.62 54.43h-9.59v-17.62a26.767 26.767 0 0 1-8.92 1.56c-2.45 0-4.68-.45-6.69-1.12-4.68-1.56-8.48-4.46-11.38-8.7-2.9-4.24-4.24-8.92-4.24-14.05 0-6.02 2.01-11.15 6.25-15.62 4.24-4.46 9.82-6.92 17.18-6.92 6.47 0 12.49.89 17.62 2.68v59.79h-.23z"/><path id="Fill-8" class="st0" d="m306.28 143.2-5.35 6.25c-3.35-3.12-6.92-4.68-11.38-4.68h-.22c-3.57 0-6.69 1.34-9.15 3.79-2.68 2.68-4.02 6.25-4.02 10.71 0 4.02 1.12 7.36 3.57 10.26s5.8 4.24 10.04 4.24c3.79 0 7.58-1.78 11.6-5.13l5.35 6.25c-5.13 5.13-10.71 7.58-16.95 7.58-7.36 0-12.94-2.23-17.18-6.69-4.02-4.46-6.25-10.04-6.25-16.51s2.23-11.82 6.25-16.29c4.24-4.46 9.82-6.92 16.95-6.92 6.47-.23 11.83 2.23 16.74 7.14"/><path id="Fill-6" class="st0" d="M248.72 136.73h9.59v44.84h-9.59v-44.84zm9.82-6.25h-9.82v-10.71h9.82v10.71z"/><path id="Fill-4" class="st0" d="M219.94 151c3.57 0 6.25-1.12 8.25-3.35 2.01-2.23 2.9-4.68 2.9-7.58 0-2.9-1.12-5.35-3.12-7.81-2.01-2.23-4.68-3.57-8.25-3.57h-9.15v22.09h9.37v.22zm-9.14 9.15v21.42h-10.26v-62.02h19.19c6.69 0 12.05 2.01 15.84 6.02 3.79 4.02 5.58 8.92 5.58 14.28 0 5.58-1.78 10.26-5.58 14.28-3.79 4.02-8.92 5.8-15.62 5.8h-9.15v.22z"/><path id="Fill-1" d="M130.93 163.94c-.67.67-1.34.89-2.23.89H59.32c-.89 0-1.78-.45-2.45-1.12-2.68-3.35-4.46-7.58-4.46-12.27 0-10.71 8.7-19.19 19.19-19.19 3.57 0 6.92.89 9.82 2.68 2.23 1.34 4.24 3.12 5.58 5.13h.22v-.22c-2.23-4.68-6.25-8.25-11.15-10.04 3.57-7.58 11.38-12.94 20.3-12.94 11.38 0 20.75 8.48 22.09 19.41-3.35.89-6.25 2.9-8.48 5.58v.22h.22c.67-.67 1.56-1.34 2.45-1.78 2.23-1.34 4.91-2.01 7.58-2.01 8.25 0 14.95 6.69 14.95 14.95.21 4.24-1.57 8.04-4.25 10.71zm1.56 10.93v6.47c0 .89-.67 1.56-1.56 1.56h-6.47c-.89 0-1.56-.67-1.56-1.56v-5.8c0-.45-.22-.67-.67-.67H99.48c-.45 0-.67.22-.67.67v5.8c0 .89-.67 1.56-1.56 1.56h-6.47c-.89 0-1.56-.67-1.56-1.56v-5.8c0-.45-.22-.67-.67-.67H65.8c-.45 0-.67.22-.67.67v5.8c0 .89-.67 1.56-1.56 1.56H57.1c-.89 0-1.56-.67-1.56-1.56v-9.59c0-.89.67-1.56 1.56-1.56h73.84c.89 0 1.56.67 1.56 1.56l-.01 3.12zM93.9 78.05c-39.71 0-71.83 32.12-71.83 71.83 0 39.93 32.12 72.06 71.83 72.06s72.06-32.12 72.06-72.06c-.01-39.7-32.13-71.83-72.06-71.83z" style="fill:#0079be"/></g></g></svg>
