<svg xmlns="http://www.w3.org/2000/svg" id="Layer_1" data-name="Layer 1" viewBox="0 0 6500 1559.5"><defs><style>.cls-2,.cls-3{stroke-width:0}.cls-2{fill:#b593f5}.cls-3{fill:#6b21fc}</style></defs><path d="M665.07 899.41c-20.19 0-40.64-5.3-59.2-16.43L55.99 553.04c-54.6-32.76-72.3-103.58-39.54-158.18 32.75-54.6 103.59-72.32 158.17-39.56l549.87 329.93c54.6 32.76 72.31 103.58 39.55 158.18-21.61 36.03-59.81 55.99-98.96 55.99Z" class="cls-2"/><path d="M1214.93 1229.31c-20.19 0-40.63-5.3-59.2-16.43L605.87 882.97c-54.6-32.76-72.31-103.58-39.55-158.18 32.75-54.6 103.54-72.29 158.17-39.56l549.86 329.91c54.6 32.76 72.31 103.58 39.55 158.18-21.61 36.03-59.81 55.99-98.96 55.99Z" class="cls-2"/><path d="M665.18 1559.22c-63.67 0-115.29-51.6-115.29-115.28V784.1c0-63.67 51.62-115.28 115.29-115.28s115.29 51.6 115.29 115.28v659.84c0 63.67-51.62 115.28-115.29 115.28Z" class="cls-2"/><path d="M665.18 899.38c-63.67 0-115.29-51.6-115.29-115.28V124.26c0-63.67 51.62-115.28 115.29-115.28s115.29 51.6 115.29 115.28V784.1c0 63.67-51.62 115.28-115.29 115.28Z" class="cls-3"/><path d="M665.28 899.41c-39.16 0-77.35-19.97-98.96-55.99-32.76-54.6-15.06-125.42 39.53-158.18l549.87-329.93c54.59-32.68 125.43-15.02 158.17 39.56 32.76 54.6 15.06 125.42-39.53 158.18L724.49 882.98c-18.56 11.13-39.01 16.43-59.2 16.43Z" class="cls-3"/><path d="M115.41 1229.31c-39.17 0-77.35-19.97-98.96-55.99-32.76-54.6-15.06-125.42 39.55-158.18l549.87-329.91c54.6-32.76 125.41-15.02 158.17 39.56 32.76 54.6 15.06 125.42-39.55 158.18l-549.87 329.91c-18.56 11.13-39.02 16.43-59.2 16.43Z" class="cls-3"/><path d="M3105.85 369.1v819.71c0 7.57-6.14 13.7-13.7 13.7h-182.39c-7.57 0-13.7-6.14-13.7-13.7V369.1c0-7.57 6.14-13.7 13.7-13.7h182.39c7.57 0 13.7 6.14 13.7 13.7Zm2769.11 381.58c0 31.48-3.46 71.1-7.5 95.21-1.11 6.63-6.81 11.32-13.53 11.32h-629.25c27.41 125.87 124.23 182.31 301.73 182.31 117.03 0 201.26-32.32 244.01-53.58 14.73-7.33 31.94 3.02 31.94 19.47v123.37c0 8.66-4.18 16.74-11.69 21.06-66.82 38.48-169.87 67.18-290.05 67.18-335.66 0-488.94-198.46-488.94-437.26s164.61-438.9 442.12-438.9c256.54 0 421.15 193.61 421.15 409.82Zm-648.65-43.56h448.55c-14.52-114.57-104.9-185.53-219.42-185.53s-203.35 64.52-229.13 185.53ZM3486.6 947.63c-96.85-88.75-79.49-261.06-10.97-335.3 81.75-92.93 260.89-102.06 443.8-12.58 14.4 7.05 31.18-3.79 31.18-19.82V433.34c0-8.96-4.74-17.28-12.61-21.54-53.89-29.17-145.85-68.2-262.91-68.22-48.42 0-265.41-.04-394.29 175.19-79.45 108.03-83.79 226.05-83.77 262.58.02 40.08 5.38 151.78 79.12 255.48 131.46 184.86 363.94 180.76 405.1 180.04 114.47-2.01 204.05-41.55 257.07-71.31 7.7-4.32 12.29-12.53 12.29-21.36V979.87c0-15.93-16.63-26.89-30.98-19.96-172.65 83.41-340.74 72.3-433.04-12.27ZM3010.03.52h-18.16c-60.14 0-108.88 48.75-108.88 108.88 0 60.14 48.75 108.88 108.88 108.88h18.16c60.14 0 108.88-48.75 108.88-108.88 0-60.14-48.75-108.88-108.88-108.88ZM2380.5 340.87c-68.02 0-128.07 16.72-178.7 44.38-7.83 4.28-12.5 12.74-12.5 21.66v140.21c0 16.54 17.6 27.52 32 19.37 35.68-20.2 77.84-32 125.34-32 146.83 0 246.84 108.12 246.84 245.28s-100.01 243.65-246.84 243.65-246.91-108.12-246.91-243.65c0-.27.07-.54.07-.82h-.07V369.09c0-7.57-6.14-13.7-13.7-13.7h-182.32c-7.57 0-13.7 6.14-13.7 13.7v1085.69c0 7.57 6.14 13.7 13.7 13.7h182.32c7.57 0 13.7-6.14 13.7-13.7v-363.62h3.26c59.71 74.23 156.53 125.86 277.51 125.86 245.28 0 425.97-198.46 425.97-437.26s-180.68-438.9-425.97-438.9Zm3765.96 14.53c7.26 0 13.26 5.67 13.68 12.92l7.33 127.47h3.26c15.34-33.08 44.78-70.6 86.32-99.85 16.47-11.61 75.3-50.24 158.88-50.24 16.87 0 46.87 1.8 59.28 4.17 11.99 2.28 24.77 5.54 24.77 23.84 0 27.74-.11 168.66-.11 168.66s2.54 15.7-18.93 11.87c-21.93-4.13-49.7-6.81-69.82-6.81-154.9 0-237.21 100.01-237.21 254.91v386.48c0 7.57-6.14 13.7-13.7 13.7h-182.32c-7.57 0-13.7-6.14-13.7-13.7V369.1c0-7.57 6.14-13.7 13.7-13.7h168.56Zm-1411.99-.05c-7.57 0-13.7 6.14-13.7 13.7v104.09h-3.18c-59.71-77.45-158.17-132.31-284.03-132.31-245.28 0-425.97 200.06-425.97 438.9s180.68 437.26 425.97 437.26c67.85 0 127.95-16.39 178.56-43.75 7.91-4.27 12.64-12.76 12.64-21.74v-140.64c0-16.54-17.74-27.39-32.16-19.28-35.63 20.05-77.7 31.8-125.11 31.8-146.91 0-246.91-108.12-246.91-243.65s100.01-245.28 246.91-245.28 246.84 108.12 246.84 245.28c0 .43-.11.8-.11 1.2h.11v673.81c0 7.57 6.14 13.7 13.7 13.7h182.39c7.57 0 13.7-6.14 13.7-13.7V369.05c0-7.57-6.14-13.7-13.7-13.7h-175.95Z" style="stroke-width:0;fill:#160a3a"/></svg>
