<svg xmlns="http://www.w3.org/2000/svg" version="1.1" id="Laag_1" x="0" y="0" viewBox="0 0 550 300" style="enable-background:new 0 0 550 300" xml:space="preserve"><style>.st0{fill:#1f0047}.st1{fill:#e1066f}</style><g id="XMLID_192_"><g id="XMLID_323_"><path id="XMLID_341_" class="st0" d="M119.43 152.88c-.07-.39-.1-1.01-.1-1.85 0-5.33 1.77-9.49 5.32-12.48 3.54-2.99 7.46-4.49 11.75-4.49 5.66 0 9.59 2.15 11.8 6.44l-28.77 12.38zm41.16-7.61c-.07-6.31-2.44-11.42-7.12-15.36-4.68-3.93-10.57-5.9-17.65-5.9-4.49 0-8.74.99-12.77 2.97s-7.41 5.07-10.14 9.27c-2.73 4.19-4.1 9.05-4.1 14.58 0 8 2.63 14.43 7.9 19.31 5.27 4.88 11.57 7.31 18.92 7.31 8.39 0 15.67-3.18 21.84-9.56l-6.44-7.12c-3.77 4.55-8.56 6.83-14.38 6.83s-10.42-2.08-13.8-6.24l37.84-15.9-.1-.19z"/><path id="XMLID_189_" class="st0" d="M96.28 127.23c-3.02 2.08-5.41 4.75-7.17 8V124.8H78.19v51.88h10.92v-22.23c0-5.92 1.37-10.63 4.1-14.14 2.73-3.51 6.79-5.27 12.19-5.27h.59l-.1-11.02c-3.39.06-6.59 1.13-9.61 3.21"/><path id="XMLID_188_" class="st0" d="M199.73 150.24c-1.76-1.17-3.4-2.08-4.92-2.73-1.53-.65-3.11-1.23-4.73-1.76-1.63-.52-3.5-1.04-5.61-1.56s-3.75-1.07-4.92-1.66c-1.69-.78-2.53-2.01-2.53-3.7 0-1.89.81-3.3 2.44-4.24 1.62-.94 3.74-1.41 6.34-1.41 4.94 0 9.52 1.4 13.75 4.19l4.1-8.09c-5.33-3.51-10.99-5.27-16.97-5.27s-10.84 1.45-14.58 4.34c-3.74 2.89-5.61 6.75-5.61 11.56 0 6.83 5.4 11.7 16.19 14.63.26.07.65.2 1.17.39 6.89 2.08 10.34 4.42 10.34 7.02 0 1.75-.72 3.2-2.15 4.34s-3.38 1.71-5.85 1.71c-5.66 0-11.51-2.27-17.55-6.83l-5.27 8.48c3.12 2.47 6.71 4.39 10.77 5.75 4.06 1.37 7.98 2.05 11.75 2.05 5.59 0 10.17-1.48 13.75-4.44 3.57-2.96 5.36-6.91 5.36-11.85-.01-4.93-1.76-8.58-5.27-10.92"/><path id="XMLID_336_" class="st0" d="M55.22 142.59c-2.31 2.44-6.65 3.66-13.02 3.66H28.84v-27.31h11.7c6.24 0 10.82.98 13.75 2.93 2.93 1.95 4.39 5.28 4.39 10 0 4.71-1.16 8.28-3.46 10.72m8.14-28.13c-4.75-3.96-12.29-5.95-22.62-5.95h-23.4v68.16h11.51v-19.99h12.09c10.01 0 17.44-1.92 22.28-5.75s7.26-9.88 7.26-18.14-2.38-14.37-7.12-18.33"/><path id="XMLID_185_" class="st0" d="M230.55 167.99c-2.34 0-4.16-.73-5.46-2.19s-1.95-3.43-1.95-5.9v-26.33h13.65v-8.78h-13.65V108.5h-10.92v51.1c0 5.46 1.64 9.8 4.92 13.02s7.25 4.83 11.9 4.83 8.89-1.72 12.73-5.17l-4.49-7.7c-2.14 2.28-4.39 3.41-6.73 3.41"/><path id="XMLID_332_" class="st0" d="M280.54 163.07c-2.99 3.15-6.63 4.73-10.92 4.73s-8.03-1.56-11.21-4.68c-3.19-3.12-4.78-7.17-4.78-12.14s1.56-9.12 4.68-12.43c3.12-3.32 6.86-4.97 11.21-4.97s8.03 1.66 11.02 4.97c2.99 3.32 4.49 7.45 4.49 12.39-.01 4.93-1.5 8.97-4.49 12.13m4.29-29.31c-4.42-6.5-10.05-9.75-16.87-9.75-6.83 0-12.74 2.41-17.75 7.22s-7.51 11.25-7.51 19.31 2.44 14.56 7.31 19.5c4.88 4.94 10.6 7.41 17.16 7.41 3.25 0 6.48-.8 9.7-2.39s5.87-3.88 7.95-6.87v8.48h10.92v-51.88h-10.92l.01 8.97z"/><path id="XMLID_329_" class="st1" d="M457.64 162.97c-3.09 3.15-7.01 4.73-11.75 4.73-4.75 0-8.66-1.58-11.75-4.73s-4.63-7.23-4.63-12.24 1.54-9.08 4.63-12.24c3.09-3.15 7-4.73 11.75-4.73 4.74 0 8.66 1.58 11.75 4.73s4.63 7.23 4.63 12.24-1.54 9.09-4.63 12.24m-11.74-38.96c-7.8 0-14.3 2.59-19.5 7.75-5.2 5.17-7.8 11.49-7.8 18.97s2.6 13.8 7.8 18.97 11.7 7.75 19.5 7.75 14.3-2.58 19.5-7.75 7.8-11.49 7.8-18.97-2.6-13.8-7.8-18.97c-5.2-5.16-11.7-7.75-19.5-7.75"/><path id="XMLID_326_" class="st1" d="M516.97 163.02c-3.19 3.12-6.92 4.68-11.21 4.68s-7.93-1.58-10.92-4.73-4.49-7.2-4.49-12.14 1.49-9.05 4.49-12.34c2.99-3.28 6.66-4.93 11.02-4.93 4.35 0 8.09 1.64 11.21 4.93 3.12 3.28 4.68 7.41 4.68 12.38 0 4.98-1.6 9.03-4.78 12.15m8.29-31.79c-4.94-4.81-10.89-7.22-17.85-7.22-6.96 0-12.58 3.28-16.87 9.85v-9.07h-10.92v70.8h10.92v-26.72c5.2 5.72 11.07 8.58 17.6 8.58 6.53 0 12.25-2.5 17.16-7.51 4.91-5 7.36-11.51 7.36-19.5s-2.46-14.4-7.4-19.21"/><path id="XMLID_178_" class="st1" d="M393.16 124.01c-3.64 0-7.04.91-10.19 2.73-3.15 1.82-5.51 4.32-7.07 7.51v-29.84h-10.92v72.26h10.92v-28.09c0-4.81 1.4-8.47 4.19-10.97s6.08-3.75 9.85-3.75c7.93 0 11.9 4.78 11.9 14.33v28.48h10.92v-31.79c0-6.76-1.8-11.93-5.41-15.5-3.61-3.58-8.34-5.37-14.19-5.37"/><path id="XMLID_177_" class="st1" d="M351.92 143.9c-3.54-3.06-8.81-5.43-15.8-7.12s-11.56-3.27-13.7-4.73c-2.14-1.46-3.22-3.57-3.22-6.34 0-2.76 1.07-4.83 3.22-6.19 2.15-1.37 4.89-2.05 8.24-2.05 3.35 0 6.74.59 10.19 1.76 3.44 1.17 6.17 2.67 8.19 4.49l6.14-8.68c-3.12-2.6-6.83-4.62-11.12-6.05s-8.62-2.15-12.97-2.15c-6.76 0-12.43 1.71-17.02 5.12-4.58 3.41-6.87 8.27-6.87 14.58s2.01 10.99 6.04 14.04c2.01 1.62 4.32 2.94 6.92 3.95s6.4 2.11 11.41 3.32c5 1.2 8.53 2.54 10.58 4s3.07 3.51 3.07 6.14-1.09 4.75-3.27 6.34-5.12 2.39-8.83 2.39c-7.41 0-14.56-2.99-21.45-8.97l-7.22 8.68c8.26 7.35 17.71 11.02 28.38 11.02 7.28 0 13.16-1.85 17.65-5.56 4.49-3.7 6.73-8.53 6.73-14.48s-1.75-10.45-5.29-13.51"/></g></g></svg>
