<svg xmlns="http://www.w3.org/2000/svg" viewBox="0 0 290.375 71.305"><defs><clipPath id="a"><path data-name="Rectangle 1" fill="currentColor" d="M0 0h290.375v71.305H0z"/></clipPath></defs><g data-name="Group 7"><g data-name="Group 2"><g data-name="Group 1" clip-path="url(#a)"><path data-name="Path 1" d="M14.541 47.537 1.227 70.6h26.628Z" fill="currentColor" stroke="#0f1a51" stroke-miterlimit="10" stroke-width="1.417"/></g></g><path data-name="Path 2" d="m27.855 24.477-13.314 23.06h26.628Z" fill="currentColor" stroke="#0f1a51" stroke-miterlimit="10" stroke-width="1.417"/><g data-name="Group 4"><g data-name="Group 3" clip-path="url(#a)" fill="currentColor" stroke="#0f1a51" stroke-miterlimit="10" stroke-width="1.417"><path data-name="Path 3" d="m41.168 1.417-13.314 23.06h26.628Z"/><path data-name="Path 4" d="M41.168 47.537 27.854 70.6h26.628Z"/><path data-name="Path 5" d="M67.8 47.537 54.481 70.6h26.628Z"/></g></g><path data-name="Path 6" d="m54.482 24.477-13.314 23.06H67.8Z" fill="currentColor" stroke="#0f1a51" stroke-miterlimit="10" stroke-width="1.417"/><g data-name="Group 6"><g data-name="Group 5" clip-path="url(#a)" fill="currentColor"><path data-name="Path 7" d="M120.323 35.25v11.474a.785.785 0 0 1-.785.784h-3.581a.783.783 0 0 1-.783-.784V14.97a.589.589 0 0 1 .26-.489l3.969-2.672a.59.59 0 0 1 .92.489v14.613a7.933 7.933 0 0 1 6.045-2.463c6.212 0 10.747 3.582 10.747 11.194v11.082a.785.785 0 0 1-.785.784h-3.582a.784.784 0 0 1-.784-.784V35.642c0-5.373-3.022-6.269-5.6-6.269-2.519 0-5.877 1.12-6.045 5.877"/><path data-name="Path 8" d="M164.6 36.482a.813.813 0 0 1-.839.783h-17.297c.447 4.814 3.8 5.989 6.492 5.989a6.235 6.235 0 0 0 4.534-1.623 1.22 1.22 0 0 1 1.288-.224l3.3 1.456a.648.648 0 0 1 .281 1.007c-2.072 2.854-5.374 4.31-9.4 4.31-6.548 0-11.642-4.086-11.642-11.867s5.094-11.865 11.642-11.865S164.6 28.534 164.6 36.313Zm-5.541-2.967c-1.007-3.247-3.806-4.142-6.1-4.142s-5.093.9-6.1 4.142Z"/><path data-name="Path 9" d="M182.567 29.2a.677.677 0 0 1-.9.616 15.71 15.71 0 0 0-2.742-.28c-2.463 0-4.7.9-4.7 4.478v12.7a.709.709 0 0 1-.784.784h-3.582a.709.709 0 0 1-.784-.784v-12.7c0-6.941 4.142-9.46 9.292-9.46a15.351 15.351 0 0 1 4.142.56c.448.168.784.56.616 1.007Z"/><path data-name="Path 10" d="M185.814 36.314c0-7.78 5.094-11.866 11.642-11.866S209.1 29.094 209.1 36.314c0 7.78-5.093 11.866-11.642 11.866-1.9 0-5.038-.839-6.493-2.742v12.22a.589.589 0 0 1-.26.489l-3.971 2.672a.589.589 0 0 1-.918-.489Zm11.642 6.941c2.855 0 6.493-1.344 6.493-6.941s-3.638-6.94-6.493-6.94-6.493 1.343-6.493 6.94 3.639 6.941 6.493 6.941"/><path data-name="Path 11" d="M235.966 46.724a.708.708 0 0 1-.784.784H231.6a.708.708 0 0 1-.783-.784v-2.238c-1.9 2.966-5.43 3.638-7.613 3.638-6.94 0-10.746-5.6-10.746-11.642 0-7.557 5.261-12.034 11.866-12.034 6.549 0 11.642 4.029 11.642 12.089Zm-11.642-17.351c-2.855 0-6.661 1.679-6.661 6.94 0 5.15 3.135 6.941 5.99 7.109a6.54 6.54 0 0 0 7.164-6.94c0-5.765-3.638-7.109-6.493-7.109"/><path data-name="Path 12" d="M263.394 46.724a.708.708 0 0 1-.784.784h-3.582a.708.708 0 0 1-.783-.784v-2.238c-1.9 2.966-5.429 3.638-7.613 3.638-6.94 0-10.746-5.6-10.746-11.642 0-7.557 5.261-12.034 11.866-12.034 6.549 0 11.642 4.029 11.642 12.089Zm-11.642-17.351c-2.854 0-6.661 1.679-6.661 6.94 0 5.15 3.135 6.941 5.99 7.109a6.54 6.54 0 0 0 7.164-6.94c0-5.765-3.638-7.109-6.493-7.109"/><path data-name="Path 13" d="M273.583 35.642v11.082a.708.708 0 0 1-.784.784h-3.582a.708.708 0 0 1-.784-.784V35.642c0-7.444 4.758-11.194 10.971-11.194s10.971 3.75 10.971 11.194v11.082a.709.709 0 0 1-.784.784h-3.583a.708.708 0 0 1-.783-.784V35.642c0-5.149-3.3-6.269-5.821-6.269s-5.821 1.12-5.821 6.269"/><path data-name="Path 14" d="M106.1 36.3a19.857 19.857 0 0 0-5.99-2.064c-3.636-.8-5.217-1.163-5.217-2.628 0-1.852 2.751-2.4 5-2.3a5.539 5.539 0 0 1 4.614 2.24.583.583 0 0 0 .814.163l3.263-2.2a.6.6 0 0 0 .133-.859c-1.892-2.49-5.778-4.2-9.6-4.2-5.467 0-9.617 3.043-9.617 7.081a5.186 5.186 0 0 0 2.984 4.767 19.848 19.848 0 0 0 5.99 2.064c3.636.8 5.217 1.163 5.217 2.628 0 1.852-2.751 2.4-5 2.3a5.537 5.537 0 0 1-4.613-2.24.583.583 0 0 0-.815-.163L90 43.081a.6.6 0 0 0-.134.859c1.893 2.49 5.779 4.2 9.605 4.2 5.467 0 9.617-3.043 9.617-7.081A5.186 5.186 0 0 0 106.1 36.3"/></g></g></g></svg>
