<svg xmlns="http://www.w3.org/2000/svg" version="1.1" id="Layer_1" x="0" y="0" viewBox="0 0 150 150" style="enable-background:new 0 0 150 150" xml:space="preserve"><style>.st23{fill:#189eff}</style><g id="_Gruppe_3"><path id="_Pfad_2" class="st23" d="M118.1 131.7c-6.3-4.7-15.6-8.4-25.4-12.2-11.7-4.5-25-9.7-34.9-17.6C46.5 92.9 41 81.6 41 67.3c-.2-12.5 5.5-24.3 15.4-31.8 11.3-8.9 28.5-13.6 49.6-13.6 5.5 0 11.1.3 16.6 1.1.6.1 1.1-.3 1.2-.9 0-.3-.1-.7-.3-.9C93.7-5.7 47.8-3.2 21.1 26.5s-24.3 75.6 5.4 102.3c13.3 12 30.5 18.6 48.4 18.6 15.5.1 30.7-4.9 43.2-14.1.3-.2.4-.5.4-.8 0-.3-.1-.6-.4-.8z"/><path id="_Pfad_3" class="st23" d="M147.2 68.3c0-.3-.2-.5-.4-.7C131.7 55.1 119.4 50 104.6 50c-7.9 0-14 1.6-18.1 4.7-3.4 2.6-5.4 6.6-5.4 10.9 0 12.5 15.2 18.1 32.8 24.7 9.1 3.4 18.4 6.9 27.1 11.7.2.1.3.1.5.1.1 0 .2 0 .4-.1.3-.1.5-.3.6-.6 3.3-8.4 5-17.4 5-26.5 0-2-.1-4.3-.3-6.6z"/></g></svg>
