<svg xmlns="http://www.w3.org/2000/svg" viewBox="0 0 740 300" style="enable-background:new 0 0 740 300" xml:space="preserve"><path d="M74.71 98.8h51.38c14.19 0 25.69 11.46 25.69 25.6l-12.85 64c-2.59 12.65-11.5 25.6-25.69 25.6H61.87c-14.19 0-25.69-11.46-25.69-25.6l12.85-64c2.81-14.35 11.5-25.6 25.68-25.6z" style="opacity:.9;fill-rule:evenodd;clip-rule:evenodd;fill:#37b4ed;enable-background:new"/><path d="M58.83 86h51.38c14.19 0 25.69 11.46 25.69 25.6l-12.85 64c-2.59 12.65-11.5 25.6-25.69 25.6H45.98c-14.19 0-25.69-11.46-25.69-25.6l12.85-64C35.95 97.25 44.64 86 58.83 86z" style="opacity:.9;fill-rule:evenodd;clip-rule:evenodd;fill:#ff5f53;enable-background:new"/><path d="m50.29 172.5 3.09-10.92c6.19 1.84 11.31 3.19 17.5 3.19 7.54 0 9.28-1.45 10.25-7.06.29-1.35.39-2.51.39-3.38 0-2.9-1.93-3.67-9.76-5.7-10.73-2.71-14.69-6.48-14.69-14.02 0-2.03.29-4.35.77-6.96 2.8-14.31 6.67-17.21 24.17-17.21 4.93 0 13.05 1.06 18.75 2.51l-2.51 11.89c-5.7-1.35-13.05-2.22-17.4-2.22-6.96 0-8.31.97-9.18 6.09-.19 1.45-.39 2.61-.39 3.48 0 3.09 1.93 3.58 9.47 5.51 11.99 3 15.27 6.67 15.27 13.24 0 2.03-.29 4.25-.77 6.86-2.32 13.24-6.96 18.95-25.23 18.95-5.33 0-14.71-1.84-19.73-4.25z" style="fill:#fff"/><path d="m168.31 177.9 2.81-9.91c5.61 1.67 10.26 2.89 15.88 2.89 6.84 0 8.42-1.32 9.3-6.4.26-1.23.35-2.28.35-3.07 0-2.63-1.75-3.33-8.86-5.18-9.74-2.46-13.33-5.88-13.33-12.72 0-1.84.26-3.95.7-6.32 2.54-12.98 6.05-15.61 21.93-15.61 4.47 0 11.84.96 17.02 2.28l-2.28 10.79c-5.18-1.23-11.84-2.02-15.79-2.02-6.32 0-7.54.88-8.33 5.53-.18 1.32-.35 2.37-.35 3.16 0 2.81 1.75 3.25 8.6 5 10.88 2.72 13.86 6.05 13.86 12.02 0 1.84-.26 3.86-.7 6.23-2.11 12.02-6.32 17.19-22.9 17.19-4.83 0-13.34-1.67-17.91-3.86zm81.32-20.71h-18.69l-4.12 23.69h-12.9l10.26-58.43h12.9l-4.12 23.42h18.69l4.12-23.42h12.9l-10.26 58.43h-12.9l4.12-23.69zm19.47 9.04c0-.88.09-1.84.26-2.72l4.21-24.12c1.93-10.88 8.6-17.81 25.09-17.81 13.86 0 20.35 7.9 20.35 15.88 0 .79-.09 1.75-.26 2.63l-4.21 23.86c-1.93 11.14-8.51 17.81-25.79 17.81-13.77 0-19.65-7.63-19.65-15.53zm36.85-27.46c0-3.6-2.37-5.79-8.6-5.79-6.67 0-10.18 2.89-11.05 7.54l-3.95 22.28c-.09.7-.18 1.4-.18 2.02 0 3.51 2.28 5.53 8.6 5.53 6.67 0 10.18-2.54 11.05-7.54l3.95-22.28c.09-.62.18-1.23.18-1.76zm29.56 24.3-3.16 17.81h-12.9l10.26-58.43H352c12.54 0 18.6 4.83 18.6 13.16 0 1.23-.26 3.07-.53 4.47l-1.14 6.58c-1.93 10.88-6.4 16.4-21.84 16.4l-11.58.01zM357 140.79c.18-1.05.26-1.93.26-2.54 0-2.98-1.75-4.39-5.7-4.39h-10.88l-3.16 18.07h10.61c5.96 0 7.28-2.11 8.07-6.49l.8-4.65z" style="fill:#ff5f53"/><path d="m385.24 163.07-3.16 17.81h-12.9l10.26-58.43h22.28c12.54 0 18.6 4.83 18.6 13.16 0 1.23-.26 3.07-.53 4.47l-1.14 6.58c-1.93 10.88-6.4 16.4-21.84 16.4l-11.57.01zm21.5-22.28c.18-1.05.26-1.93.26-2.54 0-2.98-1.75-4.39-5.7-4.39h-10.88l-3.16 18.07h10.61c5.96 0 7.28-2.11 8.07-6.49l.8-4.65zm43.42 28.6h-19.91l-5.26 11.49h-13.95l28.07-58.43h17.63l8.33 58.43h-13.69l-1.22-11.49zm-15.18-10.7h13.95l-2.46-25.44-11.49 25.44zm34.74 8.94c0-1.14.18-2.54.35-3.69l4.39-25.27c1.84-10.7 8.07-17.11 23.69-17.11 5.96 0 13.77 1.4 18.33 2.81l-2.89 11.05c-4.74-1.32-12.11-2.19-16.76-2.19-6.75 0-9.04 2.98-9.91 8.16l-3.6 20.27c-.18.96-.26 2.02-.26 2.89 0 3.6 1.75 5.7 7.28 5.7 2.63 0 6.14-.44 8.6-.96l2.89-15.97h12.11l-4.39 24.65c-5.35 2.28-12.37 3.77-20.35 3.77-13.52.02-19.48-5.6-19.48-14.11zm58.86-45.18h12.9l-10.26 58.43h-12.9l10.26-58.43zm31.84 18.34-6.93 40.09h-12.63l10.26-58.43h15.7l12.81 42.37 7.46-42.37h12.54l-10.27 58.43h-15.88l-13.06-40.09zm72.46 28.6h-19.91l-5.26 11.49h-13.95l28.07-58.43h17.63l8.33 58.43H634.1l-1.22-11.49zm-15.18-10.7h13.95l-2.46-25.44-11.49 25.44zm35.07 13.72h7.19l-1.48 8.47h-7.19l1.48-8.47zm22.5-14.85-4.03 23.32h-7.35l5.97-33.98h9.13l7.45 24.65 4.34-24.65h7.3l-5.97 33.98h-9.24l-7.6-23.32zm28.16-10.66h7.5l-4.85 27.35h13.62l-1.12 6.63h-21.13l5.98-33.98z" style="fill:#37b4ed"/></svg>
