<svg xmlns="http://www.w3.org/2000/svg" version="1.1" id="Laag_1" x="0" y="0" viewBox="0 0 800 300" style="enable-background:new 0 0 800 300" xml:space="preserve"><style>.st412{fill:#189eff}</style><g id="_Gruppe_"><g id="_Gruppe_2"><path id="_Pfad_" class="st412" d="M273.07 150.64c-5.62-2.4-10.23-4.64-10.23-8.3 0-2.57 2.9-5 7.8-5 4.18.06 8.3 1.02 12.08 2.81 1.26.72 2.86.29 3.59-.97.03-.04.05-.09.07-.13l1.96-3.91a3.34 3.34 0 0 0-1.2-4.15 31.415 31.415 0 0 0-16.49-4.15c-13.68 0-19.27 8.3-19.27 15.38 0 9.27 7.2 13.92 15.85 17.83 7.81 3.54 12.08 6 12.08 9.77 0 3.18-2.69 5.5-7.45 5.5-6.72 0-10.74-2.32-14.04-4.15-1.11-.83-2.68-.6-3.51.51-.05.07-.1.15-.15.22l-2.57 5.26c-.47 1.08-.05 2.34.97 2.93a32.886 32.886 0 0 0 18.56 5.74c12.57 0 20.14-7.69 20.14-16.49 0-10.52-7.81-14.3-18.19-18.7z"/></g><g id="_Gruppe_3"><path id="_Pfad_2" class="st412" d="M198.2 201.59c-5.72-4.32-14.19-7.61-23.14-11.07-10.65-4.13-22.8-8.82-31.81-16.03-10.27-8.18-15.27-18.49-15.27-31.54a35.687 35.687 0 0 1 14.05-28.94c10.31-8.11 25.93-12.41 45.16-12.41 5.05-.02 10.09.31 15.09.97.52.07.99-.3 1.06-.82a.908.908 0 0 0-.31-.82c-27.1-24.37-68.82-22.15-93.19 4.95s-22.15 68.82 4.95 93.19a66.036 66.036 0 0 0 44.09 16.92 65.58 65.58 0 0 0 39.31-12.87c.24-.18.38-.46.38-.76.01-.3-.13-.58-.37-.77z"/><path id="_Pfad_3" class="st412" d="M224.67 143.93a.95.95 0 0 0-.34-.65c-13.77-11.43-24.92-16.08-38.47-16.08-7.2 0-12.77 1.45-16.46 4.31a12.196 12.196 0 0 0-4.9 9.97c0 11.34 13.86 16.51 29.91 22.5 8.27 3.08 16.8 6.27 24.67 10.63a.93.93 0 0 0 .78.06.9.9 0 0 0 .56-.55c3-7.68 4.54-15.86 4.52-24.12 0-1.92-.07-3.97-.27-6.07z"/></g><path id="_Zusammengesetzter_Pfad_" class="st412" d="M604.15 185.11a3.03 3.03 0 0 0 2.86-2.96V153.5c0-14.65-1.79-26-20.65-26-6.89-.01-13.73 1.1-20.26 3.3a2.67 2.67 0 0 0-1.91 3.45l1.2 4.8c.38 1.66 1.52 2.81 3.31 2.4a60.803 60.803 0 0 1 16.44-2.81c7.39 0 9.68 4.21 9.43 13.51a45.275 45.275 0 0 0-11.85-1.79c-15.17 0-23.58 8.16-23.58 18.99 0 12.24 7.76 16.38 18.85 16.38 9.05 0 18.36-.11 22.23-.36l3.93-.26zm-9.74-10.39c-1.79 2.93-8.16 2.2-13.63 2.09-6.12-.13-9.18-2.27-9.18-7.5.01-6.11 5.2-9.71 12.08-9.71 3.67-.06 7.31.63 10.7 2.04v13.08h.03z"/><path id="_Zusammengesetzter_Pfad_2" class="st412" d="M700.38 126.83c3.69-.01 6.67-3.02 6.66-6.71s-3.02-6.67-6.71-6.66c-3.68.01-6.66 3-6.66 6.68.01 3.71 3.01 6.7 6.71 6.69zm0-12.38a5.698 5.698 0 0 1 5.76 5.64 5.698 5.698 0 0 1-5.64 5.76 5.698 5.698 0 0 1-5.76-5.64v-.06c0-3.13 2.51-5.67 5.64-5.7z"/><path id="_Zusammengesetzter_Pfad_3" class="st412" d="M698.1 123.53h.62c.1 0 .18-.08.18-.18v-2.4h1.46l1.2 2.52c.03.08.12.13.2.12h.72c.1.01.19-.06.2-.16 0-.04-.01-.08-.03-.11l-1.32-2.4c.91-.29 1.52-1.15 1.49-2.11a2.07 2.07 0 0 0-2.09-2.06h-2.64c-.1 0-.18.08-.18.18v6.39c-.02.1.04.19.14.21h.05zm.83-5.82h1.72c.66 0 1.2.54 1.2 1.2s-.54 1.2-1.2 1.2h-1.72v-2.4z"/><path id="_Pfad_4" class="st412" d="M328.76 126.83a27.12 27.12 0 0 0-16.31 5.87v-25.2a2.9 2.9 0 0 0-2.69-2.69h-6.91a2.808 2.808 0 0 0-2.69 2.69v75.59c0 1.49 1.2 2.7 2.69 2.71h6.72c1.42.16 2.71-.86 2.87-2.28.02-.13.02-.27.01-.4v-36.5c3.09-5.18 8.73-8.31 14.77-8.18 7.33 0 11.23 5.5 11.23 14.77v29.92a2.717 2.717 0 0 0 2.69 2.69h6.84a2.808 2.808 0 0 0 2.69-2.69v-29.67c-.06-15.39-5.91-26.63-21.91-26.63z"/><path id="_Zusammengesetzter_Pfad_4" class="st412" d="M471.77 154.04c-.67-19.2-8.7-27.21-27.19-27.21-7.13.15-14.21 1.28-21.03 3.35-1.92.83-3.34 1.81-3.34 3.16v71.78a2.717 2.717 0 0 0 2.69 2.69h5.66a2.64 2.64 0 0 0 2.91-2.33c.01-.12.02-.23.02-.35v-20.32c5.9.83 11.85 1.15 17.8.96 13.05-.41 21.81-9.89 22.54-25.89.12-2.4.12-4.8 0-7.2V154l-.06.04zm-11.8 5.85c-.25 10.86-3.41 15.66-12.55 16.16-4.52.25-15.2-1.01-15.2-1.01a.821.821 0 0 1-.74-.74v-34.48c0-.34.25-.62.59-.65 4.1-.99 8.3-1.53 12.53-1.62 11.13 0 15.06 1.63 15.42 15.73.01 1.86.01 4.46-.05 6.61z"/><path id="_Pfad_5" class="st412" d="M552.62 128.06h-5.12c-1.46 0-3.6 0-4.27 1.72l-9.03 32.47h-.24l-15.13-34.06c-.44-.91-1.4-1.44-2.4-1.34h-.85c-.96-.02-1.86.5-2.32 1.34l-15.32 33.94h-.24l-9.27-32.39a2.494 2.494 0 0 0-2.4-1.72h-7.33c-1.11-.17-2.14.59-2.31 1.7-.08.52.05 1.05.35 1.48l16.49 53.1c.35.96 1.3 1.56 2.32 1.46h.73c.93.09 1.8-.44 2.16-1.3l17.34-38.39h.22l17.22 38.39c.48.86 1.41 1.38 2.4 1.34h.49c1.08.1 2.1-.49 2.57-1.46l16.14-53.1c.86-1.72-.24-3.18-2.2-3.18z"/><path id="_Pfad_6" class="st412" d="M642.68 127.5h-2.37c-2.93 0-5.74.1-8.4.23-5.06.2-8.06.59-10.2.83 0 0-1.37.13-2.96.34-.91.07-1.74.5-2.33 1.2-.34.36-.53.84-.53 1.33v51.68a2.717 2.717 0 0 0 2.69 2.69h5.61c2.32 0 3.91-.24 3.91-2.69v-42.95c.15-.42.45-.76.85-.95 1.38-.83 4.69-1.43 11.35-1.43h1.55c1.61.13 3.2.48 4.72 1.06a2.4 2.4 0 0 0 3.25-.96c.07-.12.12-.25.17-.38l2.93-4.8c1.84-3.73-4.87-5.2-10.24-5.2z"/><path id="_Zusammengesetzter_Pfad_5" class="st412" d="M681.32 126.83c-16.97 0-28.12 13.57-28.12 29.42 0 16.11 11.11 29.54 28.2 29.54 9.39 0 16.8-3.42 20.88-6.96 1.7-1.46 1.2-2.57.24-3.78l-3.3-5.12c-.97-1.46-2.08-1.1-3.3-.24a21.974 21.974 0 0 1-13.8 4.8c-9.89 0-16.73-7.81-16.8-15.38h38.95a2.662 2.662 0 0 0 2.57-2.4c.12-.97.24-2.93.24-3.91-.01-15.1-11.11-25.97-25.76-25.97zM665.94 150c.85-7.08 6.23-12.81 15.14-12.81 8.3 0 13.68 6 13.92 12.81h-29.06z"/><path id="_Zusammengesetzter_Pfad_6" class="st412" d="M410.41 144.28a27.861 27.861 0 0 0-5.35-9.35 23.604 23.604 0 0 0-8.22-6c-7.34-2.8-15.46-2.8-22.8 0a23.696 23.696 0 0 0-8.22 6 27.913 27.913 0 0 0-5.38 9.35 36.238 36.238 0 0 0-1.91 12c-.06 4.13.58 8.23 1.91 12.14 1.17 3.41 2.98 6.57 5.35 9.29 2.27 2.57 5.07 4.62 8.22 6a32.208 32.208 0 0 0 22.8 0c3.14-1.38 5.95-3.43 8.22-6 2.37-2.72 4.19-5.87 5.35-9.29a36.25 36.25 0 0 0 1.91-12.09c.06-4.1-.58-8.17-1.88-12.05zm-25.32 31.8c-10.19 0-15.32-8.63-15.32-19.27s5.08-19.27 15.32-19.27 15.32 8.63 15.32 19.27c.01 10.65-5.17 19.27-15.32 19.27z"/></g></svg>
