<svg xmlns="http://www.w3.org/2000/svg" viewBox="0 0 566.9 165.1" style="enable-background:new 0 0 566.9 165.1" xml:space="preserve"><path d="M178 81.4c-4.7-2-8.5-3.9-8.5-6.9 0-2.1 2.4-4.2 6.5-4.2 3.7 0 6.8.9 10.1 2.3.9.4 2.3.5 3.1-.9l1.6-3.3c.6-1.2.1-2.7-1-3.5-2.3-1.5-7.2-3.5-13.7-3.5-11.4 0-16.1 6.9-16.1 12.8 0 7.7 6 11.6 13.2 14.9 6.5 2.9 10.1 5 10.1 8.1 0 2.7-2.2 4.6-6.2 4.6-5.6 0-8.9-1.9-11.7-3.5-1.2-.7-2.5-.4-3.1.6l-2.1 4.4c-.5 1 .1 1.9.8 2.4 2.6 1.8 8 4.8 15.5 4.8 10.5 0 16.8-6.4 16.8-13.7-.1-8.6-6.6-11.7-15.3-15.4zm-62.4 42.5c-4.8-3.6-11.8-6.3-19.3-9.2-8.9-3.4-19-7.3-26.5-13.4-8.5-6.8-12.7-15.4-12.7-26.3 0-9.8 4-18.1 11.7-24.1 8.6-6.8 21.6-10.3 37.6-10.3 4.4 0 8.7.3 12.6.8.3 0 .7-.1.8-.5.2-.3.1-.7-.2-.9-10.1-9.1-23.2-14.1-36.8-14.1-14.6 0-28.4 5.7-38.8 16.1-10.4 10.4-16.1 24.2-16.1 38.9s5.7 28.5 16.1 38.9c10.4 10.4 24.2 16.1 38.9 16.1 11.9 0 23.2-3.7 32.7-10.8.2-.2.3-.4.3-.6.1-.2-.1-.5-.3-.6zm22.1-48.1c0-.2-.1-.4-.3-.5-11.5-9.5-20.8-13.4-32.1-13.4-6 0-10.6 1.2-13.7 3.6-2.7 2.1-4.1 4.9-4.1 8.3 0 9.4 11.6 13.8 24.9 18.8 6.9 2.6 14 5.2 20.6 8.9.1.1.2.1.4.1.1 0 .2 0 .3-.1.2-.1.4-.2.5-.5 2.5-6.4 3.8-13.2 3.8-20.1-.1-1.6-.1-3.3-.3-5.1zM454 110.1c1.4-.2 2.4-1.2 2.4-2.5V83.8c0-12.2-1.5-21.7-17.2-21.7-9 0-16 2.4-16.9 2.8-1.2.4-1.9 1.2-1.6 2.9l1 4c.3 1.4 1.3 2.3 2.8 2 2.5-.7 8.1-2.3 13.7-2.3 6.2 0 8.1 3.5 7.9 11.3 0 0-4.8-1.5-9.9-1.5-12.6 0-19.6 6.8-19.6 15.8 0 10.2 6.5 13.7 15.7 13.7 7.5 0 15.3-.1 18.5-.3l3.2-.4zm-8.1-8.6c-1.5 2.4-6.8 1.8-11.4 1.7-5.1-.1-7.6-1.9-7.6-6.2 0-5.1 4.4-8.1 10.1-8.1 4.5 0 8.3 1.3 8.9 1.7v10.9zm88.3-39.9c3.1 0 5.6-2.5 5.6-5.6 0-3.1-2.5-5.6-5.6-5.6s-5.6 2.5-5.6 5.6 2.5 5.6 5.6 5.6zm0-10.3c2.6 0 4.7 2.1 4.7 4.8s-2.1 4.8-4.7 4.8-4.7-2.1-4.7-4.8c0-2.7 2.1-4.8 4.7-4.8zm-1.9 7.5h.5c.1 0 .2-.1.2-.2v-2h1.2l1 2.1c0 .1.1.1.2.1h.6c.1 0 .2-.1.1-.2l-1.1-2c.7-.3 1.2-.9 1.2-1.6 0-1-.8-1.7-1.8-1.7h-2.2c-.1 0-.2.1-.2.2v5.3h.3zm.7-4.8h1.4c.5 0 1 .4 1 1s-.5 1-1 1H533v-2zm-308.5 7.6c-7.4 0-12.5 4.1-13.6 4.9v-21c0-1.1-1.1-2.2-2.2-2.2H203c-1.2 0-2.2 1.1-2.2 2.2v63c0 1.2 1 2.2 2.2 2.2h5.6c1.4 0 2.3-.9 2.3-2.2V78.1c1-2 5.1-6.8 12.3-6.8 6.1 0 9.4 4.6 9.4 12.3v24.9c0 1.2 1 2.2 2.2 2.2h5.7c1.1 0 2.2-1 2.2-2.2V83.8c0-12.9-4.9-22.2-18.2-22.2zm119.1 22.7c-.6-16-7.2-22.7-22.7-22.7-7.4 0-16.2 2.2-17.5 2.8-1.6.7-2.8 1.5-2.8 2.6v59.7c0 1.2 1 2.2 2.2 2.2h4.7c1.5 0 2.4-.9 2.4-2.2v-16.9c1.4.4 8.7 1 14.8.8 10.9-.3 18.2-8.2 18.8-21.6.3-1.7.1-4.7.1-4.7zm-9.8 4.8c-.2 9.1-2.8 13.1-10.5 13.5-3.8.2-12.7-.8-12.7-.8-.4-.1-.6-.3-.6-.6V72.4c0-.3.2-.5.5-.5 1-.1 4.9-1.3 10.4-1.3 9.3 0 12.5 1.4 12.9 13.1 0 1.5.1 3.6 0 5.4zM411 62.6h-4.3c-1.2 0-3 0-3.6 1.4l-7.5 27.1h-.2l-12.6-28.4c-.2-.6-.9-1.1-2-1.1h-.7c-.9 0-1.6.5-1.9 1.1L365.5 91h-.2l-7.7-27c-.2-.9-1.2-1.4-2-1.4h-6.1c-1.6 0-2.3 1.2-1.6 2.7l13.7 44.3c.2.7.9 1.2 1.9 1.2h.6c1 0 1.6-.5 1.8-1.1l14.5-32h.2l14.4 31.9c.3.6 1 1.1 2 1.1h.4c1 0 1.9-.5 2.1-1.2l13.4-44.3c.7-1.4-.2-2.6-1.9-2.6zm75.1-.5h-1.9c-2.4 0-4.8.1-7 .2-4.2.2-6.7.5-8.5.7 0 0-1.1.1-2.5.3-.9.1-1.5.5-1.9 1-.3.3-.4.7-.4 1.1v43.1c0 1.2 1 2.2 2.2 2.2h4.7c1.9 0 3.3-.2 3.3-2.2V72.7c0-.3.4-.6.7-.8 1.1-.7 3.9-1.2 9.5-1.2h1.3c1.3.1 3.3.5 3.9.9 1 .5 2.2.2 2.9-1.1l2.4-4c1.4-3.1-4.2-4.4-8.7-4.4zm32.2-.5c-14.1 0-23.4 11.3-23.4 24.5 0 13.4 9.3 24.6 23.5 24.6 7.8 0 14-2.8 17.4-5.8 1.4-1.2 1-2.1.2-3.2l-2.8-4.3c-.8-1.2-1.7-.9-2.8-.2-2.8 2-6.1 4-11.5 4-8.2 0-13.9-6.5-14-12.8h32.5c1 0 2-.8 2.1-2 .1-.8.2-2.4.2-3.3.1-12.5-9.2-21.5-21.4-21.5zm-12.8 19.3c.7-5.9 5.2-10.7 12.6-10.7 6.9 0 11.4 5 11.6 10.7h-24.2zm-213-4.8c-1.1-3-2.5-5.6-4.5-7.8s-4.2-3.8-6.9-5-6.4-1.8-9.5-1.8-6.9.6-9.5 1.8-4.9 2.8-6.9 5c-1.9 2.2-3.4 4.8-4.5 7.8s-1.6 6.4-1.6 10c0 3.7.5 7.1 1.6 10.1s2.6 5.6 4.5 7.7c1.9 2.2 4.2 3.8 6.9 5s6.4 1.8 9.5 1.8 6.9-.6 9.5-1.8 4.9-2.8 6.9-5c1.9-2.2 3.4-4.7 4.5-7.7s1.6-6.4 1.6-10.1c0-3.6-.5-6.9-1.6-10zm-21.1 26.5c-8.5 0-12.8-7.2-12.8-16.1s4.3-16.1 12.8-16.1 12.8 7.2 12.8 16.1-4.3 16.1-12.8 16.1z" style="fill:#fff"/></svg>
