<svg viewBox="0 0 500 82" xmlns="http://www.w3.org/2000/svg" xml:space="preserve" style="fill-rule:evenodd;clip-rule:evenodd;stroke-linejoin:round;stroke-miterlimit:2"><path d="M298.425 78.093c-1.171 0-2.229-.255-3.175-.763a5.69 5.69 0 0 1-2.231-2.117c-.541-.902-.812-1.922-.812-3.059 0-1.138.271-2.158.812-3.06a5.688 5.688 0 0 1 2.231-2.116c.946-.509 2.01-.763 3.191-.763.995 0 1.895.175 2.699.525.804.35 1.479.853 2.026 1.509l-1.706 1.575c-.777-.897-1.739-1.345-2.888-1.345-.711 0-1.345.156-1.903.467a3.333 3.333 0 0 0-1.304 1.305c-.312.557-.468 1.192-.468 1.903 0 .711.156 1.345.468 1.903a3.33 3.33 0 0 0 1.304 1.304c.558.312 1.192.468 1.903.468 1.149 0 2.111-.454 2.888-1.362l1.706 1.575a5.323 5.323 0 0 1-2.034 1.526c-.81.35-1.712.525-2.707.525Zm10.237-.066c-.93 0-1.764-.194-2.502-.582a4.34 4.34 0 0 1-1.731-1.616c-.415-.689-.623-1.471-.623-2.346s.208-1.657.623-2.346a4.333 4.333 0 0 1 1.731-1.616c.738-.389 1.572-.583 2.502-.583.929 0 1.761.194 2.493.583a4.344 4.344 0 0 1 1.723 1.616c.416.689.623 1.471.623 2.346s-.207 1.657-.623 2.346a4.35 4.35 0 0 1-1.723 1.616c-.732.388-1.564.582-2.493.582Zm0-2.1c.656 0 1.195-.221 1.616-.664.421-.443.631-1.037.631-1.78 0-.744-.21-1.337-.631-1.78-.421-.443-.96-.665-1.616-.665-.656 0-1.198.222-1.624.665-.427.443-.64 1.036-.64 1.78 0 .743.213 1.337.64 1.78.426.443.968.664 1.624.664Zm11.91-6.989c1.094 0 1.977.328 2.65.985.672.656 1.009 1.629 1.009 2.92v5.053h-2.56v-4.659c0-.7-.153-1.223-.459-1.567-.306-.345-.749-.517-1.329-.517-.645 0-1.159.2-1.542.599-.383.399-.574.992-.574 1.78v4.364h-2.559V69.07h2.444v1.033c.339-.372.76-.659 1.263-.861a4.39 4.39 0 0 1 1.657-.304Zm11.336 0c1.094 0 1.977.328 2.65.985.673.656 1.009 1.629 1.009 2.92v5.053h-2.559v-4.659c0-.7-.153-1.223-.46-1.567-.306-.345-.749-.517-1.329-.517-.645 0-1.159.2-1.542.599-.382.399-.574.992-.574 1.78v4.364h-2.559V69.07h2.444v1.033c.339-.372.76-.659 1.264-.861a4.385 4.385 0 0 1 1.656-.304Zm14.716 4.577c0 .033-.016.263-.049.689h-6.677c.12.547.405.979.853 1.296.448.318 1.006.476 1.673.476.46 0 .867-.068 1.223-.205a2.97 2.97 0 0 0 .992-.648l1.362 1.477c-.831.951-2.045 1.427-3.642 1.427-.995 0-1.876-.194-2.641-.582-.766-.389-1.357-.927-1.772-1.616-.416-.689-.624-1.471-.624-2.346 0-.864.205-1.644.616-2.338a4.304 4.304 0 0 1 1.689-1.624c.717-.389 1.518-.583 2.404-.583.864 0 1.646.186 2.346.558.7.372 1.249.905 1.648 1.6.4.694.599 1.501.599 2.419Zm-4.577-2.641c-.58 0-1.066.164-1.46.492-.394.328-.634.777-.722 1.346h4.348c-.088-.558-.328-1.004-.722-1.338-.394-.333-.875-.5-1.444-.5Zm10.549 7.153c-.941 0-1.786-.194-2.535-.582a4.366 4.366 0 0 1-1.755-1.616c-.421-.689-.632-1.471-.632-2.346s.211-1.657.632-2.346a4.36 4.36 0 0 1 1.755-1.616c.749-.389 1.594-.583 2.535-.583.93 0 1.742.194 2.436.583.695.388 1.2.943 1.518 1.665l-1.985 1.066c-.46-.809-1.121-1.214-1.986-1.214-.667 0-1.219.219-1.656.656-.438.438-.657 1.034-.657 1.789 0 .754.219 1.35.657 1.788.437.437.989.656 1.656.656.875 0 1.537-.405 1.986-1.214l1.985 1.083a3.521 3.521 0 0 1-1.518 1.64c-.694.394-1.506.591-2.436.591Zm11.254-.558c-.251.186-.56.326-.927.419a4.73 4.73 0 0 1-1.156.139c-1.05 0-1.862-.268-2.437-.804-.574-.536-.861-1.323-.861-2.362v-3.626h-1.362v-1.969h1.362v-2.149h2.559v2.149h2.199v1.969h-2.199v3.593c0 .372.096.659.287.861.192.202.463.304.813.304.404 0 .749-.11 1.033-.328l.689 1.804Zm2.576.558c-.449 0-.826-.153-1.132-.459a1.561 1.561 0 0 1-.46-1.149c0-.47.154-.85.46-1.14.306-.29.683-.435 1.132-.435.448 0 .826.145 1.132.435.306.29.459.67.459 1.14 0 .46-.153.842-.459 1.149a1.54 1.54 0 0 1-1.132.459Zm18.604-.131-.017-6.891-3.379 5.677h-1.198l-3.363-5.529v6.743h-2.494V66.412h2.199l4.298 7.136 4.233-7.136h2.182l.032 11.484h-2.493Zm8.596-8.958c1.367 0 2.417.326 3.15.976.733.651 1.099 1.633 1.099 2.945v5.037h-2.395v-1.099c-.481.82-1.378 1.23-2.69 1.23-.679 0-1.266-.115-1.764-.345-.498-.229-.878-.546-1.14-.951a2.473 2.473 0 0 1-.394-1.378c0-.82.309-1.466.927-1.936.618-.47 1.572-.705 2.863-.705h2.034c0-.558-.17-.988-.509-1.288-.339-.301-.847-.451-1.525-.451-.471 0-.933.073-1.387.221a3.67 3.67 0 0 0-1.156.599l-.919-1.788c.481-.339 1.058-.602 1.731-.788a7.75 7.75 0 0 1 2.075-.279Zm-.197 7.366c.438 0 .826-.101 1.165-.303.339-.202.58-.501.722-.894v-.903h-1.755c-1.05 0-1.575.345-1.575 1.034a.92.92 0 0 0 .385.779c.257.192.61.287 1.058.287Zm12.124-7.366c1.094 0 1.977.328 2.65.985.672.656 1.009 1.629 1.009 2.92v5.053h-2.56v-4.659c0-.7-.153-1.223-.459-1.567-.306-.345-.749-.517-1.329-.517-.645 0-1.159.2-1.542.599-.383.399-.574.992-.574 1.78v4.364h-2.56V69.07h2.445v1.033c.339-.372.76-.659 1.263-.861a4.39 4.39 0 0 1 1.657-.304Zm9.532 0c1.367 0 2.417.326 3.15.976.732.651 1.099 1.633 1.099 2.945v5.037h-2.395v-1.099c-.482.82-1.378 1.23-2.691 1.23-.678 0-1.266-.115-1.764-.345-.497-.229-.877-.546-1.14-.951a2.48 2.48 0 0 1-.393-1.378c0-.82.309-1.466.926-1.936.618-.47 1.573-.705 2.863-.705h2.035c0-.558-.17-.988-.509-1.288-.339-.301-.848-.451-1.526-.451-.47 0-.932.073-1.386.221a3.676 3.676 0 0 0-1.157.599l-.918-1.788c.481-.339 1.058-.602 1.73-.788a7.757 7.757 0 0 1 2.076-.279Zm-.197 7.366c.437 0 .826-.101 1.165-.303.339-.202.579-.501.722-.894v-.903h-1.756c-1.05 0-1.575.345-1.575 1.034a.92.92 0 0 0 .386.779c.257.192.609.287 1.058.287Zm15.962-7.234v7.349c0 1.619-.421 2.822-1.263 3.609-.842.788-2.072 1.182-3.691 1.182a9.226 9.226 0 0 1-2.428-.312c-.766-.208-1.4-.509-1.903-.902l1.017-1.838c.372.306.842.55 1.411.73a5.597 5.597 0 0 0 1.706.271c.886 0 1.54-.2 1.961-.599.421-.399.631-1.003.631-1.813v-.377c-.667.733-1.597 1.099-2.789 1.099a4.69 4.69 0 0 1-2.223-.533 4.066 4.066 0 0 1-1.599-1.501c-.394-.645-.591-1.389-.591-2.231 0-.842.197-1.586.591-2.231a4.069 4.069 0 0 1 1.599-1.502 4.69 4.69 0 0 1 2.223-.533c1.28 0 2.253.421 2.92 1.263V69.07h2.428Zm-4.839 6.299c.678 0 1.233-.199 1.665-.599.432-.399.648-.921.648-1.566 0-.646-.216-1.168-.648-1.567-.432-.399-.987-.599-1.665-.599s-1.236.2-1.674.599c-.437.399-.656.921-.656 1.567 0 .645.219 1.167.656 1.566.438.4.996.599 1.674.599Zm15.864-1.854c0 .033-.016.263-.049.689h-6.677c.12.547.404.979.853 1.296.448.318 1.006.476 1.673.476.46 0 .867-.068 1.222-.205.356-.137.687-.353.993-.648l1.362 1.477c-.832.951-2.046 1.427-3.642 1.427-.996 0-1.876-.194-2.642-.582-.765-.389-1.356-.927-1.772-1.616-.415-.689-.623-1.471-.623-2.346 0-.864.205-1.644.615-2.338a4.306 4.306 0 0 1 1.69-1.624c.716-.389 1.518-.583 2.403-.583.865 0 1.647.186 2.346.558.7.372 1.25.905 1.649 1.6.399.694.599 1.501.599 2.419Zm-4.577-2.641c-.58 0-1.066.164-1.46.492-.394.328-.635.777-.722 1.346h4.347c-.087-.558-.328-1.004-.721-1.338-.394-.333-.875-.5-1.444-.5Zm7.251 7.153a1.54 1.54 0 0 1-1.132-.459c-.306-.307-.459-.689-.459-1.149 0-.47.153-.85.459-1.14.306-.29.684-.435 1.132-.435.449 0 .826.145 1.132.435.306.29.459.67.459 1.14 0 .46-.153.842-.459 1.149a1.538 1.538 0 0 1-1.132.459Zm15.914-6.054h2.428v4.659a6.922 6.922 0 0 1-2.166 1.083 8.392 8.392 0 0 1-2.477.378c-1.192 0-2.264-.255-3.216-.763a5.679 5.679 0 0 1-2.239-2.117c-.541-.902-.812-1.922-.812-3.059 0-1.138.271-2.158.812-3.06a5.643 5.643 0 0 1 2.256-2.116c.962-.509 2.045-.763 3.248-.763 1.006 0 1.919.169 2.74.509.82.339 1.509.831 2.067 1.476l-1.706 1.575c-.821-.864-1.81-1.296-2.97-1.296-.733 0-1.383.153-1.952.459a3.296 3.296 0 0 0-1.329 1.296c-.317.558-.476 1.198-.476 1.92 0 .711.159 1.345.476 1.903.317.558.758.992 1.321 1.304.563.312 1.206.468 1.927.468.766 0 1.455-.164 2.068-.493v-3.363Zm7.152-1.739a2.86 2.86 0 0 1 1.239-.968c.52-.218 1.118-.328 1.796-.328v2.363a9.143 9.143 0 0 0-.574-.033c-.733 0-1.307.205-1.722.615-.416.41-.624 1.025-.624 1.846v4.167h-2.559V69.07h2.444v1.164Zm8.679 7.793c-.93 0-1.764-.194-2.502-.582a4.34 4.34 0 0 1-1.731-1.616c-.415-.689-.623-1.471-.623-2.346s.208-1.657.623-2.346a4.333 4.333 0 0 1 1.731-1.616c.738-.389 1.572-.583 2.502-.583.93 0 1.761.194 2.494.583a4.341 4.341 0 0 1 1.722 1.616c.416.689.624 1.471.624 2.346s-.208 1.657-.624 2.346a4.348 4.348 0 0 1-1.722 1.616c-.733.388-1.564.582-2.494.582Zm0-2.1c.656 0 1.195-.221 1.616-.664.421-.443.632-1.037.632-1.78 0-.744-.211-1.337-.632-1.78-.421-.443-.96-.665-1.616-.665-.656 0-1.198.222-1.624.665-.427.443-.64 1.036-.64 1.78 0 .743.213 1.337.64 1.78.426.443.968.664 1.624.664Zm20.474-6.857-3.199 8.826h-2.461l-1.985-5.48-2.051 5.48h-2.46l-3.183-8.826h2.412l2.083 5.971 2.166-5.971h2.165l2.1 5.971 2.149-5.971h2.264Zm1.641 8.957c-.449 0-.826-.153-1.132-.459-.307-.307-.46-.689-.46-1.149 0-.47.153-.85.46-1.14.306-.29.683-.435 1.132-.435.448 0 .825.145 1.132.435.306.29.459.67.459 1.14 0 .46-.153.842-.459 1.149a1.54 1.54 0 0 1-1.132.459Z" style="fill:#191919;fill-rule:nonzero"/><path d="M99.056 64.02c-4.435 0-8.74-.548-12.914-1.644-4.174-1.096-7.565-2.557-10.174-4.383l5.087-11.426c2.452 1.617 5.296 2.922 8.531 3.913 3.235.991 6.417 1.487 9.548 1.487 5.948 0 8.922-1.487 8.922-4.461 0-1.565-.848-2.726-2.544-3.483-1.695-.756-4.422-1.552-8.178-2.387-4.122-.887-7.566-1.839-10.331-2.856-2.765-1.018-5.139-2.648-7.122-4.892-1.983-2.243-2.974-5.27-2.974-9.078 0-3.34.913-6.353 2.739-9.04 1.826-2.687 4.553-4.813 8.179-6.378 3.626-1.566 8.074-2.348 13.344-2.348 3.6 0 7.148.404 10.644 1.213 3.495.809 6.574 1.996 9.235 3.561l-4.774 11.505c-5.218-2.818-10.279-4.227-15.184-4.227-3.078 0-5.321.457-6.73 1.37-1.409.913-2.113 2.1-2.113 3.561 0 1.461.834 2.557 2.504 3.287s4.357 1.487 8.061 2.27c4.174.887 7.631 1.839 10.37 2.856 2.739 1.018 5.113 2.635 7.122 4.853 2.009 2.217 3.013 5.23 3.013 9.039 0 3.287-.913 6.261-2.739 8.922-1.826 2.661-4.565 4.787-8.218 6.379-3.652 1.591-8.087 2.387-13.304 2.387Zm58.306-44.219c5.27 0 9.509 1.565 12.718 4.696 3.209 3.13 4.813 7.852 4.813 14.165v24.262h-14.87V41.088c0-5.791-2.322-8.687-6.966-8.687-2.556 0-4.604.835-6.143 2.505-1.539 1.669-2.309 4.174-2.309 7.513v20.505h-14.87V4.852h14.87v19.566c1.617-1.513 3.522-2.661 5.713-3.443 2.192-.783 4.54-1.174 7.044-1.174Zm48.758 43.827c-4.539 0-8.635-.939-12.287-2.817-3.652-1.879-6.509-4.487-8.57-7.827-2.061-3.339-3.091-7.122-3.091-11.348 0-4.174 1.03-7.93 3.091-11.27 2.061-3.339 4.904-5.935 8.531-7.787 3.626-1.852 7.735-2.778 12.326-2.778 4.592 0 8.714.926 12.366 2.778 3.652 1.852 6.496 4.435 8.531 7.748 2.034 3.313 3.052 7.083 3.052 11.309 0 4.226-1.018 8.009-3.052 11.348-2.035 3.34-4.879 5.948-8.531 7.827-3.652 1.878-7.774 2.817-12.366 2.817Zm0-11.818c2.609 0 4.748-.9 6.418-2.7 1.669-1.8 2.504-4.291 2.504-7.474 0-3.13-.835-5.583-2.504-7.357-1.67-1.774-3.809-2.661-6.418-2.661s-4.748.887-6.417 2.661c-1.67 1.774-2.505 4.227-2.505 7.357 0 3.183.835 5.674 2.505 7.474 1.669 1.8 3.808 2.7 6.417 2.7Zm57.524-32.009c3.861 0 7.37.9 10.526 2.7 3.157 1.8 5.661 4.356 7.514 7.67 1.852 3.313 2.778 7.161 2.778 11.543 0 4.383-.926 8.231-2.778 11.544-1.853 3.314-4.357 5.87-7.514 7.67-3.156 1.8-6.665 2.7-10.526 2.7-4.957 0-8.896-1.487-11.818-4.461v18.94h-14.87V20.505h14.166v4.226c2.765-3.287 6.939-4.93 12.522-4.93Zm-3.131 32.009c2.609 0 4.748-.9 6.418-2.7 1.67-1.8 2.504-4.265 2.504-7.396 0-3.13-.834-5.595-2.504-7.395-1.67-1.8-3.809-2.701-6.418-2.701-2.608 0-4.748.901-6.417 2.701-1.67 1.8-2.505 4.265-2.505 7.395 0 3.131.835 5.596 2.505 7.396 1.669 1.8 3.809 2.7 6.417 2.7Zm31.541-43.671h15.496v42.498h26.14v12.287h-41.636V8.139Zm47.036 12.366h14.87v42.419h-14.87V20.505Zm7.435-4.696c-2.713 0-4.904-.756-6.574-2.269-1.67-1.513-2.504-3.392-2.504-5.635 0-2.244.834-4.122 2.504-5.635S343.812 0 346.525 0c2.713 0 4.905.717 6.574 2.152 1.67 1.435 2.505 3.274 2.505 5.518 0 2.348-.835 4.291-2.505 5.83-1.669 1.54-3.861 2.309-6.574 2.309Zm44.689 3.992c5.269 0 9.509 1.565 12.717 4.696 3.209 3.13 4.814 7.852 4.814 14.165v24.262h-14.87V41.088c0-5.791-2.322-8.687-6.966-8.687-2.557 0-4.604.835-6.144 2.505-1.539 1.669-2.308 4.174-2.308 7.513v20.505h-14.87V20.505h14.165v4.618c1.67-1.722 3.653-3.04 5.948-3.953 2.296-.913 4.8-1.369 7.514-1.369Zm46.097 28.253-4.383 4.461v10.409h-14.87V4.852h14.87v30.445l15.183-14.792h17.61l-17.61 18.157 19.097 24.262h-18.001l-11.896-14.87Zm48.445-22.462c1.513-1.93 3.483-3.378 5.909-4.343 2.426-.966 5.204-1.448 8.335-1.448v13.383c-1.357-.157-2.478-.235-3.365-.235-3.183 0-5.674.861-7.475 2.583-1.8 1.721-2.7 4.356-2.7 7.904v19.488h-14.87V20.505h14.166v5.087Z" style="fill:#e8b679;fill-rule:nonzero"/><path style="fill:#e8b679" d="M0 26.036h18.992v18.992H0zM18.992 7.044h18.992v18.992H18.992z"/><path style="fill:#e8b679;fill-opacity:.75" d="M0 45.028h18.992V64.02H0zM37.984 7.044h18.992v18.992H37.984z"/><path style="fill:#e8b679" d="M18.992 45.028h18.992V64.02H18.992zm18.992-18.992h18.992v18.992H37.984z"/></svg>
