<svg xmlns="http://www.w3.org/2000/svg" viewBox="0 0 480 300" style="enable-background:new 0 0 480 300" xml:space="preserve"><path d="M112.72 110.49c-.09-.63-.63-.97-1.09-1.01-.45-.04-10.02-.75-10.02-.75s-6.64-6.6-7.37-7.33-2.15-.51-2.71-.35c-.08.02-1.45.45-3.72 1.15-2.22-6.39-6.14-12.26-13.03-12.26-.19 0-.39.01-.58.02-1.96-2.59-4.39-3.72-6.48-3.72-16.05 0-23.72 20.07-26.13 30.27-6.24 1.93-10.67 3.31-11.24 3.48-3.48 1.09-3.59 1.2-4.05 4.48-.35 2.48-9.46 72.94-9.46 72.94l71 13.3 38.47-8.32c0 .02-13.51-91.27-13.59-91.9zm-28.84-7.07-6.01 1.86v-1.3c0-3.97-.55-7.17-1.43-9.7 3.56.45 5.92 4.49 7.44 9.14zm-11.84-8.35c.99 2.47 1.63 6.02 1.63 10.82v.7c-3.91 1.21-8.15 2.52-12.41 3.84 2.39-9.22 6.87-13.68 10.78-15.36zm-4.77-4.51c.69 0 1.39.23 2.06.69-5.15 2.42-10.66 8.52-12.99 20.7-3.4 1.05-6.73 2.08-9.81 3.04 2.73-9.29 9.21-24.43 20.74-24.43z" style="fill:#95bf47"/><path d="M111.63 109.48c-.45-.04-10.02-.75-10.02-.75s-6.64-6.6-7.37-7.33c-.27-.27-.64-.41-1.03-.47l-5.37 109.8 38.46-8.32s-13.5-91.3-13.59-91.92c-.08-.62-.63-.97-1.08-1.01z" style="fill:#5e8e3e"/><path d="m74.78 130.74-4.74 14.11s-4.16-2.22-9.25-2.22c-7.47 0-7.84 4.69-7.84 5.87 0 6.44 16.8 8.91 16.8 24.01 0 11.88-7.53 19.52-17.69 19.52-12.19 0-18.42-7.58-18.42-7.58l3.26-10.78s6.41 5.5 11.81 5.5c3.53 0 4.97-2.78 4.97-4.81 0-8.41-13.78-8.78-13.78-22.59 0-11.62 8.34-22.88 25.19-22.88 6.48-.01 9.69 1.85 9.69 1.85z" style="fill:#fff"/><path d="M171.15 157.19c-3.84-2.08-5.81-3.84-5.81-6.25 0-3.07 2.74-5.04 7.02-5.04 4.98 0 9.43 2.08 9.43 2.08l3.51-10.74s-3.23-2.52-12.71-2.52c-13.21 0-22.36 7.56-22.36 18.2 0 6.03 4.27 10.63 9.97 13.92 4.6 2.63 6.25 4.49 6.25 7.23 0 2.85-2.3 5.15-6.58 5.15-6.37 0-12.39-3.29-12.39-3.29l-3.73 10.74s5.56 3.73 14.91 3.73c13.59 0 23.35-6.69 23.35-18.74-.01-6.47-4.94-11.08-10.86-14.47zm54.15-22.58c-6.69 0-11.95 3.18-16 8l-.22-.11 5.81-30.36h-15.13l-14.69 77.28h15.13l5.04-26.42c1.97-9.97 7.12-16.11 11.95-16.11 3.4 0 4.71 2.3 4.71 5.59 0 2.08-.22 4.6-.66 6.69l-5.7 30.25h15.13l5.92-31.24c.66-3.29 1.1-7.23 1.1-9.87-.01-8.55-4.5-13.7-12.39-13.7zm46.58 0c-18.2 0-30.25 16.44-30.25 34.75 0 11.73 7.23 21.15 20.83 21.15 17.87 0 29.92-16 29.92-34.75 0-10.85-6.36-21.15-20.5-21.15zm-7.45 44.28c-5.15 0-7.34-4.38-7.34-9.86 0-8.66 4.49-22.8 12.71-22.8 5.37 0 7.12 4.6 7.12 9.1.01 9.31-4.49 23.56-12.49 23.56zm66.64-44.28c-10.21 0-16 8.99-16 8.99h-.22l.88-8.11h-13.37c-.66 5.48-1.86 13.81-3.07 20.06l-10.52 55.35h15.13l4.16-22.36h.33s3.11 1.97 8.88 1.97c17.76 0 29.38-18.2 29.38-36.61-.01-10.2-4.5-19.29-15.58-19.29zm-14.46 44.5c-3.93 0-6.25-2.19-6.25-2.19l2.52-14.14c1.75-9.43 6.69-15.67 11.95-15.67 4.6 0 6.03 4.27 6.03 8.33 0 9.75-5.81 23.67-14.25 23.67zm51.62-66.21c-4.82 0-8.66 3.84-8.66 8.77 0 4.49 2.85 7.56 7.12 7.56h.22c4.71 0 8.77-3.18 8.88-8.77.01-4.38-2.95-7.56-7.56-7.56zm-21.15 76.51h15.13l10.3-53.6h-15.24zm63.9-53.71h-10.52l.55-2.52c.88-5.15 3.95-9.76 8.99-9.76 2.69 0 4.82.77 4.82.77l2.96-11.84s-2.63-1.32-8.22-1.32c-5.37 0-10.74 1.53-14.8 5.04-5.15 4.38-7.56 10.74-8.77 17.1l-.44 2.52h-7.02l-2.19 11.4h7.02l-8 42.31h15.13l8-42.31h10.41l2.08-11.39zm36.39.11s-9.46 23.82-13.7 36.83h-.22c-.29-4.19-3.73-36.83-3.73-36.83h-15.89l9.1 49.22c.22 1.1.11 1.75-.33 2.52-1.75 3.4-4.71 6.69-8.22 9.1-2.85 2.08-6.03 3.4-8.55 4.28l4.16 12.83c3.07-.66 9.43-3.18 14.8-8.22 6.91-6.47 13.26-16.44 19.84-30.03l18.52-39.68h-15.78v-.02z"/></svg>
