<svg xmlns="http://www.w3.org/2000/svg" version="1.1" id="Layer_1" x="0" y="0" viewBox="0 0 150 150" style="enable-background:new 0 0 150 150" xml:space="preserve"><style>.st0{fill:#0f5c47}.st2{fill:#ec5354}.st3{fill:#f16322}.st4{fill:#0000a4}.st5{fill:#fff}.st7{fill:#a0dbe8}.st8{fill:#525353}.st9{fill:#aa9678}.st10{fill:#c0b098}.st11{fill:#786453}.st12{fill:#8b7460}.st13{fill:none}.st14{fill:#bbbcbd}.st15{fill:#676a6a}.st16{fill:#909393}.st17{fill:#e2dddb}.st18{fill:#fbb040}.st19{fill:#9f2255}.st20{fill:#e2066f}</style><circle cx="75" cy="75" r="72.5" style="fill:#9c5c8f"/><path d="M64.2 52.6c1.8-1.9 5.2-1.3 6.5.9.7 1.1.8 2.6.2 3.8-2.5 4.9-3.5 10.3-4.5 15.7-1.1 7-2.1 14-1.7 21.1.1 1.8-.8 4-2.7 4.4-1.8.4-3.5-.8-4.7-2.1-5.3-5.7-8.2-13-10.4-20.3-2.2 4.3-4.3 8.6-6.5 12.9-1.5 2.9-3 5.9-5.4 8.2-1 1-2.7 1.9-4 .9-1.9-1.7-2.4-4.4-3.2-6.7-3.1-10.7-4.9-21.8-6.7-32.8-.4-1.8.4-4 2.2-4.8 1.5-.6 3.4-.6 4.6.5.9.8 1.1 2 1.3 3.1 1.3 8.5 2.8 17 4.8 25.4 3.5-6.7 7-13.4 10.5-20 .5-1 1.1-2 2.1-2.6 1.3-.8 3.2-.8 4.3.4.9.9 1.2 2.3 1.5 3.5 1 5.5 2.5 11 4.5 16.2.9-7.9 2-15.9 4.9-23.3.8-1.6 1.4-3.2 2.4-4.4zM84 56.8c3.8-.5 7.9.8 10.5 3.7 2.1 2.4 3.3 5.5 3.7 8.6.6 5.3-.3 10.9-2.9 15.7-1.5 2.7-3.4 5.3-6 6.9-3.9 2.4-9.2 2.1-13-.4-3-2.1-4.7-5.6-5.4-9.1-1.4-8 1-16.9 7-22.5 1.7-1.6 3.8-2.6 6.1-2.9zm.8 8.2c-1.8.6-3 2.3-4 3.8-2.5 4-3.2 9.2-1.2 13.5.5 1.1 1.4 2.3 2.7 2.6 1.4.2 2.7-.6 3.7-1.4 2.2-1.9 3.4-4.8 3.9-7.6.6-3.2.3-6.8-1.6-9.6-.7-1.2-2.2-1.7-3.5-1.3zm29.6-8.2c3.7-.5 7.7.7 10.3 3.5 2.3 2.5 3.6 5.9 3.9 9.2.5 5.2-.4 10.5-2.9 15.1-1.5 2.8-3.4 5.5-6.2 7.1-3.8 2.3-8.8 2.1-12.5-.2-2.5-1.5-4.2-4.1-5.2-6.9-2.6-8.4-.4-18.2 5.7-24.5 2-1.7 4.4-3 6.9-3.3zm.8 8.2c-2 .7-3.2 2.6-4.2 4.3-2.2 3.9-2.8 9-.8 13.2.5 1.1 1.5 2.3 2.9 2.4 1.5.1 2.8-.9 3.8-1.9 2.3-2.2 3.3-5.4 3.6-8.5.4-2.9-.1-6-1.8-8.4-.7-1.1-2.2-1.5-3.5-1.1z" style="fill-rule:evenodd;clip-rule:evenodd;fill:#fff"/></svg>
