<svg xmlns="http://www.w3.org/2000/svg" viewBox="0 0 760 300" style="enable-background:new 0 0 760 300" xml:space="preserve"><path d="M28.77 92.34c3.28-7.94 11.51-13.55 20.13-13.53 64.85-.02 129.71.01 194.56-.02 5.63-.13 11.26 1.97 15.41 5.77 4.75 4.25 7.46 10.61 7.33 16.98-.02 24.86.05 49.71-.03 74.57-.05 11.23-9.86 21.26-21.09 21.57-23.65.1-47.31.01-70.97.05 3.18 7.83 6.39 15.65 9.57 23.49-14.09-7.76-28.04-15.79-42.21-23.39-31.11-.27-62.25.02-93.37-.16-11.21-.31-20.99-10.33-21.05-21.54-.09-24.34 0-48.68-.05-73.02-.07-3.66.27-7.39 1.77-10.77z" style="fill-rule:evenodd;clip-rule:evenodd;fill:#9c5c8f"/><path d="M123.9 94.15c3.59-3.82 10.41-2.58 13.06 1.74 1.44 2.27 1.56 5.3.41 7.71-5 9.83-7.08 20.78-9.01 31.54-2.28 14.03-4.17 28.25-3.43 42.5.2 3.63-1.55 8.04-5.45 8.89-3.69.82-7.04-1.59-9.36-4.2-10.59-11.39-16.58-26.15-20.91-40.87-4.37 8.62-8.75 17.24-12.99 25.94-2.97 5.88-6.1 11.87-10.83 16.54-2 1.98-5.38 3.78-7.96 1.74-3.88-3.4-4.84-8.81-6.49-13.46-6.25-21.57-9.8-43.79-13.43-65.91-.83-3.69.71-8.1 4.39-9.58 2.97-1.11 6.78-1.27 9.31.92 1.77 1.58 2.25 4.02 2.58 6.24 2.55 17.13 5.59 34.2 9.72 51.02 7.08-13.43 14.13-26.88 21.19-40.33 1.05-1.97 2.31-3.95 4.24-5.17 2.58-1.66 6.41-1.54 8.57.78 1.81 1.9 2.42 4.54 2.92 7.04 2.11 11.12 4.97 22.12 9.12 32.66 1.79-15.88 3.98-31.95 9.77-46.94 1.31-3.04 2.46-6.23 4.58-8.8zm39.82 8.5c7.63-.93 15.85 1.6 21.05 7.4 4.24 4.79 6.61 11.01 7.41 17.31 1.29 10.76-.64 21.95-5.82 31.5-2.93 5.44-6.75 10.66-12.15 13.86-7.91 4.8-18.51 4.21-26.16-.86-6.1-4.18-9.53-11.3-10.93-18.4-2.81-16.07 1.99-33.98 14.16-45.19 3.5-3.02 7.85-5.06 12.44-5.62zm1.59 16.53c-3.66 1.22-5.98 4.57-7.95 7.7-4.93 7.95-6.36 18.43-2.39 27.07 1.04 2.27 2.72 4.67 5.37 5.15 2.81.46 5.42-1.15 7.47-2.89 4.51-3.87 6.75-9.68 7.85-15.38 1.22-6.5.6-13.69-3.22-19.25-1.53-2.28-4.54-3.31-7.13-2.4zm59.59-16.51c7.45-.93 15.54 1.37 20.76 6.94 4.67 5.04 7.19 11.78 7.91 18.55 1.1 10.4-.82 21.16-5.75 30.41-2.97 5.59-6.88 10.98-12.43 14.23-7.59 4.55-17.62 4.13-25.14-.35-5.08-3.06-8.46-8.28-10.41-13.78-5.33-16.8-.83-36.56 11.46-49.24 3.68-3.6 8.46-6.12 13.6-6.76zm1.62 16.54c-4 1.43-6.4 5.25-8.48 8.72-4.5 7.94-5.61 18.16-1.54 26.5 1.1 2.31 3.04 4.63 5.8 4.75 3 .11 5.58-1.79 7.66-3.75 4.53-4.46 6.6-10.84 7.32-17.03.75-5.8-.22-12.03-3.59-16.89-1.55-2.27-4.59-3.24-7.17-2.3z" style="fill-rule:evenodd;clip-rule:evenodd;fill:#fff"/><path d="M306.48 104.87c6.5-1.44 13.34-1.24 19.82.27.02 5.3 0 10.59.02 15.89-5.31-1.28-11.25-2.48-16.4.01-6.16 3.01-9.52 9.96-9.59 16.62-.35 6.64 1.87 14.04 7.75 17.78 5.41 3.58 12.31 2.82 18.24 1.11-.02 5.3 0 10.59-.02 15.89-7.84 2.28-16.42 1.99-24.08-.86-9.19-3.45-16.51-11.39-19.31-20.8-2.12-7.14-2.39-14.87-.67-22.13 2.76-11.64 12.59-21.18 24.24-23.78zm47.79-.78c8-.89 16.71.34 23.17 5.47 6.24 4.84 9.35 12.65 10.43 20.27 1.1 8.35.86 17.03-1.73 25.1-2.2 6.85-6.79 13.18-13.41 16.29-6.73 3.17-14.58 3.38-21.74 1.77-6.64-1.49-12.48-5.89-15.78-11.83-4.56-8.01-5.39-17.52-5.04-26.56.38-7.8 2.35-15.93 7.59-21.93 4.13-4.89 10.22-7.87 16.51-8.58zm2.47 15.19c-3.44.87-5.38 4.26-6.24 7.45-1.7 6.32-1.41 12.96-.98 19.42.42 3.49.79 7.35 3.28 10.07 3.3 3.76 9.94 3.25 12.98-.6 2.01-2.46 2.53-5.71 2.99-8.75.64-5.44.81-10.98-.02-16.41-.58-3.26-1.48-6.69-3.88-9.12-2.07-2.13-5.32-2.78-8.13-2.06zm313.83-14.13c6.79-1.78 13.99-1.52 20.83-.06.16 5.31.03 10.63.07 15.94-5.2-1.25-10.94-2.42-16.04-.17-5.85 2.67-9.4 8.94-9.85 15.21-.72 7.03 1.22 15.11 7.41 19.22 5.43 3.73 12.47 3 18.47 1.26-.07 5.33.16 10.68-.13 16-8.36 2.17-17.47 1.88-25.44-1.58-8.75-3.81-15.54-11.72-18.06-20.91-1.93-7.06-2.15-14.65-.37-21.77 2.8-11.12 12.05-20.25 23.11-23.14zm-272.13.52c7.56-.02 15.13-.02 22.7 0 2.74 12.27 5.34 24.58 7.62 36.94 2.17-12.42 5.08-24.69 8-36.94 7.76-.02 15.52-.01 23.28-.01 3.01 22.21 6.01 44.42 9 66.63-5.94.01-11.87.01-17.81 0-1.65-15.21-3.11-30.44-4.85-45.64-3.6 15.23-7.4 30.42-11.07 45.64-4.05.02-8.1.01-12.15 0-3.88-15.23-7.7-30.49-11.62-45.72-1.53 15.24-3.04 30.49-4.59 45.73-5.67-.01-11.35.01-17.02-.01 2.83-22.2 5.68-44.41 8.51-66.62zm81.43 0c7.57.01 15.14-.02 22.72.01 2.73 12.25 5.31 24.54 7.6 36.89 2.2-12.4 5.08-24.66 8.01-36.9h23.19c3 22.21 6 44.42 8.99 66.63-5.93.02-11.86-.01-17.79.02-1.65-15.22-3.19-30.44-4.81-45.66-3.7 15.21-7.33 30.44-11.04 45.65-4.05-.01-8.09 0-12.13 0-3.88-15.25-7.74-30.51-11.62-45.77-1.55 15.25-3.05 30.51-4.6 45.76-5.68.01-11.35.01-17.03 0 2.84-22.21 5.68-44.42 8.51-66.63zm75.58.22c12.15-.27 24.32-.04 36.48-.12.02 4.73-.02 9.45.02 14.18-6.13.07-12.27.01-18.4.04-.01 4.06-.01 8.13 0 12.19 5.31.02 10.62 0 15.93.01 0 4.61.01 9.2 0 13.8-5.31.01-10.62-.01-15.93.01-.01 4.06-.01 8.14 0 12.2 6.16.02 12.32 0 18.48.01 0 4.73.01 9.46 0 14.19-12.16.01-24.32.01-36.47 0-.08-22.17.14-44.35-.11-66.51zm41.74-.22c7.61.03 15.22-.06 22.83.05 7.17.23 14.77 2.02 20.12 7.09 4.83 4.5 6.5 11.83 4.63 18.08-1.48 5.08-5.3 9.21-10.06 11.44 4.76 10 9.57 19.97 14.33 29.97-6.33.01-12.66 0-18.98.01-4.97-10.2-9.77-20.48-14.8-30.65-.13 10.21-.02 20.43-.05 30.64-6.01.01-12.01.01-18.01 0-.02-22.21-.02-44.42-.01-66.63zm17.92 12.81c-.02 5.3-.02 10.6 0 15.9 3.26-.23 6.79-.35 9.56-2.32 3.19-2.3 2.84-7.22.83-10.18-2.48-3.05-6.8-3.11-10.39-3.4zm81.4-12.8c12.14-.03 24.27 0 36.41-.02.01 4.74 0 9.48 0 14.22-6.16.01-12.32 0-18.47.01-.01 4.06-.01 8.11-.01 12.18 5.31.02 10.62-.01 15.93.01 0 4.61.01 9.22 0 13.82h-15.92c-.02 4.06-.02 8.13-.01 12.2 6.18.02 12.36 0 18.55.01 0 4.73 0 9.46-.01 14.2-12.15 0-24.31 0-36.46-.01-.02-22.21.01-44.42-.01-66.62z" style="fill-rule:evenodd;clip-rule:evenodd"/></svg>
